G04 #@! TF.GenerationSoftware,KiCad,Pcbnew,(6.0.4-0)*
G04 #@! TF.CreationDate,2022-05-15T19:59:01-07:00*
G04 #@! TF.ProjectId,split_3x,73706c69-745f-4337-982e-6b696361645f,rev?*
G04 #@! TF.SameCoordinates,Original*
G04 #@! TF.FileFunction,Soldermask,Top*
G04 #@! TF.FilePolarity,Negative*
%FSLAX46Y46*%
G04 Gerber Fmt 4.6, Leading zero omitted, Abs format (unit mm)*
G04 Created by KiCad (PCBNEW (6.0.4-0)) date 2022-05-15 19:59:01*
%MOMM*%
%LPD*%
G01*
G04 APERTURE LIST*
G04 Aperture macros list*
%AMRoundRect*
0 Rectangle with rounded corners*
0 $1 Rounding radius*
0 $2 $3 $4 $5 $6 $7 $8 $9 X,Y pos of 4 corners*
0 Add a 4 corners polygon primitive as box body*
4,1,4,$2,$3,$4,$5,$6,$7,$8,$9,$2,$3,0*
0 Add four circle primitives for the rounded corners*
1,1,$1+$1,$2,$3*
1,1,$1+$1,$4,$5*
1,1,$1+$1,$6,$7*
1,1,$1+$1,$8,$9*
0 Add four rect primitives between the rounded corners*
20,1,$1+$1,$2,$3,$4,$5,0*
20,1,$1+$1,$4,$5,$6,$7,0*
20,1,$1+$1,$6,$7,$8,$9,0*
20,1,$1+$1,$8,$9,$2,$3,0*%
%AMHorizOval*
0 Thick line with rounded ends*
0 $1 width*
0 $2 $3 position (X,Y) of the first rounded end (center of the circle)*
0 $4 $5 position (X,Y) of the second rounded end (center of the circle)*
0 Add line between two ends*
20,1,$1,$2,$3,$4,$5,0*
0 Add two circle primitives to create the rounded ends*
1,1,$1,$2,$3*
1,1,$1,$4,$5*%
%AMRotRect*
0 Rectangle, with rotation*
0 The origin of the aperture is its center*
0 $1 length*
0 $2 width*
0 $3 Rotation angle, in degrees counterclockwise*
0 Add horizontal line*
21,1,$1,$2,0,0,$3*%
%AMFreePoly0*
4,1,22,0.500000,-0.750000,0.000000,-0.750000,0.000000,-0.745033,-0.079941,-0.743568,-0.215256,-0.701293,-0.333266,-0.622738,-0.424486,-0.514219,-0.481581,-0.384460,-0.499164,-0.250000,-0.500000,-0.250000,-0.500000,0.250000,-0.499164,0.250000,-0.499963,0.256109,-0.478152,0.396186,-0.417904,0.524511,-0.324060,0.630769,-0.204165,0.706417,-0.067858,0.745374,0.000000,0.744959,0.000000,0.750000,
0.500000,0.750000,0.500000,-0.750000,0.500000,-0.750000,$1*%
%AMFreePoly1*
4,1,20,0.000000,0.744959,0.073905,0.744508,0.209726,0.703889,0.328688,0.626782,0.421226,0.519385,0.479903,0.390333,0.500000,0.250000,0.500000,-0.250000,0.499851,-0.262216,0.476331,-0.402017,0.414519,-0.529596,0.319384,-0.634700,0.198574,-0.708877,0.061801,-0.746166,0.000000,-0.745033,0.000000,-0.750000,-0.500000,-0.750000,-0.500000,0.750000,0.000000,0.750000,0.000000,0.744959,
0.000000,0.744959,$1*%
G04 Aperture macros list end*
%ADD10C,0.010000*%
%ADD11O,2.000000X1.600000*%
%ADD12R,1.200000X1.200000*%
%ADD13FreePoly0,0.000000*%
%ADD14FreePoly1,0.000000*%
%ADD15C,2.100000*%
%ADD16C,1.900000*%
%ADD17C,4.000000*%
%ADD18C,2.200000*%
%ADD19RoundRect,0.249998X0.262502X0.450002X-0.262502X0.450002X-0.262502X-0.450002X0.262502X-0.450002X0*%
%ADD20R,1.000000X1.700000*%
%ADD21C,1.524000*%
%ADD22C,0.700000*%
%ADD23C,4.400000*%
%ADD24RotRect,2.000000X2.000000X330.000000*%
%ADD25C,2.000000*%
%ADD26RotRect,2.000000X2.000000X350.000000*%
%ADD27C,5.000000*%
%ADD28C,1.500000*%
%ADD29HorizOval,1.600000X-0.295442X0.052094X0.295442X-0.052094X0*%
%ADD30RotRect,0.899160X1.501140X310.000000*%
%ADD31RotRect,0.899160X1.501140X340.000000*%
%ADD32RotRect,0.899160X1.501140X60.000000*%
%ADD33R,1.501140X0.899160*%
%ADD34RotRect,0.899160X1.501140X210.000000*%
%ADD35R,1.350000X1.350000*%
%ADD36O,1.350000X1.350000*%
%ADD37R,1.000000X0.600000*%
%ADD38R,1.100000X0.600000*%
%ADD39R,0.600000X1.000000*%
%ADD40RoundRect,0.425000X0.759451X-0.243895X-0.108313X0.790265X-0.759451X0.243895X0.108313X-0.790265X0*%
%ADD41RoundRect,0.425000X0.108313X-0.790265X0.759451X-0.243895X-0.108313X0.790265X-0.759451X0.243895X0*%
%ADD42HorizOval,3.300000X-0.160697X0.191511X0.160697X-0.191511X0*%
G04 APERTURE END LIST*
G04 #@! TO.C,G\u002A\u002A\u002A*
G36*
X126179168Y-104279006D02*
G01*
X126197925Y-104280985D01*
X126245178Y-104288092D01*
X126305915Y-104299153D01*
X126368948Y-104312092D01*
X126385250Y-104315716D01*
X126441962Y-104328560D01*
X126494512Y-104340432D01*
X126534218Y-104349372D01*
X126544000Y-104351563D01*
X126637689Y-104373613D01*
X126748896Y-104401662D01*
X126870941Y-104433979D01*
X126997149Y-104468830D01*
X127007550Y-104471768D01*
X127063880Y-104487648D01*
X127116162Y-104502284D01*
X127155893Y-104513301D01*
X127166300Y-104516143D01*
X127291351Y-104552407D01*
X127433264Y-104597667D01*
X127586096Y-104649742D01*
X127743900Y-104706450D01*
X127900731Y-104765610D01*
X128050644Y-104825038D01*
X128187694Y-104882555D01*
X128290250Y-104928599D01*
X128686653Y-105124918D01*
X129064407Y-105335405D01*
X129426138Y-105561904D01*
X129774472Y-105806259D01*
X130112037Y-106070313D01*
X130441459Y-106355909D01*
X130765367Y-106664890D01*
X130766750Y-106666270D01*
X130835945Y-106735676D01*
X130902086Y-106802657D01*
X130962179Y-106864134D01*
X131013231Y-106917025D01*
X131052246Y-106958247D01*
X131076230Y-106984722D01*
X131076397Y-106984917D01*
X131114376Y-107028781D01*
X131154187Y-107073857D01*
X131178527Y-107100850D01*
X131229117Y-107158063D01*
X131291107Y-107231240D01*
X131360847Y-107315882D01*
X131434692Y-107407489D01*
X131508992Y-107501561D01*
X131580102Y-107593598D01*
X131610944Y-107634289D01*
X131872959Y-108002126D01*
X132114563Y-108382647D01*
X132337486Y-108778651D01*
X132437884Y-108974100D01*
X132477208Y-109053650D01*
X132513804Y-109128935D01*
X132546074Y-109196550D01*
X132572418Y-109253092D01*
X132591237Y-109295155D01*
X132600933Y-109319335D01*
X132601900Y-109323320D01*
X132606720Y-109336965D01*
X132619292Y-109366918D01*
X132634964Y-109402377D01*
X132658111Y-109453903D01*
X132675113Y-109492495D01*
X132689688Y-109526985D01*
X132705555Y-109566202D01*
X132726433Y-109618976D01*
X132730046Y-109628150D01*
X132750357Y-109680988D01*
X132774729Y-109746353D01*
X132801364Y-109819200D01*
X132828462Y-109894485D01*
X132854223Y-109967163D01*
X132876849Y-110032190D01*
X132894540Y-110084521D01*
X132905496Y-110119111D01*
X132906718Y-110123450D01*
X132915275Y-110153030D01*
X132929049Y-110198513D01*
X132945518Y-110251608D01*
X132951150Y-110269500D01*
X132975644Y-110348058D01*
X132994179Y-110410315D01*
X133008991Y-110464013D01*
X133020835Y-110510800D01*
X133030780Y-110549065D01*
X133044197Y-110597681D01*
X133052060Y-110625100D01*
X133066774Y-110678785D01*
X133080838Y-110735230D01*
X133086100Y-110758450D01*
X133096441Y-110806189D01*
X133106447Y-110851874D01*
X133109664Y-110866400D01*
X133133611Y-110976573D01*
X133155099Y-111080688D01*
X133172899Y-111172594D01*
X133185777Y-111246140D01*
X133185979Y-111247400D01*
X133195355Y-111304983D01*
X133205034Y-111362735D01*
X133212569Y-111406150D01*
X133233600Y-111541938D01*
X133252281Y-111699727D01*
X133268400Y-111876204D01*
X133281742Y-112068061D01*
X133292094Y-112271986D01*
X133299243Y-112484668D01*
X133302975Y-112702798D01*
X133303494Y-112815850D01*
X133299603Y-113141250D01*
X133287600Y-113445723D01*
X133267264Y-113732484D01*
X133238371Y-114004752D01*
X133205158Y-114238250D01*
X133194992Y-114301765D01*
X133184915Y-114364703D01*
X133176519Y-114417119D01*
X133173637Y-114435100D01*
X133166473Y-114475387D01*
X133155368Y-114532678D01*
X133141872Y-114599176D01*
X133128261Y-114663700D01*
X133114332Y-114728474D01*
X133101513Y-114788227D01*
X133091209Y-114836408D01*
X133084822Y-114866464D01*
X133084730Y-114866900D01*
X133052689Y-115003759D01*
X133010755Y-115158653D01*
X132960503Y-115326951D01*
X132903505Y-115504023D01*
X132841337Y-115685239D01*
X132775571Y-115865969D01*
X132707782Y-116041582D01*
X132639543Y-116207449D01*
X132592712Y-116314475D01*
X132567510Y-116369075D01*
X132534864Y-116437761D01*
X132497064Y-116515905D01*
X132456406Y-116598881D01*
X132415182Y-116682059D01*
X132375686Y-116760814D01*
X132340212Y-116830518D01*
X132311051Y-116886542D01*
X132290499Y-116924261D01*
X132290477Y-116924300D01*
X132261499Y-116975007D01*
X132232351Y-117026244D01*
X132210991Y-117064000D01*
X132074951Y-117293616D01*
X131921037Y-117531916D01*
X131752823Y-117773979D01*
X131573885Y-118014884D01*
X131387798Y-118249710D01*
X131198139Y-118473538D01*
X131135916Y-118543550D01*
X131082265Y-118601761D01*
X131014262Y-118673380D01*
X130935968Y-118754313D01*
X130851441Y-118840468D01*
X130764740Y-118927753D01*
X130679926Y-119012077D01*
X130601056Y-119089346D01*
X130532190Y-119155469D01*
X130488162Y-119196555D01*
X130367723Y-119303622D01*
X130231002Y-119419596D01*
X130083405Y-119540161D01*
X129930336Y-119661001D01*
X129777201Y-119777799D01*
X129629404Y-119886240D01*
X129584540Y-119918173D01*
X129542442Y-119947242D01*
X129488431Y-119983557D01*
X129425901Y-120024939D01*
X129358244Y-120069206D01*
X129288852Y-120114177D01*
X129221117Y-120157672D01*
X129158433Y-120197510D01*
X129104191Y-120231509D01*
X129061783Y-120257490D01*
X129034603Y-120273270D01*
X129026238Y-120277100D01*
X129012766Y-120283302D01*
X128985534Y-120299073D01*
X128968183Y-120309807D01*
X128892474Y-120355440D01*
X128798343Y-120408670D01*
X128690626Y-120466879D01*
X128574155Y-120527448D01*
X128468050Y-120580725D01*
X128396258Y-120615879D01*
X128323973Y-120650775D01*
X128254968Y-120683646D01*
X128193014Y-120712724D01*
X128141883Y-120736242D01*
X128105348Y-120752431D01*
X128087179Y-120759525D01*
X128086159Y-120759700D01*
X128072201Y-120764510D01*
X128043398Y-120776700D01*
X128026586Y-120784234D01*
X127930837Y-120825589D01*
X127815948Y-120871477D01*
X127687345Y-120919982D01*
X127550456Y-120969188D01*
X127410708Y-121017179D01*
X127273529Y-121062039D01*
X127144344Y-121101851D01*
X127052000Y-121128339D01*
X126839134Y-121185058D01*
X126644194Y-121232939D01*
X126461766Y-121273170D01*
X126286441Y-121306942D01*
X126112806Y-121335446D01*
X126105850Y-121336489D01*
X126060803Y-121343068D01*
X126016603Y-121349129D01*
X125969340Y-121355120D01*
X125915104Y-121361490D01*
X125849985Y-121368689D01*
X125770073Y-121377165D01*
X125671458Y-121387367D01*
X125591500Y-121395543D01*
X125554649Y-121398048D01*
X125495459Y-121400512D01*
X125416989Y-121402902D01*
X125322301Y-121405183D01*
X125214455Y-121407322D01*
X125096510Y-121409282D01*
X124971527Y-121411032D01*
X124842567Y-121412536D01*
X124712691Y-121413760D01*
X124584957Y-121414669D01*
X124462428Y-121415231D01*
X124348162Y-121415410D01*
X124245222Y-121415172D01*
X124156666Y-121414484D01*
X124085555Y-121413310D01*
X124061150Y-121412649D01*
X123934917Y-121406692D01*
X123791855Y-121396606D01*
X123638810Y-121383110D01*
X123482630Y-121366922D01*
X123330163Y-121348760D01*
X123188255Y-121329344D01*
X123063756Y-121309392D01*
X123045150Y-121306059D01*
X122961185Y-121290081D01*
X122867494Y-121271127D01*
X122768915Y-121250282D01*
X122670282Y-121228629D01*
X122576433Y-121207254D01*
X122492204Y-121187241D01*
X122422432Y-121169675D01*
X122371952Y-121155640D01*
X122365700Y-121153703D01*
X122333523Y-121144046D01*
X122291235Y-121131990D01*
X122276800Y-121128000D01*
X122234372Y-121116053D01*
X122197040Y-121105004D01*
X122187900Y-121102143D01*
X122158515Y-121093118D01*
X122115429Y-121080361D01*
X122079950Y-121070081D01*
X121951490Y-121030972D01*
X121811573Y-120984416D01*
X121671506Y-120934228D01*
X121622750Y-120915824D01*
X121572864Y-120896645D01*
X121538771Y-120883287D01*
X121512522Y-120872548D01*
X121486167Y-120861228D01*
X121474780Y-120856244D01*
X121443532Y-120843313D01*
X121423149Y-120836310D01*
X121420667Y-120835900D01*
X121405398Y-120831127D01*
X121375651Y-120819046D01*
X121359086Y-120811789D01*
X121315507Y-120792561D01*
X121263575Y-120770038D01*
X121235400Y-120757979D01*
X121153115Y-120721215D01*
X121053967Y-120674041D01*
X120942607Y-120618907D01*
X120823685Y-120558261D01*
X120701853Y-120494554D01*
X120581762Y-120430233D01*
X120468062Y-120367748D01*
X120365403Y-120309548D01*
X120278438Y-120258083D01*
X120236578Y-120232001D01*
X120200296Y-120209390D01*
X120173124Y-120193571D01*
X120161629Y-120188200D01*
X120148456Y-120181296D01*
X120117534Y-120161974D01*
X120071969Y-120132321D01*
X120014863Y-120094420D01*
X119949322Y-120050358D01*
X119878448Y-120002220D01*
X119805347Y-119952091D01*
X119733123Y-119902056D01*
X119673300Y-119860144D01*
X119606914Y-119812566D01*
X119531750Y-119757404D01*
X119451907Y-119697789D01*
X119371486Y-119636856D01*
X119294586Y-119577736D01*
X119225308Y-119523563D01*
X119167752Y-119477468D01*
X119126018Y-119442584D01*
X119120938Y-119438124D01*
X119097258Y-119417540D01*
X119058941Y-119384703D01*
X119010787Y-119343711D01*
X118957598Y-119298658D01*
X118943050Y-119286374D01*
X118879724Y-119230739D01*
X118802584Y-119159397D01*
X118714783Y-119075541D01*
X118619474Y-118982365D01*
X118519812Y-118883060D01*
X118418951Y-118780821D01*
X118320045Y-118678840D01*
X118226247Y-118580310D01*
X118140712Y-118488424D01*
X118066593Y-118406375D01*
X118014878Y-118346700D01*
X117818008Y-118105730D01*
X117641443Y-117873591D01*
X117482982Y-117647339D01*
X117415321Y-117544050D01*
X117182698Y-117158760D01*
X116968577Y-116757762D01*
X116772284Y-116339745D01*
X116667746Y-116092450D01*
X116633720Y-116008745D01*
X116607917Y-115945289D01*
X116588994Y-115898803D01*
X116575606Y-115866004D01*
X116566411Y-115843612D01*
X116560066Y-115828347D01*
X116555227Y-115816928D01*
X116550551Y-115806073D01*
X116549450Y-115803525D01*
X116526616Y-115747630D01*
X116498447Y-115673955D01*
X116467275Y-115588931D01*
X116435436Y-115498991D01*
X116405262Y-115410569D01*
X116389392Y-115362353D01*
X116369390Y-115295390D01*
X116360061Y-115250729D01*
X116361311Y-115227669D01*
X116370883Y-115224616D01*
X116382777Y-115234310D01*
X116410295Y-115259599D01*
X116451035Y-115298185D01*
X116502595Y-115347770D01*
X116562572Y-115406055D01*
X116628563Y-115470742D01*
X116640856Y-115482850D01*
X116749516Y-115589705D01*
X116842746Y-115680793D01*
X116922970Y-115758411D01*
X116992609Y-115824861D01*
X117054089Y-115882439D01*
X117109832Y-115933447D01*
X117162261Y-115980182D01*
X117196672Y-116010188D01*
X117240496Y-116048212D01*
X117279566Y-116082335D01*
X117308186Y-116107570D01*
X117317322Y-116115777D01*
X117338026Y-116133224D01*
X117374760Y-116162760D01*
X117423320Y-116201121D01*
X117479501Y-116245042D01*
X117539097Y-116291261D01*
X117597905Y-116336513D01*
X117651719Y-116377534D01*
X117696335Y-116411060D01*
X117721466Y-116429492D01*
X117761799Y-116458857D01*
X117799237Y-116486697D01*
X117816716Y-116500042D01*
X117837980Y-116515081D01*
X117876734Y-116541025D01*
X117928975Y-116575252D01*
X117990697Y-116615138D01*
X118057893Y-116658058D01*
X118060400Y-116659649D01*
X118139567Y-116709793D01*
X118202703Y-116749439D01*
X118255147Y-116781822D01*
X118302235Y-116810175D01*
X118349306Y-116837732D01*
X118401697Y-116867727D01*
X118435050Y-116886625D01*
X118502858Y-116923386D01*
X118587662Y-116966958D01*
X118683067Y-117014253D01*
X118782675Y-117062182D01*
X118880093Y-117107656D01*
X118968923Y-117147586D01*
X119025600Y-117171844D01*
X119073684Y-117191852D01*
X119117846Y-117210299D01*
X119146250Y-117222235D01*
X119258944Y-117267518D01*
X119387373Y-117314518D01*
X119535974Y-117364854D01*
X119546300Y-117368235D01*
X119646460Y-117400339D01*
X119740802Y-117429379D01*
X119824706Y-117453998D01*
X119893552Y-117472837D01*
X119940000Y-117483977D01*
X119973152Y-117491446D01*
X120021845Y-117503035D01*
X120077013Y-117516577D01*
X120092400Y-117520427D01*
X120178344Y-117541727D01*
X120245326Y-117557569D01*
X120298882Y-117569211D01*
X120344544Y-117577913D01*
X120346400Y-117578238D01*
X120377724Y-117583703D01*
X120426393Y-117592195D01*
X120484728Y-117602374D01*
X120524200Y-117609263D01*
X120574152Y-117617828D01*
X120621082Y-117625455D01*
X120669642Y-117632795D01*
X120724482Y-117640502D01*
X120790253Y-117649226D01*
X120871607Y-117659620D01*
X120973196Y-117672336D01*
X120981400Y-117673357D01*
X121026936Y-117678253D01*
X121092191Y-117684224D01*
X121171529Y-117690810D01*
X121259316Y-117697546D01*
X121349915Y-117703971D01*
X121374117Y-117705591D01*
X121767930Y-117722077D01*
X122162662Y-117719943D01*
X122555279Y-117699542D01*
X122942749Y-117661229D01*
X123322038Y-117605358D01*
X123690115Y-117532282D01*
X124043945Y-117442354D01*
X124296100Y-117364743D01*
X124417302Y-117323923D01*
X124516209Y-117289452D01*
X124594911Y-117260577D01*
X124655502Y-117236547D01*
X124670750Y-117230044D01*
X124699208Y-117217617D01*
X124736263Y-117201389D01*
X124742519Y-117198644D01*
X124773621Y-117185725D01*
X124793714Y-117178716D01*
X124796117Y-117178300D01*
X124807810Y-117174668D01*
X124835575Y-117163252D01*
X124881203Y-117143270D01*
X124946485Y-117113940D01*
X125020000Y-117080511D01*
X125077111Y-117053593D01*
X125148490Y-117018677D01*
X125227759Y-116979010D01*
X125308543Y-116937835D01*
X125384467Y-116898398D01*
X125449156Y-116863943D01*
X125489900Y-116841365D01*
X125540456Y-116812503D01*
X125591371Y-116783505D01*
X125628823Y-116762236D01*
X125673631Y-116735802D01*
X125731026Y-116700350D01*
X125797669Y-116658097D01*
X125870219Y-116611263D01*
X125945338Y-116562068D01*
X126019685Y-116512731D01*
X126089921Y-116465470D01*
X126152706Y-116422504D01*
X126204700Y-116386053D01*
X126242564Y-116358336D01*
X126262959Y-116341572D01*
X126264600Y-116339788D01*
X126277590Y-116328555D01*
X126307111Y-116305277D01*
X126349235Y-116272964D01*
X126400038Y-116234628D01*
X126454555Y-116194050D01*
X126468996Y-116183177D01*
X126485445Y-116170241D01*
X126506960Y-116152700D01*
X126536598Y-116128016D01*
X126577417Y-116093648D01*
X126632475Y-116047056D01*
X126678766Y-116007809D01*
X126967268Y-115749530D01*
X127245889Y-115473082D01*
X127512419Y-115181268D01*
X127764644Y-114876892D01*
X128000353Y-114562757D01*
X128217334Y-114241666D01*
X128413376Y-113916425D01*
X128585914Y-113590550D01*
X128612459Y-113535974D01*
X128639937Y-113478395D01*
X128666128Y-113422597D01*
X128688816Y-113373364D01*
X128705783Y-113335480D01*
X128714809Y-113313731D01*
X128715700Y-113310598D01*
X128720536Y-113297253D01*
X128733056Y-113267911D01*
X128746214Y-113238501D01*
X128765308Y-113194214D01*
X128788618Y-113136808D01*
X128811788Y-113077071D01*
X128816876Y-113063500D01*
X128836498Y-113011165D01*
X128854240Y-112964589D01*
X128867203Y-112931362D01*
X128870279Y-112923800D01*
X128881707Y-112893342D01*
X128898672Y-112844312D01*
X128919318Y-112782437D01*
X128941790Y-112713446D01*
X128964232Y-112643065D01*
X128984788Y-112577023D01*
X129001603Y-112521048D01*
X129008105Y-112498350D01*
X129022927Y-112444298D01*
X129040046Y-112380373D01*
X129057723Y-112313241D01*
X129074217Y-112249568D01*
X129087791Y-112196021D01*
X129096703Y-112159267D01*
X129097568Y-112155450D01*
X129106314Y-112116219D01*
X129117951Y-112064138D01*
X129128780Y-112015750D01*
X129160718Y-111863792D01*
X129183930Y-111732314D01*
X129185260Y-111723650D01*
X129213658Y-111531608D01*
X129237278Y-111360165D01*
X129256492Y-111205046D01*
X129271671Y-111061976D01*
X129283186Y-110926681D01*
X129291410Y-110794887D01*
X129296714Y-110662319D01*
X129299470Y-110524703D01*
X129300088Y-110402850D01*
X129298223Y-110207616D01*
X129292471Y-110027151D01*
X129282259Y-109853037D01*
X129267014Y-109676859D01*
X129246164Y-109490198D01*
X129228776Y-109355100D01*
X129218291Y-109278854D01*
X129208639Y-109213677D01*
X129198309Y-109150222D01*
X129185790Y-109079143D01*
X129172318Y-109005850D01*
X129097685Y-108656881D01*
X129003384Y-108304047D01*
X128891596Y-107954252D01*
X128764501Y-107614397D01*
X128644832Y-107335800D01*
X128611429Y-107264619D01*
X128572453Y-107184450D01*
X128529995Y-107099319D01*
X128486147Y-107013254D01*
X128443002Y-106930282D01*
X128402653Y-106854430D01*
X128367190Y-106789726D01*
X128338708Y-106740196D01*
X128320500Y-106711539D01*
X128304006Y-106686133D01*
X128296627Y-106670535D01*
X128296600Y-106670125D01*
X128289846Y-106655402D01*
X128270834Y-106622546D01*
X128241433Y-106574533D01*
X128203515Y-106514335D01*
X128158949Y-106444928D01*
X128109608Y-106369286D01*
X128064272Y-106300750D01*
X127927681Y-106103480D01*
X127778837Y-105903990D01*
X127613410Y-105696490D01*
X127604490Y-105685636D01*
X127416888Y-105468506D01*
X127209101Y-105247781D01*
X126985225Y-105027323D01*
X126749353Y-104810996D01*
X126505582Y-104602666D01*
X126258005Y-104406196D01*
X126210638Y-104370350D01*
X126161082Y-104331116D01*
X126133319Y-104303509D01*
X126127188Y-104286383D01*
X126142525Y-104278597D01*
X126179168Y-104279006D01*
G37*
D10*
X126179168Y-104279006D02*
X126197925Y-104280985D01*
X126245178Y-104288092D01*
X126305915Y-104299153D01*
X126368948Y-104312092D01*
X126385250Y-104315716D01*
X126441962Y-104328560D01*
X126494512Y-104340432D01*
X126534218Y-104349372D01*
X126544000Y-104351563D01*
X126637689Y-104373613D01*
X126748896Y-104401662D01*
X126870941Y-104433979D01*
X126997149Y-104468830D01*
X127007550Y-104471768D01*
X127063880Y-104487648D01*
X127116162Y-104502284D01*
X127155893Y-104513301D01*
X127166300Y-104516143D01*
X127291351Y-104552407D01*
X127433264Y-104597667D01*
X127586096Y-104649742D01*
X127743900Y-104706450D01*
X127900731Y-104765610D01*
X128050644Y-104825038D01*
X128187694Y-104882555D01*
X128290250Y-104928599D01*
X128686653Y-105124918D01*
X129064407Y-105335405D01*
X129426138Y-105561904D01*
X129774472Y-105806259D01*
X130112037Y-106070313D01*
X130441459Y-106355909D01*
X130765367Y-106664890D01*
X130766750Y-106666270D01*
X130835945Y-106735676D01*
X130902086Y-106802657D01*
X130962179Y-106864134D01*
X131013231Y-106917025D01*
X131052246Y-106958247D01*
X131076230Y-106984722D01*
X131076397Y-106984917D01*
X131114376Y-107028781D01*
X131154187Y-107073857D01*
X131178527Y-107100850D01*
X131229117Y-107158063D01*
X131291107Y-107231240D01*
X131360847Y-107315882D01*
X131434692Y-107407489D01*
X131508992Y-107501561D01*
X131580102Y-107593598D01*
X131610944Y-107634289D01*
X131872959Y-108002126D01*
X132114563Y-108382647D01*
X132337486Y-108778651D01*
X132437884Y-108974100D01*
X132477208Y-109053650D01*
X132513804Y-109128935D01*
X132546074Y-109196550D01*
X132572418Y-109253092D01*
X132591237Y-109295155D01*
X132600933Y-109319335D01*
X132601900Y-109323320D01*
X132606720Y-109336965D01*
X132619292Y-109366918D01*
X132634964Y-109402377D01*
X132658111Y-109453903D01*
X132675113Y-109492495D01*
X132689688Y-109526985D01*
X132705555Y-109566202D01*
X132726433Y-109618976D01*
X132730046Y-109628150D01*
X132750357Y-109680988D01*
X132774729Y-109746353D01*
X132801364Y-109819200D01*
X132828462Y-109894485D01*
X132854223Y-109967163D01*
X132876849Y-110032190D01*
X132894540Y-110084521D01*
X132905496Y-110119111D01*
X132906718Y-110123450D01*
X132915275Y-110153030D01*
X132929049Y-110198513D01*
X132945518Y-110251608D01*
X132951150Y-110269500D01*
X132975644Y-110348058D01*
X132994179Y-110410315D01*
X133008991Y-110464013D01*
X133020835Y-110510800D01*
X133030780Y-110549065D01*
X133044197Y-110597681D01*
X133052060Y-110625100D01*
X133066774Y-110678785D01*
X133080838Y-110735230D01*
X133086100Y-110758450D01*
X133096441Y-110806189D01*
X133106447Y-110851874D01*
X133109664Y-110866400D01*
X133133611Y-110976573D01*
X133155099Y-111080688D01*
X133172899Y-111172594D01*
X133185777Y-111246140D01*
X133185979Y-111247400D01*
X133195355Y-111304983D01*
X133205034Y-111362735D01*
X133212569Y-111406150D01*
X133233600Y-111541938D01*
X133252281Y-111699727D01*
X133268400Y-111876204D01*
X133281742Y-112068061D01*
X133292094Y-112271986D01*
X133299243Y-112484668D01*
X133302975Y-112702798D01*
X133303494Y-112815850D01*
X133299603Y-113141250D01*
X133287600Y-113445723D01*
X133267264Y-113732484D01*
X133238371Y-114004752D01*
X133205158Y-114238250D01*
X133194992Y-114301765D01*
X133184915Y-114364703D01*
X133176519Y-114417119D01*
X133173637Y-114435100D01*
X133166473Y-114475387D01*
X133155368Y-114532678D01*
X133141872Y-114599176D01*
X133128261Y-114663700D01*
X133114332Y-114728474D01*
X133101513Y-114788227D01*
X133091209Y-114836408D01*
X133084822Y-114866464D01*
X133084730Y-114866900D01*
X133052689Y-115003759D01*
X133010755Y-115158653D01*
X132960503Y-115326951D01*
X132903505Y-115504023D01*
X132841337Y-115685239D01*
X132775571Y-115865969D01*
X132707782Y-116041582D01*
X132639543Y-116207449D01*
X132592712Y-116314475D01*
X132567510Y-116369075D01*
X132534864Y-116437761D01*
X132497064Y-116515905D01*
X132456406Y-116598881D01*
X132415182Y-116682059D01*
X132375686Y-116760814D01*
X132340212Y-116830518D01*
X132311051Y-116886542D01*
X132290499Y-116924261D01*
X132290477Y-116924300D01*
X132261499Y-116975007D01*
X132232351Y-117026244D01*
X132210991Y-117064000D01*
X132074951Y-117293616D01*
X131921037Y-117531916D01*
X131752823Y-117773979D01*
X131573885Y-118014884D01*
X131387798Y-118249710D01*
X131198139Y-118473538D01*
X131135916Y-118543550D01*
X131082265Y-118601761D01*
X131014262Y-118673380D01*
X130935968Y-118754313D01*
X130851441Y-118840468D01*
X130764740Y-118927753D01*
X130679926Y-119012077D01*
X130601056Y-119089346D01*
X130532190Y-119155469D01*
X130488162Y-119196555D01*
X130367723Y-119303622D01*
X130231002Y-119419596D01*
X130083405Y-119540161D01*
X129930336Y-119661001D01*
X129777201Y-119777799D01*
X129629404Y-119886240D01*
X129584540Y-119918173D01*
X129542442Y-119947242D01*
X129488431Y-119983557D01*
X129425901Y-120024939D01*
X129358244Y-120069206D01*
X129288852Y-120114177D01*
X129221117Y-120157672D01*
X129158433Y-120197510D01*
X129104191Y-120231509D01*
X129061783Y-120257490D01*
X129034603Y-120273270D01*
X129026238Y-120277100D01*
X129012766Y-120283302D01*
X128985534Y-120299073D01*
X128968183Y-120309807D01*
X128892474Y-120355440D01*
X128798343Y-120408670D01*
X128690626Y-120466879D01*
X128574155Y-120527448D01*
X128468050Y-120580725D01*
X128396258Y-120615879D01*
X128323973Y-120650775D01*
X128254968Y-120683646D01*
X128193014Y-120712724D01*
X128141883Y-120736242D01*
X128105348Y-120752431D01*
X128087179Y-120759525D01*
X128086159Y-120759700D01*
X128072201Y-120764510D01*
X128043398Y-120776700D01*
X128026586Y-120784234D01*
X127930837Y-120825589D01*
X127815948Y-120871477D01*
X127687345Y-120919982D01*
X127550456Y-120969188D01*
X127410708Y-121017179D01*
X127273529Y-121062039D01*
X127144344Y-121101851D01*
X127052000Y-121128339D01*
X126839134Y-121185058D01*
X126644194Y-121232939D01*
X126461766Y-121273170D01*
X126286441Y-121306942D01*
X126112806Y-121335446D01*
X126105850Y-121336489D01*
X126060803Y-121343068D01*
X126016603Y-121349129D01*
X125969340Y-121355120D01*
X125915104Y-121361490D01*
X125849985Y-121368689D01*
X125770073Y-121377165D01*
X125671458Y-121387367D01*
X125591500Y-121395543D01*
X125554649Y-121398048D01*
X125495459Y-121400512D01*
X125416989Y-121402902D01*
X125322301Y-121405183D01*
X125214455Y-121407322D01*
X125096510Y-121409282D01*
X124971527Y-121411032D01*
X124842567Y-121412536D01*
X124712691Y-121413760D01*
X124584957Y-121414669D01*
X124462428Y-121415231D01*
X124348162Y-121415410D01*
X124245222Y-121415172D01*
X124156666Y-121414484D01*
X124085555Y-121413310D01*
X124061150Y-121412649D01*
X123934917Y-121406692D01*
X123791855Y-121396606D01*
X123638810Y-121383110D01*
X123482630Y-121366922D01*
X123330163Y-121348760D01*
X123188255Y-121329344D01*
X123063756Y-121309392D01*
X123045150Y-121306059D01*
X122961185Y-121290081D01*
X122867494Y-121271127D01*
X122768915Y-121250282D01*
X122670282Y-121228629D01*
X122576433Y-121207254D01*
X122492204Y-121187241D01*
X122422432Y-121169675D01*
X122371952Y-121155640D01*
X122365700Y-121153703D01*
X122333523Y-121144046D01*
X122291235Y-121131990D01*
X122276800Y-121128000D01*
X122234372Y-121116053D01*
X122197040Y-121105004D01*
X122187900Y-121102143D01*
X122158515Y-121093118D01*
X122115429Y-121080361D01*
X122079950Y-121070081D01*
X121951490Y-121030972D01*
X121811573Y-120984416D01*
X121671506Y-120934228D01*
X121622750Y-120915824D01*
X121572864Y-120896645D01*
X121538771Y-120883287D01*
X121512522Y-120872548D01*
X121486167Y-120861228D01*
X121474780Y-120856244D01*
X121443532Y-120843313D01*
X121423149Y-120836310D01*
X121420667Y-120835900D01*
X121405398Y-120831127D01*
X121375651Y-120819046D01*
X121359086Y-120811789D01*
X121315507Y-120792561D01*
X121263575Y-120770038D01*
X121235400Y-120757979D01*
X121153115Y-120721215D01*
X121053967Y-120674041D01*
X120942607Y-120618907D01*
X120823685Y-120558261D01*
X120701853Y-120494554D01*
X120581762Y-120430233D01*
X120468062Y-120367748D01*
X120365403Y-120309548D01*
X120278438Y-120258083D01*
X120236578Y-120232001D01*
X120200296Y-120209390D01*
X120173124Y-120193571D01*
X120161629Y-120188200D01*
X120148456Y-120181296D01*
X120117534Y-120161974D01*
X120071969Y-120132321D01*
X120014863Y-120094420D01*
X119949322Y-120050358D01*
X119878448Y-120002220D01*
X119805347Y-119952091D01*
X119733123Y-119902056D01*
X119673300Y-119860144D01*
X119606914Y-119812566D01*
X119531750Y-119757404D01*
X119451907Y-119697789D01*
X119371486Y-119636856D01*
X119294586Y-119577736D01*
X119225308Y-119523563D01*
X119167752Y-119477468D01*
X119126018Y-119442584D01*
X119120938Y-119438124D01*
X119097258Y-119417540D01*
X119058941Y-119384703D01*
X119010787Y-119343711D01*
X118957598Y-119298658D01*
X118943050Y-119286374D01*
X118879724Y-119230739D01*
X118802584Y-119159397D01*
X118714783Y-119075541D01*
X118619474Y-118982365D01*
X118519812Y-118883060D01*
X118418951Y-118780821D01*
X118320045Y-118678840D01*
X118226247Y-118580310D01*
X118140712Y-118488424D01*
X118066593Y-118406375D01*
X118014878Y-118346700D01*
X117818008Y-118105730D01*
X117641443Y-117873591D01*
X117482982Y-117647339D01*
X117415321Y-117544050D01*
X117182698Y-117158760D01*
X116968577Y-116757762D01*
X116772284Y-116339745D01*
X116667746Y-116092450D01*
X116633720Y-116008745D01*
X116607917Y-115945289D01*
X116588994Y-115898803D01*
X116575606Y-115866004D01*
X116566411Y-115843612D01*
X116560066Y-115828347D01*
X116555227Y-115816928D01*
X116550551Y-115806073D01*
X116549450Y-115803525D01*
X116526616Y-115747630D01*
X116498447Y-115673955D01*
X116467275Y-115588931D01*
X116435436Y-115498991D01*
X116405262Y-115410569D01*
X116389392Y-115362353D01*
X116369390Y-115295390D01*
X116360061Y-115250729D01*
X116361311Y-115227669D01*
X116370883Y-115224616D01*
X116382777Y-115234310D01*
X116410295Y-115259599D01*
X116451035Y-115298185D01*
X116502595Y-115347770D01*
X116562572Y-115406055D01*
X116628563Y-115470742D01*
X116640856Y-115482850D01*
X116749516Y-115589705D01*
X116842746Y-115680793D01*
X116922970Y-115758411D01*
X116992609Y-115824861D01*
X117054089Y-115882439D01*
X117109832Y-115933447D01*
X117162261Y-115980182D01*
X117196672Y-116010188D01*
X117240496Y-116048212D01*
X117279566Y-116082335D01*
X117308186Y-116107570D01*
X117317322Y-116115777D01*
X117338026Y-116133224D01*
X117374760Y-116162760D01*
X117423320Y-116201121D01*
X117479501Y-116245042D01*
X117539097Y-116291261D01*
X117597905Y-116336513D01*
X117651719Y-116377534D01*
X117696335Y-116411060D01*
X117721466Y-116429492D01*
X117761799Y-116458857D01*
X117799237Y-116486697D01*
X117816716Y-116500042D01*
X117837980Y-116515081D01*
X117876734Y-116541025D01*
X117928975Y-116575252D01*
X117990697Y-116615138D01*
X118057893Y-116658058D01*
X118060400Y-116659649D01*
X118139567Y-116709793D01*
X118202703Y-116749439D01*
X118255147Y-116781822D01*
X118302235Y-116810175D01*
X118349306Y-116837732D01*
X118401697Y-116867727D01*
X118435050Y-116886625D01*
X118502858Y-116923386D01*
X118587662Y-116966958D01*
X118683067Y-117014253D01*
X118782675Y-117062182D01*
X118880093Y-117107656D01*
X118968923Y-117147586D01*
X119025600Y-117171844D01*
X119073684Y-117191852D01*
X119117846Y-117210299D01*
X119146250Y-117222235D01*
X119258944Y-117267518D01*
X119387373Y-117314518D01*
X119535974Y-117364854D01*
X119546300Y-117368235D01*
X119646460Y-117400339D01*
X119740802Y-117429379D01*
X119824706Y-117453998D01*
X119893552Y-117472837D01*
X119940000Y-117483977D01*
X119973152Y-117491446D01*
X120021845Y-117503035D01*
X120077013Y-117516577D01*
X120092400Y-117520427D01*
X120178344Y-117541727D01*
X120245326Y-117557569D01*
X120298882Y-117569211D01*
X120344544Y-117577913D01*
X120346400Y-117578238D01*
X120377724Y-117583703D01*
X120426393Y-117592195D01*
X120484728Y-117602374D01*
X120524200Y-117609263D01*
X120574152Y-117617828D01*
X120621082Y-117625455D01*
X120669642Y-117632795D01*
X120724482Y-117640502D01*
X120790253Y-117649226D01*
X120871607Y-117659620D01*
X120973196Y-117672336D01*
X120981400Y-117673357D01*
X121026936Y-117678253D01*
X121092191Y-117684224D01*
X121171529Y-117690810D01*
X121259316Y-117697546D01*
X121349915Y-117703971D01*
X121374117Y-117705591D01*
X121767930Y-117722077D01*
X122162662Y-117719943D01*
X122555279Y-117699542D01*
X122942749Y-117661229D01*
X123322038Y-117605358D01*
X123690115Y-117532282D01*
X124043945Y-117442354D01*
X124296100Y-117364743D01*
X124417302Y-117323923D01*
X124516209Y-117289452D01*
X124594911Y-117260577D01*
X124655502Y-117236547D01*
X124670750Y-117230044D01*
X124699208Y-117217617D01*
X124736263Y-117201389D01*
X124742519Y-117198644D01*
X124773621Y-117185725D01*
X124793714Y-117178716D01*
X124796117Y-117178300D01*
X124807810Y-117174668D01*
X124835575Y-117163252D01*
X124881203Y-117143270D01*
X124946485Y-117113940D01*
X125020000Y-117080511D01*
X125077111Y-117053593D01*
X125148490Y-117018677D01*
X125227759Y-116979010D01*
X125308543Y-116937835D01*
X125384467Y-116898398D01*
X125449156Y-116863943D01*
X125489900Y-116841365D01*
X125540456Y-116812503D01*
X125591371Y-116783505D01*
X125628823Y-116762236D01*
X125673631Y-116735802D01*
X125731026Y-116700350D01*
X125797669Y-116658097D01*
X125870219Y-116611263D01*
X125945338Y-116562068D01*
X126019685Y-116512731D01*
X126089921Y-116465470D01*
X126152706Y-116422504D01*
X126204700Y-116386053D01*
X126242564Y-116358336D01*
X126262959Y-116341572D01*
X126264600Y-116339788D01*
X126277590Y-116328555D01*
X126307111Y-116305277D01*
X126349235Y-116272964D01*
X126400038Y-116234628D01*
X126454555Y-116194050D01*
X126468996Y-116183177D01*
X126485445Y-116170241D01*
X126506960Y-116152700D01*
X126536598Y-116128016D01*
X126577417Y-116093648D01*
X126632475Y-116047056D01*
X126678766Y-116007809D01*
X126967268Y-115749530D01*
X127245889Y-115473082D01*
X127512419Y-115181268D01*
X127764644Y-114876892D01*
X128000353Y-114562757D01*
X128217334Y-114241666D01*
X128413376Y-113916425D01*
X128585914Y-113590550D01*
X128612459Y-113535974D01*
X128639937Y-113478395D01*
X128666128Y-113422597D01*
X128688816Y-113373364D01*
X128705783Y-113335480D01*
X128714809Y-113313731D01*
X128715700Y-113310598D01*
X128720536Y-113297253D01*
X128733056Y-113267911D01*
X128746214Y-113238501D01*
X128765308Y-113194214D01*
X128788618Y-113136808D01*
X128811788Y-113077071D01*
X128816876Y-113063500D01*
X128836498Y-113011165D01*
X128854240Y-112964589D01*
X128867203Y-112931362D01*
X128870279Y-112923800D01*
X128881707Y-112893342D01*
X128898672Y-112844312D01*
X128919318Y-112782437D01*
X128941790Y-112713446D01*
X128964232Y-112643065D01*
X128984788Y-112577023D01*
X129001603Y-112521048D01*
X129008105Y-112498350D01*
X129022927Y-112444298D01*
X129040046Y-112380373D01*
X129057723Y-112313241D01*
X129074217Y-112249568D01*
X129087791Y-112196021D01*
X129096703Y-112159267D01*
X129097568Y-112155450D01*
X129106314Y-112116219D01*
X129117951Y-112064138D01*
X129128780Y-112015750D01*
X129160718Y-111863792D01*
X129183930Y-111732314D01*
X129185260Y-111723650D01*
X129213658Y-111531608D01*
X129237278Y-111360165D01*
X129256492Y-111205046D01*
X129271671Y-111061976D01*
X129283186Y-110926681D01*
X129291410Y-110794887D01*
X129296714Y-110662319D01*
X129299470Y-110524703D01*
X129300088Y-110402850D01*
X129298223Y-110207616D01*
X129292471Y-110027151D01*
X129282259Y-109853037D01*
X129267014Y-109676859D01*
X129246164Y-109490198D01*
X129228776Y-109355100D01*
X129218291Y-109278854D01*
X129208639Y-109213677D01*
X129198309Y-109150222D01*
X129185790Y-109079143D01*
X129172318Y-109005850D01*
X129097685Y-108656881D01*
X129003384Y-108304047D01*
X128891596Y-107954252D01*
X128764501Y-107614397D01*
X128644832Y-107335800D01*
X128611429Y-107264619D01*
X128572453Y-107184450D01*
X128529995Y-107099319D01*
X128486147Y-107013254D01*
X128443002Y-106930282D01*
X128402653Y-106854430D01*
X128367190Y-106789726D01*
X128338708Y-106740196D01*
X128320500Y-106711539D01*
X128304006Y-106686133D01*
X128296627Y-106670535D01*
X128296600Y-106670125D01*
X128289846Y-106655402D01*
X128270834Y-106622546D01*
X128241433Y-106574533D01*
X128203515Y-106514335D01*
X128158949Y-106444928D01*
X128109608Y-106369286D01*
X128064272Y-106300750D01*
X127927681Y-106103480D01*
X127778837Y-105903990D01*
X127613410Y-105696490D01*
X127604490Y-105685636D01*
X127416888Y-105468506D01*
X127209101Y-105247781D01*
X126985225Y-105027323D01*
X126749353Y-104810996D01*
X126505582Y-104602666D01*
X126258005Y-104406196D01*
X126210638Y-104370350D01*
X126161082Y-104331116D01*
X126133319Y-104303509D01*
X126127188Y-104286383D01*
X126142525Y-104278597D01*
X126179168Y-104279006D01*
G36*
X120122136Y-107906668D02*
G01*
X120161301Y-107941278D01*
X120201626Y-107996031D01*
X120241280Y-108068531D01*
X120270579Y-108135900D01*
X120303551Y-108228671D01*
X120338176Y-108342895D01*
X120373528Y-108474755D01*
X120408679Y-108620434D01*
X120442704Y-108776116D01*
X120474676Y-108937985D01*
X120500298Y-109082050D01*
X120510769Y-109141410D01*
X120523620Y-109210349D01*
X120535608Y-109271615D01*
X120555950Y-109372280D01*
X120682950Y-109395133D01*
X120744287Y-109406365D01*
X120803031Y-109417458D01*
X120850258Y-109426712D01*
X120867100Y-109430190D01*
X120918223Y-109439939D01*
X120972726Y-109448686D01*
X120983772Y-109450205D01*
X121043294Y-109458015D01*
X121111825Y-109339882D01*
X121150930Y-109272488D01*
X121194389Y-109197610D01*
X121239457Y-109119979D01*
X121283389Y-109044322D01*
X121323439Y-108975366D01*
X121356862Y-108917841D01*
X121380911Y-108876474D01*
X121384814Y-108869766D01*
X121424055Y-108806317D01*
X121473540Y-108732301D01*
X121529536Y-108652766D01*
X121588306Y-108572760D01*
X121646115Y-108497329D01*
X121699229Y-108431523D01*
X121743911Y-108380389D01*
X121757080Y-108366678D01*
X121825294Y-108307083D01*
X121889905Y-108267889D01*
X121949016Y-108249616D01*
X122000726Y-108252783D01*
X122043137Y-108277908D01*
X122050943Y-108286329D01*
X122071073Y-108314143D01*
X122088931Y-108347976D01*
X122104674Y-108389430D01*
X122118462Y-108440104D01*
X122130453Y-108501600D01*
X122140806Y-108575516D01*
X122149679Y-108663454D01*
X122157231Y-108767013D01*
X122163621Y-108887795D01*
X122169007Y-109027399D01*
X122173548Y-109187425D01*
X122177402Y-109369475D01*
X122180729Y-109575148D01*
X122181065Y-109598984D01*
X122183171Y-109737091D01*
X122185508Y-109852430D01*
X122188392Y-109947629D01*
X122192141Y-110025319D01*
X122197071Y-110088131D01*
X122203497Y-110138696D01*
X122211737Y-110179642D01*
X122222107Y-110213602D01*
X122234923Y-110243205D01*
X122250501Y-110271082D01*
X122264543Y-110292973D01*
X122307341Y-110364400D01*
X122350989Y-110449270D01*
X122390744Y-110537502D01*
X122421866Y-110619016D01*
X122430057Y-110644821D01*
X122439638Y-110681794D01*
X122447072Y-110722523D01*
X122452784Y-110771473D01*
X122457198Y-110833110D01*
X122460738Y-110911899D01*
X122463368Y-110995354D01*
X122466042Y-111075178D01*
X122469316Y-111146856D01*
X122472934Y-111206321D01*
X122476638Y-111249510D01*
X122480172Y-111272358D01*
X122480977Y-111274381D01*
X122489254Y-111281614D01*
X122503942Y-111282950D01*
X122528069Y-111277366D01*
X122564664Y-111263839D01*
X122616755Y-111241346D01*
X122687372Y-111208862D01*
X122719496Y-111193779D01*
X122782369Y-111164213D01*
X122845645Y-111134561D01*
X122900758Y-111108832D01*
X122930850Y-111094860D01*
X122977806Y-111073074D01*
X123037407Y-111045318D01*
X123099306Y-111016415D01*
X123121350Y-111006100D01*
X123181403Y-110978011D01*
X123243104Y-110949207D01*
X123296104Y-110924517D01*
X123311850Y-110917200D01*
X123358808Y-110895348D01*
X123418412Y-110867539D01*
X123480313Y-110838604D01*
X123502350Y-110828287D01*
X123596398Y-110784386D01*
X123683570Y-110743984D01*
X123761144Y-110708321D01*
X123826397Y-110678636D01*
X123876605Y-110656167D01*
X123909046Y-110642156D01*
X123920840Y-110637800D01*
X123933915Y-110632839D01*
X123964291Y-110619628D01*
X124006260Y-110600669D01*
X124022176Y-110593350D01*
X124066915Y-110572991D01*
X124102143Y-110557537D01*
X124122088Y-110549498D01*
X124124356Y-110548900D01*
X124138145Y-110544076D01*
X124168210Y-110531496D01*
X124203677Y-110515835D01*
X124240154Y-110499436D01*
X124269974Y-110486258D01*
X124298148Y-110474262D01*
X124329691Y-110461407D01*
X124369616Y-110445651D01*
X124422935Y-110424954D01*
X124494661Y-110397276D01*
X124499300Y-110395487D01*
X124592750Y-110359561D01*
X124666310Y-110331795D01*
X124723763Y-110311145D01*
X124768893Y-110296569D01*
X124805484Y-110287022D01*
X124837318Y-110281462D01*
X124868181Y-110278846D01*
X124901855Y-110278130D01*
X124924750Y-110278177D01*
X125010826Y-110283711D01*
X125089607Y-110301123D01*
X125171470Y-110333073D01*
X125207703Y-110350671D01*
X125312481Y-110414476D01*
X125422391Y-110501714D01*
X125536400Y-110611175D01*
X125653475Y-110741651D01*
X125772583Y-110891934D01*
X125892692Y-111060816D01*
X126012769Y-111247087D01*
X126101992Y-111397141D01*
X126130185Y-111447734D01*
X126166685Y-111515576D01*
X126209333Y-111596439D01*
X126255971Y-111686094D01*
X126304438Y-111780316D01*
X126352577Y-111874876D01*
X126398228Y-111965548D01*
X126439232Y-112048104D01*
X126473430Y-112118317D01*
X126498663Y-112171958D01*
X126505488Y-112187200D01*
X126534566Y-112252940D01*
X126573493Y-112339791D01*
X126622624Y-112448540D01*
X126647068Y-112502435D01*
X126664053Y-112541613D01*
X126685698Y-112593943D01*
X126707632Y-112648836D01*
X126709975Y-112654835D01*
X126735910Y-112720762D01*
X126756281Y-112770813D01*
X126774360Y-112812926D01*
X126784203Y-112834900D01*
X126798062Y-112869567D01*
X126812142Y-112911194D01*
X126824328Y-112952492D01*
X126832506Y-112986171D01*
X126834561Y-113004944D01*
X126833953Y-113006379D01*
X126820862Y-113003329D01*
X126788531Y-112990646D01*
X126740525Y-112969883D01*
X126680409Y-112942588D01*
X126611750Y-112910312D01*
X126599678Y-112904535D01*
X126528325Y-112870384D01*
X126463532Y-112839540D01*
X126409268Y-112813880D01*
X126369505Y-112795279D01*
X126348210Y-112785615D01*
X126347150Y-112785171D01*
X126315141Y-112771941D01*
X126290000Y-112761417D01*
X126205103Y-112728207D01*
X126105090Y-112693160D01*
X125999737Y-112659494D01*
X125898819Y-112630423D01*
X125864550Y-112621472D01*
X125775637Y-112599855D01*
X125703471Y-112584669D01*
X125640523Y-112574862D01*
X125579269Y-112569380D01*
X125512180Y-112567169D01*
X125475221Y-112566960D01*
X125399803Y-112568288D01*
X125341593Y-112572867D01*
X125292500Y-112581672D01*
X125248600Y-112594290D01*
X125116864Y-112645671D01*
X125002315Y-112708431D01*
X124897695Y-112787038D01*
X124825697Y-112854681D01*
X124739439Y-112957977D01*
X124676034Y-113070469D01*
X124636827Y-113182861D01*
X124619715Y-113239277D01*
X124603375Y-113272433D01*
X124586173Y-113284358D01*
X124566475Y-113277078D01*
X124563090Y-113274358D01*
X124545871Y-113259658D01*
X124514198Y-113232575D01*
X124472909Y-113197247D01*
X124435800Y-113165484D01*
X124314717Y-113067879D01*
X124199715Y-112988953D01*
X124084390Y-112925266D01*
X123962338Y-112873375D01*
X123827153Y-112829840D01*
X123794450Y-112820892D01*
X123745082Y-112812131D01*
X123679547Y-112806501D01*
X123605278Y-112804005D01*
X123529712Y-112804648D01*
X123460283Y-112808434D01*
X123404426Y-112815367D01*
X123381700Y-112820670D01*
X123255968Y-112871616D01*
X123133782Y-112946485D01*
X123014285Y-113045848D01*
X122953570Y-113106702D01*
X122866821Y-113206275D01*
X122791484Y-113310192D01*
X122723584Y-113424728D01*
X122659145Y-113556159D01*
X122637054Y-113606425D01*
X122622433Y-113633844D01*
X122609590Y-113647392D01*
X122608084Y-113647700D01*
X122595272Y-113637747D01*
X122576353Y-113612708D01*
X122568415Y-113600075D01*
X122544162Y-113558603D01*
X122517122Y-113511264D01*
X122508162Y-113495300D01*
X122474810Y-113439734D01*
X122430496Y-113371825D01*
X122380313Y-113298911D01*
X122329356Y-113228329D01*
X122282720Y-113167418D01*
X122267782Y-113149045D01*
X122214367Y-113091187D01*
X122148677Y-113029724D01*
X122077266Y-112970039D01*
X122006690Y-112917514D01*
X121943503Y-112877532D01*
X121925682Y-112868151D01*
X121816818Y-112819164D01*
X121720899Y-112787482D01*
X121632426Y-112772947D01*
X121545897Y-112775404D01*
X121455811Y-112794694D01*
X121356669Y-112830661D01*
X121311175Y-112850625D01*
X121258924Y-112874400D01*
X121203576Y-112899477D01*
X121178250Y-112910907D01*
X121131859Y-112931813D01*
X121075918Y-112957042D01*
X121032200Y-112976773D01*
X120987073Y-112997100D01*
X120948257Y-113014500D01*
X120924250Y-113025165D01*
X120834326Y-113055465D01*
X120726335Y-113077237D01*
X120606136Y-113090474D01*
X120479591Y-113095167D01*
X120352561Y-113091307D01*
X120230906Y-113078888D01*
X120120486Y-113057900D01*
X120027164Y-113028335D01*
X120022550Y-113026421D01*
X119950361Y-112993821D01*
X119869336Y-112953724D01*
X119788412Y-112910810D01*
X119716529Y-112869759D01*
X119680163Y-112847128D01*
X119624754Y-112808393D01*
X119570844Y-112764794D01*
X119515197Y-112713146D01*
X119454578Y-112650264D01*
X119385752Y-112572962D01*
X119306446Y-112479216D01*
X119259958Y-112423773D01*
X119217399Y-112373900D01*
X119182159Y-112333501D01*
X119157626Y-112306482D01*
X119149464Y-112298325D01*
X119136770Y-112289753D01*
X119118436Y-112283714D01*
X119090336Y-112279812D01*
X119048342Y-112277651D01*
X118988329Y-112276837D01*
X118925768Y-112276884D01*
X118816041Y-112279019D01*
X118701410Y-112284279D01*
X118586995Y-112292195D01*
X118477918Y-112302296D01*
X118379300Y-112314116D01*
X118296264Y-112327183D01*
X118238200Y-112339859D01*
X118135823Y-112368496D01*
X118048164Y-112396161D01*
X117966246Y-112426165D01*
X117881095Y-112461819D01*
X117783736Y-112506434D01*
X117773266Y-112511382D01*
X117718831Y-112536303D01*
X117669584Y-112557310D01*
X117632059Y-112571697D01*
X117616347Y-112576365D01*
X117600028Y-112578655D01*
X117588816Y-112574655D01*
X117580308Y-112559865D01*
X117572099Y-112529785D01*
X117561783Y-112479915D01*
X117559998Y-112470917D01*
X117533588Y-112339977D01*
X117510318Y-112230865D01*
X117489139Y-112140354D01*
X117469006Y-112065219D01*
X117448872Y-112002234D01*
X117427691Y-111948174D01*
X117404415Y-111899814D01*
X117377999Y-111853927D01*
X117347394Y-111807288D01*
X117342254Y-111799850D01*
X117299710Y-111744011D01*
X117247175Y-111683219D01*
X117189191Y-111621963D01*
X117130297Y-111564731D01*
X117075035Y-111516011D01*
X117027944Y-111480293D01*
X117005551Y-111466994D01*
X116954202Y-111443196D01*
X116905772Y-111425487D01*
X116855429Y-111413188D01*
X116798341Y-111405621D01*
X116729674Y-111402109D01*
X116644598Y-111401971D01*
X116556684Y-111403975D01*
X116435343Y-111409123D01*
X116332853Y-111417652D01*
X116242748Y-111430875D01*
X116158565Y-111450101D01*
X116073838Y-111476644D01*
X115982103Y-111511815D01*
X115941622Y-111528753D01*
X115888744Y-111547892D01*
X115853098Y-111551666D01*
X115831360Y-111539629D01*
X115820437Y-111512512D01*
X115816025Y-111477484D01*
X115813143Y-111429735D01*
X115812499Y-111396510D01*
X115802119Y-111289734D01*
X115772532Y-111175619D01*
X115726066Y-111060293D01*
X115665050Y-110949885D01*
X115616490Y-110880811D01*
X115511544Y-110763638D01*
X115396038Y-110669399D01*
X115268986Y-110597500D01*
X115129400Y-110547347D01*
X115025100Y-110525084D01*
X114796782Y-110497968D01*
X114550519Y-110486840D01*
X114288092Y-110491687D01*
X114011283Y-110512499D01*
X113838517Y-110532713D01*
X113788584Y-110539308D01*
X113837492Y-110471079D01*
X113877909Y-110419537D01*
X113935628Y-110353059D01*
X114008845Y-110273440D01*
X114095752Y-110182477D01*
X114194544Y-110081965D01*
X114303413Y-109973700D01*
X114420555Y-109859480D01*
X114544162Y-109741099D01*
X114672428Y-109620355D01*
X114803548Y-109499042D01*
X114935715Y-109378958D01*
X114936200Y-109378521D01*
X115150903Y-109194863D01*
X115360924Y-109034726D01*
X115567835Y-108897012D01*
X115773208Y-108780625D01*
X115841548Y-108746401D01*
X115972026Y-108686354D01*
X116086297Y-108640927D01*
X116188085Y-108608996D01*
X116281112Y-108589435D01*
X116369104Y-108581121D01*
X116390350Y-108580671D01*
X116444380Y-108582234D01*
X116486590Y-108589909D01*
X116529850Y-108606804D01*
X116559413Y-108621494D01*
X116606874Y-108648821D01*
X116661138Y-108685574D01*
X116723792Y-108733087D01*
X116796424Y-108792690D01*
X116880620Y-108865718D01*
X116977968Y-108953502D01*
X117090056Y-109057375D01*
X117183457Y-109145416D01*
X117227278Y-109186843D01*
X117265207Y-109222483D01*
X117292940Y-109248305D01*
X117305660Y-109259850D01*
X117317396Y-109271055D01*
X117345398Y-109298366D01*
X117387875Y-109340023D01*
X117443039Y-109394265D01*
X117509101Y-109459331D01*
X117584272Y-109533460D01*
X117666763Y-109614892D01*
X117754786Y-109701865D01*
X117770146Y-109717050D01*
X117918466Y-109863452D01*
X118049916Y-109992661D01*
X118165458Y-110105570D01*
X118266056Y-110203073D01*
X118352671Y-110286064D01*
X118426266Y-110355436D01*
X118487805Y-110412084D01*
X118538249Y-110456900D01*
X118578561Y-110490780D01*
X118609705Y-110514616D01*
X118632641Y-110529303D01*
X118648334Y-110535733D01*
X118652408Y-110536200D01*
X118665267Y-110525148D01*
X118675771Y-110498212D01*
X118676498Y-110494925D01*
X118710955Y-110376932D01*
X118766318Y-110251376D01*
X118840579Y-110121648D01*
X118931729Y-109991142D01*
X119037760Y-109863251D01*
X119073186Y-109824825D01*
X119117804Y-109776926D01*
X119157824Y-109732684D01*
X119188957Y-109696929D01*
X119206908Y-109674489D01*
X119207222Y-109674037D01*
X119242835Y-109615360D01*
X119280043Y-109539828D01*
X119319737Y-109445344D01*
X119362806Y-109329813D01*
X119402102Y-109215400D01*
X119415271Y-109177280D01*
X119434080Y-109124571D01*
X119455237Y-109066461D01*
X119463550Y-109043950D01*
X119487417Y-108979158D01*
X119512872Y-108909329D01*
X119535253Y-108847266D01*
X119539845Y-108834400D01*
X119560122Y-108777805D01*
X119575370Y-108736671D01*
X119588913Y-108702471D01*
X119604074Y-108666680D01*
X119614855Y-108641980D01*
X119627776Y-108610862D01*
X119634784Y-108590736D01*
X119635200Y-108588323D01*
X119640124Y-108573999D01*
X119653095Y-108543080D01*
X119671410Y-108501983D01*
X119673300Y-108497849D01*
X119691987Y-108456029D01*
X119705575Y-108423680D01*
X119711355Y-108407273D01*
X119711400Y-108406793D01*
X119717493Y-108387230D01*
X119734137Y-108350354D01*
X119758875Y-108300671D01*
X119789254Y-108242686D01*
X119822818Y-108180905D01*
X119857111Y-108119832D01*
X119889679Y-108063974D01*
X119918067Y-108017836D01*
X119939819Y-107985922D01*
X119942905Y-107981956D01*
X119970966Y-107955108D01*
X120009114Y-107928088D01*
X120048516Y-107906289D01*
X120080340Y-107895105D01*
X120085967Y-107894600D01*
X120122136Y-107906668D01*
G37*
X120122136Y-107906668D02*
X120161301Y-107941278D01*
X120201626Y-107996031D01*
X120241280Y-108068531D01*
X120270579Y-108135900D01*
X120303551Y-108228671D01*
X120338176Y-108342895D01*
X120373528Y-108474755D01*
X120408679Y-108620434D01*
X120442704Y-108776116D01*
X120474676Y-108937985D01*
X120500298Y-109082050D01*
X120510769Y-109141410D01*
X120523620Y-109210349D01*
X120535608Y-109271615D01*
X120555950Y-109372280D01*
X120682950Y-109395133D01*
X120744287Y-109406365D01*
X120803031Y-109417458D01*
X120850258Y-109426712D01*
X120867100Y-109430190D01*
X120918223Y-109439939D01*
X120972726Y-109448686D01*
X120983772Y-109450205D01*
X121043294Y-109458015D01*
X121111825Y-109339882D01*
X121150930Y-109272488D01*
X121194389Y-109197610D01*
X121239457Y-109119979D01*
X121283389Y-109044322D01*
X121323439Y-108975366D01*
X121356862Y-108917841D01*
X121380911Y-108876474D01*
X121384814Y-108869766D01*
X121424055Y-108806317D01*
X121473540Y-108732301D01*
X121529536Y-108652766D01*
X121588306Y-108572760D01*
X121646115Y-108497329D01*
X121699229Y-108431523D01*
X121743911Y-108380389D01*
X121757080Y-108366678D01*
X121825294Y-108307083D01*
X121889905Y-108267889D01*
X121949016Y-108249616D01*
X122000726Y-108252783D01*
X122043137Y-108277908D01*
X122050943Y-108286329D01*
X122071073Y-108314143D01*
X122088931Y-108347976D01*
X122104674Y-108389430D01*
X122118462Y-108440104D01*
X122130453Y-108501600D01*
X122140806Y-108575516D01*
X122149679Y-108663454D01*
X122157231Y-108767013D01*
X122163621Y-108887795D01*
X122169007Y-109027399D01*
X122173548Y-109187425D01*
X122177402Y-109369475D01*
X122180729Y-109575148D01*
X122181065Y-109598984D01*
X122183171Y-109737091D01*
X122185508Y-109852430D01*
X122188392Y-109947629D01*
X122192141Y-110025319D01*
X122197071Y-110088131D01*
X122203497Y-110138696D01*
X122211737Y-110179642D01*
X122222107Y-110213602D01*
X122234923Y-110243205D01*
X122250501Y-110271082D01*
X122264543Y-110292973D01*
X122307341Y-110364400D01*
X122350989Y-110449270D01*
X122390744Y-110537502D01*
X122421866Y-110619016D01*
X122430057Y-110644821D01*
X122439638Y-110681794D01*
X122447072Y-110722523D01*
X122452784Y-110771473D01*
X122457198Y-110833110D01*
X122460738Y-110911899D01*
X122463368Y-110995354D01*
X122466042Y-111075178D01*
X122469316Y-111146856D01*
X122472934Y-111206321D01*
X122476638Y-111249510D01*
X122480172Y-111272358D01*
X122480977Y-111274381D01*
X122489254Y-111281614D01*
X122503942Y-111282950D01*
X122528069Y-111277366D01*
X122564664Y-111263839D01*
X122616755Y-111241346D01*
X122687372Y-111208862D01*
X122719496Y-111193779D01*
X122782369Y-111164213D01*
X122845645Y-111134561D01*
X122900758Y-111108832D01*
X122930850Y-111094860D01*
X122977806Y-111073074D01*
X123037407Y-111045318D01*
X123099306Y-111016415D01*
X123121350Y-111006100D01*
X123181403Y-110978011D01*
X123243104Y-110949207D01*
X123296104Y-110924517D01*
X123311850Y-110917200D01*
X123358808Y-110895348D01*
X123418412Y-110867539D01*
X123480313Y-110838604D01*
X123502350Y-110828287D01*
X123596398Y-110784386D01*
X123683570Y-110743984D01*
X123761144Y-110708321D01*
X123826397Y-110678636D01*
X123876605Y-110656167D01*
X123909046Y-110642156D01*
X123920840Y-110637800D01*
X123933915Y-110632839D01*
X123964291Y-110619628D01*
X124006260Y-110600669D01*
X124022176Y-110593350D01*
X124066915Y-110572991D01*
X124102143Y-110557537D01*
X124122088Y-110549498D01*
X124124356Y-110548900D01*
X124138145Y-110544076D01*
X124168210Y-110531496D01*
X124203677Y-110515835D01*
X124240154Y-110499436D01*
X124269974Y-110486258D01*
X124298148Y-110474262D01*
X124329691Y-110461407D01*
X124369616Y-110445651D01*
X124422935Y-110424954D01*
X124494661Y-110397276D01*
X124499300Y-110395487D01*
X124592750Y-110359561D01*
X124666310Y-110331795D01*
X124723763Y-110311145D01*
X124768893Y-110296569D01*
X124805484Y-110287022D01*
X124837318Y-110281462D01*
X124868181Y-110278846D01*
X124901855Y-110278130D01*
X124924750Y-110278177D01*
X125010826Y-110283711D01*
X125089607Y-110301123D01*
X125171470Y-110333073D01*
X125207703Y-110350671D01*
X125312481Y-110414476D01*
X125422391Y-110501714D01*
X125536400Y-110611175D01*
X125653475Y-110741651D01*
X125772583Y-110891934D01*
X125892692Y-111060816D01*
X126012769Y-111247087D01*
X126101992Y-111397141D01*
X126130185Y-111447734D01*
X126166685Y-111515576D01*
X126209333Y-111596439D01*
X126255971Y-111686094D01*
X126304438Y-111780316D01*
X126352577Y-111874876D01*
X126398228Y-111965548D01*
X126439232Y-112048104D01*
X126473430Y-112118317D01*
X126498663Y-112171958D01*
X126505488Y-112187200D01*
X126534566Y-112252940D01*
X126573493Y-112339791D01*
X126622624Y-112448540D01*
X126647068Y-112502435D01*
X126664053Y-112541613D01*
X126685698Y-112593943D01*
X126707632Y-112648836D01*
X126709975Y-112654835D01*
X126735910Y-112720762D01*
X126756281Y-112770813D01*
X126774360Y-112812926D01*
X126784203Y-112834900D01*
X126798062Y-112869567D01*
X126812142Y-112911194D01*
X126824328Y-112952492D01*
X126832506Y-112986171D01*
X126834561Y-113004944D01*
X126833953Y-113006379D01*
X126820862Y-113003329D01*
X126788531Y-112990646D01*
X126740525Y-112969883D01*
X126680409Y-112942588D01*
X126611750Y-112910312D01*
X126599678Y-112904535D01*
X126528325Y-112870384D01*
X126463532Y-112839540D01*
X126409268Y-112813880D01*
X126369505Y-112795279D01*
X126348210Y-112785615D01*
X126347150Y-112785171D01*
X126315141Y-112771941D01*
X126290000Y-112761417D01*
X126205103Y-112728207D01*
X126105090Y-112693160D01*
X125999737Y-112659494D01*
X125898819Y-112630423D01*
X125864550Y-112621472D01*
X125775637Y-112599855D01*
X125703471Y-112584669D01*
X125640523Y-112574862D01*
X125579269Y-112569380D01*
X125512180Y-112567169D01*
X125475221Y-112566960D01*
X125399803Y-112568288D01*
X125341593Y-112572867D01*
X125292500Y-112581672D01*
X125248600Y-112594290D01*
X125116864Y-112645671D01*
X125002315Y-112708431D01*
X124897695Y-112787038D01*
X124825697Y-112854681D01*
X124739439Y-112957977D01*
X124676034Y-113070469D01*
X124636827Y-113182861D01*
X124619715Y-113239277D01*
X124603375Y-113272433D01*
X124586173Y-113284358D01*
X124566475Y-113277078D01*
X124563090Y-113274358D01*
X124545871Y-113259658D01*
X124514198Y-113232575D01*
X124472909Y-113197247D01*
X124435800Y-113165484D01*
X124314717Y-113067879D01*
X124199715Y-112988953D01*
X124084390Y-112925266D01*
X123962338Y-112873375D01*
X123827153Y-112829840D01*
X123794450Y-112820892D01*
X123745082Y-112812131D01*
X123679547Y-112806501D01*
X123605278Y-112804005D01*
X123529712Y-112804648D01*
X123460283Y-112808434D01*
X123404426Y-112815367D01*
X123381700Y-112820670D01*
X123255968Y-112871616D01*
X123133782Y-112946485D01*
X123014285Y-113045848D01*
X122953570Y-113106702D01*
X122866821Y-113206275D01*
X122791484Y-113310192D01*
X122723584Y-113424728D01*
X122659145Y-113556159D01*
X122637054Y-113606425D01*
X122622433Y-113633844D01*
X122609590Y-113647392D01*
X122608084Y-113647700D01*
X122595272Y-113637747D01*
X122576353Y-113612708D01*
X122568415Y-113600075D01*
X122544162Y-113558603D01*
X122517122Y-113511264D01*
X122508162Y-113495300D01*
X122474810Y-113439734D01*
X122430496Y-113371825D01*
X122380313Y-113298911D01*
X122329356Y-113228329D01*
X122282720Y-113167418D01*
X122267782Y-113149045D01*
X122214367Y-113091187D01*
X122148677Y-113029724D01*
X122077266Y-112970039D01*
X122006690Y-112917514D01*
X121943503Y-112877532D01*
X121925682Y-112868151D01*
X121816818Y-112819164D01*
X121720899Y-112787482D01*
X121632426Y-112772947D01*
X121545897Y-112775404D01*
X121455811Y-112794694D01*
X121356669Y-112830661D01*
X121311175Y-112850625D01*
X121258924Y-112874400D01*
X121203576Y-112899477D01*
X121178250Y-112910907D01*
X121131859Y-112931813D01*
X121075918Y-112957042D01*
X121032200Y-112976773D01*
X120987073Y-112997100D01*
X120948257Y-113014500D01*
X120924250Y-113025165D01*
X120834326Y-113055465D01*
X120726335Y-113077237D01*
X120606136Y-113090474D01*
X120479591Y-113095167D01*
X120352561Y-113091307D01*
X120230906Y-113078888D01*
X120120486Y-113057900D01*
X120027164Y-113028335D01*
X120022550Y-113026421D01*
X119950361Y-112993821D01*
X119869336Y-112953724D01*
X119788412Y-112910810D01*
X119716529Y-112869759D01*
X119680163Y-112847128D01*
X119624754Y-112808393D01*
X119570844Y-112764794D01*
X119515197Y-112713146D01*
X119454578Y-112650264D01*
X119385752Y-112572962D01*
X119306446Y-112479216D01*
X119259958Y-112423773D01*
X119217399Y-112373900D01*
X119182159Y-112333501D01*
X119157626Y-112306482D01*
X119149464Y-112298325D01*
X119136770Y-112289753D01*
X119118436Y-112283714D01*
X119090336Y-112279812D01*
X119048342Y-112277651D01*
X118988329Y-112276837D01*
X118925768Y-112276884D01*
X118816041Y-112279019D01*
X118701410Y-112284279D01*
X118586995Y-112292195D01*
X118477918Y-112302296D01*
X118379300Y-112314116D01*
X118296264Y-112327183D01*
X118238200Y-112339859D01*
X118135823Y-112368496D01*
X118048164Y-112396161D01*
X117966246Y-112426165D01*
X117881095Y-112461819D01*
X117783736Y-112506434D01*
X117773266Y-112511382D01*
X117718831Y-112536303D01*
X117669584Y-112557310D01*
X117632059Y-112571697D01*
X117616347Y-112576365D01*
X117600028Y-112578655D01*
X117588816Y-112574655D01*
X117580308Y-112559865D01*
X117572099Y-112529785D01*
X117561783Y-112479915D01*
X117559998Y-112470917D01*
X117533588Y-112339977D01*
X117510318Y-112230865D01*
X117489139Y-112140354D01*
X117469006Y-112065219D01*
X117448872Y-112002234D01*
X117427691Y-111948174D01*
X117404415Y-111899814D01*
X117377999Y-111853927D01*
X117347394Y-111807288D01*
X117342254Y-111799850D01*
X117299710Y-111744011D01*
X117247175Y-111683219D01*
X117189191Y-111621963D01*
X117130297Y-111564731D01*
X117075035Y-111516011D01*
X117027944Y-111480293D01*
X117005551Y-111466994D01*
X116954202Y-111443196D01*
X116905772Y-111425487D01*
X116855429Y-111413188D01*
X116798341Y-111405621D01*
X116729674Y-111402109D01*
X116644598Y-111401971D01*
X116556684Y-111403975D01*
X116435343Y-111409123D01*
X116332853Y-111417652D01*
X116242748Y-111430875D01*
X116158565Y-111450101D01*
X116073838Y-111476644D01*
X115982103Y-111511815D01*
X115941622Y-111528753D01*
X115888744Y-111547892D01*
X115853098Y-111551666D01*
X115831360Y-111539629D01*
X115820437Y-111512512D01*
X115816025Y-111477484D01*
X115813143Y-111429735D01*
X115812499Y-111396510D01*
X115802119Y-111289734D01*
X115772532Y-111175619D01*
X115726066Y-111060293D01*
X115665050Y-110949885D01*
X115616490Y-110880811D01*
X115511544Y-110763638D01*
X115396038Y-110669399D01*
X115268986Y-110597500D01*
X115129400Y-110547347D01*
X115025100Y-110525084D01*
X114796782Y-110497968D01*
X114550519Y-110486840D01*
X114288092Y-110491687D01*
X114011283Y-110512499D01*
X113838517Y-110532713D01*
X113788584Y-110539308D01*
X113837492Y-110471079D01*
X113877909Y-110419537D01*
X113935628Y-110353059D01*
X114008845Y-110273440D01*
X114095752Y-110182477D01*
X114194544Y-110081965D01*
X114303413Y-109973700D01*
X114420555Y-109859480D01*
X114544162Y-109741099D01*
X114672428Y-109620355D01*
X114803548Y-109499042D01*
X114935715Y-109378958D01*
X114936200Y-109378521D01*
X115150903Y-109194863D01*
X115360924Y-109034726D01*
X115567835Y-108897012D01*
X115773208Y-108780625D01*
X115841548Y-108746401D01*
X115972026Y-108686354D01*
X116086297Y-108640927D01*
X116188085Y-108608996D01*
X116281112Y-108589435D01*
X116369104Y-108581121D01*
X116390350Y-108580671D01*
X116444380Y-108582234D01*
X116486590Y-108589909D01*
X116529850Y-108606804D01*
X116559413Y-108621494D01*
X116606874Y-108648821D01*
X116661138Y-108685574D01*
X116723792Y-108733087D01*
X116796424Y-108792690D01*
X116880620Y-108865718D01*
X116977968Y-108953502D01*
X117090056Y-109057375D01*
X117183457Y-109145416D01*
X117227278Y-109186843D01*
X117265207Y-109222483D01*
X117292940Y-109248305D01*
X117305660Y-109259850D01*
X117317396Y-109271055D01*
X117345398Y-109298366D01*
X117387875Y-109340023D01*
X117443039Y-109394265D01*
X117509101Y-109459331D01*
X117584272Y-109533460D01*
X117666763Y-109614892D01*
X117754786Y-109701865D01*
X117770146Y-109717050D01*
X117918466Y-109863452D01*
X118049916Y-109992661D01*
X118165458Y-110105570D01*
X118266056Y-110203073D01*
X118352671Y-110286064D01*
X118426266Y-110355436D01*
X118487805Y-110412084D01*
X118538249Y-110456900D01*
X118578561Y-110490780D01*
X118609705Y-110514616D01*
X118632641Y-110529303D01*
X118648334Y-110535733D01*
X118652408Y-110536200D01*
X118665267Y-110525148D01*
X118675771Y-110498212D01*
X118676498Y-110494925D01*
X118710955Y-110376932D01*
X118766318Y-110251376D01*
X118840579Y-110121648D01*
X118931729Y-109991142D01*
X119037760Y-109863251D01*
X119073186Y-109824825D01*
X119117804Y-109776926D01*
X119157824Y-109732684D01*
X119188957Y-109696929D01*
X119206908Y-109674489D01*
X119207222Y-109674037D01*
X119242835Y-109615360D01*
X119280043Y-109539828D01*
X119319737Y-109445344D01*
X119362806Y-109329813D01*
X119402102Y-109215400D01*
X119415271Y-109177280D01*
X119434080Y-109124571D01*
X119455237Y-109066461D01*
X119463550Y-109043950D01*
X119487417Y-108979158D01*
X119512872Y-108909329D01*
X119535253Y-108847266D01*
X119539845Y-108834400D01*
X119560122Y-108777805D01*
X119575370Y-108736671D01*
X119588913Y-108702471D01*
X119604074Y-108666680D01*
X119614855Y-108641980D01*
X119627776Y-108610862D01*
X119634784Y-108590736D01*
X119635200Y-108588323D01*
X119640124Y-108573999D01*
X119653095Y-108543080D01*
X119671410Y-108501983D01*
X119673300Y-108497849D01*
X119691987Y-108456029D01*
X119705575Y-108423680D01*
X119711355Y-108407273D01*
X119711400Y-108406793D01*
X119717493Y-108387230D01*
X119734137Y-108350354D01*
X119758875Y-108300671D01*
X119789254Y-108242686D01*
X119822818Y-108180905D01*
X119857111Y-108119832D01*
X119889679Y-108063974D01*
X119918067Y-108017836D01*
X119939819Y-107985922D01*
X119942905Y-107981956D01*
X119970966Y-107955108D01*
X120009114Y-107928088D01*
X120048516Y-107906289D01*
X120080340Y-107895105D01*
X120085967Y-107894600D01*
X120122136Y-107906668D01*
G04 #@! TD*
D11*
G04 #@! TO.C,Brd1*
X179106250Y-94107500D03*
X179106250Y-91567500D03*
X179106250Y-89027500D03*
X179106250Y-86487500D03*
G04 #@! TD*
D12*
G04 #@! TO.C,D3*
X94350000Y-117000000D03*
X97150000Y-117000000D03*
G04 #@! TD*
D13*
G04 #@! TO.C,JP1*
X173781250Y-85225000D03*
D14*
X175081250Y-85225000D03*
G04 #@! TD*
D13*
G04 #@! TO.C,JP2*
X173781250Y-88400000D03*
D14*
X175081250Y-88400000D03*
G04 #@! TD*
D13*
G04 #@! TO.C,JP3*
X173781250Y-91575000D03*
D14*
X175081250Y-91575000D03*
G04 #@! TD*
D13*
G04 #@! TO.C,JP4*
X173781250Y-94750000D03*
D14*
X175081250Y-94750000D03*
G04 #@! TD*
D15*
G04 #@! TO.C,MX1*
X92805650Y-69642350D03*
D16*
X92385650Y-69642350D03*
X82225650Y-69642350D03*
D15*
X81805650Y-69642350D03*
D17*
X87305650Y-69642350D03*
D18*
X91115650Y-67102350D03*
X92405650Y-73542350D03*
X84765650Y-64562350D03*
X87305650Y-75542350D03*
G04 #@! TD*
D16*
G04 #@! TO.C,MX2*
X92385650Y-88693750D03*
D15*
X81805650Y-88693750D03*
D17*
X87305650Y-88693750D03*
D15*
X92805650Y-88693750D03*
D16*
X82225650Y-88693750D03*
D18*
X91115650Y-86153750D03*
X92405650Y-92593750D03*
X84765650Y-83613750D03*
X87305650Y-94593750D03*
G04 #@! TD*
D15*
G04 #@! TO.C,MX3*
X92812500Y-107743750D03*
X81812500Y-107743750D03*
D16*
X82232500Y-107743750D03*
X92392500Y-107743750D03*
D17*
X87312500Y-107743750D03*
D18*
X91122500Y-105203750D03*
X92412500Y-111643750D03*
X87312500Y-113643750D03*
X84772500Y-102663750D03*
G04 #@! TD*
D15*
G04 #@! TO.C,MX4*
X111854450Y-57736100D03*
D17*
X106354450Y-57736100D03*
D15*
X100854450Y-57736100D03*
D16*
X101274450Y-57736100D03*
X111434450Y-57736100D03*
D18*
X110164450Y-55196100D03*
X111454450Y-61636100D03*
X106354450Y-63636100D03*
X103814450Y-52656100D03*
G04 #@! TD*
D15*
G04 #@! TO.C,MX5*
X100862500Y-76787500D03*
D16*
X101282500Y-76787500D03*
X111442500Y-76787500D03*
D17*
X106362500Y-76787500D03*
D15*
X111862500Y-76787500D03*
D18*
X110172500Y-74247500D03*
X111462500Y-80687500D03*
X106362500Y-82687500D03*
X103822500Y-71707500D03*
G04 #@! TD*
D16*
G04 #@! TO.C,MX6*
X101282500Y-95837500D03*
X111442500Y-95837500D03*
D15*
X100862500Y-95837500D03*
X111862500Y-95837500D03*
D17*
X106362500Y-95837500D03*
D18*
X110172500Y-93297500D03*
X111462500Y-99737500D03*
X106362500Y-101737500D03*
X103822500Y-90757500D03*
G04 #@! TD*
D16*
G04 #@! TO.C,MX7*
X120323250Y-51736100D03*
X130483250Y-51736100D03*
D15*
X119903250Y-51736100D03*
X130903250Y-51736100D03*
D17*
X125403250Y-51736100D03*
D18*
X130503250Y-55636100D03*
X129213250Y-49196100D03*
X122863250Y-46656100D03*
X125403250Y-57636100D03*
G04 #@! TD*
D16*
G04 #@! TO.C,MX8*
X120332500Y-70787500D03*
D15*
X130912500Y-70787500D03*
D16*
X130492500Y-70787500D03*
D17*
X125412500Y-70787500D03*
D15*
X119912500Y-70787500D03*
D18*
X129222500Y-68247500D03*
X130512500Y-74687500D03*
X122872500Y-65707500D03*
X125412500Y-76687500D03*
G04 #@! TD*
D16*
G04 #@! TO.C,MX9*
X120332500Y-89837500D03*
X130492500Y-89837500D03*
D17*
X125412500Y-89837500D03*
D15*
X119912500Y-89837500D03*
X130912500Y-89837500D03*
D18*
X130512500Y-93737500D03*
X129222500Y-87297500D03*
X122872500Y-84757500D03*
X125412500Y-95737500D03*
G04 #@! TD*
D17*
G04 #@! TO.C,MX10*
X137412500Y-128968750D03*
D15*
X142828943Y-129923815D03*
D16*
X142415323Y-129850883D03*
D15*
X131996057Y-128013685D03*
D16*
X132409677Y-128086617D03*
D18*
X141757792Y-133695106D03*
X141605684Y-127128938D03*
X136387976Y-134779116D03*
X135793221Y-123524860D03*
G04 #@! TD*
D16*
G04 #@! TO.C,MX11*
X149532050Y-58736100D03*
D17*
X144452050Y-58736100D03*
D15*
X138952050Y-58736100D03*
D16*
X139372050Y-58736100D03*
D15*
X149952050Y-58736100D03*
D18*
X148262050Y-56196100D03*
X149552050Y-62636100D03*
X141912050Y-53656100D03*
X144452050Y-64636100D03*
G04 #@! TD*
D15*
G04 #@! TO.C,MX12*
X149962500Y-77787500D03*
D16*
X139382500Y-77787500D03*
X149542500Y-77787500D03*
D17*
X144462500Y-77787500D03*
D15*
X138962500Y-77787500D03*
D18*
X148272500Y-75247500D03*
X149562500Y-81687500D03*
X141922500Y-72707500D03*
X144462500Y-83687500D03*
G04 #@! TD*
D16*
G04 #@! TO.C,MX13*
X139382500Y-96837500D03*
D17*
X144462500Y-96837500D03*
D15*
X138962500Y-96837500D03*
X149962500Y-96837500D03*
D16*
X149542500Y-96837500D03*
D18*
X149562500Y-100737500D03*
X148272500Y-94297500D03*
X141922500Y-91757500D03*
X144462500Y-102737500D03*
G04 #@! TD*
D15*
G04 #@! TO.C,MX14*
X155805610Y-132762500D03*
X165331890Y-138262500D03*
D16*
X156169341Y-132972500D03*
X164968159Y-138052500D03*
D17*
X160568750Y-135512500D03*
D18*
X163035480Y-141439999D03*
X165138307Y-135217795D03*
X157618750Y-140622050D03*
X160909045Y-129843091D03*
G04 #@! TD*
D15*
G04 #@! TO.C,MX15*
X169000850Y-61736100D03*
D17*
X163500850Y-61736100D03*
D16*
X158420850Y-61736100D03*
X168580850Y-61736100D03*
D15*
X158000850Y-61736100D03*
D18*
X167310850Y-59196100D03*
X168600850Y-65636100D03*
X160960850Y-56656100D03*
X163500850Y-67636100D03*
G04 #@! TD*
D17*
G04 #@! TO.C,MX16*
X163512500Y-80787500D03*
D15*
X158012500Y-80787500D03*
D16*
X168592500Y-80787500D03*
X158432500Y-80787500D03*
D15*
X169012500Y-80787500D03*
D18*
X167322500Y-78247500D03*
X168612500Y-84687500D03*
X163512500Y-86687500D03*
X160972500Y-75707500D03*
G04 #@! TD*
D17*
G04 #@! TO.C,MX17*
X163512500Y-99837500D03*
D16*
X158432500Y-99837500D03*
D15*
X169012500Y-99837500D03*
X158012500Y-99837500D03*
D16*
X168592500Y-99837500D03*
D18*
X168612500Y-103737500D03*
X167322500Y-97297500D03*
X160972500Y-94757500D03*
X163512500Y-105737500D03*
G04 #@! TD*
D17*
G04 #@! TO.C,MX18*
X179568750Y-149512500D03*
D15*
X176033418Y-145299256D03*
D16*
X176303389Y-145620994D03*
D15*
X183104082Y-153725744D03*
D16*
X182834111Y-153404006D03*
D18*
X183963524Y-150798449D03*
X179859393Y-155926198D03*
X175049088Y-153304947D03*
X181827575Y-144301386D03*
G04 #@! TD*
D19*
G04 #@! TO.C,R1*
X177481250Y-106512500D03*
X175656250Y-106512500D03*
G04 #@! TD*
G04 #@! TO.C,R2*
X177481250Y-109512500D03*
X175656250Y-109512500D03*
G04 #@! TD*
D20*
G04 #@! TO.C,SW1*
X199943750Y-110900000D03*
X199943750Y-117200000D03*
X203743750Y-117200000D03*
X203743750Y-110900000D03*
G04 #@! TD*
D21*
G04 #@! TO.C,U1*
X200287565Y-77938245D03*
X183748750Y-76742500D03*
X200287565Y-80478245D03*
X183748750Y-79282500D03*
X183748750Y-81822500D03*
X200287565Y-83018245D03*
X200287565Y-85558245D03*
X183748750Y-84362500D03*
X183748750Y-86902500D03*
X200287565Y-88098245D03*
X183748750Y-89442500D03*
X200287565Y-90638245D03*
X183748750Y-91982500D03*
X200287565Y-93178245D03*
X183748750Y-94522500D03*
X200287565Y-95718245D03*
X200287565Y-98258245D03*
X183748750Y-97062500D03*
X200287565Y-100798245D03*
X183748750Y-99602500D03*
X183748750Y-102142500D03*
X200287565Y-103338245D03*
X183748750Y-104682500D03*
X200287565Y-105878245D03*
X185047565Y-105878245D03*
X198988750Y-104682500D03*
X198988750Y-102142500D03*
X185047565Y-103338245D03*
X198988750Y-99602500D03*
X185047565Y-100798245D03*
X185047565Y-98258245D03*
X198988750Y-97062500D03*
X198988750Y-94522500D03*
X185047565Y-95718245D03*
X198988750Y-91982500D03*
X185047565Y-93178245D03*
X198988750Y-89442500D03*
X185047565Y-90638245D03*
X185047565Y-88098245D03*
X198988750Y-86902500D03*
X198988750Y-84362500D03*
X185047565Y-85558245D03*
X198988750Y-81822500D03*
X185047565Y-83018245D03*
X198988750Y-79282500D03*
X185047565Y-80478245D03*
X198988750Y-76742500D03*
X185047565Y-77938245D03*
G04 #@! TD*
D22*
G04 #@! TO.C, *
X182189524Y-113879226D03*
X185006250Y-112712500D03*
X184522976Y-111545774D03*
X183356250Y-111062500D03*
X181706250Y-112712500D03*
D23*
X183356250Y-112712500D03*
D22*
X182189524Y-111545774D03*
X183356250Y-114362500D03*
X184522976Y-113879226D03*
G04 #@! TD*
G04 #@! TO.C, *
X199168750Y-124000000D03*
X200818750Y-125650000D03*
X201985476Y-122833274D03*
X199652024Y-122833274D03*
D23*
X200818750Y-124000000D03*
D22*
X202468750Y-124000000D03*
X201985476Y-125166726D03*
X200818750Y-122350000D03*
X199652024Y-125166726D03*
G04 #@! TD*
D24*
G04 #@! TO.C,SW3*
X170323559Y-114597436D03*
D25*
X167823559Y-118927564D03*
X169073559Y-116762500D03*
X180380928Y-126177564D03*
X182880928Y-121847436D03*
G04 #@! TD*
D26*
G04 #@! TO.C,SW4*
X130460562Y-125204369D03*
D25*
X129592321Y-130128408D03*
X130026442Y-127666389D03*
X143872034Y-132646307D03*
X144740275Y-127722268D03*
G04 #@! TD*
D27*
G04 #@! TO.C,REF\u002A\u002A*
X96837500Y-85725000D03*
G04 #@! TD*
G04 #@! TO.C,REF\u002A\u002A*
X134937500Y-68262500D03*
G04 #@! TD*
G04 #@! TO.C,REF\u002A\u002A*
X120750000Y-126750000D03*
G04 #@! TD*
G04 #@! TO.C,REF\u002A\u002A*
X194468750Y-141287500D03*
G04 #@! TD*
D22*
G04 #@! TO.C, *
X176633274Y-65508274D03*
X177800000Y-65025000D03*
X178966726Y-65508274D03*
X176633274Y-67841726D03*
X176150000Y-66675000D03*
D23*
X177800000Y-66675000D03*
D22*
X178966726Y-67841726D03*
X177800000Y-68325000D03*
X179450000Y-66675000D03*
G04 #@! TD*
D28*
G04 #@! TO.C,U2*
X199823698Y-130807105D03*
X199024917Y-135337221D03*
X192131263Y-134121684D03*
X192930044Y-129591568D03*
D29*
X189072891Y-135917891D03*
X190670454Y-126857660D03*
X190954961Y-131578789D03*
X194894192Y-132273381D03*
X197848615Y-132794326D03*
G04 #@! TD*
D30*
G04 #@! TO.C,D20*
X184711960Y-130588017D03*
X182654782Y-128136368D03*
X178825540Y-131349483D03*
X180882718Y-133801132D03*
G04 #@! TD*
D31*
G04 #@! TO.C,D21*
X152927278Y-124711170D03*
X149919885Y-123616569D03*
X148210222Y-128313830D03*
X151217615Y-129408431D03*
G04 #@! TD*
D32*
G04 #@! TO.C,D22*
X111635591Y-118614506D03*
X110035391Y-121386134D03*
X114364409Y-123885494D03*
X115964609Y-121113866D03*
G04 #@! TD*
D33*
G04 #@! TO.C,D23*
X84749360Y-99600200D03*
X84749360Y-96399800D03*
X79750640Y-96399800D03*
X79750640Y-99600200D03*
G04 #@! TD*
G04 #@! TO.C,D24*
X84499360Y-80600200D03*
X84499360Y-77399800D03*
X79500640Y-77399800D03*
X79500640Y-80600200D03*
G04 #@! TD*
G04 #@! TO.C,D25*
X97068110Y-60112700D03*
X97068110Y-56912300D03*
X92069390Y-56912300D03*
X92069390Y-60112700D03*
G04 #@! TD*
G04 #@! TO.C,D26*
X117068110Y-50112700D03*
X117068110Y-46912300D03*
X112069390Y-46912300D03*
X112069390Y-50112700D03*
G04 #@! TD*
G04 #@! TO.C,D27*
X147749360Y-49350200D03*
X147749360Y-46149800D03*
X142750640Y-46149800D03*
X142750640Y-49350200D03*
G04 #@! TD*
D34*
G04 #@! TO.C,D28*
X174363866Y-62714609D03*
X177135494Y-61114409D03*
X174636134Y-56785391D03*
X171864506Y-58385591D03*
G04 #@! TD*
D32*
G04 #@! TO.C,D29*
X190723091Y-110077006D03*
X189122891Y-112848634D03*
X193451909Y-115347994D03*
X195052109Y-112576366D03*
G04 #@! TD*
D12*
G04 #@! TO.C,D1*
X94168750Y-79512500D03*
X96968750Y-79512500D03*
G04 #@! TD*
G04 #@! TO.C,D2*
X94168750Y-98512500D03*
X96968750Y-98512500D03*
G04 #@! TD*
G04 #@! TO.C,D4*
X113118750Y-67512500D03*
X115918750Y-67512500D03*
G04 #@! TD*
G04 #@! TO.C,D5*
X113168750Y-86512500D03*
X115968750Y-86512500D03*
G04 #@! TD*
G04 #@! TO.C,D6*
X113087500Y-105568750D03*
X115887500Y-105568750D03*
G04 #@! TD*
G04 #@! TO.C,D7*
X189168750Y-120512500D03*
X191968750Y-120512500D03*
G04 #@! TD*
G04 #@! TO.C,D8*
X132168750Y-61512500D03*
X134968750Y-61512500D03*
G04 #@! TD*
G04 #@! TO.C,D9*
X132168750Y-80512500D03*
X134968750Y-80512500D03*
G04 #@! TD*
G04 #@! TO.C,D10*
X132100000Y-100250000D03*
X134900000Y-100250000D03*
G04 #@! TD*
G04 #@! TO.C,D11*
X142081250Y-114906250D03*
X142081250Y-112106250D03*
G04 #@! TD*
G04 #@! TO.C,D12*
X151793750Y-68262500D03*
X154593750Y-68262500D03*
G04 #@! TD*
G04 #@! TO.C,D13*
X151168750Y-87512500D03*
X153968750Y-87512500D03*
G04 #@! TD*
G04 #@! TO.C,D14*
X150018750Y-114906250D03*
X150018750Y-112106250D03*
G04 #@! TD*
G04 #@! TO.C,D15*
X146050000Y-114906250D03*
X146050000Y-112106250D03*
G04 #@! TD*
G04 #@! TO.C,D16*
X173225000Y-73025000D03*
X176025000Y-73025000D03*
G04 #@! TD*
G04 #@! TO.C,D17*
X173225000Y-76200000D03*
X176025000Y-76200000D03*
G04 #@! TD*
G04 #@! TO.C,D18*
X153987500Y-114906250D03*
X153987500Y-112106250D03*
G04 #@! TD*
G04 #@! TO.C,D19*
X189100000Y-123825000D03*
X191900000Y-123825000D03*
G04 #@! TD*
D13*
G04 #@! TO.C,JP9*
X158750000Y-112712500D03*
D14*
X160050000Y-112712500D03*
G04 #@! TD*
D13*
G04 #@! TO.C,JP10*
X158750000Y-115887500D03*
D14*
X160050000Y-115887500D03*
G04 #@! TD*
D13*
G04 #@! TO.C,JP13*
X158750000Y-119062500D03*
D14*
X160050000Y-119062500D03*
G04 #@! TD*
D35*
G04 #@! TO.C,BT1*
X180682000Y-74052000D03*
D36*
X180682000Y-76052000D03*
G04 #@! TD*
D22*
G04 #@! TO.C,SW6*
X194250000Y-74100000D03*
X191350000Y-74100000D03*
D37*
X189200000Y-75243000D03*
D38*
X189200000Y-72957000D03*
D37*
X196400000Y-72957000D03*
D38*
X196400000Y-75243000D03*
D39*
X195000000Y-75950000D03*
X192100000Y-75950000D03*
X190600000Y-75950000D03*
G04 #@! TD*
D40*
G04 #@! TO.C,pim1*
X175217147Y-136423385D03*
D41*
X173271395Y-138056066D03*
X171325642Y-139688746D03*
X169379889Y-141321427D03*
X167434136Y-142954107D03*
D42*
X190611317Y-147426426D03*
X183540654Y-138999937D03*
G04 #@! TD*
D22*
G04 #@! TO.C,SW5*
X190320000Y-74100000D03*
X193220000Y-74100000D03*
G04 #@! TD*
M02*
