M48
; DRILL file {KiCad (6.0.4-0)} date Sunday, May 15, 2022 at 07:59:05 PM
; FORMAT={-:-/ absolute / metric / decimal}
; #@! TF.CreationDate,2022-05-15T19:59:05-07:00
; #@! TF.GenerationSoftware,Kicad,Pcbnew,(6.0.4-0)
; #@! TF.FileFunction,Plated,1,2,PTH
FMAT,2
METRIC
; #@! TA.AperFunction,Plated,PTH,ComponentDrill
T1C0.200
; #@! TA.AperFunction,Plated,PTH,ViaDrill
T2C0.400
; #@! TA.AperFunction,Plated,PTH,ComponentDrill
T3C0.400
; #@! TA.AperFunction,Plated,PTH,ComponentDrill
T4C0.800
; #@! TA.AperFunction,Plated,PTH,ComponentDrill
T5C0.813
; #@! TA.AperFunction,Plated,PTH,ComponentDrill
T6C0.900
; #@! TA.AperFunction,Plated,PTH,ComponentDrill
T7C1.000
; #@! TA.AperFunction,Plated,PTH,ComponentDrill
T8C1.540
; #@! TA.AperFunction,Plated,PTH,ComponentDrill
T9C2.200
; #@! TA.AperFunction,Plated,PTH,ComponentDrill
T10C3.000
; #@! TA.AperFunction,Plated,PTH,ComponentDrill
T11C4.000
%
G90
G05
T1
X94.169Y-79.513
X94.169Y-98.512
X94.35Y-117.0
X96.969Y-79.513
X96.969Y-98.512
X97.15Y-117.0
X113.087Y-105.569
X113.119Y-67.513
X113.169Y-86.513
X115.887Y-105.569
X115.919Y-67.513
X115.969Y-86.513
X132.1Y-100.25
X132.169Y-61.512
X132.169Y-80.513
X134.9Y-100.25
X134.969Y-61.512
X134.969Y-80.513
X142.081Y-112.106
X142.081Y-114.906
X146.05Y-112.106
X146.05Y-114.906
X150.019Y-112.106
X150.019Y-114.906
X151.169Y-87.513
X151.794Y-68.263
X153.969Y-87.513
X153.987Y-112.106
X153.987Y-114.906
X154.594Y-68.263
X173.225Y-73.025
X173.225Y-76.2
X176.025Y-73.025
X176.025Y-76.2
X189.1Y-123.825
X189.169Y-120.512
X191.9Y-123.825
X191.969Y-120.512
T2
X79.0Y-98.0
X79.2Y-84.0
X79.8Y-116.6
X81.0Y-79.0
X81.5Y-98.0
X83.0Y-78.5
X83.0Y-98.0
X86.5Y-79.0
X87.5Y-98.5
X89.5Y-60.063
X97.039Y-55.039
X98.49Y-55.49
X107.5Y-110.0
X109.387Y-50.113
X110.0Y-119.0
X111.5Y-120.5
X113.5Y-120.5
X114.773Y-49.273
X115.965Y-126.035
X117.0Y-48.5
X121.0Y-101.5
X128.0Y-103.0
X133.466Y-106.247
X140.0Y-105.637
X140.5Y-45.0
X144.5Y-48.0
X145.5Y-48.0
X146.0Y-122.5
X148.0Y-130.0
X149.392Y-47.608
X151.0Y-127.5
X151.5Y-72.0
X151.5Y-126.0
X152.0Y-123.0
X152.501Y-120.501
X153.0Y-90.5
X153.5Y-59.5
X154.5Y-124.5
X156.369Y-106.362
X156.46Y-114.48
X156.899Y-108.141
X157.147Y-107.172
X158.513Y-106.487
X158.75Y-115.887
X159.013Y-121.987
X160.0Y-142.5
X160.05Y-112.712
X160.194Y-119.206
X160.356Y-105.737
X161.328Y-104.663
X162.345Y-124.5
X163.0Y-112.5
X163.0Y-115.5
X165.0Y-90.0
X165.174Y-120.513
X165.725Y-118.0
X165.936Y-105.824
X166.0Y-103.0
X166.951Y-107.049
X167.112Y-113.863
X167.757Y-105.757
X167.875Y-113.1
X170.019Y-121.519
X171.0Y-78.0
X171.0Y-112.0
X171.244Y-89.694
X172.244Y-89.694
X172.5Y-101.5
X172.5Y-110.5
X173.5Y-133.0
X174.0Y-59.5
X174.213Y-100.261
X174.424Y-107.424
X174.5Y-114.5
X174.625Y-82.55
X175.0Y-60.5
X175.081Y-91.575
X175.125Y-85.225
X175.125Y-88.4
X175.125Y-94.75
X175.5Y-130.5
X175.535Y-112.035
X176.0Y-97.5
X176.281Y-93.0
X176.5Y-63.0
X176.5Y-122.5
X176.79Y-139.71
X177.006Y-87.312
X177.006Y-97.533
X178.07Y-98.258
X178.142Y-77.83
X178.594Y-113.506
X178.641Y-133.5
X178.871Y-108.698
X179.0Y-79.5
X179.0Y-105.0
X179.0Y-116.5
X179.5Y-109.5
X179.5Y-113.0
X179.784Y-97.878
X180.0Y-132.5
X180.5Y-106.5
X180.565Y-99.725
X181.5Y-105.0
X181.725Y-93.218
X181.769Y-107.95
X182.0Y-101.0
X182.0Y-131.0
X182.5Y-109.5
X182.781Y-107.963
X183.486Y-118.486
X184.712Y-127.212
X186.5Y-109.0
X189.5Y-111.0
X189.572Y-77.148
X191.218Y-79.282
X191.5Y-112.5
X192.47Y-75.95
X194.65Y-114.15
X198.639Y-114.0
X200.0Y-111.0
X200.0Y-117.5
X201.084Y-109.416
X203.5Y-106.0
X203.5Y-107.0
T3
X176.15Y-66.675
X176.633Y-65.508
X176.633Y-67.842
X177.8Y-65.025
X177.8Y-68.325
X178.967Y-65.508
X178.967Y-67.842
X179.45Y-66.675
X181.706Y-112.712
X182.19Y-111.546
X182.19Y-113.879
X183.356Y-111.062
X183.356Y-114.362
X184.523Y-111.546
X184.523Y-113.879
X185.006Y-112.712
X199.169Y-124.0
X199.652Y-122.833
X199.652Y-125.167
X200.819Y-122.35
X200.819Y-125.65
X201.985Y-122.833
X201.985Y-125.167
X202.469Y-124.0
T4
X180.682Y-74.052
X180.682Y-76.052
T5
X183.749Y-76.742
X183.749Y-79.282
X183.749Y-81.822
X183.749Y-84.362
X183.749Y-86.902
X183.749Y-89.442
X183.749Y-91.983
X183.749Y-94.522
X183.749Y-97.062
X183.749Y-99.602
X183.749Y-102.142
X183.749Y-104.682
X185.048Y-77.938
X185.048Y-80.478
X185.048Y-83.018
X185.048Y-85.558
X185.048Y-88.098
X185.048Y-90.638
X185.048Y-93.178
X185.048Y-95.718
X185.048Y-98.258
X185.048Y-100.798
X185.048Y-103.338
X185.048Y-105.878
X198.989Y-76.742
X198.989Y-79.282
X198.989Y-81.822
X198.989Y-84.362
X198.989Y-86.902
X198.989Y-89.442
X198.989Y-91.983
X198.989Y-94.522
X198.989Y-97.062
X198.989Y-99.602
X198.989Y-102.142
X198.989Y-104.682
X200.288Y-77.938
X200.288Y-80.478
X200.288Y-83.018
X200.288Y-85.558
X200.288Y-88.098
X200.288Y-90.638
X200.288Y-93.178
X200.288Y-95.718
X200.288Y-98.258
X200.288Y-100.798
X200.288Y-103.338
X200.288Y-105.878
T7
X129.592Y-130.128
X130.026Y-127.666
X130.461Y-125.204
X143.872Y-132.646
X144.74Y-127.722
X167.824Y-118.928
X169.074Y-116.762
X170.324Y-114.597
X179.106Y-86.487
X179.106Y-89.027
X179.106Y-91.567
X179.106Y-94.108
X180.381Y-126.178
X182.881Y-121.847
T8
X82.206Y-73.542
X82.206Y-92.594
X82.212Y-111.644
X83.496Y-67.102
X83.496Y-86.154
X83.502Y-105.204
X84.766Y-64.562
X84.766Y-83.614
X84.772Y-102.664
X87.306Y-75.542
X87.306Y-94.594
X87.312Y-113.644
X89.846Y-64.562
X89.846Y-83.614
X89.852Y-102.664
X91.116Y-67.102
X91.116Y-86.154
X91.123Y-105.204
X92.406Y-73.542
X92.406Y-92.594
X92.412Y-111.644
X101.254Y-61.636
X101.262Y-80.688
X101.262Y-99.737
X102.544Y-55.196
X102.552Y-74.248
X102.552Y-93.297
X103.814Y-52.656
X103.822Y-71.707
X103.822Y-90.757
X106.354Y-63.636
X106.362Y-82.688
X106.362Y-101.737
X108.894Y-52.656
X108.902Y-71.707
X108.902Y-90.757
X110.164Y-55.196
X110.172Y-74.248
X110.172Y-93.297
X111.454Y-61.636
X111.462Y-80.688
X111.462Y-99.737
X120.303Y-55.636
X120.312Y-74.688
X120.312Y-93.737
X121.593Y-49.196
X121.602Y-68.248
X121.602Y-87.297
X122.863Y-46.656
X122.872Y-65.707
X122.872Y-84.757
X125.403Y-57.636
X125.412Y-76.688
X125.412Y-95.737
X127.943Y-46.656
X127.953Y-65.707
X127.953Y-84.757
X129.213Y-49.196
X129.222Y-68.248
X129.222Y-87.297
X130.503Y-55.636
X130.512Y-74.688
X130.512Y-93.737
X131.713Y-131.924
X134.101Y-125.806
X135.793Y-123.525
X136.388Y-134.779
X139.352Y-62.636
X139.362Y-81.688
X139.362Y-100.737
X140.642Y-56.196
X140.653Y-75.248
X140.653Y-94.297
X140.796Y-124.407
X141.606Y-127.129
X141.758Y-133.695
X141.912Y-53.656
X141.922Y-72.707
X141.922Y-91.757
X144.452Y-64.636
X144.463Y-83.688
X144.463Y-102.737
X146.992Y-53.656
X147.002Y-72.707
X147.002Y-91.757
X148.262Y-56.196
X148.272Y-75.248
X148.272Y-94.297
X149.552Y-62.636
X149.562Y-81.688
X149.562Y-100.737
X154.202Y-136.34
X157.619Y-140.622
X158.401Y-65.636
X158.412Y-84.688
X158.412Y-103.737
X158.539Y-131.408
X159.691Y-59.196
X159.702Y-78.248
X159.702Y-97.297
X160.909Y-129.843
X160.961Y-56.656
X160.972Y-75.707
X160.972Y-94.757
X163.035Y-141.44
X163.501Y-67.636
X163.512Y-86.688
X163.512Y-105.737
X165.138Y-135.218
X165.308Y-132.383
X166.041Y-56.656
X166.052Y-75.707
X166.052Y-94.757
X167.311Y-59.196
X167.322Y-78.248
X167.322Y-97.297
X168.601Y-65.636
X168.612Y-84.688
X168.612Y-103.737
X173.303Y-148.113
X175.049Y-153.305
X179.065Y-144.961
X179.859Y-155.926
X181.828Y-144.301
X183.964Y-150.798
X185.093Y-148.193
T9
X177.8Y-66.675
X183.356Y-112.712
X200.819Y-124.0
T11
X96.837Y-85.725
X120.75Y-126.75
X134.938Y-68.263
X194.469Y-141.287
T6
G00X189.368Y-135.97
M15
G01X188.777Y-135.866
M16
G05
G00X190.966Y-126.91
M15
G01X190.375Y-126.806
M16
G05
G00X191.25Y-131.631
M15
G01X190.66Y-131.527
M16
G05
G00X195.19Y-132.325
M15
G01X194.599Y-132.221
M16
G05
G00X198.144Y-132.846
M15
G01X197.553Y-132.742
M16
G05
T7
G00X167.273Y-142.763
M15
G01X167.595Y-143.146
M16
G05
G00X169.219Y-141.13
M15
G01X169.541Y-141.513
M16
G05
G00X171.165Y-139.497
M15
G01X171.486Y-139.88
M16
G05
G00X173.111Y-137.865
M15
G01X173.432Y-138.248
M16
G05
G00X175.378Y-136.615
M15
G01X175.056Y-136.232
M16
G05
T10
G00X183.701Y-139.191
M15
G01X183.38Y-138.808
M16
G05
G00X190.772Y-147.618
M15
G01X190.451Y-147.235
M16
G05
T0
M30
