%FSLAX45Y45*%
G04 Gerber Fmt 4.5, Leading zero omitted, Abs format (unit mm)*
G04 Created by KiCad (PCBNEW (6.0.4-0)) date 2022-05-15 19:59:06*
%MOMM*%
%LPD*%
G01*
G04 APERTURE LIST*
%TA.AperFunction,Profile*%
%ADD10C,0.050000*%
%TD*%
%ADD11C,0.200000*%
%ADD12C,0.070000*%
%ADD13C,0.150000*%
%ADD14C,0.170000*%
%ADD15C,0.190000*%
%ADD16C,0.400000*%
G04 APERTURE END LIST*
D10*
X18194931Y-6960571D02*
X18200000Y-6975000D01*
X18500000Y-7275000D02*
X20000000Y-7275000D01*
X18194932Y-6960571D02*
G75*
G03*
X17303750Y-5159375I-2197522J33791D01*
G01*
X7774954Y-5914571D02*
X7779480Y-11863649D01*
X12174926Y-13949323D02*
G75*
G03*
X7779480Y-11863649I-4496261J-3801207D01*
G01*
X17812861Y-16325288D02*
G75*
G03*
X12174925Y-13949323I-4949949J-3868630D01*
G01*
X18200000Y-6975000D02*
G75*
G03*
X18500000Y-7275000I300000J0D01*
G01*
X20500000Y-7775000D02*
X20500000Y-13000000D01*
X17812861Y-16325288D02*
G75*
G03*
X20500000Y-13000000I-1704573J4125824D01*
G01*
X20500000Y-7775000D02*
G75*
G03*
X20000000Y-7275000I-500000J0D01*
G01*
X17303750Y-5159375D02*
G75*
G03*
X7774954Y-5914571I-4127500J-8413750D01*
G01*
D11*
D12*
X18997000Y-7375000D02*
X19067000Y-7445000D01*
X19067000Y-7375000D02*
X18997000Y-7445000D01*
X19100000Y-7375000D02*
X19170000Y-7445000D01*
X19170000Y-7375000D02*
X19100000Y-7445000D01*
X19287000Y-7375000D02*
X19357000Y-7445000D01*
X19357000Y-7375000D02*
X19287000Y-7445000D01*
X19390000Y-7375000D02*
X19460000Y-7445000D01*
X19460000Y-7375000D02*
X19390000Y-7445000D01*
D13*
X19288126Y-13412168D02*
G75*
G03*
X19288126Y-13412168I-75000J0D01*
G01*
X19368004Y-12959157D02*
G75*
G03*
X19368004Y-12959157I-75000J0D01*
G01*
X19977492Y-13533722D02*
G75*
G03*
X19977492Y-13533722I-75000J0D01*
G01*
X20057370Y-13080710D02*
G75*
G03*
X20057370Y-13080710I-75000J0D01*
G01*
D14*
X8222565Y-6879235D02*
X8222565Y-7049235D01*
X8137565Y-6964235D02*
X8307565Y-6964235D01*
X8222565Y-8784375D02*
X8222565Y-8954375D01*
X8137565Y-8869375D02*
X8307565Y-8869375D01*
X8223250Y-10689375D02*
X8223250Y-10859375D01*
X8138250Y-10774375D02*
X8308250Y-10774375D01*
X9238565Y-6879235D02*
X9238565Y-7049235D01*
X9153565Y-6964235D02*
X9323565Y-6964235D01*
X9238565Y-8784375D02*
X9238565Y-8954375D01*
X9153565Y-8869375D02*
X9323565Y-8869375D01*
X9239250Y-10689375D02*
X9239250Y-10859375D01*
X9154250Y-10774375D02*
X9324250Y-10774375D01*
X10127445Y-5688610D02*
X10127445Y-5858610D01*
X10042445Y-5773610D02*
X10212445Y-5773610D01*
X10128250Y-7593750D02*
X10128250Y-7763750D01*
X10043250Y-7678750D02*
X10213250Y-7678750D01*
X10128250Y-9498750D02*
X10128250Y-9668750D01*
X10043250Y-9583750D02*
X10213250Y-9583750D01*
X11143445Y-5688610D02*
X11143445Y-5858610D01*
X11058445Y-5773610D02*
X11228445Y-5773610D01*
X11144250Y-7593750D02*
X11144250Y-7763750D01*
X11059250Y-7678750D02*
X11229250Y-7678750D01*
X11144250Y-9498750D02*
X11144250Y-9668750D01*
X11059250Y-9583750D02*
X11229250Y-9583750D01*
X12032325Y-5088610D02*
X12032325Y-5258610D01*
X11947325Y-5173610D02*
X12117325Y-5173610D01*
X12033250Y-6993750D02*
X12033250Y-7163750D01*
X11948250Y-7078750D02*
X12118250Y-7078750D01*
X12033250Y-8898750D02*
X12033250Y-9068750D01*
X11948250Y-8983750D02*
X12118250Y-8983750D01*
X13048325Y-5088610D02*
X13048325Y-5258610D01*
X12963325Y-5173610D02*
X13133325Y-5173610D01*
X13049250Y-6993750D02*
X13049250Y-7163750D01*
X12964250Y-7078750D02*
X13134250Y-7078750D01*
X13049250Y-8898750D02*
X13049250Y-9068750D01*
X12964250Y-8983750D02*
X13134250Y-8983750D01*
X13240968Y-12723662D02*
X13240968Y-12893662D01*
X13155968Y-12808662D02*
X13325968Y-12808662D01*
X13937205Y-5788610D02*
X13937205Y-5958610D01*
X13852205Y-5873610D02*
X14022205Y-5873610D01*
X13938250Y-7693750D02*
X13938250Y-7863750D01*
X13853250Y-7778750D02*
X14023250Y-7778750D01*
X13938250Y-9598750D02*
X13938250Y-9768750D01*
X13853250Y-9683750D02*
X14023250Y-9683750D01*
X14241532Y-12900088D02*
X14241532Y-13070088D01*
X14156532Y-12985088D02*
X14326532Y-12985088D01*
X14953205Y-5788610D02*
X14953205Y-5958610D01*
X14868205Y-5873610D02*
X15038205Y-5873610D01*
X14954250Y-7693750D02*
X14954250Y-7863750D01*
X14869250Y-7778750D02*
X15039250Y-7778750D01*
X14954250Y-9598750D02*
X14954250Y-9768750D01*
X14869250Y-9683750D02*
X15039250Y-9683750D01*
X15616934Y-13212250D02*
X15616934Y-13382250D01*
X15531934Y-13297250D02*
X15701934Y-13297250D01*
X15842085Y-6088610D02*
X15842085Y-6258610D01*
X15757085Y-6173610D02*
X15927085Y-6173610D01*
X15843250Y-7993750D02*
X15843250Y-8163750D01*
X15758250Y-8078750D02*
X15928250Y-8078750D01*
X15843250Y-9898750D02*
X15843250Y-10068750D01*
X15758250Y-9983750D02*
X15928250Y-9983750D01*
X16496816Y-13720250D02*
X16496816Y-13890250D01*
X16411816Y-13805250D02*
X16581816Y-13805250D01*
X16858085Y-6088610D02*
X16858085Y-6258610D01*
X16773085Y-6173610D02*
X16943085Y-6173610D01*
X16859250Y-7993750D02*
X16859250Y-8163750D01*
X16774250Y-8078750D02*
X16944250Y-8078750D01*
X16859250Y-9898750D02*
X16859250Y-10068750D01*
X16774250Y-9983750D02*
X16944250Y-9983750D01*
X17630339Y-14477099D02*
X17630339Y-14647099D01*
X17545339Y-14562099D02*
X17715339Y-14562099D01*
X18283411Y-15255401D02*
X18283411Y-15425401D01*
X18198411Y-15340401D02*
X18368411Y-15340401D01*
D15*
X8247741Y-7031411D02*
X8247741Y-6897059D01*
X8113389Y-6897059D01*
X8113389Y-7031411D01*
X8247741Y-7031411D01*
X8247741Y-8936551D02*
X8247741Y-8802199D01*
X8113389Y-8802199D01*
X8113389Y-8936551D01*
X8247741Y-8936551D01*
X8248426Y-10841551D02*
X8248426Y-10707199D01*
X8114074Y-10707199D01*
X8114074Y-10841551D01*
X8248426Y-10841551D01*
X9347741Y-7031411D02*
X9347741Y-6897059D01*
X9213389Y-6897059D01*
X9213389Y-7031411D01*
X9347741Y-7031411D01*
X9347741Y-8936551D02*
X9347741Y-8802199D01*
X9213389Y-8802199D01*
X9213389Y-8936551D01*
X9347741Y-8936551D01*
X9348426Y-10841551D02*
X9348426Y-10707199D01*
X9214074Y-10707199D01*
X9214074Y-10841551D01*
X9348426Y-10841551D01*
X10152621Y-5840786D02*
X10152621Y-5706434D01*
X10018269Y-5706434D01*
X10018269Y-5840786D01*
X10152621Y-5840786D01*
X10153426Y-7745926D02*
X10153426Y-7611574D01*
X10019074Y-7611574D01*
X10019074Y-7745926D01*
X10153426Y-7745926D01*
X10153426Y-9650926D02*
X10153426Y-9516574D01*
X10019074Y-9516574D01*
X10019074Y-9650926D01*
X10153426Y-9650926D01*
X11252621Y-5840786D02*
X11252621Y-5706434D01*
X11118269Y-5706434D01*
X11118269Y-5840786D01*
X11252621Y-5840786D01*
X11253426Y-7745926D02*
X11253426Y-7611574D01*
X11119074Y-7611574D01*
X11119074Y-7745926D01*
X11253426Y-7745926D01*
X11253426Y-9650926D02*
X11253426Y-9516574D01*
X11119074Y-9516574D01*
X11119074Y-9650926D01*
X11253426Y-9650926D01*
X12057501Y-5240786D02*
X12057501Y-5106434D01*
X11923149Y-5106434D01*
X11923149Y-5240786D01*
X12057501Y-5240786D01*
X12058426Y-7145926D02*
X12058426Y-7011574D01*
X11924074Y-7011574D01*
X11924074Y-7145926D01*
X12058426Y-7145926D01*
X12058426Y-9050926D02*
X12058426Y-8916574D01*
X11924074Y-8916574D01*
X11924074Y-9050926D01*
X12058426Y-9050926D01*
X13157501Y-5240786D02*
X13157501Y-5106434D01*
X13023149Y-5106434D01*
X13023149Y-5240786D01*
X13157501Y-5240786D01*
X13158426Y-7145926D02*
X13158426Y-7011574D01*
X13024074Y-7011574D01*
X13024074Y-7145926D01*
X13158426Y-7145926D01*
X13158426Y-9050926D02*
X13158426Y-8916574D01*
X13024074Y-8916574D01*
X13024074Y-9050926D01*
X13158426Y-9050926D01*
X13266781Y-12868544D02*
X13266781Y-12734193D01*
X13132430Y-12734193D01*
X13132430Y-12868544D01*
X13266781Y-12868544D01*
X13962381Y-5940786D02*
X13962381Y-5806434D01*
X13828029Y-5806434D01*
X13828029Y-5940786D01*
X13962381Y-5940786D01*
X13963426Y-7845926D02*
X13963426Y-7711574D01*
X13829074Y-7711574D01*
X13829074Y-7845926D01*
X13963426Y-7845926D01*
X13963426Y-9750926D02*
X13963426Y-9616574D01*
X13829074Y-9616574D01*
X13829074Y-9750926D01*
X13963426Y-9750926D01*
X14350070Y-13059557D02*
X14350070Y-12925206D01*
X14215718Y-12925206D01*
X14215718Y-13059557D01*
X14350070Y-13059557D01*
X15062381Y-5940786D02*
X15062381Y-5806434D01*
X14928029Y-5806434D01*
X14928029Y-5940786D01*
X15062381Y-5940786D01*
X15063426Y-7845926D02*
X15063426Y-7711574D01*
X14929074Y-7711574D01*
X14929074Y-7845926D01*
X15063426Y-7845926D01*
X15063426Y-9750926D02*
X15063426Y-9616574D01*
X14929074Y-9616574D01*
X14929074Y-9750926D01*
X15063426Y-9750926D01*
X15647737Y-13343426D02*
X15647737Y-13209074D01*
X15513385Y-13209074D01*
X15513385Y-13343426D01*
X15647737Y-13343426D01*
X15867261Y-6240786D02*
X15867261Y-6106434D01*
X15732909Y-6106434D01*
X15732909Y-6240786D01*
X15867261Y-6240786D01*
X15868426Y-8145926D02*
X15868426Y-8011574D01*
X15734074Y-8011574D01*
X15734074Y-8145926D01*
X15868426Y-8145926D01*
X15868426Y-10050926D02*
X15868426Y-9916574D01*
X15734074Y-9916574D01*
X15734074Y-10050926D01*
X15868426Y-10050926D01*
X16600365Y-13893426D02*
X16600365Y-13759074D01*
X16466013Y-13759074D01*
X16466013Y-13893426D01*
X16600365Y-13893426D01*
X16967261Y-6240786D02*
X16967261Y-6106434D01*
X16832909Y-6106434D01*
X16832909Y-6240786D01*
X16967261Y-6240786D01*
X16968426Y-8145926D02*
X16968426Y-8011574D01*
X16834074Y-8011574D01*
X16834074Y-8145926D01*
X16968426Y-8145926D01*
X16968426Y-10050926D02*
X16968426Y-9916574D01*
X16834074Y-9916574D01*
X16834074Y-10050926D01*
X16968426Y-10050926D01*
X17670518Y-14597101D02*
X17670518Y-14462750D01*
X17536166Y-14462750D01*
X17536166Y-14597101D01*
X17670518Y-14597101D01*
X18377584Y-15439750D02*
X18377584Y-15305399D01*
X18243232Y-15305399D01*
X18243232Y-15439750D01*
X18377584Y-15439750D01*
D16*
X8730565Y-7164235D02*
X8930565Y-6964235D01*
X8730565Y-6764235D01*
X8530565Y-6964235D01*
X8730565Y-7164235D01*
X8730565Y-9069375D02*
X8930565Y-8869375D01*
X8730565Y-8669375D01*
X8530565Y-8869375D01*
X8730565Y-9069375D01*
X8731250Y-10974375D02*
X8931250Y-10774375D01*
X8731250Y-10574375D01*
X8531250Y-10774375D01*
X8731250Y-10974375D01*
X10635445Y-5973610D02*
X10835445Y-5773610D01*
X10635445Y-5573610D01*
X10435445Y-5773610D01*
X10635445Y-5973610D01*
X10636250Y-7878750D02*
X10836250Y-7678750D01*
X10636250Y-7478750D01*
X10436250Y-7678750D01*
X10636250Y-7878750D01*
X10636250Y-9783750D02*
X10836250Y-9583750D01*
X10636250Y-9383750D01*
X10436250Y-9583750D01*
X10636250Y-9783750D01*
X12540325Y-5373610D02*
X12740325Y-5173610D01*
X12540325Y-4973610D01*
X12340325Y-5173610D01*
X12540325Y-5373610D01*
X12541250Y-7278750D02*
X12741250Y-7078750D01*
X12541250Y-6878750D01*
X12341250Y-7078750D01*
X12541250Y-7278750D01*
X12541250Y-9183750D02*
X12741250Y-8983750D01*
X12541250Y-8783750D01*
X12341250Y-8983750D01*
X12541250Y-9183750D01*
X13741250Y-13096875D02*
X13941250Y-12896875D01*
X13741250Y-12696875D01*
X13541250Y-12896875D01*
X13741250Y-13096875D01*
X14445205Y-6073610D02*
X14645205Y-5873610D01*
X14445205Y-5673610D01*
X14245205Y-5873610D01*
X14445205Y-6073610D01*
X14446250Y-7978750D02*
X14646250Y-7778750D01*
X14446250Y-7578750D01*
X14246250Y-7778750D01*
X14446250Y-7978750D01*
X14446250Y-9883750D02*
X14646250Y-9683750D01*
X14446250Y-9483750D01*
X14246250Y-9683750D01*
X14446250Y-9883750D01*
X16056875Y-13751250D02*
X16256875Y-13551250D01*
X16056875Y-13351250D01*
X15856875Y-13551250D01*
X16056875Y-13751250D01*
X16350085Y-6373610D02*
X16550085Y-6173610D01*
X16350085Y-5973610D01*
X16150085Y-6173610D01*
X16350085Y-6373610D01*
X16351250Y-8278750D02*
X16551250Y-8078750D01*
X16351250Y-7878750D01*
X16151250Y-8078750D01*
X16351250Y-8278750D01*
X16351250Y-10183750D02*
X16551250Y-9983750D01*
X16351250Y-9783750D01*
X16151250Y-9983750D01*
X16351250Y-10183750D01*
X17956875Y-15151250D02*
X18156875Y-14951250D01*
X17956875Y-14751250D01*
X17756875Y-14951250D01*
X17956875Y-15151250D01*
D11*
X8030073Y-16638264D02*
X8030073Y-16438264D01*
X8077692Y-16438264D01*
X8106264Y-16447788D01*
X8125311Y-16466836D01*
X8134835Y-16485883D01*
X8144359Y-16523979D01*
X8144359Y-16552550D01*
X8134835Y-16590645D01*
X8125311Y-16609693D01*
X8106264Y-16628740D01*
X8077692Y-16638264D01*
X8030073Y-16638264D01*
X8230073Y-16638264D02*
X8230073Y-16504931D01*
X8230073Y-16543026D02*
X8239597Y-16523979D01*
X8249121Y-16514455D01*
X8268168Y-16504931D01*
X8287216Y-16504931D01*
X8353883Y-16638264D02*
X8353883Y-16504931D01*
X8353883Y-16438264D02*
X8344359Y-16447788D01*
X8353883Y-16457312D01*
X8363406Y-16447788D01*
X8353883Y-16438264D01*
X8353883Y-16457312D01*
X8477692Y-16638264D02*
X8458645Y-16628740D01*
X8449121Y-16609693D01*
X8449121Y-16438264D01*
X8582454Y-16638264D02*
X8563406Y-16628740D01*
X8553883Y-16609693D01*
X8553883Y-16438264D01*
X8811026Y-16638264D02*
X8811026Y-16438264D01*
X8877692Y-16581121D01*
X8944359Y-16438264D01*
X8944359Y-16638264D01*
X9125311Y-16638264D02*
X9125311Y-16533502D01*
X9115787Y-16514455D01*
X9096740Y-16504931D01*
X9058645Y-16504931D01*
X9039597Y-16514455D01*
X9125311Y-16628740D02*
X9106264Y-16638264D01*
X9058645Y-16638264D01*
X9039597Y-16628740D01*
X9030073Y-16609693D01*
X9030073Y-16590645D01*
X9039597Y-16571598D01*
X9058645Y-16562074D01*
X9106264Y-16562074D01*
X9125311Y-16552550D01*
X9220549Y-16504931D02*
X9220549Y-16704931D01*
X9220549Y-16514455D02*
X9239597Y-16504931D01*
X9277692Y-16504931D01*
X9296740Y-16514455D01*
X9306264Y-16523979D01*
X9315787Y-16543026D01*
X9315787Y-16600169D01*
X9306264Y-16619217D01*
X9296740Y-16628740D01*
X9277692Y-16638264D01*
X9239597Y-16638264D01*
X9220549Y-16628740D01*
X9401502Y-16619217D02*
X9411026Y-16628740D01*
X9401502Y-16638264D01*
X9391978Y-16628740D01*
X9401502Y-16619217D01*
X9401502Y-16638264D01*
X9401502Y-16514455D02*
X9411026Y-16523979D01*
X9401502Y-16533502D01*
X9391978Y-16523979D01*
X9401502Y-16514455D01*
X9401502Y-16533502D01*
D12*
X7702454Y-16932788D02*
X7772454Y-17002788D01*
X7772454Y-16932788D02*
X7702454Y-17002788D01*
D11*
X8068168Y-16858264D02*
X8087216Y-16858264D01*
X8106264Y-16867788D01*
X8115787Y-16877312D01*
X8125311Y-16896360D01*
X8134835Y-16934455D01*
X8134835Y-16982074D01*
X8125311Y-17020169D01*
X8115787Y-17039217D01*
X8106264Y-17048741D01*
X8087216Y-17058264D01*
X8068168Y-17058264D01*
X8049121Y-17048741D01*
X8039597Y-17039217D01*
X8030073Y-17020169D01*
X8020549Y-16982074D01*
X8020549Y-16934455D01*
X8030073Y-16896360D01*
X8039597Y-16877312D01*
X8049121Y-16867788D01*
X8068168Y-16858264D01*
X8220549Y-17039217D02*
X8230073Y-17048741D01*
X8220549Y-17058264D01*
X8211025Y-17048741D01*
X8220549Y-17039217D01*
X8220549Y-17058264D01*
X8296740Y-16858264D02*
X8430073Y-16858264D01*
X8344359Y-17058264D01*
X8544359Y-16858264D02*
X8563406Y-16858264D01*
X8582454Y-16867788D01*
X8591978Y-16877312D01*
X8601502Y-16896360D01*
X8611026Y-16934455D01*
X8611026Y-16982074D01*
X8601502Y-17020169D01*
X8591978Y-17039217D01*
X8582454Y-17048741D01*
X8563406Y-17058264D01*
X8544359Y-17058264D01*
X8525311Y-17048741D01*
X8515787Y-17039217D01*
X8506264Y-17020169D01*
X8496740Y-16982074D01*
X8496740Y-16934455D01*
X8506264Y-16896360D01*
X8515787Y-16877312D01*
X8525311Y-16867788D01*
X8544359Y-16858264D01*
X8734835Y-16858264D02*
X8753883Y-16858264D01*
X8772930Y-16867788D01*
X8782454Y-16877312D01*
X8791978Y-16896360D01*
X8801502Y-16934455D01*
X8801502Y-16982074D01*
X8791978Y-17020169D01*
X8782454Y-17039217D01*
X8772930Y-17048741D01*
X8753883Y-17058264D01*
X8734835Y-17058264D01*
X8715787Y-17048741D01*
X8706264Y-17039217D01*
X8696740Y-17020169D01*
X8687216Y-16982074D01*
X8687216Y-16934455D01*
X8696740Y-16896360D01*
X8706264Y-16877312D01*
X8715787Y-16867788D01*
X8734835Y-16858264D01*
X8887216Y-17058264D02*
X8887216Y-16924931D01*
X8887216Y-16943979D02*
X8896740Y-16934455D01*
X8915787Y-16924931D01*
X8944359Y-16924931D01*
X8963406Y-16934455D01*
X8972930Y-16953502D01*
X8972930Y-17058264D01*
X8972930Y-16953502D02*
X8982454Y-16934455D01*
X9001502Y-16924931D01*
X9030073Y-16924931D01*
X9049121Y-16934455D01*
X9058645Y-16953502D01*
X9058645Y-17058264D01*
X9153883Y-17058264D02*
X9153883Y-16924931D01*
X9153883Y-16943979D02*
X9163406Y-16934455D01*
X9182454Y-16924931D01*
X9211026Y-16924931D01*
X9230073Y-16934455D01*
X9239597Y-16953502D01*
X9239597Y-17058264D01*
X9239597Y-16953502D02*
X9249121Y-16934455D01*
X9268168Y-16924931D01*
X9296740Y-16924931D01*
X9315787Y-16934455D01*
X9325311Y-16953502D01*
X9325311Y-17058264D01*
X9715787Y-16848741D02*
X9544359Y-17105883D01*
X9972930Y-16858264D02*
X9991978Y-16858264D01*
X10011026Y-16867788D01*
X10020549Y-16877312D01*
X10030073Y-16896360D01*
X10039597Y-16934455D01*
X10039597Y-16982074D01*
X10030073Y-17020169D01*
X10020549Y-17039217D01*
X10011026Y-17048741D01*
X9991978Y-17058264D01*
X9972930Y-17058264D01*
X9953883Y-17048741D01*
X9944359Y-17039217D01*
X9934835Y-17020169D01*
X9925311Y-16982074D01*
X9925311Y-16934455D01*
X9934835Y-16896360D01*
X9944359Y-16877312D01*
X9953883Y-16867788D01*
X9972930Y-16858264D01*
X10125311Y-17039217D02*
X10134835Y-17048741D01*
X10125311Y-17058264D01*
X10115787Y-17048741D01*
X10125311Y-17039217D01*
X10125311Y-17058264D01*
X10258645Y-16858264D02*
X10277692Y-16858264D01*
X10296740Y-16867788D01*
X10306264Y-16877312D01*
X10315787Y-16896360D01*
X10325311Y-16934455D01*
X10325311Y-16982074D01*
X10315787Y-17020169D01*
X10306264Y-17039217D01*
X10296740Y-17048741D01*
X10277692Y-17058264D01*
X10258645Y-17058264D01*
X10239597Y-17048741D01*
X10230073Y-17039217D01*
X10220549Y-17020169D01*
X10211026Y-16982074D01*
X10211026Y-16934455D01*
X10220549Y-16896360D01*
X10230073Y-16877312D01*
X10239597Y-16867788D01*
X10258645Y-16858264D01*
X10401502Y-16877312D02*
X10411026Y-16867788D01*
X10430073Y-16858264D01*
X10477692Y-16858264D01*
X10496740Y-16867788D01*
X10506264Y-16877312D01*
X10515787Y-16896360D01*
X10515787Y-16915407D01*
X10506264Y-16943979D01*
X10391978Y-17058264D01*
X10515787Y-17058264D01*
X10582454Y-16858264D02*
X10715787Y-16858264D01*
X10630073Y-17058264D01*
X10877692Y-16858264D02*
X10839597Y-16858264D01*
X10820549Y-16867788D01*
X10811026Y-16877312D01*
X10791978Y-16905883D01*
X10782454Y-16943979D01*
X10782454Y-17020169D01*
X10791978Y-17039217D01*
X10801502Y-17048741D01*
X10820549Y-17058264D01*
X10858645Y-17058264D01*
X10877692Y-17048741D01*
X10887216Y-17039217D01*
X10896740Y-17020169D01*
X10896740Y-16972550D01*
X10887216Y-16953502D01*
X10877692Y-16943979D01*
X10858645Y-16934455D01*
X10820549Y-16934455D01*
X10801502Y-16943979D01*
X10791978Y-16953502D01*
X10782454Y-16972550D01*
X10972930Y-16858264D02*
X10972930Y-16896360D01*
X11049121Y-16858264D02*
X11049121Y-16896360D01*
X11344359Y-17134455D02*
X11334835Y-17124931D01*
X11315787Y-17096360D01*
X11306264Y-17077312D01*
X11296740Y-17048741D01*
X11287216Y-17001122D01*
X11287216Y-16963026D01*
X11296740Y-16915407D01*
X11306264Y-16886836D01*
X11315787Y-16867788D01*
X11334835Y-16839217D01*
X11344359Y-16829693D01*
X11506264Y-16924931D02*
X11506264Y-17058264D01*
X11458644Y-16848741D02*
X11411025Y-16991598D01*
X11534835Y-16991598D01*
X11763406Y-17058264D02*
X11763406Y-16858264D01*
X11849121Y-17058264D02*
X11849121Y-16953502D01*
X11839597Y-16934455D01*
X11820549Y-16924931D01*
X11791978Y-16924931D01*
X11772930Y-16934455D01*
X11763406Y-16943979D01*
X11972930Y-17058264D02*
X11953883Y-17048741D01*
X11944359Y-17039217D01*
X11934835Y-17020169D01*
X11934835Y-16963026D01*
X11944359Y-16943979D01*
X11953883Y-16934455D01*
X11972930Y-16924931D01*
X12001502Y-16924931D01*
X12020549Y-16934455D01*
X12030073Y-16943979D01*
X12039597Y-16963026D01*
X12039597Y-17020169D01*
X12030073Y-17039217D01*
X12020549Y-17048741D01*
X12001502Y-17058264D01*
X11972930Y-17058264D01*
X12153883Y-17058264D02*
X12134835Y-17048741D01*
X12125311Y-17029693D01*
X12125311Y-16858264D01*
X12306264Y-17048741D02*
X12287216Y-17058264D01*
X12249121Y-17058264D01*
X12230073Y-17048741D01*
X12220549Y-17029693D01*
X12220549Y-16953502D01*
X12230073Y-16934455D01*
X12249121Y-16924931D01*
X12287216Y-16924931D01*
X12306264Y-16934455D01*
X12315787Y-16953502D01*
X12315787Y-16972550D01*
X12220549Y-16991598D01*
X12391978Y-17048741D02*
X12411025Y-17058264D01*
X12449121Y-17058264D01*
X12468168Y-17048741D01*
X12477692Y-17029693D01*
X12477692Y-17020169D01*
X12468168Y-17001122D01*
X12449121Y-16991598D01*
X12420549Y-16991598D01*
X12401502Y-16982074D01*
X12391978Y-16963026D01*
X12391978Y-16953502D01*
X12401502Y-16934455D01*
X12420549Y-16924931D01*
X12449121Y-16924931D01*
X12468168Y-16934455D01*
X12544359Y-17134455D02*
X12553883Y-17124931D01*
X12572930Y-17096360D01*
X12582454Y-17077312D01*
X12591978Y-17048741D01*
X12601502Y-17001122D01*
X12601502Y-16963026D01*
X12591978Y-16915407D01*
X12582454Y-16886836D01*
X12572930Y-16867788D01*
X12553883Y-16839217D01*
X12544359Y-16829693D01*
X12906264Y-17134455D02*
X12896740Y-17124931D01*
X12877692Y-17096360D01*
X12868168Y-17077312D01*
X12858644Y-17048741D01*
X12849121Y-17001122D01*
X12849121Y-16963026D01*
X12858644Y-16915407D01*
X12868168Y-16886836D01*
X12877692Y-16867788D01*
X12896740Y-16839217D01*
X12906264Y-16829693D01*
X12982454Y-16924931D02*
X12982454Y-17058264D01*
X12982454Y-16943979D02*
X12991978Y-16934455D01*
X13011025Y-16924931D01*
X13039597Y-16924931D01*
X13058644Y-16934455D01*
X13068168Y-16953502D01*
X13068168Y-17058264D01*
X13191978Y-17058264D02*
X13172930Y-17048741D01*
X13163406Y-17039217D01*
X13153883Y-17020169D01*
X13153883Y-16963026D01*
X13163406Y-16943979D01*
X13172930Y-16934455D01*
X13191978Y-16924931D01*
X13220549Y-16924931D01*
X13239597Y-16934455D01*
X13249121Y-16943979D01*
X13258644Y-16963026D01*
X13258644Y-17020169D01*
X13249121Y-17039217D01*
X13239597Y-17048741D01*
X13220549Y-17058264D01*
X13191978Y-17058264D01*
X13315787Y-16924931D02*
X13391978Y-16924931D01*
X13344359Y-16858264D02*
X13344359Y-17029693D01*
X13353883Y-17048741D01*
X13372930Y-17058264D01*
X13391978Y-17058264D01*
X13611025Y-16924931D02*
X13611025Y-17124931D01*
X13611025Y-16934455D02*
X13630073Y-16924931D01*
X13668168Y-16924931D01*
X13687216Y-16934455D01*
X13696740Y-16943979D01*
X13706264Y-16963026D01*
X13706264Y-17020169D01*
X13696740Y-17039217D01*
X13687216Y-17048741D01*
X13668168Y-17058264D01*
X13630073Y-17058264D01*
X13611025Y-17048741D01*
X13820549Y-17058264D02*
X13801502Y-17048741D01*
X13791978Y-17029693D01*
X13791978Y-16858264D01*
X13982454Y-17058264D02*
X13982454Y-16953502D01*
X13972930Y-16934455D01*
X13953883Y-16924931D01*
X13915787Y-16924931D01*
X13896740Y-16934455D01*
X13982454Y-17048741D02*
X13963406Y-17058264D01*
X13915787Y-17058264D01*
X13896740Y-17048741D01*
X13887216Y-17029693D01*
X13887216Y-17010645D01*
X13896740Y-16991598D01*
X13915787Y-16982074D01*
X13963406Y-16982074D01*
X13982454Y-16972550D01*
X14049121Y-16924931D02*
X14125311Y-16924931D01*
X14077692Y-16858264D02*
X14077692Y-17029693D01*
X14087216Y-17048741D01*
X14106264Y-17058264D01*
X14125311Y-17058264D01*
X14268168Y-17048741D02*
X14249121Y-17058264D01*
X14211025Y-17058264D01*
X14191978Y-17048741D01*
X14182454Y-17029693D01*
X14182454Y-16953502D01*
X14191978Y-16934455D01*
X14211025Y-16924931D01*
X14249121Y-16924931D01*
X14268168Y-16934455D01*
X14277692Y-16953502D01*
X14277692Y-16972550D01*
X14182454Y-16991598D01*
X14449121Y-17058264D02*
X14449121Y-16858264D01*
X14449121Y-17048741D02*
X14430073Y-17058264D01*
X14391978Y-17058264D01*
X14372930Y-17048741D01*
X14363406Y-17039217D01*
X14353883Y-17020169D01*
X14353883Y-16963026D01*
X14363406Y-16943979D01*
X14372930Y-16934455D01*
X14391978Y-16924931D01*
X14430073Y-16924931D01*
X14449121Y-16934455D01*
X14525311Y-17134455D02*
X14534835Y-17124931D01*
X14553883Y-17096360D01*
X14563406Y-17077312D01*
X14572930Y-17048741D01*
X14582454Y-17001122D01*
X14582454Y-16963026D01*
X14572930Y-16915407D01*
X14563406Y-16886836D01*
X14553883Y-16867788D01*
X14534835Y-16839217D01*
X14525311Y-16829693D01*
D13*
X7772454Y-17231788D02*
G75*
G03*
X7772454Y-17231788I-75000J0D01*
G01*
D11*
X8134835Y-17322264D02*
X8020549Y-17322264D01*
X8077692Y-17322264D02*
X8077692Y-17122264D01*
X8058644Y-17150836D01*
X8039597Y-17169883D01*
X8020549Y-17179407D01*
X8220549Y-17303217D02*
X8230073Y-17312741D01*
X8220549Y-17322264D01*
X8211025Y-17312741D01*
X8220549Y-17303217D01*
X8220549Y-17322264D01*
X8411026Y-17122264D02*
X8315787Y-17122264D01*
X8306264Y-17217502D01*
X8315787Y-17207979D01*
X8334835Y-17198455D01*
X8382454Y-17198455D01*
X8401502Y-17207979D01*
X8411026Y-17217502D01*
X8420549Y-17236550D01*
X8420549Y-17284169D01*
X8411026Y-17303217D01*
X8401502Y-17312741D01*
X8382454Y-17322264D01*
X8334835Y-17322264D01*
X8315787Y-17312741D01*
X8306264Y-17303217D01*
X8544359Y-17122264D02*
X8563406Y-17122264D01*
X8582454Y-17131788D01*
X8591978Y-17141312D01*
X8601502Y-17160360D01*
X8611026Y-17198455D01*
X8611026Y-17246074D01*
X8601502Y-17284169D01*
X8591978Y-17303217D01*
X8582454Y-17312741D01*
X8563406Y-17322264D01*
X8544359Y-17322264D01*
X8525311Y-17312741D01*
X8515787Y-17303217D01*
X8506264Y-17284169D01*
X8496740Y-17246074D01*
X8496740Y-17198455D01*
X8506264Y-17160360D01*
X8515787Y-17141312D01*
X8525311Y-17131788D01*
X8544359Y-17122264D01*
X8734835Y-17122264D02*
X8753883Y-17122264D01*
X8772930Y-17131788D01*
X8782454Y-17141312D01*
X8791978Y-17160360D01*
X8801502Y-17198455D01*
X8801502Y-17246074D01*
X8791978Y-17284169D01*
X8782454Y-17303217D01*
X8772930Y-17312741D01*
X8753883Y-17322264D01*
X8734835Y-17322264D01*
X8715787Y-17312741D01*
X8706264Y-17303217D01*
X8696740Y-17284169D01*
X8687216Y-17246074D01*
X8687216Y-17198455D01*
X8696740Y-17160360D01*
X8706264Y-17141312D01*
X8715787Y-17131788D01*
X8734835Y-17122264D01*
X8887216Y-17322264D02*
X8887216Y-17188931D01*
X8887216Y-17207979D02*
X8896740Y-17198455D01*
X8915787Y-17188931D01*
X8944359Y-17188931D01*
X8963406Y-17198455D01*
X8972930Y-17217502D01*
X8972930Y-17322264D01*
X8972930Y-17217502D02*
X8982454Y-17198455D01*
X9001502Y-17188931D01*
X9030073Y-17188931D01*
X9049121Y-17198455D01*
X9058645Y-17217502D01*
X9058645Y-17322264D01*
X9153883Y-17322264D02*
X9153883Y-17188931D01*
X9153883Y-17207979D02*
X9163406Y-17198455D01*
X9182454Y-17188931D01*
X9211026Y-17188931D01*
X9230073Y-17198455D01*
X9239597Y-17217502D01*
X9239597Y-17322264D01*
X9239597Y-17217502D02*
X9249121Y-17198455D01*
X9268168Y-17188931D01*
X9296740Y-17188931D01*
X9315787Y-17198455D01*
X9325311Y-17217502D01*
X9325311Y-17322264D01*
X9715787Y-17112741D02*
X9544359Y-17369883D01*
X9972930Y-17122264D02*
X9991978Y-17122264D01*
X10011026Y-17131788D01*
X10020549Y-17141312D01*
X10030073Y-17160360D01*
X10039597Y-17198455D01*
X10039597Y-17246074D01*
X10030073Y-17284169D01*
X10020549Y-17303217D01*
X10011026Y-17312741D01*
X9991978Y-17322264D01*
X9972930Y-17322264D01*
X9953883Y-17312741D01*
X9944359Y-17303217D01*
X9934835Y-17284169D01*
X9925311Y-17246074D01*
X9925311Y-17198455D01*
X9934835Y-17160360D01*
X9944359Y-17141312D01*
X9953883Y-17131788D01*
X9972930Y-17122264D01*
X10125311Y-17303217D02*
X10134835Y-17312741D01*
X10125311Y-17322264D01*
X10115787Y-17312741D01*
X10125311Y-17303217D01*
X10125311Y-17322264D01*
X10258645Y-17122264D02*
X10277692Y-17122264D01*
X10296740Y-17131788D01*
X10306264Y-17141312D01*
X10315787Y-17160360D01*
X10325311Y-17198455D01*
X10325311Y-17246074D01*
X10315787Y-17284169D01*
X10306264Y-17303217D01*
X10296740Y-17312741D01*
X10277692Y-17322264D01*
X10258645Y-17322264D01*
X10239597Y-17312741D01*
X10230073Y-17303217D01*
X10220549Y-17284169D01*
X10211026Y-17246074D01*
X10211026Y-17198455D01*
X10220549Y-17160360D01*
X10230073Y-17141312D01*
X10239597Y-17131788D01*
X10258645Y-17122264D01*
X10506264Y-17122264D02*
X10411026Y-17122264D01*
X10401502Y-17217502D01*
X10411026Y-17207979D01*
X10430073Y-17198455D01*
X10477692Y-17198455D01*
X10496740Y-17207979D01*
X10506264Y-17217502D01*
X10515787Y-17236550D01*
X10515787Y-17284169D01*
X10506264Y-17303217D01*
X10496740Y-17312741D01*
X10477692Y-17322264D01*
X10430073Y-17322264D01*
X10411026Y-17312741D01*
X10401502Y-17303217D01*
X10611026Y-17322264D02*
X10649121Y-17322264D01*
X10668168Y-17312741D01*
X10677692Y-17303217D01*
X10696740Y-17274645D01*
X10706264Y-17236550D01*
X10706264Y-17160360D01*
X10696740Y-17141312D01*
X10687216Y-17131788D01*
X10668168Y-17122264D01*
X10630073Y-17122264D01*
X10611026Y-17131788D01*
X10601502Y-17141312D01*
X10591978Y-17160360D01*
X10591978Y-17207979D01*
X10601502Y-17227026D01*
X10611026Y-17236550D01*
X10630073Y-17246074D01*
X10668168Y-17246074D01*
X10687216Y-17236550D01*
X10696740Y-17227026D01*
X10706264Y-17207979D01*
X10896740Y-17322264D02*
X10782454Y-17322264D01*
X10839597Y-17322264D02*
X10839597Y-17122264D01*
X10820549Y-17150836D01*
X10801502Y-17169883D01*
X10782454Y-17179407D01*
X10972930Y-17122264D02*
X10972930Y-17160360D01*
X11049121Y-17122264D02*
X11049121Y-17160360D01*
X11344359Y-17398455D02*
X11334835Y-17388931D01*
X11315787Y-17360360D01*
X11306264Y-17341312D01*
X11296740Y-17312741D01*
X11287216Y-17265122D01*
X11287216Y-17227026D01*
X11296740Y-17179407D01*
X11306264Y-17150836D01*
X11315787Y-17131788D01*
X11334835Y-17103217D01*
X11344359Y-17093693D01*
X11506264Y-17188931D02*
X11506264Y-17322264D01*
X11458644Y-17112741D02*
X11411025Y-17255598D01*
X11534835Y-17255598D01*
X11763406Y-17322264D02*
X11763406Y-17122264D01*
X11849121Y-17322264D02*
X11849121Y-17217502D01*
X11839597Y-17198455D01*
X11820549Y-17188931D01*
X11791978Y-17188931D01*
X11772930Y-17198455D01*
X11763406Y-17207979D01*
X11972930Y-17322264D02*
X11953883Y-17312741D01*
X11944359Y-17303217D01*
X11934835Y-17284169D01*
X11934835Y-17227026D01*
X11944359Y-17207979D01*
X11953883Y-17198455D01*
X11972930Y-17188931D01*
X12001502Y-17188931D01*
X12020549Y-17198455D01*
X12030073Y-17207979D01*
X12039597Y-17227026D01*
X12039597Y-17284169D01*
X12030073Y-17303217D01*
X12020549Y-17312741D01*
X12001502Y-17322264D01*
X11972930Y-17322264D01*
X12153883Y-17322264D02*
X12134835Y-17312741D01*
X12125311Y-17293693D01*
X12125311Y-17122264D01*
X12306264Y-17312741D02*
X12287216Y-17322264D01*
X12249121Y-17322264D01*
X12230073Y-17312741D01*
X12220549Y-17293693D01*
X12220549Y-17217502D01*
X12230073Y-17198455D01*
X12249121Y-17188931D01*
X12287216Y-17188931D01*
X12306264Y-17198455D01*
X12315787Y-17217502D01*
X12315787Y-17236550D01*
X12220549Y-17255598D01*
X12391978Y-17312741D02*
X12411025Y-17322264D01*
X12449121Y-17322264D01*
X12468168Y-17312741D01*
X12477692Y-17293693D01*
X12477692Y-17284169D01*
X12468168Y-17265122D01*
X12449121Y-17255598D01*
X12420549Y-17255598D01*
X12401502Y-17246074D01*
X12391978Y-17227026D01*
X12391978Y-17217502D01*
X12401502Y-17198455D01*
X12420549Y-17188931D01*
X12449121Y-17188931D01*
X12468168Y-17198455D01*
X12544359Y-17398455D02*
X12553883Y-17388931D01*
X12572930Y-17360360D01*
X12582454Y-17341312D01*
X12591978Y-17312741D01*
X12601502Y-17265122D01*
X12601502Y-17227026D01*
X12591978Y-17179407D01*
X12582454Y-17150836D01*
X12572930Y-17131788D01*
X12553883Y-17103217D01*
X12544359Y-17093693D01*
X12906264Y-17398455D02*
X12896740Y-17388931D01*
X12877692Y-17360360D01*
X12868168Y-17341312D01*
X12858644Y-17312741D01*
X12849121Y-17265122D01*
X12849121Y-17227026D01*
X12858644Y-17179407D01*
X12868168Y-17150836D01*
X12877692Y-17131788D01*
X12896740Y-17103217D01*
X12906264Y-17093693D01*
X12982454Y-17188931D02*
X12982454Y-17322264D01*
X12982454Y-17207979D02*
X12991978Y-17198455D01*
X13011025Y-17188931D01*
X13039597Y-17188931D01*
X13058644Y-17198455D01*
X13068168Y-17217502D01*
X13068168Y-17322264D01*
X13191978Y-17322264D02*
X13172930Y-17312741D01*
X13163406Y-17303217D01*
X13153883Y-17284169D01*
X13153883Y-17227026D01*
X13163406Y-17207979D01*
X13172930Y-17198455D01*
X13191978Y-17188931D01*
X13220549Y-17188931D01*
X13239597Y-17198455D01*
X13249121Y-17207979D01*
X13258644Y-17227026D01*
X13258644Y-17284169D01*
X13249121Y-17303217D01*
X13239597Y-17312741D01*
X13220549Y-17322264D01*
X13191978Y-17322264D01*
X13315787Y-17188931D02*
X13391978Y-17188931D01*
X13344359Y-17122264D02*
X13344359Y-17293693D01*
X13353883Y-17312741D01*
X13372930Y-17322264D01*
X13391978Y-17322264D01*
X13611025Y-17188931D02*
X13611025Y-17388931D01*
X13611025Y-17198455D02*
X13630073Y-17188931D01*
X13668168Y-17188931D01*
X13687216Y-17198455D01*
X13696740Y-17207979D01*
X13706264Y-17227026D01*
X13706264Y-17284169D01*
X13696740Y-17303217D01*
X13687216Y-17312741D01*
X13668168Y-17322264D01*
X13630073Y-17322264D01*
X13611025Y-17312741D01*
X13820549Y-17322264D02*
X13801502Y-17312741D01*
X13791978Y-17293693D01*
X13791978Y-17122264D01*
X13982454Y-17322264D02*
X13982454Y-17217502D01*
X13972930Y-17198455D01*
X13953883Y-17188931D01*
X13915787Y-17188931D01*
X13896740Y-17198455D01*
X13982454Y-17312741D02*
X13963406Y-17322264D01*
X13915787Y-17322264D01*
X13896740Y-17312741D01*
X13887216Y-17293693D01*
X13887216Y-17274645D01*
X13896740Y-17255598D01*
X13915787Y-17246074D01*
X13963406Y-17246074D01*
X13982454Y-17236550D01*
X14049121Y-17188931D02*
X14125311Y-17188931D01*
X14077692Y-17122264D02*
X14077692Y-17293693D01*
X14087216Y-17312741D01*
X14106264Y-17322264D01*
X14125311Y-17322264D01*
X14268168Y-17312741D02*
X14249121Y-17322264D01*
X14211025Y-17322264D01*
X14191978Y-17312741D01*
X14182454Y-17293693D01*
X14182454Y-17217502D01*
X14191978Y-17198455D01*
X14211025Y-17188931D01*
X14249121Y-17188931D01*
X14268168Y-17198455D01*
X14277692Y-17217502D01*
X14277692Y-17236550D01*
X14182454Y-17255598D01*
X14449121Y-17322264D02*
X14449121Y-17122264D01*
X14449121Y-17312741D02*
X14430073Y-17322264D01*
X14391978Y-17322264D01*
X14372930Y-17312741D01*
X14363406Y-17303217D01*
X14353883Y-17284169D01*
X14353883Y-17227026D01*
X14363406Y-17207979D01*
X14372930Y-17198455D01*
X14391978Y-17188931D01*
X14430073Y-17188931D01*
X14449121Y-17198455D01*
X14525311Y-17398455D02*
X14534835Y-17388931D01*
X14553883Y-17360360D01*
X14563406Y-17341312D01*
X14572930Y-17312741D01*
X14582454Y-17265122D01*
X14582454Y-17227026D01*
X14572930Y-17179407D01*
X14563406Y-17150836D01*
X14553883Y-17131788D01*
X14534835Y-17103217D01*
X14525311Y-17093693D01*
D14*
X7687454Y-17416788D02*
X7687454Y-17586788D01*
X7602454Y-17501788D02*
X7772454Y-17501788D01*
D11*
X8134835Y-17592264D02*
X8020549Y-17592264D01*
X8077692Y-17592264D02*
X8077692Y-17392264D01*
X8058644Y-17420836D01*
X8039597Y-17439883D01*
X8020549Y-17449407D01*
X8220549Y-17573217D02*
X8230073Y-17582741D01*
X8220549Y-17592264D01*
X8211025Y-17582741D01*
X8220549Y-17573217D01*
X8220549Y-17592264D01*
X8296740Y-17392264D02*
X8430073Y-17392264D01*
X8344359Y-17592264D01*
X8544359Y-17392264D02*
X8563406Y-17392264D01*
X8582454Y-17401788D01*
X8591978Y-17411312D01*
X8601502Y-17430360D01*
X8611026Y-17468455D01*
X8611026Y-17516074D01*
X8601502Y-17554169D01*
X8591978Y-17573217D01*
X8582454Y-17582741D01*
X8563406Y-17592264D01*
X8544359Y-17592264D01*
X8525311Y-17582741D01*
X8515787Y-17573217D01*
X8506264Y-17554169D01*
X8496740Y-17516074D01*
X8496740Y-17468455D01*
X8506264Y-17430360D01*
X8515787Y-17411312D01*
X8525311Y-17401788D01*
X8544359Y-17392264D01*
X8734835Y-17392264D02*
X8753883Y-17392264D01*
X8772930Y-17401788D01*
X8782454Y-17411312D01*
X8791978Y-17430360D01*
X8801502Y-17468455D01*
X8801502Y-17516074D01*
X8791978Y-17554169D01*
X8782454Y-17573217D01*
X8772930Y-17582741D01*
X8753883Y-17592264D01*
X8734835Y-17592264D01*
X8715787Y-17582741D01*
X8706264Y-17573217D01*
X8696740Y-17554169D01*
X8687216Y-17516074D01*
X8687216Y-17468455D01*
X8696740Y-17430360D01*
X8706264Y-17411312D01*
X8715787Y-17401788D01*
X8734835Y-17392264D01*
X8887216Y-17592264D02*
X8887216Y-17458931D01*
X8887216Y-17477979D02*
X8896740Y-17468455D01*
X8915787Y-17458931D01*
X8944359Y-17458931D01*
X8963406Y-17468455D01*
X8972930Y-17487502D01*
X8972930Y-17592264D01*
X8972930Y-17487502D02*
X8982454Y-17468455D01*
X9001502Y-17458931D01*
X9030073Y-17458931D01*
X9049121Y-17468455D01*
X9058645Y-17487502D01*
X9058645Y-17592264D01*
X9153883Y-17592264D02*
X9153883Y-17458931D01*
X9153883Y-17477979D02*
X9163406Y-17468455D01*
X9182454Y-17458931D01*
X9211026Y-17458931D01*
X9230073Y-17468455D01*
X9239597Y-17487502D01*
X9239597Y-17592264D01*
X9239597Y-17487502D02*
X9249121Y-17468455D01*
X9268168Y-17458931D01*
X9296740Y-17458931D01*
X9315787Y-17468455D01*
X9325311Y-17487502D01*
X9325311Y-17592264D01*
X9715787Y-17382741D02*
X9544359Y-17639883D01*
X9972930Y-17392264D02*
X9991978Y-17392264D01*
X10011026Y-17401788D01*
X10020549Y-17411312D01*
X10030073Y-17430360D01*
X10039597Y-17468455D01*
X10039597Y-17516074D01*
X10030073Y-17554169D01*
X10020549Y-17573217D01*
X10011026Y-17582741D01*
X9991978Y-17592264D01*
X9972930Y-17592264D01*
X9953883Y-17582741D01*
X9944359Y-17573217D01*
X9934835Y-17554169D01*
X9925311Y-17516074D01*
X9925311Y-17468455D01*
X9934835Y-17430360D01*
X9944359Y-17411312D01*
X9953883Y-17401788D01*
X9972930Y-17392264D01*
X10125311Y-17573217D02*
X10134835Y-17582741D01*
X10125311Y-17592264D01*
X10115787Y-17582741D01*
X10125311Y-17573217D01*
X10125311Y-17592264D01*
X10258645Y-17392264D02*
X10277692Y-17392264D01*
X10296740Y-17401788D01*
X10306264Y-17411312D01*
X10315787Y-17430360D01*
X10325311Y-17468455D01*
X10325311Y-17516074D01*
X10315787Y-17554169D01*
X10306264Y-17573217D01*
X10296740Y-17582741D01*
X10277692Y-17592264D01*
X10258645Y-17592264D01*
X10239597Y-17582741D01*
X10230073Y-17573217D01*
X10220549Y-17554169D01*
X10211026Y-17516074D01*
X10211026Y-17468455D01*
X10220549Y-17430360D01*
X10230073Y-17411312D01*
X10239597Y-17401788D01*
X10258645Y-17392264D01*
X10496740Y-17392264D02*
X10458645Y-17392264D01*
X10439597Y-17401788D01*
X10430073Y-17411312D01*
X10411026Y-17439883D01*
X10401502Y-17477979D01*
X10401502Y-17554169D01*
X10411026Y-17573217D01*
X10420549Y-17582741D01*
X10439597Y-17592264D01*
X10477692Y-17592264D01*
X10496740Y-17582741D01*
X10506264Y-17573217D01*
X10515787Y-17554169D01*
X10515787Y-17506550D01*
X10506264Y-17487502D01*
X10496740Y-17477979D01*
X10477692Y-17468455D01*
X10439597Y-17468455D01*
X10420549Y-17477979D01*
X10411026Y-17487502D01*
X10401502Y-17506550D01*
X10687216Y-17392264D02*
X10649121Y-17392264D01*
X10630073Y-17401788D01*
X10620549Y-17411312D01*
X10601502Y-17439883D01*
X10591978Y-17477979D01*
X10591978Y-17554169D01*
X10601502Y-17573217D01*
X10611026Y-17582741D01*
X10630073Y-17592264D01*
X10668168Y-17592264D01*
X10687216Y-17582741D01*
X10696740Y-17573217D01*
X10706264Y-17554169D01*
X10706264Y-17506550D01*
X10696740Y-17487502D01*
X10687216Y-17477979D01*
X10668168Y-17468455D01*
X10630073Y-17468455D01*
X10611026Y-17477979D01*
X10601502Y-17487502D01*
X10591978Y-17506550D01*
X10801502Y-17592264D02*
X10839597Y-17592264D01*
X10858645Y-17582741D01*
X10868168Y-17573217D01*
X10887216Y-17544645D01*
X10896740Y-17506550D01*
X10896740Y-17430360D01*
X10887216Y-17411312D01*
X10877692Y-17401788D01*
X10858645Y-17392264D01*
X10820549Y-17392264D01*
X10801502Y-17401788D01*
X10791978Y-17411312D01*
X10782454Y-17430360D01*
X10782454Y-17477979D01*
X10791978Y-17497026D01*
X10801502Y-17506550D01*
X10820549Y-17516074D01*
X10858645Y-17516074D01*
X10877692Y-17506550D01*
X10887216Y-17497026D01*
X10896740Y-17477979D01*
X10972930Y-17392264D02*
X10972930Y-17430360D01*
X11049121Y-17392264D02*
X11049121Y-17430360D01*
X11344359Y-17668455D02*
X11334835Y-17658931D01*
X11315787Y-17630360D01*
X11306264Y-17611312D01*
X11296740Y-17582741D01*
X11287216Y-17535122D01*
X11287216Y-17497026D01*
X11296740Y-17449407D01*
X11306264Y-17420836D01*
X11315787Y-17401788D01*
X11334835Y-17373217D01*
X11344359Y-17363693D01*
X11401502Y-17392264D02*
X11525311Y-17392264D01*
X11458644Y-17468455D01*
X11487216Y-17468455D01*
X11506264Y-17477979D01*
X11515787Y-17487502D01*
X11525311Y-17506550D01*
X11525311Y-17554169D01*
X11515787Y-17573217D01*
X11506264Y-17582741D01*
X11487216Y-17592264D01*
X11430073Y-17592264D01*
X11411025Y-17582741D01*
X11401502Y-17573217D01*
X11696740Y-17392264D02*
X11658644Y-17392264D01*
X11639597Y-17401788D01*
X11630073Y-17411312D01*
X11611025Y-17439883D01*
X11601502Y-17477979D01*
X11601502Y-17554169D01*
X11611025Y-17573217D01*
X11620549Y-17582741D01*
X11639597Y-17592264D01*
X11677692Y-17592264D01*
X11696740Y-17582741D01*
X11706264Y-17573217D01*
X11715787Y-17554169D01*
X11715787Y-17506550D01*
X11706264Y-17487502D01*
X11696740Y-17477979D01*
X11677692Y-17468455D01*
X11639597Y-17468455D01*
X11620549Y-17477979D01*
X11611025Y-17487502D01*
X11601502Y-17506550D01*
X11953883Y-17592264D02*
X11953883Y-17392264D01*
X12039597Y-17592264D02*
X12039597Y-17487502D01*
X12030073Y-17468455D01*
X12011025Y-17458931D01*
X11982454Y-17458931D01*
X11963406Y-17468455D01*
X11953883Y-17477979D01*
X12163406Y-17592264D02*
X12144359Y-17582741D01*
X12134835Y-17573217D01*
X12125311Y-17554169D01*
X12125311Y-17497026D01*
X12134835Y-17477979D01*
X12144359Y-17468455D01*
X12163406Y-17458931D01*
X12191978Y-17458931D01*
X12211025Y-17468455D01*
X12220549Y-17477979D01*
X12230073Y-17497026D01*
X12230073Y-17554169D01*
X12220549Y-17573217D01*
X12211025Y-17582741D01*
X12191978Y-17592264D01*
X12163406Y-17592264D01*
X12344359Y-17592264D02*
X12325311Y-17582741D01*
X12315787Y-17563693D01*
X12315787Y-17392264D01*
X12496740Y-17582741D02*
X12477692Y-17592264D01*
X12439597Y-17592264D01*
X12420549Y-17582741D01*
X12411025Y-17563693D01*
X12411025Y-17487502D01*
X12420549Y-17468455D01*
X12439597Y-17458931D01*
X12477692Y-17458931D01*
X12496740Y-17468455D01*
X12506264Y-17487502D01*
X12506264Y-17506550D01*
X12411025Y-17525598D01*
X12582454Y-17582741D02*
X12601502Y-17592264D01*
X12639597Y-17592264D01*
X12658644Y-17582741D01*
X12668168Y-17563693D01*
X12668168Y-17554169D01*
X12658644Y-17535122D01*
X12639597Y-17525598D01*
X12611025Y-17525598D01*
X12591978Y-17516074D01*
X12582454Y-17497026D01*
X12582454Y-17487502D01*
X12591978Y-17468455D01*
X12611025Y-17458931D01*
X12639597Y-17458931D01*
X12658644Y-17468455D01*
X12734835Y-17668455D02*
X12744359Y-17658931D01*
X12763406Y-17630360D01*
X12772930Y-17611312D01*
X12782454Y-17582741D01*
X12791978Y-17535122D01*
X12791978Y-17497026D01*
X12782454Y-17449407D01*
X12772930Y-17420836D01*
X12763406Y-17401788D01*
X12744359Y-17373217D01*
X12734835Y-17363693D01*
X13096740Y-17668455D02*
X13087216Y-17658931D01*
X13068168Y-17630360D01*
X13058644Y-17611312D01*
X13049121Y-17582741D01*
X13039597Y-17535122D01*
X13039597Y-17497026D01*
X13049121Y-17449407D01*
X13058644Y-17420836D01*
X13068168Y-17401788D01*
X13087216Y-17373217D01*
X13096740Y-17363693D01*
X13172930Y-17458931D02*
X13172930Y-17592264D01*
X13172930Y-17477979D02*
X13182454Y-17468455D01*
X13201502Y-17458931D01*
X13230073Y-17458931D01*
X13249121Y-17468455D01*
X13258644Y-17487502D01*
X13258644Y-17592264D01*
X13382454Y-17592264D02*
X13363406Y-17582741D01*
X13353883Y-17573217D01*
X13344359Y-17554169D01*
X13344359Y-17497026D01*
X13353883Y-17477979D01*
X13363406Y-17468455D01*
X13382454Y-17458931D01*
X13411025Y-17458931D01*
X13430073Y-17468455D01*
X13439597Y-17477979D01*
X13449121Y-17497026D01*
X13449121Y-17554169D01*
X13439597Y-17573217D01*
X13430073Y-17582741D01*
X13411025Y-17592264D01*
X13382454Y-17592264D01*
X13506264Y-17458931D02*
X13582454Y-17458931D01*
X13534835Y-17392264D02*
X13534835Y-17563693D01*
X13544359Y-17582741D01*
X13563406Y-17592264D01*
X13582454Y-17592264D01*
X13801502Y-17458931D02*
X13801502Y-17658931D01*
X13801502Y-17468455D02*
X13820549Y-17458931D01*
X13858644Y-17458931D01*
X13877692Y-17468455D01*
X13887216Y-17477979D01*
X13896740Y-17497026D01*
X13896740Y-17554169D01*
X13887216Y-17573217D01*
X13877692Y-17582741D01*
X13858644Y-17592264D01*
X13820549Y-17592264D01*
X13801502Y-17582741D01*
X14011025Y-17592264D02*
X13991978Y-17582741D01*
X13982454Y-17563693D01*
X13982454Y-17392264D01*
X14172930Y-17592264D02*
X14172930Y-17487502D01*
X14163406Y-17468455D01*
X14144359Y-17458931D01*
X14106264Y-17458931D01*
X14087216Y-17468455D01*
X14172930Y-17582741D02*
X14153883Y-17592264D01*
X14106264Y-17592264D01*
X14087216Y-17582741D01*
X14077692Y-17563693D01*
X14077692Y-17544645D01*
X14087216Y-17525598D01*
X14106264Y-17516074D01*
X14153883Y-17516074D01*
X14172930Y-17506550D01*
X14239597Y-17458931D02*
X14315787Y-17458931D01*
X14268168Y-17392264D02*
X14268168Y-17563693D01*
X14277692Y-17582741D01*
X14296740Y-17592264D01*
X14315787Y-17592264D01*
X14458644Y-17582741D02*
X14439597Y-17592264D01*
X14401502Y-17592264D01*
X14382454Y-17582741D01*
X14372930Y-17563693D01*
X14372930Y-17487502D01*
X14382454Y-17468455D01*
X14401502Y-17458931D01*
X14439597Y-17458931D01*
X14458644Y-17468455D01*
X14468168Y-17487502D01*
X14468168Y-17506550D01*
X14372930Y-17525598D01*
X14639597Y-17592264D02*
X14639597Y-17392264D01*
X14639597Y-17582741D02*
X14620549Y-17592264D01*
X14582454Y-17592264D01*
X14563406Y-17582741D01*
X14553883Y-17573217D01*
X14544359Y-17554169D01*
X14544359Y-17497026D01*
X14553883Y-17477979D01*
X14563406Y-17468455D01*
X14582454Y-17458931D01*
X14620549Y-17458931D01*
X14639597Y-17468455D01*
X14715787Y-17668455D02*
X14725311Y-17658931D01*
X14744359Y-17630360D01*
X14753883Y-17611312D01*
X14763406Y-17582741D01*
X14772930Y-17535122D01*
X14772930Y-17497026D01*
X14763406Y-17449407D01*
X14753883Y-17420836D01*
X14744359Y-17401788D01*
X14725311Y-17373217D01*
X14715787Y-17363693D01*
D15*
X7744630Y-17858964D02*
X7744630Y-17724612D01*
X7610278Y-17724612D01*
X7610278Y-17858964D01*
X7744630Y-17858964D01*
D11*
X8134835Y-17882264D02*
X8020549Y-17882264D01*
X8077692Y-17882264D02*
X8077692Y-17682264D01*
X8058644Y-17710836D01*
X8039597Y-17729883D01*
X8020549Y-17739407D01*
X8220549Y-17863217D02*
X8230073Y-17872741D01*
X8220549Y-17882264D01*
X8211025Y-17872741D01*
X8220549Y-17863217D01*
X8220549Y-17882264D01*
X8325311Y-17882264D02*
X8363406Y-17882264D01*
X8382454Y-17872741D01*
X8391978Y-17863217D01*
X8411026Y-17834645D01*
X8420549Y-17796550D01*
X8420549Y-17720360D01*
X8411026Y-17701312D01*
X8401502Y-17691788D01*
X8382454Y-17682264D01*
X8344359Y-17682264D01*
X8325311Y-17691788D01*
X8315787Y-17701312D01*
X8306264Y-17720360D01*
X8306264Y-17767979D01*
X8315787Y-17787026D01*
X8325311Y-17796550D01*
X8344359Y-17806074D01*
X8382454Y-17806074D01*
X8401502Y-17796550D01*
X8411026Y-17787026D01*
X8420549Y-17767979D01*
X8544359Y-17682264D02*
X8563406Y-17682264D01*
X8582454Y-17691788D01*
X8591978Y-17701312D01*
X8601502Y-17720360D01*
X8611026Y-17758455D01*
X8611026Y-17806074D01*
X8601502Y-17844169D01*
X8591978Y-17863217D01*
X8582454Y-17872741D01*
X8563406Y-17882264D01*
X8544359Y-17882264D01*
X8525311Y-17872741D01*
X8515787Y-17863217D01*
X8506264Y-17844169D01*
X8496740Y-17806074D01*
X8496740Y-17758455D01*
X8506264Y-17720360D01*
X8515787Y-17701312D01*
X8525311Y-17691788D01*
X8544359Y-17682264D01*
X8734835Y-17682264D02*
X8753883Y-17682264D01*
X8772930Y-17691788D01*
X8782454Y-17701312D01*
X8791978Y-17720360D01*
X8801502Y-17758455D01*
X8801502Y-17806074D01*
X8791978Y-17844169D01*
X8782454Y-17863217D01*
X8772930Y-17872741D01*
X8753883Y-17882264D01*
X8734835Y-17882264D01*
X8715787Y-17872741D01*
X8706264Y-17863217D01*
X8696740Y-17844169D01*
X8687216Y-17806074D01*
X8687216Y-17758455D01*
X8696740Y-17720360D01*
X8706264Y-17701312D01*
X8715787Y-17691788D01*
X8734835Y-17682264D01*
X8887216Y-17882264D02*
X8887216Y-17748931D01*
X8887216Y-17767979D02*
X8896740Y-17758455D01*
X8915787Y-17748931D01*
X8944359Y-17748931D01*
X8963406Y-17758455D01*
X8972930Y-17777502D01*
X8972930Y-17882264D01*
X8972930Y-17777502D02*
X8982454Y-17758455D01*
X9001502Y-17748931D01*
X9030073Y-17748931D01*
X9049121Y-17758455D01*
X9058645Y-17777502D01*
X9058645Y-17882264D01*
X9153883Y-17882264D02*
X9153883Y-17748931D01*
X9153883Y-17767979D02*
X9163406Y-17758455D01*
X9182454Y-17748931D01*
X9211026Y-17748931D01*
X9230073Y-17758455D01*
X9239597Y-17777502D01*
X9239597Y-17882264D01*
X9239597Y-17777502D02*
X9249121Y-17758455D01*
X9268168Y-17748931D01*
X9296740Y-17748931D01*
X9315787Y-17758455D01*
X9325311Y-17777502D01*
X9325311Y-17882264D01*
X9715787Y-17672741D02*
X9544359Y-17929883D01*
X9972930Y-17682264D02*
X9991978Y-17682264D01*
X10011026Y-17691788D01*
X10020549Y-17701312D01*
X10030073Y-17720360D01*
X10039597Y-17758455D01*
X10039597Y-17806074D01*
X10030073Y-17844169D01*
X10020549Y-17863217D01*
X10011026Y-17872741D01*
X9991978Y-17882264D01*
X9972930Y-17882264D01*
X9953883Y-17872741D01*
X9944359Y-17863217D01*
X9934835Y-17844169D01*
X9925311Y-17806074D01*
X9925311Y-17758455D01*
X9934835Y-17720360D01*
X9944359Y-17701312D01*
X9953883Y-17691788D01*
X9972930Y-17682264D01*
X10125311Y-17863217D02*
X10134835Y-17872741D01*
X10125311Y-17882264D01*
X10115787Y-17872741D01*
X10125311Y-17863217D01*
X10125311Y-17882264D01*
X10258645Y-17682264D02*
X10277692Y-17682264D01*
X10296740Y-17691788D01*
X10306264Y-17701312D01*
X10315787Y-17720360D01*
X10325311Y-17758455D01*
X10325311Y-17806074D01*
X10315787Y-17844169D01*
X10306264Y-17863217D01*
X10296740Y-17872741D01*
X10277692Y-17882264D01*
X10258645Y-17882264D01*
X10239597Y-17872741D01*
X10230073Y-17863217D01*
X10220549Y-17844169D01*
X10211026Y-17806074D01*
X10211026Y-17758455D01*
X10220549Y-17720360D01*
X10230073Y-17701312D01*
X10239597Y-17691788D01*
X10258645Y-17682264D01*
X10391978Y-17682264D02*
X10525311Y-17682264D01*
X10439597Y-17882264D01*
X10687216Y-17748931D02*
X10687216Y-17882264D01*
X10639597Y-17672741D02*
X10591978Y-17815598D01*
X10715787Y-17815598D01*
X10820549Y-17767979D02*
X10801502Y-17758455D01*
X10791978Y-17748931D01*
X10782454Y-17729883D01*
X10782454Y-17720360D01*
X10791978Y-17701312D01*
X10801502Y-17691788D01*
X10820549Y-17682264D01*
X10858645Y-17682264D01*
X10877692Y-17691788D01*
X10887216Y-17701312D01*
X10896740Y-17720360D01*
X10896740Y-17729883D01*
X10887216Y-17748931D01*
X10877692Y-17758455D01*
X10858645Y-17767979D01*
X10820549Y-17767979D01*
X10801502Y-17777502D01*
X10791978Y-17787026D01*
X10782454Y-17806074D01*
X10782454Y-17844169D01*
X10791978Y-17863217D01*
X10801502Y-17872741D01*
X10820549Y-17882264D01*
X10858645Y-17882264D01*
X10877692Y-17872741D01*
X10887216Y-17863217D01*
X10896740Y-17844169D01*
X10896740Y-17806074D01*
X10887216Y-17787026D01*
X10877692Y-17777502D01*
X10858645Y-17767979D01*
X10972930Y-17682264D02*
X10972930Y-17720360D01*
X11049121Y-17682264D02*
X11049121Y-17720360D01*
X11344359Y-17958455D02*
X11334835Y-17948931D01*
X11315787Y-17920360D01*
X11306264Y-17901312D01*
X11296740Y-17872741D01*
X11287216Y-17825122D01*
X11287216Y-17787026D01*
X11296740Y-17739407D01*
X11306264Y-17710836D01*
X11315787Y-17691788D01*
X11334835Y-17663217D01*
X11344359Y-17653693D01*
X11401502Y-17682264D02*
X11525311Y-17682264D01*
X11458644Y-17758455D01*
X11487216Y-17758455D01*
X11506264Y-17767979D01*
X11515787Y-17777502D01*
X11525311Y-17796550D01*
X11525311Y-17844169D01*
X11515787Y-17863217D01*
X11506264Y-17872741D01*
X11487216Y-17882264D01*
X11430073Y-17882264D01*
X11411025Y-17872741D01*
X11401502Y-17863217D01*
X11696740Y-17682264D02*
X11658644Y-17682264D01*
X11639597Y-17691788D01*
X11630073Y-17701312D01*
X11611025Y-17729883D01*
X11601502Y-17767979D01*
X11601502Y-17844169D01*
X11611025Y-17863217D01*
X11620549Y-17872741D01*
X11639597Y-17882264D01*
X11677692Y-17882264D01*
X11696740Y-17872741D01*
X11706264Y-17863217D01*
X11715787Y-17844169D01*
X11715787Y-17796550D01*
X11706264Y-17777502D01*
X11696740Y-17767979D01*
X11677692Y-17758455D01*
X11639597Y-17758455D01*
X11620549Y-17767979D01*
X11611025Y-17777502D01*
X11601502Y-17796550D01*
X11953883Y-17882264D02*
X11953883Y-17682264D01*
X12039597Y-17882264D02*
X12039597Y-17777502D01*
X12030073Y-17758455D01*
X12011025Y-17748931D01*
X11982454Y-17748931D01*
X11963406Y-17758455D01*
X11953883Y-17767979D01*
X12163406Y-17882264D02*
X12144359Y-17872741D01*
X12134835Y-17863217D01*
X12125311Y-17844169D01*
X12125311Y-17787026D01*
X12134835Y-17767979D01*
X12144359Y-17758455D01*
X12163406Y-17748931D01*
X12191978Y-17748931D01*
X12211025Y-17758455D01*
X12220549Y-17767979D01*
X12230073Y-17787026D01*
X12230073Y-17844169D01*
X12220549Y-17863217D01*
X12211025Y-17872741D01*
X12191978Y-17882264D01*
X12163406Y-17882264D01*
X12344359Y-17882264D02*
X12325311Y-17872741D01*
X12315787Y-17853693D01*
X12315787Y-17682264D01*
X12496740Y-17872741D02*
X12477692Y-17882264D01*
X12439597Y-17882264D01*
X12420549Y-17872741D01*
X12411025Y-17853693D01*
X12411025Y-17777502D01*
X12420549Y-17758455D01*
X12439597Y-17748931D01*
X12477692Y-17748931D01*
X12496740Y-17758455D01*
X12506264Y-17777502D01*
X12506264Y-17796550D01*
X12411025Y-17815598D01*
X12582454Y-17872741D02*
X12601502Y-17882264D01*
X12639597Y-17882264D01*
X12658644Y-17872741D01*
X12668168Y-17853693D01*
X12668168Y-17844169D01*
X12658644Y-17825122D01*
X12639597Y-17815598D01*
X12611025Y-17815598D01*
X12591978Y-17806074D01*
X12582454Y-17787026D01*
X12582454Y-17777502D01*
X12591978Y-17758455D01*
X12611025Y-17748931D01*
X12639597Y-17748931D01*
X12658644Y-17758455D01*
X12734835Y-17958455D02*
X12744359Y-17948931D01*
X12763406Y-17920360D01*
X12772930Y-17901312D01*
X12782454Y-17872741D01*
X12791978Y-17825122D01*
X12791978Y-17787026D01*
X12782454Y-17739407D01*
X12772930Y-17710836D01*
X12763406Y-17691788D01*
X12744359Y-17663217D01*
X12734835Y-17653693D01*
X13096740Y-17958455D02*
X13087216Y-17948931D01*
X13068168Y-17920360D01*
X13058644Y-17901312D01*
X13049121Y-17872741D01*
X13039597Y-17825122D01*
X13039597Y-17787026D01*
X13049121Y-17739407D01*
X13058644Y-17710836D01*
X13068168Y-17691788D01*
X13087216Y-17663217D01*
X13096740Y-17653693D01*
X13172930Y-17748931D02*
X13172930Y-17882264D01*
X13172930Y-17767979D02*
X13182454Y-17758455D01*
X13201502Y-17748931D01*
X13230073Y-17748931D01*
X13249121Y-17758455D01*
X13258644Y-17777502D01*
X13258644Y-17882264D01*
X13382454Y-17882264D02*
X13363406Y-17872741D01*
X13353883Y-17863217D01*
X13344359Y-17844169D01*
X13344359Y-17787026D01*
X13353883Y-17767979D01*
X13363406Y-17758455D01*
X13382454Y-17748931D01*
X13411025Y-17748931D01*
X13430073Y-17758455D01*
X13439597Y-17767979D01*
X13449121Y-17787026D01*
X13449121Y-17844169D01*
X13439597Y-17863217D01*
X13430073Y-17872741D01*
X13411025Y-17882264D01*
X13382454Y-17882264D01*
X13506264Y-17748931D02*
X13582454Y-17748931D01*
X13534835Y-17682264D02*
X13534835Y-17853693D01*
X13544359Y-17872741D01*
X13563406Y-17882264D01*
X13582454Y-17882264D01*
X13801502Y-17748931D02*
X13801502Y-17948931D01*
X13801502Y-17758455D02*
X13820549Y-17748931D01*
X13858644Y-17748931D01*
X13877692Y-17758455D01*
X13887216Y-17767979D01*
X13896740Y-17787026D01*
X13896740Y-17844169D01*
X13887216Y-17863217D01*
X13877692Y-17872741D01*
X13858644Y-17882264D01*
X13820549Y-17882264D01*
X13801502Y-17872741D01*
X14011025Y-17882264D02*
X13991978Y-17872741D01*
X13982454Y-17853693D01*
X13982454Y-17682264D01*
X14172930Y-17882264D02*
X14172930Y-17777502D01*
X14163406Y-17758455D01*
X14144359Y-17748931D01*
X14106264Y-17748931D01*
X14087216Y-17758455D01*
X14172930Y-17872741D02*
X14153883Y-17882264D01*
X14106264Y-17882264D01*
X14087216Y-17872741D01*
X14077692Y-17853693D01*
X14077692Y-17834645D01*
X14087216Y-17815598D01*
X14106264Y-17806074D01*
X14153883Y-17806074D01*
X14172930Y-17796550D01*
X14239597Y-17748931D02*
X14315787Y-17748931D01*
X14268168Y-17682264D02*
X14268168Y-17853693D01*
X14277692Y-17872741D01*
X14296740Y-17882264D01*
X14315787Y-17882264D01*
X14458644Y-17872741D02*
X14439597Y-17882264D01*
X14401502Y-17882264D01*
X14382454Y-17872741D01*
X14372930Y-17853693D01*
X14372930Y-17777502D01*
X14382454Y-17758455D01*
X14401502Y-17748931D01*
X14439597Y-17748931D01*
X14458644Y-17758455D01*
X14468168Y-17777502D01*
X14468168Y-17796550D01*
X14372930Y-17815598D01*
X14639597Y-17882264D02*
X14639597Y-17682264D01*
X14639597Y-17872741D02*
X14620549Y-17882264D01*
X14582454Y-17882264D01*
X14563406Y-17872741D01*
X14553883Y-17863217D01*
X14544359Y-17844169D01*
X14544359Y-17787026D01*
X14553883Y-17767979D01*
X14563406Y-17758455D01*
X14582454Y-17748931D01*
X14620549Y-17748931D01*
X14639597Y-17758455D01*
X14715787Y-17958455D02*
X14725311Y-17948931D01*
X14744359Y-17920360D01*
X14753883Y-17901312D01*
X14763406Y-17872741D01*
X14772930Y-17825122D01*
X14772930Y-17787026D01*
X14763406Y-17739407D01*
X14753883Y-17710836D01*
X14744359Y-17691788D01*
X14725311Y-17663217D01*
X14715787Y-17653693D01*
X7672454Y-18201788D02*
X7772454Y-18101788D01*
X7672454Y-18001788D01*
X7572454Y-18101788D01*
X7672454Y-18201788D01*
X8115787Y-18058931D02*
X8115787Y-18192264D01*
X8068168Y-17982741D02*
X8020549Y-18125598D01*
X8144359Y-18125598D01*
X8220549Y-18173217D02*
X8230073Y-18182741D01*
X8220549Y-18192264D01*
X8211025Y-18182741D01*
X8220549Y-18173217D01*
X8220549Y-18192264D01*
X8353883Y-17992264D02*
X8372930Y-17992264D01*
X8391978Y-18001788D01*
X8401502Y-18011312D01*
X8411026Y-18030360D01*
X8420549Y-18068455D01*
X8420549Y-18116074D01*
X8411026Y-18154169D01*
X8401502Y-18173217D01*
X8391978Y-18182741D01*
X8372930Y-18192264D01*
X8353883Y-18192264D01*
X8334835Y-18182741D01*
X8325311Y-18173217D01*
X8315787Y-18154169D01*
X8306264Y-18116074D01*
X8306264Y-18068455D01*
X8315787Y-18030360D01*
X8325311Y-18011312D01*
X8334835Y-18001788D01*
X8353883Y-17992264D01*
X8544359Y-17992264D02*
X8563406Y-17992264D01*
X8582454Y-18001788D01*
X8591978Y-18011312D01*
X8601502Y-18030360D01*
X8611026Y-18068455D01*
X8611026Y-18116074D01*
X8601502Y-18154169D01*
X8591978Y-18173217D01*
X8582454Y-18182741D01*
X8563406Y-18192264D01*
X8544359Y-18192264D01*
X8525311Y-18182741D01*
X8515787Y-18173217D01*
X8506264Y-18154169D01*
X8496740Y-18116074D01*
X8496740Y-18068455D01*
X8506264Y-18030360D01*
X8515787Y-18011312D01*
X8525311Y-18001788D01*
X8544359Y-17992264D01*
X8734835Y-17992264D02*
X8753883Y-17992264D01*
X8772930Y-18001788D01*
X8782454Y-18011312D01*
X8791978Y-18030360D01*
X8801502Y-18068455D01*
X8801502Y-18116074D01*
X8791978Y-18154169D01*
X8782454Y-18173217D01*
X8772930Y-18182741D01*
X8753883Y-18192264D01*
X8734835Y-18192264D01*
X8715787Y-18182741D01*
X8706264Y-18173217D01*
X8696740Y-18154169D01*
X8687216Y-18116074D01*
X8687216Y-18068455D01*
X8696740Y-18030360D01*
X8706264Y-18011312D01*
X8715787Y-18001788D01*
X8734835Y-17992264D01*
X8887216Y-18192264D02*
X8887216Y-18058931D01*
X8887216Y-18077979D02*
X8896740Y-18068455D01*
X8915787Y-18058931D01*
X8944359Y-18058931D01*
X8963406Y-18068455D01*
X8972930Y-18087502D01*
X8972930Y-18192264D01*
X8972930Y-18087502D02*
X8982454Y-18068455D01*
X9001502Y-18058931D01*
X9030073Y-18058931D01*
X9049121Y-18068455D01*
X9058645Y-18087502D01*
X9058645Y-18192264D01*
X9153883Y-18192264D02*
X9153883Y-18058931D01*
X9153883Y-18077979D02*
X9163406Y-18068455D01*
X9182454Y-18058931D01*
X9211026Y-18058931D01*
X9230073Y-18068455D01*
X9239597Y-18087502D01*
X9239597Y-18192264D01*
X9239597Y-18087502D02*
X9249121Y-18068455D01*
X9268168Y-18058931D01*
X9296740Y-18058931D01*
X9315787Y-18068455D01*
X9325311Y-18087502D01*
X9325311Y-18192264D01*
X9715787Y-17982741D02*
X9544359Y-18239883D01*
X9972930Y-17992264D02*
X9991978Y-17992264D01*
X10011026Y-18001788D01*
X10020549Y-18011312D01*
X10030073Y-18030360D01*
X10039597Y-18068455D01*
X10039597Y-18116074D01*
X10030073Y-18154169D01*
X10020549Y-18173217D01*
X10011026Y-18182741D01*
X9991978Y-18192264D01*
X9972930Y-18192264D01*
X9953883Y-18182741D01*
X9944359Y-18173217D01*
X9934835Y-18154169D01*
X9925311Y-18116074D01*
X9925311Y-18068455D01*
X9934835Y-18030360D01*
X9944359Y-18011312D01*
X9953883Y-18001788D01*
X9972930Y-17992264D01*
X10125311Y-18173217D02*
X10134835Y-18182741D01*
X10125311Y-18192264D01*
X10115787Y-18182741D01*
X10125311Y-18173217D01*
X10125311Y-18192264D01*
X10325311Y-18192264D02*
X10211026Y-18192264D01*
X10268168Y-18192264D02*
X10268168Y-17992264D01*
X10249121Y-18020836D01*
X10230073Y-18039883D01*
X10211026Y-18049407D01*
X10506264Y-17992264D02*
X10411026Y-17992264D01*
X10401502Y-18087502D01*
X10411026Y-18077979D01*
X10430073Y-18068455D01*
X10477692Y-18068455D01*
X10496740Y-18077979D01*
X10506264Y-18087502D01*
X10515787Y-18106550D01*
X10515787Y-18154169D01*
X10506264Y-18173217D01*
X10496740Y-18182741D01*
X10477692Y-18192264D01*
X10430073Y-18192264D01*
X10411026Y-18182741D01*
X10401502Y-18173217D01*
X10582454Y-17992264D02*
X10715787Y-17992264D01*
X10630073Y-18192264D01*
X10887216Y-17992264D02*
X10791978Y-17992264D01*
X10782454Y-18087502D01*
X10791978Y-18077979D01*
X10811026Y-18068455D01*
X10858645Y-18068455D01*
X10877692Y-18077979D01*
X10887216Y-18087502D01*
X10896740Y-18106550D01*
X10896740Y-18154169D01*
X10887216Y-18173217D01*
X10877692Y-18182741D01*
X10858645Y-18192264D01*
X10811026Y-18192264D01*
X10791978Y-18182741D01*
X10782454Y-18173217D01*
X10972930Y-17992264D02*
X10972930Y-18030360D01*
X11049121Y-17992264D02*
X11049121Y-18030360D01*
X11344359Y-18268455D02*
X11334835Y-18258931D01*
X11315787Y-18230360D01*
X11306264Y-18211312D01*
X11296740Y-18182741D01*
X11287216Y-18135122D01*
X11287216Y-18097026D01*
X11296740Y-18049407D01*
X11306264Y-18020836D01*
X11315787Y-18001788D01*
X11334835Y-17973217D01*
X11344359Y-17963693D01*
X11525311Y-18192264D02*
X11411025Y-18192264D01*
X11468168Y-18192264D02*
X11468168Y-17992264D01*
X11449121Y-18020836D01*
X11430073Y-18039883D01*
X11411025Y-18049407D01*
X11639597Y-18077979D02*
X11620549Y-18068455D01*
X11611025Y-18058931D01*
X11601502Y-18039883D01*
X11601502Y-18030360D01*
X11611025Y-18011312D01*
X11620549Y-18001788D01*
X11639597Y-17992264D01*
X11677692Y-17992264D01*
X11696740Y-18001788D01*
X11706264Y-18011312D01*
X11715787Y-18030360D01*
X11715787Y-18039883D01*
X11706264Y-18058931D01*
X11696740Y-18068455D01*
X11677692Y-18077979D01*
X11639597Y-18077979D01*
X11620549Y-18087502D01*
X11611025Y-18097026D01*
X11601502Y-18116074D01*
X11601502Y-18154169D01*
X11611025Y-18173217D01*
X11620549Y-18182741D01*
X11639597Y-18192264D01*
X11677692Y-18192264D01*
X11696740Y-18182741D01*
X11706264Y-18173217D01*
X11715787Y-18154169D01*
X11715787Y-18116074D01*
X11706264Y-18097026D01*
X11696740Y-18087502D01*
X11677692Y-18077979D01*
X11953883Y-18192264D02*
X11953883Y-17992264D01*
X12039597Y-18192264D02*
X12039597Y-18087502D01*
X12030073Y-18068455D01*
X12011025Y-18058931D01*
X11982454Y-18058931D01*
X11963406Y-18068455D01*
X11953883Y-18077979D01*
X12163406Y-18192264D02*
X12144359Y-18182741D01*
X12134835Y-18173217D01*
X12125311Y-18154169D01*
X12125311Y-18097026D01*
X12134835Y-18077979D01*
X12144359Y-18068455D01*
X12163406Y-18058931D01*
X12191978Y-18058931D01*
X12211025Y-18068455D01*
X12220549Y-18077979D01*
X12230073Y-18097026D01*
X12230073Y-18154169D01*
X12220549Y-18173217D01*
X12211025Y-18182741D01*
X12191978Y-18192264D01*
X12163406Y-18192264D01*
X12344359Y-18192264D02*
X12325311Y-18182741D01*
X12315787Y-18163693D01*
X12315787Y-17992264D01*
X12496740Y-18182741D02*
X12477692Y-18192264D01*
X12439597Y-18192264D01*
X12420549Y-18182741D01*
X12411025Y-18163693D01*
X12411025Y-18087502D01*
X12420549Y-18068455D01*
X12439597Y-18058931D01*
X12477692Y-18058931D01*
X12496740Y-18068455D01*
X12506264Y-18087502D01*
X12506264Y-18106550D01*
X12411025Y-18125598D01*
X12582454Y-18182741D02*
X12601502Y-18192264D01*
X12639597Y-18192264D01*
X12658644Y-18182741D01*
X12668168Y-18163693D01*
X12668168Y-18154169D01*
X12658644Y-18135122D01*
X12639597Y-18125598D01*
X12611025Y-18125598D01*
X12591978Y-18116074D01*
X12582454Y-18097026D01*
X12582454Y-18087502D01*
X12591978Y-18068455D01*
X12611025Y-18058931D01*
X12639597Y-18058931D01*
X12658644Y-18068455D01*
X12734835Y-18268455D02*
X12744359Y-18258931D01*
X12763406Y-18230360D01*
X12772930Y-18211312D01*
X12782454Y-18182741D01*
X12791978Y-18135122D01*
X12791978Y-18097026D01*
X12782454Y-18049407D01*
X12772930Y-18020836D01*
X12763406Y-18001788D01*
X12744359Y-17973217D01*
X12734835Y-17963693D01*
X13096740Y-18268455D02*
X13087216Y-18258931D01*
X13068168Y-18230360D01*
X13058644Y-18211312D01*
X13049121Y-18182741D01*
X13039597Y-18135122D01*
X13039597Y-18097026D01*
X13049121Y-18049407D01*
X13058644Y-18020836D01*
X13068168Y-18001788D01*
X13087216Y-17973217D01*
X13096740Y-17963693D01*
X13172930Y-18058931D02*
X13172930Y-18192264D01*
X13172930Y-18077979D02*
X13182454Y-18068455D01*
X13201502Y-18058931D01*
X13230073Y-18058931D01*
X13249121Y-18068455D01*
X13258644Y-18087502D01*
X13258644Y-18192264D01*
X13382454Y-18192264D02*
X13363406Y-18182741D01*
X13353883Y-18173217D01*
X13344359Y-18154169D01*
X13344359Y-18097026D01*
X13353883Y-18077979D01*
X13363406Y-18068455D01*
X13382454Y-18058931D01*
X13411025Y-18058931D01*
X13430073Y-18068455D01*
X13439597Y-18077979D01*
X13449121Y-18097026D01*
X13449121Y-18154169D01*
X13439597Y-18173217D01*
X13430073Y-18182741D01*
X13411025Y-18192264D01*
X13382454Y-18192264D01*
X13506264Y-18058931D02*
X13582454Y-18058931D01*
X13534835Y-17992264D02*
X13534835Y-18163693D01*
X13544359Y-18182741D01*
X13563406Y-18192264D01*
X13582454Y-18192264D01*
X13801502Y-18058931D02*
X13801502Y-18258931D01*
X13801502Y-18068455D02*
X13820549Y-18058931D01*
X13858644Y-18058931D01*
X13877692Y-18068455D01*
X13887216Y-18077979D01*
X13896740Y-18097026D01*
X13896740Y-18154169D01*
X13887216Y-18173217D01*
X13877692Y-18182741D01*
X13858644Y-18192264D01*
X13820549Y-18192264D01*
X13801502Y-18182741D01*
X14011025Y-18192264D02*
X13991978Y-18182741D01*
X13982454Y-18163693D01*
X13982454Y-17992264D01*
X14172930Y-18192264D02*
X14172930Y-18087502D01*
X14163406Y-18068455D01*
X14144359Y-18058931D01*
X14106264Y-18058931D01*
X14087216Y-18068455D01*
X14172930Y-18182741D02*
X14153883Y-18192264D01*
X14106264Y-18192264D01*
X14087216Y-18182741D01*
X14077692Y-18163693D01*
X14077692Y-18144645D01*
X14087216Y-18125598D01*
X14106264Y-18116074D01*
X14153883Y-18116074D01*
X14172930Y-18106550D01*
X14239597Y-18058931D02*
X14315787Y-18058931D01*
X14268168Y-17992264D02*
X14268168Y-18163693D01*
X14277692Y-18182741D01*
X14296740Y-18192264D01*
X14315787Y-18192264D01*
X14458644Y-18182741D02*
X14439597Y-18192264D01*
X14401502Y-18192264D01*
X14382454Y-18182741D01*
X14372930Y-18163693D01*
X14372930Y-18087502D01*
X14382454Y-18068455D01*
X14401502Y-18058931D01*
X14439597Y-18058931D01*
X14458644Y-18068455D01*
X14468168Y-18087502D01*
X14468168Y-18106550D01*
X14372930Y-18125598D01*
X14639597Y-18192264D02*
X14639597Y-17992264D01*
X14639597Y-18182741D02*
X14620549Y-18192264D01*
X14582454Y-18192264D01*
X14563406Y-18182741D01*
X14553883Y-18173217D01*
X14544359Y-18154169D01*
X14544359Y-18097026D01*
X14553883Y-18077979D01*
X14563406Y-18068455D01*
X14582454Y-18058931D01*
X14620549Y-18058931D01*
X14639597Y-18068455D01*
X14715787Y-18268455D02*
X14725311Y-18258931D01*
X14744359Y-18230360D01*
X14753883Y-18211312D01*
X14763406Y-18182741D01*
X14772930Y-18135122D01*
X14772930Y-18097026D01*
X14763406Y-18049407D01*
X14753883Y-18020836D01*
X14744359Y-18001788D01*
X14725311Y-17973217D01*
X14715787Y-17963693D01*
M02*
