%FSLAX45Y45*%
G04 Gerber Fmt 4.5, Leading zero omitted, Abs format (unit mm)*
G04 Created by KiCad (PCBNEW (6.0.4-0)) date 2022-05-15 19:59:06*
%MOMM*%
%LPD*%
G01*
G04 APERTURE LIST*
%TA.AperFunction,Profile*%
%ADD10C,0.050000*%
%TD*%
%ADD11C,0.200000*%
%ADD12C,0.020000*%
%ADD13C,0.040000*%
%ADD14C,0.080000*%
%ADD15C,0.081280*%
%ADD16C,0.090000*%
%ADD17C,0.100000*%
%ADD18C,0.154000*%
%ADD19C,0.220000*%
%ADD20C,0.300000*%
%ADD21C,0.400000*%
G04 APERTURE END LIST*
D10*
X18194931Y-6960571D02*
X18200000Y-6975000D01*
X18500000Y-7275000D02*
X20000000Y-7275000D01*
X18194932Y-6960571D02*
G75*
G03*
X17303750Y-5159375I-2197522J33791D01*
G01*
X7774954Y-5914571D02*
X7779480Y-11863649D01*
X12174926Y-13949323D02*
G75*
G03*
X7779480Y-11863649I-4496261J-3801207D01*
G01*
X17812861Y-16325288D02*
G75*
G03*
X12174925Y-13949323I-4949949J-3868630D01*
G01*
X18200000Y-6975000D02*
G75*
G03*
X18500000Y-7275000I300000J0D01*
G01*
X20500000Y-7775000D02*
X20500000Y-13000000D01*
X17812861Y-16325288D02*
G75*
G03*
X20500000Y-13000000I-1704573J4125824D01*
G01*
X20500000Y-7775000D02*
G75*
G03*
X20000000Y-7275000I-500000J0D01*
G01*
X17303750Y-5159375D02*
G75*
G03*
X7774954Y-5914571I-4127500J-8413750D01*
G01*
D11*
D12*
X9406875Y-7941250D02*
X9426875Y-7961250D01*
X9426875Y-7941250D02*
X9406875Y-7961250D01*
X9406875Y-9841250D02*
X9426875Y-9861250D01*
X9426875Y-9841250D02*
X9406875Y-9861250D01*
X9425000Y-11690000D02*
X9445000Y-11710000D01*
X9445000Y-11690000D02*
X9425000Y-11710000D01*
X9686875Y-7941250D02*
X9706875Y-7961250D01*
X9706875Y-7941250D02*
X9686875Y-7961250D01*
X9686875Y-9841250D02*
X9706875Y-9861250D01*
X9706875Y-9841250D02*
X9686875Y-9861250D01*
X9705000Y-11690000D02*
X9725000Y-11710000D01*
X9725000Y-11690000D02*
X9705000Y-11710000D01*
X11298750Y-10546875D02*
X11318750Y-10566875D01*
X11318750Y-10546875D02*
X11298750Y-10566875D01*
X11301875Y-6741250D02*
X11321875Y-6761250D01*
X11321875Y-6741250D02*
X11301875Y-6761250D01*
X11306875Y-8641250D02*
X11326875Y-8661250D01*
X11326875Y-8641250D02*
X11306875Y-8661250D01*
X11578750Y-10546875D02*
X11598750Y-10566875D01*
X11598750Y-10546875D02*
X11578750Y-10566875D01*
X11581875Y-6741250D02*
X11601875Y-6761250D01*
X11601875Y-6741250D02*
X11581875Y-6761250D01*
X11586875Y-8641250D02*
X11606875Y-8661250D01*
X11606875Y-8641250D02*
X11586875Y-8661250D01*
X13200000Y-10015000D02*
X13220000Y-10035000D01*
X13220000Y-10015000D02*
X13200000Y-10035000D01*
X13206875Y-6141250D02*
X13226875Y-6161250D01*
X13226875Y-6141250D02*
X13206875Y-6161250D01*
X13206875Y-8041250D02*
X13226875Y-8061250D01*
X13226875Y-8041250D02*
X13206875Y-8061250D01*
X13480000Y-10015000D02*
X13500000Y-10035000D01*
X13500000Y-10015000D02*
X13480000Y-10035000D01*
X13486875Y-6141250D02*
X13506875Y-6161250D01*
X13506875Y-6141250D02*
X13486875Y-6161250D01*
X13486875Y-8041250D02*
X13506875Y-8061250D01*
X13506875Y-8041250D02*
X13486875Y-8061250D01*
X14198125Y-11200625D02*
X14218125Y-11220625D01*
X14218125Y-11200625D02*
X14198125Y-11220625D01*
X14198125Y-11480625D02*
X14218125Y-11500625D01*
X14218125Y-11480625D02*
X14198125Y-11500625D01*
X14595000Y-11200625D02*
X14615000Y-11220625D01*
X14615000Y-11200625D02*
X14595000Y-11220625D01*
X14595000Y-11480625D02*
X14615000Y-11500625D01*
X14615000Y-11480625D02*
X14595000Y-11500625D01*
X14991875Y-11200625D02*
X15011875Y-11220625D01*
X15011875Y-11200625D02*
X14991875Y-11220625D01*
X14991875Y-11480625D02*
X15011875Y-11500625D01*
X15011875Y-11480625D02*
X14991875Y-11500625D01*
X15106875Y-8741250D02*
X15126875Y-8761250D01*
X15126875Y-8741250D02*
X15106875Y-8761250D01*
X15169375Y-6816250D02*
X15189375Y-6836250D01*
X15189375Y-6816250D02*
X15169375Y-6836250D01*
X15386875Y-8741250D02*
X15406875Y-8761250D01*
X15406875Y-8741250D02*
X15386875Y-8761250D01*
X15388750Y-11200625D02*
X15408750Y-11220625D01*
X15408750Y-11200625D02*
X15388750Y-11220625D01*
X15388750Y-11480625D02*
X15408750Y-11500625D01*
X15408750Y-11480625D02*
X15388750Y-11500625D01*
X15449375Y-6816250D02*
X15469375Y-6836250D01*
X15469375Y-6816250D02*
X15449375Y-6836250D01*
X17312500Y-7292500D02*
X17332500Y-7312500D01*
X17332500Y-7292500D02*
X17312500Y-7312500D01*
X17312500Y-7610000D02*
X17332500Y-7630000D01*
X17332500Y-7610000D02*
X17312500Y-7630000D01*
X17592500Y-7292500D02*
X17612500Y-7312500D01*
X17612500Y-7292500D02*
X17592500Y-7312500D01*
X17592500Y-7610000D02*
X17612500Y-7630000D01*
X17612500Y-7610000D02*
X17592500Y-7630000D01*
X18900000Y-12372500D02*
X18920000Y-12392500D01*
X18920000Y-12372500D02*
X18900000Y-12392500D01*
X18906875Y-12041250D02*
X18926875Y-12061250D01*
X18926875Y-12041250D02*
X18906875Y-12061250D01*
X19180000Y-12372500D02*
X19200000Y-12392500D01*
X19200000Y-12372500D02*
X19180000Y-12392500D01*
X19186875Y-12041250D02*
X19206875Y-12061250D01*
X19206875Y-12041250D02*
X19186875Y-12061250D01*
D13*
X7920000Y-9800000D02*
G75*
G03*
X7920000Y-9800000I-20000J0D01*
G01*
X7940000Y-8400000D02*
G75*
G03*
X7940000Y-8400000I-20000J0D01*
G01*
X8000000Y-11660000D02*
G75*
G03*
X8000000Y-11660000I-20000J0D01*
G01*
X8120000Y-7900000D02*
G75*
G03*
X8120000Y-7900000I-20000J0D01*
G01*
X8170000Y-9800000D02*
G75*
G03*
X8170000Y-9800000I-20000J0D01*
G01*
X8320000Y-7850000D02*
G75*
G03*
X8320000Y-7850000I-20000J0D01*
G01*
X8320000Y-9800000D02*
G75*
G03*
X8320000Y-9800000I-20000J0D01*
G01*
X8670000Y-7900000D02*
G75*
G03*
X8670000Y-7900000I-20000J0D01*
G01*
X8770000Y-9850000D02*
G75*
G03*
X8770000Y-9850000I-20000J0D01*
G01*
X8970000Y-6006312D02*
G75*
G03*
X8970000Y-6006312I-20000J0D01*
G01*
X9723868Y-5503868D02*
G75*
G03*
X9723868Y-5503868I-20000J0D01*
G01*
X9869021Y-5549021D02*
G75*
G03*
X9869021Y-5549021I-20000J0D01*
G01*
X10770000Y-11000000D02*
G75*
G03*
X10770000Y-11000000I-20000J0D01*
G01*
X10958730Y-5011270D02*
G75*
G03*
X10958730Y-5011270I-20000J0D01*
G01*
X11020000Y-11900000D02*
G75*
G03*
X11020000Y-11900000I-20000J0D01*
G01*
X11170000Y-12050000D02*
G75*
G03*
X11170000Y-12050000I-20000J0D01*
G01*
X11370000Y-12050000D02*
G75*
G03*
X11370000Y-12050000I-20000J0D01*
G01*
X11497262Y-4927262D02*
G75*
G03*
X11497262Y-4927262I-20000J0D01*
G01*
X11616461Y-12603539D02*
G75*
G03*
X11616461Y-12603539I-20000J0D01*
G01*
X11720000Y-4850000D02*
G75*
G03*
X11720000Y-4850000I-20000J0D01*
G01*
X12120000Y-10150000D02*
G75*
G03*
X12120000Y-10150000I-20000J0D01*
G01*
X12820000Y-10300000D02*
G75*
G03*
X12820000Y-10300000I-20000J0D01*
G01*
X13366578Y-10624672D02*
G75*
G03*
X13366578Y-10624672I-20000J0D01*
G01*
X14020000Y-10563750D02*
G75*
G03*
X14020000Y-10563750I-20000J0D01*
G01*
X14070000Y-4500000D02*
G75*
G03*
X14070000Y-4500000I-20000J0D01*
G01*
X14470000Y-4800000D02*
G75*
G03*
X14470000Y-4800000I-20000J0D01*
G01*
X14570000Y-4800000D02*
G75*
G03*
X14570000Y-4800000I-20000J0D01*
G01*
X14620000Y-12250000D02*
G75*
G03*
X14620000Y-12250000I-20000J0D01*
G01*
X14820000Y-13000000D02*
G75*
G03*
X14820000Y-13000000I-20000J0D01*
G01*
X14959230Y-4760770D02*
G75*
G03*
X14959230Y-4760770I-20000J0D01*
G01*
X15120000Y-12750000D02*
G75*
G03*
X15120000Y-12750000I-20000J0D01*
G01*
X15170000Y-7200000D02*
G75*
G03*
X15170000Y-7200000I-20000J0D01*
G01*
X15170000Y-12600000D02*
G75*
G03*
X15170000Y-12600000I-20000J0D01*
G01*
X15220000Y-12300000D02*
G75*
G03*
X15220000Y-12300000I-20000J0D01*
G01*
X15270115Y-12050115D02*
G75*
G03*
X15270115Y-12050115I-20000J0D01*
G01*
X15320000Y-9050000D02*
G75*
G03*
X15320000Y-9050000I-20000J0D01*
G01*
X15370000Y-5950000D02*
G75*
G03*
X15370000Y-5950000I-20000J0D01*
G01*
X15470000Y-12450000D02*
G75*
G03*
X15470000Y-12450000I-20000J0D01*
G01*
X15656875Y-10636250D02*
G75*
G03*
X15656875Y-10636250I-20000J0D01*
G01*
X15666016Y-11447986D02*
G75*
G03*
X15666016Y-11447986I-20000J0D01*
G01*
X15709886Y-10814083D02*
G75*
G03*
X15709886Y-10814083I-20000J0D01*
G01*
X15734671Y-10717204D02*
G75*
G03*
X15734671Y-10717204I-20000J0D01*
G01*
X15871265Y-10648735D02*
G75*
G03*
X15871265Y-10648735I-20000J0D01*
G01*
X15895000Y-11588750D02*
G75*
G03*
X15895000Y-11588750I-20000J0D01*
G01*
X15921266Y-12198734D02*
G75*
G03*
X15921266Y-12198734I-20000J0D01*
G01*
X16020000Y-14250000D02*
G75*
G03*
X16020000Y-14250000I-20000J0D01*
G01*
X16025000Y-11271250D02*
G75*
G03*
X16025000Y-11271250I-20000J0D01*
G01*
X16039375Y-11920625D02*
G75*
G03*
X16039375Y-11920625I-20000J0D01*
G01*
X16055625Y-10573750D02*
G75*
G03*
X16055625Y-10573750I-20000J0D01*
G01*
X16152810Y-10466324D02*
G75*
G03*
X16152810Y-10466324I-20000J0D01*
G01*
X16254474Y-12450000D02*
G75*
G03*
X16254474Y-12450000I-20000J0D01*
G01*
X16320000Y-11250000D02*
G75*
G03*
X16320000Y-11250000I-20000J0D01*
G01*
X16320000Y-11550000D02*
G75*
G03*
X16320000Y-11550000I-20000J0D01*
G01*
X16520000Y-9000000D02*
G75*
G03*
X16520000Y-9000000I-20000J0D01*
G01*
X16537434Y-12051261D02*
G75*
G03*
X16537434Y-12051261I-20000J0D01*
G01*
X16592500Y-11800000D02*
G75*
G03*
X16592500Y-11800000I-20000J0D01*
G01*
X16613566Y-10582402D02*
G75*
G03*
X16613566Y-10582402I-20000J0D01*
G01*
X16620000Y-10300000D02*
G75*
G03*
X16620000Y-10300000I-20000J0D01*
G01*
X16715085Y-10704915D02*
G75*
G03*
X16715085Y-10704915I-20000J0D01*
G01*
X16731162Y-11386306D02*
G75*
G03*
X16731162Y-11386306I-20000J0D01*
G01*
X16795709Y-10575710D02*
G75*
G03*
X16795709Y-10575710I-20000J0D01*
G01*
X16807484Y-11309984D02*
G75*
G03*
X16807484Y-11309984I-20000J0D01*
G01*
X17021890Y-12151890D02*
G75*
G03*
X17021890Y-12151890I-20000J0D01*
G01*
X17120000Y-7800000D02*
G75*
G03*
X17120000Y-7800000I-20000J0D01*
G01*
X17120000Y-11200000D02*
G75*
G03*
X17120000Y-11200000I-20000J0D01*
G01*
X17144375Y-8969375D02*
G75*
G03*
X17144375Y-8969375I-20000J0D01*
G01*
X17244375Y-8969375D02*
G75*
G03*
X17244375Y-8969375I-20000J0D01*
G01*
X17270000Y-10150000D02*
G75*
G03*
X17270000Y-10150000I-20000J0D01*
G01*
X17270000Y-11050000D02*
G75*
G03*
X17270000Y-11050000I-20000J0D01*
G01*
X17370000Y-13300000D02*
G75*
G03*
X17370000Y-13300000I-20000J0D01*
G01*
X17420000Y-5950000D02*
G75*
G03*
X17420000Y-5950000I-20000J0D01*
G01*
X17441327Y-10026142D02*
G75*
G03*
X17441327Y-10026142I-20000J0D01*
G01*
X17462428Y-10742428D02*
G75*
G03*
X17462428Y-10742428I-20000J0D01*
G01*
X17470000Y-11450000D02*
G75*
G03*
X17470000Y-11450000I-20000J0D01*
G01*
X17482500Y-8255000D02*
G75*
G03*
X17482500Y-8255000I-20000J0D01*
G01*
X17520000Y-6050000D02*
G75*
G03*
X17520000Y-6050000I-20000J0D01*
G01*
X17528125Y-9157500D02*
G75*
G03*
X17528125Y-9157500I-20000J0D01*
G01*
X17532500Y-8522500D02*
G75*
G03*
X17532500Y-8522500I-20000J0D01*
G01*
X17532500Y-8840000D02*
G75*
G03*
X17532500Y-8840000I-20000J0D01*
G01*
X17532500Y-9475000D02*
G75*
G03*
X17532500Y-9475000I-20000J0D01*
G01*
X17570000Y-13050000D02*
G75*
G03*
X17570000Y-13050000I-20000J0D01*
G01*
X17573453Y-11203453D02*
G75*
G03*
X17573453Y-11203453I-20000J0D01*
G01*
X17620000Y-9750000D02*
G75*
G03*
X17620000Y-9750000I-20000J0D01*
G01*
X17648125Y-9300000D02*
G75*
G03*
X17648125Y-9300000I-20000J0D01*
G01*
X17670000Y-6300000D02*
G75*
G03*
X17670000Y-6300000I-20000J0D01*
G01*
X17670000Y-12250000D02*
G75*
G03*
X17670000Y-12250000I-20000J0D01*
G01*
X17699049Y-13970951D02*
G75*
G03*
X17699049Y-13970951I-20000J0D01*
G01*
X17720625Y-8731250D02*
G75*
G03*
X17720625Y-8731250I-20000J0D01*
G01*
X17720625Y-9753325D02*
G75*
G03*
X17720625Y-9753325I-20000J0D01*
G01*
X17826952Y-9825826D02*
G75*
G03*
X17826952Y-9825826I-20000J0D01*
G01*
X17834200Y-7783000D02*
G75*
G03*
X17834200Y-7783000I-20000J0D01*
G01*
X17879375Y-11350625D02*
G75*
G03*
X17879375Y-11350625I-20000J0D01*
G01*
X17884052Y-13350000D02*
G75*
G03*
X17884052Y-13350000I-20000J0D01*
G01*
X17907088Y-10869817D02*
G75*
G03*
X17907088Y-10869817I-20000J0D01*
G01*
X17920000Y-7950000D02*
G75*
G03*
X17920000Y-7950000I-20000J0D01*
G01*
X17920000Y-10500000D02*
G75*
G03*
X17920000Y-10500000I-20000J0D01*
G01*
X17920000Y-11650000D02*
G75*
G03*
X17920000Y-11650000I-20000J0D01*
G01*
X17970000Y-10950000D02*
G75*
G03*
X17970000Y-10950000I-20000J0D01*
G01*
X17970000Y-11300000D02*
G75*
G03*
X17970000Y-11300000I-20000J0D01*
G01*
X17998383Y-9787791D02*
G75*
G03*
X17998383Y-9787791I-20000J0D01*
G01*
X18020000Y-13250000D02*
G75*
G03*
X18020000Y-13250000I-20000J0D01*
G01*
X18070000Y-10650000D02*
G75*
G03*
X18070000Y-10650000I-20000J0D01*
G01*
X18076500Y-9972501D02*
G75*
G03*
X18076500Y-9972501I-20000J0D01*
G01*
X18170000Y-10500000D02*
G75*
G03*
X18170000Y-10500000I-20000J0D01*
G01*
X18192501Y-9321828D02*
G75*
G03*
X18192501Y-9321828I-20000J0D01*
G01*
X18196875Y-10795000D02*
G75*
G03*
X18196875Y-10795000I-20000J0D01*
G01*
X18220000Y-10100000D02*
G75*
G03*
X18220000Y-10100000I-20000J0D01*
G01*
X18220000Y-13100000D02*
G75*
G03*
X18220000Y-13100000I-20000J0D01*
G01*
X18270000Y-10950000D02*
G75*
G03*
X18270000Y-10950000I-20000J0D01*
G01*
X18298140Y-10796265D02*
G75*
G03*
X18298140Y-10796265I-20000J0D01*
G01*
X18368576Y-11848576D02*
G75*
G03*
X18368576Y-11848576I-20000J0D01*
G01*
X18491196Y-12721196D02*
G75*
G03*
X18491196Y-12721196I-20000J0D01*
G01*
X18670000Y-10900000D02*
G75*
G03*
X18670000Y-10900000I-20000J0D01*
G01*
X18970000Y-11100000D02*
G75*
G03*
X18970000Y-11100000I-20000J0D01*
G01*
X18977200Y-7714774D02*
G75*
G03*
X18977200Y-7714774I-20000J0D01*
G01*
X19141750Y-7928250D02*
G75*
G03*
X19141750Y-7928250I-20000J0D01*
G01*
X19170000Y-11250000D02*
G75*
G03*
X19170000Y-11250000I-20000J0D01*
G01*
X19267000Y-7595000D02*
G75*
G03*
X19267000Y-7595000I-20000J0D01*
G01*
X19484995Y-11414995D02*
G75*
G03*
X19484995Y-11414995I-20000J0D01*
G01*
X19883912Y-11400000D02*
G75*
G03*
X19883912Y-11400000I-20000J0D01*
G01*
X20020000Y-11100000D02*
G75*
G03*
X20020000Y-11100000I-20000J0D01*
G01*
X20020000Y-11750000D02*
G75*
G03*
X20020000Y-11750000I-20000J0D01*
G01*
X20128426Y-10941574D02*
G75*
G03*
X20128426Y-10941574I-20000J0D01*
G01*
X20370000Y-10600000D02*
G75*
G03*
X20370000Y-10600000I-20000J0D01*
G01*
X20370000Y-10700000D02*
G75*
G03*
X20370000Y-10700000I-20000J0D01*
G01*
X17615000Y-6647500D02*
X17615000Y-6687500D01*
X17595000Y-6667500D02*
X17635000Y-6667500D01*
X17663327Y-6530827D02*
X17663327Y-6570827D01*
X17643327Y-6550827D02*
X17683327Y-6550827D01*
X17663327Y-6764173D02*
X17663327Y-6804173D01*
X17643327Y-6784173D02*
X17683327Y-6784173D01*
X17780000Y-6482500D02*
X17780000Y-6522500D01*
X17760000Y-6502500D02*
X17800000Y-6502500D01*
X17780000Y-6812500D02*
X17780000Y-6852500D01*
X17760000Y-6832500D02*
X17800000Y-6832500D01*
X17896673Y-6530827D02*
X17896673Y-6570827D01*
X17876673Y-6550827D02*
X17916673Y-6550827D01*
X17896673Y-6764173D02*
X17896673Y-6804173D01*
X17876673Y-6784173D02*
X17916673Y-6784173D01*
X17945000Y-6647500D02*
X17945000Y-6687500D01*
X17925000Y-6667500D02*
X17965000Y-6667500D01*
X18170625Y-11251250D02*
X18170625Y-11291250D01*
X18150625Y-11271250D02*
X18190625Y-11271250D01*
X18218952Y-11134577D02*
X18218952Y-11174577D01*
X18198952Y-11154577D02*
X18238952Y-11154577D01*
X18218952Y-11367923D02*
X18218952Y-11407923D01*
X18198952Y-11387923D02*
X18238952Y-11387923D01*
X18335625Y-11086250D02*
X18335625Y-11126250D01*
X18315625Y-11106250D02*
X18355625Y-11106250D01*
X18335625Y-11416250D02*
X18335625Y-11456250D01*
X18315625Y-11436250D02*
X18355625Y-11436250D01*
X18452298Y-11134577D02*
X18452298Y-11174577D01*
X18432298Y-11154577D02*
X18472298Y-11154577D01*
X18452298Y-11367923D02*
X18452298Y-11407923D01*
X18432298Y-11387923D02*
X18472298Y-11387923D01*
X18500625Y-11251250D02*
X18500625Y-11291250D01*
X18480625Y-11271250D02*
X18520625Y-11271250D01*
X19916875Y-12380000D02*
X19916875Y-12420000D01*
X19896875Y-12400000D02*
X19936875Y-12400000D01*
X19965202Y-12263327D02*
X19965202Y-12303327D01*
X19945202Y-12283327D02*
X19985202Y-12283327D01*
X19965202Y-12496673D02*
X19965202Y-12536673D01*
X19945202Y-12516673D02*
X19985202Y-12516673D01*
X20081875Y-12215000D02*
X20081875Y-12255000D01*
X20061875Y-12235000D02*
X20101875Y-12235000D01*
X20081875Y-12545000D02*
X20081875Y-12585000D01*
X20061875Y-12565000D02*
X20101875Y-12565000D01*
X20198548Y-12263327D02*
X20198548Y-12303327D01*
X20178548Y-12283327D02*
X20218548Y-12283327D01*
X20198548Y-12496673D02*
X20198548Y-12536673D01*
X20178548Y-12516673D02*
X20218548Y-12516673D01*
X20246875Y-12380000D02*
X20246875Y-12420000D01*
X20226875Y-12400000D02*
X20266875Y-12400000D01*
D14*
X18096485Y-7433484D02*
X18096485Y-7376915D01*
X18039916Y-7376915D01*
X18039916Y-7433484D01*
X18096485Y-7433484D01*
X18096485Y-7633484D02*
X18096485Y-7576915D01*
X18039916Y-7576915D01*
X18039916Y-7633484D01*
X18096485Y-7633484D01*
D15*
X18374875Y-7714890D02*
X18415515Y-7674250D01*
X18374875Y-7633610D01*
X18334235Y-7674250D01*
X18374875Y-7714890D01*
X18374875Y-7968890D02*
X18415515Y-7928250D01*
X18374875Y-7887610D01*
X18334235Y-7928250D01*
X18374875Y-7968890D01*
X18374875Y-8222890D02*
X18415515Y-8182250D01*
X18374875Y-8141610D01*
X18334235Y-8182250D01*
X18374875Y-8222890D01*
X18374875Y-8476890D02*
X18415515Y-8436250D01*
X18374875Y-8395610D01*
X18334235Y-8436250D01*
X18374875Y-8476890D01*
X18374875Y-8730890D02*
X18415515Y-8690250D01*
X18374875Y-8649610D01*
X18334235Y-8690250D01*
X18374875Y-8730890D01*
X18374875Y-8984890D02*
X18415515Y-8944250D01*
X18374875Y-8903610D01*
X18334235Y-8944250D01*
X18374875Y-8984890D01*
X18374875Y-9238890D02*
X18415515Y-9198250D01*
X18374875Y-9157610D01*
X18334235Y-9198250D01*
X18374875Y-9238890D01*
X18374875Y-9492890D02*
X18415515Y-9452250D01*
X18374875Y-9411610D01*
X18334235Y-9452250D01*
X18374875Y-9492890D01*
X18374875Y-9746890D02*
X18415515Y-9706250D01*
X18374875Y-9665610D01*
X18334235Y-9706250D01*
X18374875Y-9746890D01*
X18374875Y-10000890D02*
X18415515Y-9960250D01*
X18374875Y-9919610D01*
X18334235Y-9960250D01*
X18374875Y-10000890D01*
X18374875Y-10254890D02*
X18415515Y-10214250D01*
X18374875Y-10173610D01*
X18334235Y-10214250D01*
X18374875Y-10254890D01*
X18374875Y-10508890D02*
X18415515Y-10468250D01*
X18374875Y-10427610D01*
X18334235Y-10468250D01*
X18374875Y-10508890D01*
X18504757Y-7834464D02*
X18545397Y-7793824D01*
X18504757Y-7753184D01*
X18464117Y-7793824D01*
X18504757Y-7834464D01*
X18504757Y-8088464D02*
X18545397Y-8047824D01*
X18504757Y-8007184D01*
X18464117Y-8047824D01*
X18504757Y-8088464D01*
X18504757Y-8342464D02*
X18545397Y-8301824D01*
X18504757Y-8261184D01*
X18464117Y-8301824D01*
X18504757Y-8342464D01*
X18504757Y-8596465D02*
X18545397Y-8555825D01*
X18504757Y-8515185D01*
X18464117Y-8555825D01*
X18504757Y-8596465D01*
X18504757Y-8850465D02*
X18545397Y-8809825D01*
X18504757Y-8769185D01*
X18464117Y-8809825D01*
X18504757Y-8850465D01*
X18504757Y-9104465D02*
X18545397Y-9063825D01*
X18504757Y-9023185D01*
X18464117Y-9063825D01*
X18504757Y-9104465D01*
X18504757Y-9358465D02*
X18545397Y-9317825D01*
X18504757Y-9277185D01*
X18464117Y-9317825D01*
X18504757Y-9358465D01*
X18504757Y-9612465D02*
X18545397Y-9571825D01*
X18504757Y-9531185D01*
X18464117Y-9571825D01*
X18504757Y-9612465D01*
X18504757Y-9866465D02*
X18545397Y-9825825D01*
X18504757Y-9785185D01*
X18464117Y-9825825D01*
X18504757Y-9866465D01*
X18504757Y-10120465D02*
X18545397Y-10079825D01*
X18504757Y-10039185D01*
X18464117Y-10079825D01*
X18504757Y-10120465D01*
X18504757Y-10374465D02*
X18545397Y-10333825D01*
X18504757Y-10293185D01*
X18464117Y-10333825D01*
X18504757Y-10374465D01*
X18504757Y-10628465D02*
X18545397Y-10587825D01*
X18504757Y-10547185D01*
X18464117Y-10587825D01*
X18504757Y-10628465D01*
X19898875Y-7714890D02*
X19939515Y-7674250D01*
X19898875Y-7633610D01*
X19858235Y-7674250D01*
X19898875Y-7714890D01*
X19898875Y-7968890D02*
X19939515Y-7928250D01*
X19898875Y-7887610D01*
X19858235Y-7928250D01*
X19898875Y-7968890D01*
X19898875Y-8222890D02*
X19939515Y-8182250D01*
X19898875Y-8141610D01*
X19858235Y-8182250D01*
X19898875Y-8222890D01*
X19898875Y-8476890D02*
X19939515Y-8436250D01*
X19898875Y-8395610D01*
X19858235Y-8436250D01*
X19898875Y-8476890D01*
X19898875Y-8730890D02*
X19939515Y-8690250D01*
X19898875Y-8649610D01*
X19858235Y-8690250D01*
X19898875Y-8730890D01*
X19898875Y-8984890D02*
X19939515Y-8944250D01*
X19898875Y-8903610D01*
X19858235Y-8944250D01*
X19898875Y-8984890D01*
X19898875Y-9238890D02*
X19939515Y-9198250D01*
X19898875Y-9157610D01*
X19858235Y-9198250D01*
X19898875Y-9238890D01*
X19898875Y-9492890D02*
X19939515Y-9452250D01*
X19898875Y-9411610D01*
X19858235Y-9452250D01*
X19898875Y-9492890D01*
X19898875Y-9746890D02*
X19939515Y-9706250D01*
X19898875Y-9665610D01*
X19858235Y-9706250D01*
X19898875Y-9746890D01*
X19898875Y-10000890D02*
X19939515Y-9960250D01*
X19898875Y-9919610D01*
X19858235Y-9960250D01*
X19898875Y-10000890D01*
X19898875Y-10254890D02*
X19939515Y-10214250D01*
X19898875Y-10173610D01*
X19858235Y-10214250D01*
X19898875Y-10254890D01*
X19898875Y-10508890D02*
X19939515Y-10468250D01*
X19898875Y-10427610D01*
X19858235Y-10468250D01*
X19898875Y-10508890D01*
X20028757Y-7834464D02*
X20069397Y-7793824D01*
X20028757Y-7753184D01*
X19988117Y-7793824D01*
X20028757Y-7834464D01*
X20028757Y-8088464D02*
X20069397Y-8047824D01*
X20028757Y-8007184D01*
X19988117Y-8047824D01*
X20028757Y-8088464D01*
X20028757Y-8342464D02*
X20069397Y-8301824D01*
X20028757Y-8261184D01*
X19988117Y-8301824D01*
X20028757Y-8342464D01*
X20028757Y-8596465D02*
X20069397Y-8555825D01*
X20028757Y-8515185D01*
X19988117Y-8555825D01*
X20028757Y-8596465D01*
X20028757Y-8850465D02*
X20069397Y-8809825D01*
X20028757Y-8769185D01*
X19988117Y-8809825D01*
X20028757Y-8850465D01*
X20028757Y-9104465D02*
X20069397Y-9063825D01*
X20028757Y-9023185D01*
X19988117Y-9063825D01*
X20028757Y-9104465D01*
X20028757Y-9358465D02*
X20069397Y-9317825D01*
X20028757Y-9277185D01*
X19988117Y-9317825D01*
X20028757Y-9358465D01*
X20028757Y-9612465D02*
X20069397Y-9571825D01*
X20028757Y-9531185D01*
X19988117Y-9571825D01*
X20028757Y-9612465D01*
X20028757Y-9866465D02*
X20069397Y-9825825D01*
X20028757Y-9785185D01*
X19988117Y-9825825D01*
X20028757Y-9866465D01*
X20028757Y-10120465D02*
X20069397Y-10079825D01*
X20028757Y-10039185D01*
X19988117Y-10079825D01*
X20028757Y-10120465D01*
X20028757Y-10374465D02*
X20069397Y-10333825D01*
X20028757Y-10293185D01*
X19988117Y-10333825D01*
X20028757Y-10374465D01*
X20028757Y-10628465D02*
X20069397Y-10587825D01*
X20028757Y-10547185D01*
X19988117Y-10587825D01*
X20028757Y-10628465D01*
D16*
X18862289Y-13546789D02*
X18952289Y-13636789D01*
X18952289Y-13546789D02*
X18862289Y-13636789D01*
X18952289Y-13591789D02*
G75*
G03*
X18952289Y-13591789I-45000J0D01*
G01*
D11*
X18942911Y-13562530D02*
X18883823Y-13552111D01*
X18930756Y-13631467D02*
X18871667Y-13621048D01*
X18883823Y-13552111D02*
G75*
G03*
X18871667Y-13621048I-6078J-34468D01*
G01*
X18930756Y-13631467D02*
G75*
G03*
X18942911Y-13562530I6078J34468D01*
G01*
D16*
X19022045Y-12640766D02*
X19112045Y-12730766D01*
X19112045Y-12640766D02*
X19022045Y-12730766D01*
X19112045Y-12685766D02*
G75*
G03*
X19112045Y-12685766I-45000J0D01*
G01*
D11*
X19102667Y-12656507D02*
X19043579Y-12646088D01*
X19090512Y-12725444D02*
X19031424Y-12715025D01*
X19043579Y-12646088D02*
G75*
G03*
X19031424Y-12715025I-6078J-34468D01*
G01*
X19090512Y-12725444D02*
G75*
G03*
X19102667Y-12656507I6078J34468D01*
G01*
D16*
X19050496Y-13112879D02*
X19140496Y-13202879D01*
X19140496Y-13112879D02*
X19050496Y-13202879D01*
X19140496Y-13157879D02*
G75*
G03*
X19140496Y-13157879I-45000J0D01*
G01*
D11*
X19131118Y-13128620D02*
X19072030Y-13118201D01*
X19118963Y-13197557D02*
X19059874Y-13187138D01*
X19072030Y-13118201D02*
G75*
G03*
X19059874Y-13187138I-6078J-34468D01*
G01*
X19118963Y-13197557D02*
G75*
G03*
X19131118Y-13128620I6078J34468D01*
G01*
D16*
X19444419Y-13182338D02*
X19534419Y-13272338D01*
X19534419Y-13182338D02*
X19444419Y-13272338D01*
X19534419Y-13227338D02*
G75*
G03*
X19534419Y-13227338I-45000J0D01*
G01*
D11*
X19525041Y-13198079D02*
X19465953Y-13187660D01*
X19512886Y-13267016D02*
X19453797Y-13256597D01*
X19465953Y-13187660D02*
G75*
G03*
X19453797Y-13256597I-6078J-34468D01*
G01*
X19512886Y-13267016D02*
G75*
G03*
X19525041Y-13198079I6078J34468D01*
G01*
D16*
X19739862Y-13234433D02*
X19829862Y-13324433D01*
X19829862Y-13234433D02*
X19739862Y-13324433D01*
X19829862Y-13279433D02*
G75*
G03*
X19829862Y-13279433I-45000J0D01*
G01*
D11*
X19820483Y-13250174D02*
X19761395Y-13239755D01*
X19808328Y-13319110D02*
X19749240Y-13308691D01*
X19761395Y-13239755D02*
G75*
G03*
X19749240Y-13308691I-6078J-34468D01*
G01*
X19808328Y-13319110D02*
G75*
G03*
X19820483Y-13250174I6078J34468D01*
G01*
D17*
X12909232Y-12962841D02*
X13009232Y-13062841D01*
X13009232Y-12962841D02*
X12909232Y-13062841D01*
X12959232Y-12962841D02*
X12959232Y-13062841D01*
X12909232Y-13012841D02*
X13009232Y-13012841D01*
X12952644Y-12716639D02*
X13052644Y-12816639D01*
X13052644Y-12716639D02*
X12952644Y-12816639D01*
X13002644Y-12716639D02*
X13002644Y-12816639D01*
X12952644Y-12766639D02*
X13052644Y-12766639D01*
X12996056Y-12470437D02*
X13096056Y-12570437D01*
X13096056Y-12470437D02*
X12996056Y-12570437D01*
X13046056Y-12470437D02*
X13046056Y-12570437D01*
X12996056Y-12520437D02*
X13096056Y-12520437D01*
X14337203Y-13214631D02*
X14437203Y-13314631D01*
X14437203Y-13214631D02*
X14337203Y-13314631D01*
X14387203Y-13214631D02*
X14387203Y-13314631D01*
X14337203Y-13264631D02*
X14437203Y-13264631D01*
X14424027Y-12722227D02*
X14524027Y-12822227D01*
X14524027Y-12722227D02*
X14424027Y-12822227D01*
X14474027Y-12722227D02*
X14474027Y-12822227D01*
X14424027Y-12772227D02*
X14524027Y-12772227D01*
X16693414Y-14245411D02*
X16793414Y-14345411D01*
X16793414Y-14245411D02*
X16693414Y-14345411D01*
X16743414Y-14245411D02*
X16743414Y-14345411D01*
X16693414Y-14295411D02*
X16793414Y-14295411D01*
D11*
X16696702Y-14301971D02*
X16728841Y-14340273D01*
X16757986Y-14250548D02*
X16790125Y-14288850D01*
X16728841Y-14340273D02*
G75*
G03*
X16790125Y-14288850I30642J25712D01*
G01*
X16757986Y-14250548D02*
G75*
G03*
X16696702Y-14301971I-30642J-25712D01*
G01*
D17*
X16732356Y-11842756D02*
X16832356Y-11942756D01*
X16832356Y-11842756D02*
X16732356Y-11942756D01*
X16782356Y-11842756D02*
X16782356Y-11942756D01*
X16732356Y-11892756D02*
X16832356Y-11892756D01*
X16857356Y-11626250D02*
X16957356Y-11726250D01*
X16957356Y-11626250D02*
X16857356Y-11726250D01*
X16907356Y-11626250D02*
X16907356Y-11726250D01*
X16857356Y-11676250D02*
X16957356Y-11676250D01*
X16887989Y-14082143D02*
X16987989Y-14182143D01*
X16987989Y-14082143D02*
X16887989Y-14182143D01*
X16937989Y-14082143D02*
X16937989Y-14182143D01*
X16887989Y-14132143D02*
X16987989Y-14132143D01*
D11*
X16891277Y-14138703D02*
X16923417Y-14177005D01*
X16952561Y-14087280D02*
X16984700Y-14125582D01*
X16923417Y-14177005D02*
G75*
G03*
X16984700Y-14125582I30642J25712D01*
G01*
X16952561Y-14087280D02*
G75*
G03*
X16891277Y-14138703I-30642J-25712D01*
G01*
D17*
X16982356Y-11409744D02*
X17082356Y-11509744D01*
X17082356Y-11409744D02*
X16982356Y-11509744D01*
X17032356Y-11409744D02*
X17032356Y-11509744D01*
X16982356Y-11459744D02*
X17082356Y-11459744D01*
X17082564Y-13918875D02*
X17182564Y-14018875D01*
X17182564Y-13918875D02*
X17082564Y-14018875D01*
X17132564Y-13918875D02*
X17132564Y-14018875D01*
X17082564Y-13968875D02*
X17182564Y-13968875D01*
D11*
X17085853Y-13975435D02*
X17117992Y-14013737D01*
X17147136Y-13924012D02*
X17179276Y-13962314D01*
X17117992Y-14013737D02*
G75*
G03*
X17179276Y-13962314I30642J25712D01*
G01*
X17147136Y-13924012D02*
G75*
G03*
X17085853Y-13975435I-30642J-25712D01*
G01*
D17*
X17277140Y-13755607D02*
X17377140Y-13855607D01*
X17377140Y-13755607D02*
X17277140Y-13855607D01*
X17327140Y-13755607D02*
X17327140Y-13855607D01*
X17277140Y-13805607D02*
X17377140Y-13805607D01*
D11*
X17280428Y-13812167D02*
X17312567Y-13850469D01*
X17341712Y-13760744D02*
X17373851Y-13799046D01*
X17312567Y-13850469D02*
G75*
G03*
X17373851Y-13799046I30642J25712D01*
G01*
X17341712Y-13760744D02*
G75*
G03*
X17280428Y-13812167I-30642J-25712D01*
G01*
D17*
X17471715Y-13592338D02*
X17571715Y-13692338D01*
X17571715Y-13592338D02*
X17471715Y-13692338D01*
X17521715Y-13592338D02*
X17521715Y-13692338D01*
X17471715Y-13642338D02*
X17571715Y-13642338D01*
D11*
X17568426Y-13635778D02*
X17536287Y-13597476D01*
X17507143Y-13687201D02*
X17475003Y-13648899D01*
X17536287Y-13597476D02*
G75*
G03*
X17475003Y-13648899I-30642J-25712D01*
G01*
X17507143Y-13687201D02*
G75*
G03*
X17568426Y-13635778I30642J25712D01*
G01*
D17*
X17860625Y-8598750D02*
X17960625Y-8698750D01*
X17960625Y-8598750D02*
X17860625Y-8698750D01*
X17910625Y-8598750D02*
X17910625Y-8698750D01*
X17860625Y-8648750D02*
X17960625Y-8648750D01*
X17860625Y-8852750D02*
X17960625Y-8952750D01*
X17960625Y-8852750D02*
X17860625Y-8952750D01*
X17910625Y-8852750D02*
X17910625Y-8952750D01*
X17860625Y-8902750D02*
X17960625Y-8902750D01*
X17860625Y-9106750D02*
X17960625Y-9206750D01*
X17960625Y-9106750D02*
X17860625Y-9206750D01*
X17910625Y-9106750D02*
X17910625Y-9206750D01*
X17860625Y-9156750D02*
X17960625Y-9156750D01*
X17860625Y-9360750D02*
X17960625Y-9460750D01*
X17960625Y-9360750D02*
X17860625Y-9460750D01*
X17910625Y-9360750D02*
X17910625Y-9460750D01*
X17860625Y-9410750D02*
X17960625Y-9410750D01*
X17988093Y-12567756D02*
X18088093Y-12667756D01*
X18088093Y-12567756D02*
X17988093Y-12667756D01*
X18038093Y-12567756D02*
X18038093Y-12667756D01*
X17988093Y-12617756D02*
X18088093Y-12617756D01*
X18238093Y-12134744D02*
X18338093Y-12234744D01*
X18338093Y-12134744D02*
X18238093Y-12234744D01*
X18288093Y-12134744D02*
X18288093Y-12234744D01*
X18238093Y-12184744D02*
X18338093Y-12184744D01*
D18*
X8143565Y-7277235D02*
X8297565Y-7431235D01*
X8297565Y-7277235D02*
X8143565Y-7431235D01*
X8275013Y-7408683D02*
X8275013Y-7299787D01*
X8166117Y-7299787D01*
X8166117Y-7408683D01*
X8275013Y-7408683D01*
X8143565Y-9182375D02*
X8297565Y-9336375D01*
X8297565Y-9182375D02*
X8143565Y-9336375D01*
X8275013Y-9313823D02*
X8275013Y-9204927D01*
X8166117Y-9204927D01*
X8166117Y-9313823D01*
X8275013Y-9313823D01*
X8144250Y-11087375D02*
X8298250Y-11241375D01*
X8298250Y-11087375D02*
X8144250Y-11241375D01*
X8275698Y-11218823D02*
X8275698Y-11109927D01*
X8166802Y-11109927D01*
X8166802Y-11218823D01*
X8275698Y-11218823D01*
X8272565Y-6633235D02*
X8426565Y-6787235D01*
X8426565Y-6633235D02*
X8272565Y-6787235D01*
X8404013Y-6764683D02*
X8404013Y-6655787D01*
X8295117Y-6655787D01*
X8295117Y-6764683D01*
X8404013Y-6764683D01*
X8272565Y-8538375D02*
X8426565Y-8692375D01*
X8426565Y-8538375D02*
X8272565Y-8692375D01*
X8404013Y-8669823D02*
X8404013Y-8560927D01*
X8295117Y-8560927D01*
X8295117Y-8669823D01*
X8404013Y-8669823D01*
X8273250Y-10443375D02*
X8427250Y-10597375D01*
X8427250Y-10443375D02*
X8273250Y-10597375D01*
X8404698Y-10574823D02*
X8404698Y-10465927D01*
X8295802Y-10465927D01*
X8295802Y-10574823D01*
X8404698Y-10574823D01*
X8399565Y-6379235D02*
X8553565Y-6533235D01*
X8553565Y-6379235D02*
X8399565Y-6533235D01*
X8531013Y-6510683D02*
X8531013Y-6401787D01*
X8422117Y-6401787D01*
X8422117Y-6510683D01*
X8531013Y-6510683D01*
X8399565Y-8284375D02*
X8553565Y-8438375D01*
X8553565Y-8284375D02*
X8399565Y-8438375D01*
X8531013Y-8415823D02*
X8531013Y-8306927D01*
X8422117Y-8306927D01*
X8422117Y-8415823D01*
X8531013Y-8415823D01*
X8400250Y-10189375D02*
X8554250Y-10343375D01*
X8554250Y-10189375D02*
X8400250Y-10343375D01*
X8531698Y-10320823D02*
X8531698Y-10211927D01*
X8422802Y-10211927D01*
X8422802Y-10320823D01*
X8531698Y-10320823D01*
X8653565Y-7477235D02*
X8807565Y-7631235D01*
X8807565Y-7477235D02*
X8653565Y-7631235D01*
X8785013Y-7608683D02*
X8785013Y-7499787D01*
X8676117Y-7499787D01*
X8676117Y-7608683D01*
X8785013Y-7608683D01*
X8653565Y-9382375D02*
X8807565Y-9536375D01*
X8807565Y-9382375D02*
X8653565Y-9536375D01*
X8785013Y-9513823D02*
X8785013Y-9404927D01*
X8676117Y-9404927D01*
X8676117Y-9513823D01*
X8785013Y-9513823D01*
X8654250Y-11287375D02*
X8808250Y-11441375D01*
X8808250Y-11287375D02*
X8654250Y-11441375D01*
X8785698Y-11418823D02*
X8785698Y-11309927D01*
X8676802Y-11309927D01*
X8676802Y-11418823D01*
X8785698Y-11418823D01*
X8907565Y-6379235D02*
X9061565Y-6533235D01*
X9061565Y-6379235D02*
X8907565Y-6533235D01*
X9039013Y-6510683D02*
X9039013Y-6401787D01*
X8930117Y-6401787D01*
X8930117Y-6510683D01*
X9039013Y-6510683D01*
X8907565Y-8284375D02*
X9061565Y-8438375D01*
X9061565Y-8284375D02*
X8907565Y-8438375D01*
X9039013Y-8415823D02*
X9039013Y-8306927D01*
X8930117Y-8306927D01*
X8930117Y-8415823D01*
X9039013Y-8415823D01*
X8908250Y-10189375D02*
X9062250Y-10343375D01*
X9062250Y-10189375D02*
X8908250Y-10343375D01*
X9039698Y-10320823D02*
X9039698Y-10211927D01*
X8930802Y-10211927D01*
X8930802Y-10320823D01*
X9039698Y-10320823D01*
X9034565Y-6633235D02*
X9188565Y-6787235D01*
X9188565Y-6633235D02*
X9034565Y-6787235D01*
X9166013Y-6764683D02*
X9166013Y-6655787D01*
X9057117Y-6655787D01*
X9057117Y-6764683D01*
X9166013Y-6764683D01*
X9034565Y-8538375D02*
X9188565Y-8692375D01*
X9188565Y-8538375D02*
X9034565Y-8692375D01*
X9166013Y-8669823D02*
X9166013Y-8560927D01*
X9057117Y-8560927D01*
X9057117Y-8669823D01*
X9166013Y-8669823D01*
X9035250Y-10443375D02*
X9189250Y-10597375D01*
X9189250Y-10443375D02*
X9035250Y-10597375D01*
X9166698Y-10574823D02*
X9166698Y-10465927D01*
X9057802Y-10465927D01*
X9057802Y-10574823D01*
X9166698Y-10574823D01*
X9163565Y-7277235D02*
X9317565Y-7431235D01*
X9317565Y-7277235D02*
X9163565Y-7431235D01*
X9295013Y-7408683D02*
X9295013Y-7299787D01*
X9186117Y-7299787D01*
X9186117Y-7408683D01*
X9295013Y-7408683D01*
X9163565Y-9182375D02*
X9317565Y-9336375D01*
X9317565Y-9182375D02*
X9163565Y-9336375D01*
X9295013Y-9313823D02*
X9295013Y-9204927D01*
X9186117Y-9204927D01*
X9186117Y-9313823D01*
X9295013Y-9313823D01*
X9164250Y-11087375D02*
X9318250Y-11241375D01*
X9318250Y-11087375D02*
X9164250Y-11241375D01*
X9295698Y-11218823D02*
X9295698Y-11109927D01*
X9186802Y-11109927D01*
X9186802Y-11218823D01*
X9295698Y-11218823D01*
X10048445Y-6086610D02*
X10202445Y-6240610D01*
X10202445Y-6086610D02*
X10048445Y-6240610D01*
X10179893Y-6218058D02*
X10179893Y-6109162D01*
X10070997Y-6109162D01*
X10070997Y-6218058D01*
X10179893Y-6218058D01*
X10049250Y-7991750D02*
X10203250Y-8145750D01*
X10203250Y-7991750D02*
X10049250Y-8145750D01*
X10180698Y-8123198D02*
X10180698Y-8014302D01*
X10071802Y-8014302D01*
X10071802Y-8123198D01*
X10180698Y-8123198D01*
X10049250Y-9896750D02*
X10203250Y-10050750D01*
X10203250Y-9896750D02*
X10049250Y-10050750D01*
X10180698Y-10028198D02*
X10180698Y-9919302D01*
X10071802Y-9919302D01*
X10071802Y-10028198D01*
X10180698Y-10028198D01*
X10177445Y-5442610D02*
X10331445Y-5596610D01*
X10331445Y-5442610D02*
X10177445Y-5596610D01*
X10308893Y-5574058D02*
X10308893Y-5465162D01*
X10199997Y-5465162D01*
X10199997Y-5574058D01*
X10308893Y-5574058D01*
X10178250Y-7347750D02*
X10332250Y-7501750D01*
X10332250Y-7347750D02*
X10178250Y-7501750D01*
X10309698Y-7479198D02*
X10309698Y-7370302D01*
X10200802Y-7370302D01*
X10200802Y-7479198D01*
X10309698Y-7479198D01*
X10178250Y-9252750D02*
X10332250Y-9406750D01*
X10332250Y-9252750D02*
X10178250Y-9406750D01*
X10309698Y-9384198D02*
X10309698Y-9275302D01*
X10200802Y-9275302D01*
X10200802Y-9384198D01*
X10309698Y-9384198D01*
X10304445Y-5188610D02*
X10458445Y-5342610D01*
X10458445Y-5188610D02*
X10304445Y-5342610D01*
X10435893Y-5320058D02*
X10435893Y-5211162D01*
X10326997Y-5211162D01*
X10326997Y-5320058D01*
X10435893Y-5320058D01*
X10305250Y-7093750D02*
X10459250Y-7247750D01*
X10459250Y-7093750D02*
X10305250Y-7247750D01*
X10436698Y-7225198D02*
X10436698Y-7116302D01*
X10327802Y-7116302D01*
X10327802Y-7225198D01*
X10436698Y-7225198D01*
X10305250Y-8998750D02*
X10459250Y-9152750D01*
X10459250Y-8998750D02*
X10305250Y-9152750D01*
X10436698Y-9130198D02*
X10436698Y-9021302D01*
X10327802Y-9021302D01*
X10327802Y-9130198D01*
X10436698Y-9130198D01*
X10558445Y-6286610D02*
X10712445Y-6440610D01*
X10712445Y-6286610D02*
X10558445Y-6440610D01*
X10689893Y-6418058D02*
X10689893Y-6309162D01*
X10580997Y-6309162D01*
X10580997Y-6418058D01*
X10689893Y-6418058D01*
X10559250Y-8191750D02*
X10713250Y-8345750D01*
X10713250Y-8191750D02*
X10559250Y-8345750D01*
X10690698Y-8323198D02*
X10690698Y-8214302D01*
X10581802Y-8214302D01*
X10581802Y-8323198D01*
X10690698Y-8323198D01*
X10559250Y-10096750D02*
X10713250Y-10250750D01*
X10713250Y-10096750D02*
X10559250Y-10250750D01*
X10690698Y-10228198D02*
X10690698Y-10119302D01*
X10581802Y-10119302D01*
X10581802Y-10228198D01*
X10690698Y-10228198D01*
X10812445Y-5188610D02*
X10966445Y-5342610D01*
X10966445Y-5188610D02*
X10812445Y-5342610D01*
X10943893Y-5320058D02*
X10943893Y-5211162D01*
X10834997Y-5211162D01*
X10834997Y-5320058D01*
X10943893Y-5320058D01*
X10813250Y-7093750D02*
X10967250Y-7247750D01*
X10967250Y-7093750D02*
X10813250Y-7247750D01*
X10944698Y-7225198D02*
X10944698Y-7116302D01*
X10835802Y-7116302D01*
X10835802Y-7225198D01*
X10944698Y-7225198D01*
X10813250Y-8998750D02*
X10967250Y-9152750D01*
X10967250Y-8998750D02*
X10813250Y-9152750D01*
X10944698Y-9130198D02*
X10944698Y-9021302D01*
X10835802Y-9021302D01*
X10835802Y-9130198D01*
X10944698Y-9130198D01*
X10939445Y-5442610D02*
X11093445Y-5596610D01*
X11093445Y-5442610D02*
X10939445Y-5596610D01*
X11070893Y-5574058D02*
X11070893Y-5465162D01*
X10961997Y-5465162D01*
X10961997Y-5574058D01*
X11070893Y-5574058D01*
X10940250Y-7347750D02*
X11094250Y-7501750D01*
X11094250Y-7347750D02*
X10940250Y-7501750D01*
X11071698Y-7479198D02*
X11071698Y-7370302D01*
X10962802Y-7370302D01*
X10962802Y-7479198D01*
X11071698Y-7479198D01*
X10940250Y-9252750D02*
X11094250Y-9406750D01*
X11094250Y-9252750D02*
X10940250Y-9406750D01*
X11071698Y-9384198D02*
X11071698Y-9275302D01*
X10962802Y-9275302D01*
X10962802Y-9384198D01*
X11071698Y-9384198D01*
X11068445Y-6086610D02*
X11222445Y-6240610D01*
X11222445Y-6086610D02*
X11068445Y-6240610D01*
X11199893Y-6218058D02*
X11199893Y-6109162D01*
X11090997Y-6109162D01*
X11090997Y-6218058D01*
X11199893Y-6218058D01*
X11069250Y-7991750D02*
X11223250Y-8145750D01*
X11223250Y-7991750D02*
X11069250Y-8145750D01*
X11200698Y-8123198D02*
X11200698Y-8014302D01*
X11091802Y-8014302D01*
X11091802Y-8123198D01*
X11200698Y-8123198D01*
X11069250Y-9896750D02*
X11223250Y-10050750D01*
X11223250Y-9896750D02*
X11069250Y-10050750D01*
X11200698Y-10028198D02*
X11200698Y-9919302D01*
X11091802Y-9919302D01*
X11091802Y-10028198D01*
X11200698Y-10028198D01*
X11953325Y-5486610D02*
X12107325Y-5640610D01*
X12107325Y-5486610D02*
X11953325Y-5640610D01*
X12084773Y-5618058D02*
X12084773Y-5509162D01*
X11975877Y-5509162D01*
X11975877Y-5618058D01*
X12084773Y-5618058D01*
X11954250Y-7391750D02*
X12108250Y-7545750D01*
X12108250Y-7391750D02*
X11954250Y-7545750D01*
X12085698Y-7523198D02*
X12085698Y-7414302D01*
X11976802Y-7414302D01*
X11976802Y-7523198D01*
X12085698Y-7523198D01*
X11954250Y-9296750D02*
X12108250Y-9450750D01*
X12108250Y-9296750D02*
X11954250Y-9450750D01*
X12085698Y-9428198D02*
X12085698Y-9319302D01*
X11976802Y-9319302D01*
X11976802Y-9428198D01*
X12085698Y-9428198D01*
X12082325Y-4842610D02*
X12236325Y-4996610D01*
X12236325Y-4842610D02*
X12082325Y-4996610D01*
X12213773Y-4974058D02*
X12213773Y-4865162D01*
X12104877Y-4865162D01*
X12104877Y-4974058D01*
X12213773Y-4974058D01*
X12083250Y-6747750D02*
X12237250Y-6901750D01*
X12237250Y-6747750D02*
X12083250Y-6901750D01*
X12214698Y-6879198D02*
X12214698Y-6770302D01*
X12105802Y-6770302D01*
X12105802Y-6879198D01*
X12214698Y-6879198D01*
X12083250Y-8652750D02*
X12237250Y-8806750D01*
X12237250Y-8652750D02*
X12083250Y-8806750D01*
X12214698Y-8784198D02*
X12214698Y-8675302D01*
X12105802Y-8675302D01*
X12105802Y-8784198D01*
X12214698Y-8784198D01*
X12209325Y-4588610D02*
X12363325Y-4742610D01*
X12363325Y-4588610D02*
X12209325Y-4742610D01*
X12340773Y-4720058D02*
X12340773Y-4611162D01*
X12231877Y-4611162D01*
X12231877Y-4720058D01*
X12340773Y-4720058D01*
X12210250Y-6493750D02*
X12364250Y-6647750D01*
X12364250Y-6493750D02*
X12210250Y-6647750D01*
X12341698Y-6625198D02*
X12341698Y-6516302D01*
X12232802Y-6516302D01*
X12232802Y-6625198D01*
X12341698Y-6625198D01*
X12210250Y-8398750D02*
X12364250Y-8552750D01*
X12364250Y-8398750D02*
X12210250Y-8552750D01*
X12341698Y-8530198D02*
X12341698Y-8421302D01*
X12232802Y-8421302D01*
X12232802Y-8530198D01*
X12341698Y-8530198D01*
X12463325Y-5686610D02*
X12617325Y-5840610D01*
X12617325Y-5686610D02*
X12463325Y-5840610D01*
X12594773Y-5818058D02*
X12594773Y-5709162D01*
X12485877Y-5709162D01*
X12485877Y-5818058D01*
X12594773Y-5818058D01*
X12464250Y-7591750D02*
X12618250Y-7745750D01*
X12618250Y-7591750D02*
X12464250Y-7745750D01*
X12595698Y-7723198D02*
X12595698Y-7614302D01*
X12486802Y-7614302D01*
X12486802Y-7723198D01*
X12595698Y-7723198D01*
X12464250Y-9496750D02*
X12618250Y-9650750D01*
X12618250Y-9496750D02*
X12464250Y-9650750D01*
X12595698Y-9628198D02*
X12595698Y-9519302D01*
X12486802Y-9519302D01*
X12486802Y-9628198D01*
X12595698Y-9628198D01*
X12717325Y-4588610D02*
X12871325Y-4742610D01*
X12871325Y-4588610D02*
X12717325Y-4742610D01*
X12848773Y-4720058D02*
X12848773Y-4611162D01*
X12739877Y-4611162D01*
X12739877Y-4720058D01*
X12848773Y-4720058D01*
X12718250Y-6493750D02*
X12872250Y-6647750D01*
X12872250Y-6493750D02*
X12718250Y-6647750D01*
X12849698Y-6625198D02*
X12849698Y-6516302D01*
X12740802Y-6516302D01*
X12740802Y-6625198D01*
X12849698Y-6625198D01*
X12718250Y-8398750D02*
X12872250Y-8552750D01*
X12872250Y-8398750D02*
X12718250Y-8552750D01*
X12849698Y-8530198D02*
X12849698Y-8421302D01*
X12740802Y-8421302D01*
X12740802Y-8530198D01*
X12849698Y-8530198D01*
X12844325Y-4842610D02*
X12998325Y-4996610D01*
X12998325Y-4842610D02*
X12844325Y-4996610D01*
X12975773Y-4974058D02*
X12975773Y-4865162D01*
X12866877Y-4865162D01*
X12866877Y-4974058D01*
X12975773Y-4974058D01*
X12845250Y-6747750D02*
X12999250Y-6901750D01*
X12999250Y-6747750D02*
X12845250Y-6901750D01*
X12976698Y-6879198D02*
X12976698Y-6770302D01*
X12867802Y-6770302D01*
X12867802Y-6879198D01*
X12976698Y-6879198D01*
X12845250Y-8652750D02*
X12999250Y-8806750D01*
X12999250Y-8652750D02*
X12845250Y-8806750D01*
X12976698Y-8784198D02*
X12976698Y-8675302D01*
X12867802Y-8675302D01*
X12867802Y-8784198D01*
X12976698Y-8784198D01*
X12973325Y-5486610D02*
X13127325Y-5640610D01*
X13127325Y-5486610D02*
X12973325Y-5640610D01*
X13104773Y-5618058D02*
X13104773Y-5509162D01*
X12995877Y-5509162D01*
X12995877Y-5618058D01*
X13104773Y-5618058D01*
X12974250Y-7391750D02*
X13128250Y-7545750D01*
X13128250Y-7391750D02*
X12974250Y-7545750D01*
X13105698Y-7523198D02*
X13105698Y-7414302D01*
X12996802Y-7414302D01*
X12996802Y-7523198D01*
X13105698Y-7523198D01*
X12974250Y-9296750D02*
X13128250Y-9450750D01*
X13128250Y-9296750D02*
X12974250Y-9450750D01*
X13105698Y-9428198D02*
X13105698Y-9319302D01*
X12996802Y-9319302D01*
X12996802Y-9428198D01*
X13105698Y-9428198D01*
X13094275Y-13115389D02*
X13248275Y-13269389D01*
X13248275Y-13115389D02*
X13094275Y-13269389D01*
X13225723Y-13246837D02*
X13225723Y-13137942D01*
X13116828Y-13137942D01*
X13116828Y-13246837D01*
X13225723Y-13246837D01*
X13333145Y-12503574D02*
X13487145Y-12657574D01*
X13487145Y-12503574D02*
X13333145Y-12657574D01*
X13464593Y-12635022D02*
X13464593Y-12526126D01*
X13355697Y-12526126D01*
X13355697Y-12635022D01*
X13464593Y-12635022D01*
X13502322Y-12275486D02*
X13656322Y-12429486D01*
X13656322Y-12275486D02*
X13502322Y-12429486D01*
X13633770Y-12406934D02*
X13633770Y-12298038D01*
X13524874Y-12298038D01*
X13524874Y-12406934D01*
X13633770Y-12406934D01*
X13561798Y-13400912D02*
X13715798Y-13554912D01*
X13715798Y-13400912D02*
X13561798Y-13554912D01*
X13693245Y-13532359D02*
X13693245Y-13423464D01*
X13584350Y-13423464D01*
X13584350Y-13532359D01*
X13693245Y-13532359D01*
X13858205Y-6186610D02*
X14012205Y-6340610D01*
X14012205Y-6186610D02*
X13858205Y-6340610D01*
X13989653Y-6318058D02*
X13989653Y-6209162D01*
X13880757Y-6209162D01*
X13880757Y-6318058D01*
X13989653Y-6318058D01*
X13859250Y-8091750D02*
X14013250Y-8245750D01*
X14013250Y-8091750D02*
X13859250Y-8245750D01*
X13990698Y-8223198D02*
X13990698Y-8114302D01*
X13881802Y-8114302D01*
X13881802Y-8223198D01*
X13990698Y-8223198D01*
X13859250Y-9996750D02*
X14013250Y-10150750D01*
X14013250Y-9996750D02*
X13859250Y-10150750D01*
X13990698Y-10128198D02*
X13990698Y-10019302D01*
X13881802Y-10019302D01*
X13881802Y-10128198D01*
X13990698Y-10128198D01*
X13987205Y-5542610D02*
X14141205Y-5696610D01*
X14141205Y-5542610D02*
X13987205Y-5696610D01*
X14118653Y-5674058D02*
X14118653Y-5565162D01*
X14009757Y-5565162D01*
X14009757Y-5674058D01*
X14118653Y-5674058D01*
X13988250Y-7447750D02*
X14142250Y-7601750D01*
X14142250Y-7447750D02*
X13988250Y-7601750D01*
X14119698Y-7579198D02*
X14119698Y-7470302D01*
X14010802Y-7470302D01*
X14010802Y-7579198D01*
X14119698Y-7579198D01*
X13988250Y-9352750D02*
X14142250Y-9506750D01*
X14142250Y-9352750D02*
X13988250Y-9506750D01*
X14119698Y-9484198D02*
X14119698Y-9375302D01*
X14010802Y-9375302D01*
X14010802Y-9484198D01*
X14119698Y-9484198D01*
X14002604Y-12363699D02*
X14156604Y-12517699D01*
X14156604Y-12363699D02*
X14002604Y-12517699D01*
X14134052Y-12495147D02*
X14134052Y-12386252D01*
X14025157Y-12386252D01*
X14025157Y-12495147D01*
X14134052Y-12495147D01*
X14083568Y-12635894D02*
X14237568Y-12789894D01*
X14237568Y-12635894D02*
X14083568Y-12789894D01*
X14215016Y-12767341D02*
X14215016Y-12658446D01*
X14106121Y-12658446D01*
X14106121Y-12767341D01*
X14215016Y-12767341D01*
X14098779Y-13292511D02*
X14252779Y-13446511D01*
X14252779Y-13292511D02*
X14098779Y-13446511D01*
X14230227Y-13423958D02*
X14230227Y-13315063D01*
X14121331Y-13315063D01*
X14121331Y-13423958D01*
X14230227Y-13423958D01*
X14114205Y-5288610D02*
X14268205Y-5442610D01*
X14268205Y-5288610D02*
X14114205Y-5442610D01*
X14245653Y-5420058D02*
X14245653Y-5311162D01*
X14136757Y-5311162D01*
X14136757Y-5420058D01*
X14245653Y-5420058D01*
X14115250Y-7193750D02*
X14269250Y-7347750D01*
X14269250Y-7193750D02*
X14115250Y-7347750D01*
X14246698Y-7325198D02*
X14246698Y-7216302D01*
X14137802Y-7216302D01*
X14137802Y-7325198D01*
X14246698Y-7325198D01*
X14115250Y-9098750D02*
X14269250Y-9252750D01*
X14269250Y-9098750D02*
X14115250Y-9252750D01*
X14246698Y-9230198D02*
X14246698Y-9121302D01*
X14137802Y-9121302D01*
X14137802Y-9230198D01*
X14246698Y-9230198D01*
X14368205Y-6386610D02*
X14522205Y-6540610D01*
X14522205Y-6386610D02*
X14368205Y-6540610D01*
X14499653Y-6518058D02*
X14499653Y-6409162D01*
X14390757Y-6409162D01*
X14390757Y-6518058D01*
X14499653Y-6518058D01*
X14369250Y-8291750D02*
X14523250Y-8445750D01*
X14523250Y-8291750D02*
X14369250Y-8445750D01*
X14500698Y-8423198D02*
X14500698Y-8314302D01*
X14391802Y-8314302D01*
X14391802Y-8423198D01*
X14500698Y-8423198D01*
X14369250Y-10196750D02*
X14523250Y-10350750D01*
X14523250Y-10196750D02*
X14369250Y-10350750D01*
X14500698Y-10328198D02*
X14500698Y-10219302D01*
X14391802Y-10219302D01*
X14391802Y-10328198D01*
X14500698Y-10328198D01*
X14622205Y-5288610D02*
X14776205Y-5442610D01*
X14776205Y-5288610D02*
X14622205Y-5442610D01*
X14753653Y-5420058D02*
X14753653Y-5311162D01*
X14644757Y-5311162D01*
X14644757Y-5420058D01*
X14753653Y-5420058D01*
X14623250Y-7193750D02*
X14777250Y-7347750D01*
X14777250Y-7193750D02*
X14623250Y-7347750D01*
X14754698Y-7325198D02*
X14754698Y-7216302D01*
X14645802Y-7216302D01*
X14645802Y-7325198D01*
X14754698Y-7325198D01*
X14623250Y-9098750D02*
X14777250Y-9252750D01*
X14777250Y-9098750D02*
X14623250Y-9252750D01*
X14754698Y-9230198D02*
X14754698Y-9121302D01*
X14645802Y-9121302D01*
X14645802Y-9230198D01*
X14754698Y-9230198D01*
X14749205Y-5542610D02*
X14903205Y-5696610D01*
X14903205Y-5542610D02*
X14749205Y-5696610D01*
X14880653Y-5674058D02*
X14880653Y-5565162D01*
X14771757Y-5565162D01*
X14771757Y-5674058D01*
X14880653Y-5674058D01*
X14750250Y-7447750D02*
X14904250Y-7601750D01*
X14904250Y-7447750D02*
X14750250Y-7601750D01*
X14881698Y-7579198D02*
X14881698Y-7470302D01*
X14772802Y-7470302D01*
X14772802Y-7579198D01*
X14881698Y-7579198D01*
X14750250Y-9352750D02*
X14904250Y-9506750D01*
X14904250Y-9352750D02*
X14750250Y-9506750D01*
X14881698Y-9484198D02*
X14881698Y-9375302D01*
X14772802Y-9375302D01*
X14772802Y-9484198D01*
X14881698Y-9484198D01*
X14878205Y-6186610D02*
X15032205Y-6340610D01*
X15032205Y-6186610D02*
X14878205Y-6340610D01*
X15009653Y-6318058D02*
X15009653Y-6209162D01*
X14900757Y-6209162D01*
X14900757Y-6318058D01*
X15009653Y-6318058D01*
X14879250Y-8091750D02*
X15033250Y-8245750D01*
X15033250Y-8091750D02*
X14879250Y-8245750D01*
X15010698Y-8223198D02*
X15010698Y-8114302D01*
X14901802Y-8114302D01*
X14901802Y-8223198D01*
X15010698Y-8223198D01*
X14879250Y-9996750D02*
X15033250Y-10150750D01*
X15033250Y-9996750D02*
X14879250Y-10150750D01*
X15010698Y-10128198D02*
X15010698Y-10019302D01*
X14901802Y-10019302D01*
X14901802Y-10128198D01*
X15010698Y-10128198D01*
X15343202Y-13557000D02*
X15497202Y-13711000D01*
X15497202Y-13557000D02*
X15343202Y-13711000D01*
X15474650Y-13688448D02*
X15474650Y-13579552D01*
X15365754Y-13579552D01*
X15365754Y-13688448D01*
X15474650Y-13688448D01*
X15684875Y-13985205D02*
X15838875Y-14139205D01*
X15838875Y-13985205D02*
X15684875Y-14139205D01*
X15816323Y-14116653D02*
X15816323Y-14007757D01*
X15707427Y-14007757D01*
X15707427Y-14116653D01*
X15816323Y-14116653D01*
X15763085Y-6486610D02*
X15917085Y-6640610D01*
X15917085Y-6486610D02*
X15763085Y-6640610D01*
X15894533Y-6618058D02*
X15894533Y-6509162D01*
X15785637Y-6509162D01*
X15785637Y-6618058D01*
X15894533Y-6618058D01*
X15764250Y-8391750D02*
X15918250Y-8545750D01*
X15918250Y-8391750D02*
X15764250Y-8545750D01*
X15895698Y-8523198D02*
X15895698Y-8414302D01*
X15786802Y-8414302D01*
X15786802Y-8523198D01*
X15895698Y-8523198D01*
X15764250Y-10296750D02*
X15918250Y-10450750D01*
X15918250Y-10296750D02*
X15764250Y-10450750D01*
X15895698Y-10428198D02*
X15895698Y-10319302D01*
X15786802Y-10319302D01*
X15786802Y-10428198D01*
X15895698Y-10428198D01*
X15776919Y-13063779D02*
X15930919Y-13217779D01*
X15930919Y-13063779D02*
X15776919Y-13217779D01*
X15908367Y-13195227D02*
X15908367Y-13086332D01*
X15799472Y-13086332D01*
X15799472Y-13195227D01*
X15908367Y-13195227D01*
X15892085Y-5842610D02*
X16046085Y-5996610D01*
X16046085Y-5842610D02*
X15892085Y-5996610D01*
X16023533Y-5974058D02*
X16023533Y-5865162D01*
X15914637Y-5865162D01*
X15914637Y-5974058D01*
X16023533Y-5974058D01*
X15893250Y-7747750D02*
X16047250Y-7901750D01*
X16047250Y-7747750D02*
X15893250Y-7901750D01*
X16024698Y-7879198D02*
X16024698Y-7770302D01*
X15915802Y-7770302D01*
X15915802Y-7879198D01*
X16024698Y-7879198D01*
X15893250Y-9652750D02*
X16047250Y-9806750D01*
X16047250Y-9652750D02*
X15893250Y-9806750D01*
X16024698Y-9784198D02*
X16024698Y-9675302D01*
X15915802Y-9675302D01*
X15915802Y-9784198D01*
X16024698Y-9784198D01*
X16013904Y-12907309D02*
X16167904Y-13061309D01*
X16167904Y-12907309D02*
X16013904Y-13061309D01*
X16145352Y-13038757D02*
X16145352Y-12929861D01*
X16036457Y-12929861D01*
X16036457Y-13038757D01*
X16145352Y-13038757D01*
X16019085Y-5588610D02*
X16173085Y-5742610D01*
X16173085Y-5588610D02*
X16019085Y-5742610D01*
X16150533Y-5720058D02*
X16150533Y-5611162D01*
X16041637Y-5611162D01*
X16041637Y-5720058D01*
X16150533Y-5720058D01*
X16020250Y-7493750D02*
X16174250Y-7647750D01*
X16174250Y-7493750D02*
X16020250Y-7647750D01*
X16151698Y-7625198D02*
X16151698Y-7516302D01*
X16042802Y-7516302D01*
X16042802Y-7625198D01*
X16151698Y-7625198D01*
X16020250Y-9398750D02*
X16174250Y-9552750D01*
X16174250Y-9398750D02*
X16020250Y-9552750D01*
X16151698Y-9530198D02*
X16151698Y-9421302D01*
X16042802Y-9421302D01*
X16042802Y-9530198D01*
X16151698Y-9530198D01*
X16226548Y-14067000D02*
X16380548Y-14221000D01*
X16380548Y-14067000D02*
X16226548Y-14221000D01*
X16357996Y-14198448D02*
X16357996Y-14089552D01*
X16249100Y-14089552D01*
X16249100Y-14198448D01*
X16357996Y-14198448D01*
X16273085Y-6686610D02*
X16427085Y-6840610D01*
X16427085Y-6686610D02*
X16273085Y-6840610D01*
X16404533Y-6818058D02*
X16404533Y-6709162D01*
X16295637Y-6709162D01*
X16295637Y-6818058D01*
X16404533Y-6818058D01*
X16274250Y-8591750D02*
X16428250Y-8745750D01*
X16428250Y-8591750D02*
X16274250Y-8745750D01*
X16405698Y-8723198D02*
X16405698Y-8614302D01*
X16296802Y-8614302D01*
X16296802Y-8723198D01*
X16405698Y-8723198D01*
X16274250Y-10496750D02*
X16428250Y-10650750D01*
X16428250Y-10496750D02*
X16274250Y-10650750D01*
X16405698Y-10628198D02*
X16405698Y-10519302D01*
X16296802Y-10519302D01*
X16296802Y-10628198D01*
X16405698Y-10628198D01*
X16436831Y-13444779D02*
X16590831Y-13598779D01*
X16590831Y-13444779D02*
X16436831Y-13598779D01*
X16568278Y-13576227D02*
X16568278Y-13467332D01*
X16459383Y-13467332D01*
X16459383Y-13576227D01*
X16568278Y-13576227D01*
X16453845Y-13161309D02*
X16607845Y-13315309D01*
X16607845Y-13161309D02*
X16453845Y-13315309D01*
X16585293Y-13292757D02*
X16585293Y-13183861D01*
X16476398Y-13183861D01*
X16476398Y-13292757D01*
X16585293Y-13292757D01*
X16527085Y-5588610D02*
X16681085Y-5742610D01*
X16681085Y-5588610D02*
X16527085Y-5742610D01*
X16658533Y-5720058D02*
X16658533Y-5611162D01*
X16549637Y-5611162D01*
X16549637Y-5720058D01*
X16658533Y-5720058D01*
X16528250Y-7493750D02*
X16682250Y-7647750D01*
X16682250Y-7493750D02*
X16528250Y-7647750D01*
X16659698Y-7625198D02*
X16659698Y-7516302D01*
X16550802Y-7516302D01*
X16550802Y-7625198D01*
X16659698Y-7625198D01*
X16528250Y-9398750D02*
X16682250Y-9552750D01*
X16682250Y-9398750D02*
X16528250Y-9552750D01*
X16659698Y-9530198D02*
X16659698Y-9421302D01*
X16550802Y-9421302D01*
X16550802Y-9530198D01*
X16659698Y-9530198D01*
X16654085Y-5842610D02*
X16808085Y-5996610D01*
X16808085Y-5842610D02*
X16654085Y-5996610D01*
X16785533Y-5974058D02*
X16785533Y-5865162D01*
X16676637Y-5865162D01*
X16676637Y-5974058D01*
X16785533Y-5974058D01*
X16655250Y-7747750D02*
X16809250Y-7901750D01*
X16809250Y-7747750D02*
X16655250Y-7901750D01*
X16786698Y-7879198D02*
X16786698Y-7770302D01*
X16677802Y-7770302D01*
X16677802Y-7879198D01*
X16786698Y-7879198D01*
X16655250Y-9652750D02*
X16809250Y-9806750D01*
X16809250Y-9652750D02*
X16655250Y-9806750D01*
X16786698Y-9784198D02*
X16786698Y-9675302D01*
X16677802Y-9675302D01*
X16677802Y-9784198D01*
X16786698Y-9784198D01*
X16783085Y-6486610D02*
X16937085Y-6640610D01*
X16937085Y-6486610D02*
X16783085Y-6640610D01*
X16914533Y-6618058D02*
X16914533Y-6509162D01*
X16805637Y-6509162D01*
X16805637Y-6618058D01*
X16914533Y-6618058D01*
X16784250Y-8391750D02*
X16938250Y-8545750D01*
X16938250Y-8391750D02*
X16784250Y-8545750D01*
X16915698Y-8523198D02*
X16915698Y-8414302D01*
X16806802Y-8414302D01*
X16806802Y-8523198D01*
X16915698Y-8523198D01*
X16784250Y-10296750D02*
X16938250Y-10450750D01*
X16938250Y-10296750D02*
X16784250Y-10450750D01*
X16915698Y-10428198D02*
X16915698Y-10319302D01*
X16806802Y-10319302D01*
X16806802Y-10428198D01*
X16915698Y-10428198D01*
X17253296Y-14734254D02*
X17407296Y-14888254D01*
X17407296Y-14734254D02*
X17253296Y-14888254D01*
X17384744Y-14865702D02*
X17384744Y-14756807D01*
X17275848Y-14756807D01*
X17275848Y-14865702D01*
X17384744Y-14865702D01*
X17427909Y-15253495D02*
X17581909Y-15407495D01*
X17581909Y-15253495D02*
X17427909Y-15407495D01*
X17559357Y-15384942D02*
X17559357Y-15276047D01*
X17450461Y-15276047D01*
X17450461Y-15384942D01*
X17559357Y-15384942D01*
X17829548Y-14419119D02*
X17983548Y-14573119D01*
X17983548Y-14419119D02*
X17829548Y-14573119D01*
X17960996Y-14550567D02*
X17960996Y-14441671D01*
X17852101Y-14441671D01*
X17852101Y-14550567D01*
X17960996Y-14550567D01*
X17908939Y-15515620D02*
X18062939Y-15669620D01*
X18062939Y-15515620D02*
X17908939Y-15669620D01*
X18040387Y-15647067D02*
X18040387Y-15538172D01*
X17931492Y-15538172D01*
X17931492Y-15647067D01*
X18040387Y-15647067D01*
X18105758Y-14353139D02*
X18259758Y-14507139D01*
X18259758Y-14353139D02*
X18105758Y-14507139D01*
X18237205Y-14484586D02*
X18237205Y-14375691D01*
X18128310Y-14375691D01*
X18128310Y-14484586D01*
X18237205Y-14484586D01*
X18319352Y-15002845D02*
X18473352Y-15156845D01*
X18473352Y-15002845D02*
X18319352Y-15156845D01*
X18450800Y-15134293D02*
X18450800Y-15025397D01*
X18341905Y-15025397D01*
X18341905Y-15134293D01*
X18450800Y-15134293D01*
X18432294Y-14742289D02*
X18586294Y-14896289D01*
X18586294Y-14742289D02*
X18432294Y-14896289D01*
X18563741Y-14873737D02*
X18563741Y-14764841D01*
X18454846Y-14764841D01*
X18454846Y-14873737D01*
X18563741Y-14873737D01*
D19*
X17670000Y-6557500D02*
X17890000Y-6777500D01*
X17890000Y-6557500D02*
X17670000Y-6777500D01*
X17780000Y-6777500D02*
X17890000Y-6667500D01*
X17780000Y-6557500D01*
X17670000Y-6667500D01*
X17780000Y-6777500D01*
X18225625Y-11161250D02*
X18445625Y-11381250D01*
X18445625Y-11161250D02*
X18225625Y-11381250D01*
X18335625Y-11381250D02*
X18445625Y-11271250D01*
X18335625Y-11161250D01*
X18225625Y-11271250D01*
X18335625Y-11381250D01*
X19971875Y-12290000D02*
X20191875Y-12510000D01*
X20191875Y-12290000D02*
X19971875Y-12510000D01*
X20081875Y-12510000D02*
X20191875Y-12400000D01*
X20081875Y-12290000D01*
X19971875Y-12400000D01*
X20081875Y-12510000D01*
D20*
X18354065Y-13749994D02*
X18354065Y-14049994D01*
X18204065Y-13899994D02*
X18504065Y-13899994D01*
X18504065Y-13899994D02*
G75*
G03*
X18504065Y-13899994I-150000J0D01*
G01*
D11*
X18477381Y-13829154D02*
X18445242Y-13790852D01*
X18262889Y-14009135D02*
X18230750Y-13970833D01*
X18445242Y-13790852D02*
G75*
G03*
X18230750Y-13970833I-107246J-89990D01*
G01*
X18262889Y-14009135D02*
G75*
G03*
X18477381Y-13829154I107246J89990D01*
G01*
D20*
X19061132Y-14592643D02*
X19061132Y-14892643D01*
X18911132Y-14742643D02*
X19211132Y-14742643D01*
X19211132Y-14742643D02*
G75*
G03*
X19211132Y-14742643I-150000J0D01*
G01*
D11*
X19184448Y-14671803D02*
X19152308Y-14633501D01*
X18969955Y-14851784D02*
X18937816Y-14813482D01*
X19152308Y-14633501D02*
G75*
G03*
X18937816Y-14813482I-107246J-89990D01*
G01*
X18969955Y-14851784D02*
G75*
G03*
X19184448Y-14671803I107246J89990D01*
G01*
D21*
X9825173Y-8713923D02*
X9825173Y-8431077D01*
X9542327Y-8431077D01*
X9542327Y-8713923D01*
X9825173Y-8713923D01*
X9883750Y-8572500D02*
G75*
G03*
X9883750Y-8572500I-200000J0D01*
G01*
X12216423Y-12816423D02*
X12216423Y-12533577D01*
X11933577Y-12533577D01*
X11933577Y-12816423D01*
X12216423Y-12816423D01*
X12275000Y-12675000D02*
G75*
G03*
X12275000Y-12675000I-200000J0D01*
G01*
X13635173Y-6967673D02*
X13635173Y-6684827D01*
X13352327Y-6684827D01*
X13352327Y-6967673D01*
X13635173Y-6967673D01*
X13693750Y-6826250D02*
G75*
G03*
X13693750Y-6826250I-200000J0D01*
G01*
X19588298Y-14270173D02*
X19588298Y-13987327D01*
X19305452Y-13987327D01*
X19305452Y-14270173D01*
X19588298Y-14270173D01*
X19646875Y-14128750D02*
G75*
G03*
X19646875Y-14128750I-200000J0D01*
G01*
D11*
X8030073Y-16638264D02*
X8030073Y-16438264D01*
X8077692Y-16438264D01*
X8106264Y-16447788D01*
X8125311Y-16466836D01*
X8134835Y-16485883D01*
X8144359Y-16523979D01*
X8144359Y-16552550D01*
X8134835Y-16590645D01*
X8125311Y-16609693D01*
X8106264Y-16628740D01*
X8077692Y-16638264D01*
X8030073Y-16638264D01*
X8230073Y-16638264D02*
X8230073Y-16504931D01*
X8230073Y-16543026D02*
X8239597Y-16523979D01*
X8249121Y-16514455D01*
X8268168Y-16504931D01*
X8287216Y-16504931D01*
X8353883Y-16638264D02*
X8353883Y-16504931D01*
X8353883Y-16438264D02*
X8344359Y-16447788D01*
X8353883Y-16457312D01*
X8363406Y-16447788D01*
X8353883Y-16438264D01*
X8353883Y-16457312D01*
X8477692Y-16638264D02*
X8458645Y-16628740D01*
X8449121Y-16609693D01*
X8449121Y-16438264D01*
X8582454Y-16638264D02*
X8563406Y-16628740D01*
X8553883Y-16609693D01*
X8553883Y-16438264D01*
X8811026Y-16638264D02*
X8811026Y-16438264D01*
X8877692Y-16581121D01*
X8944359Y-16438264D01*
X8944359Y-16638264D01*
X9125311Y-16638264D02*
X9125311Y-16533502D01*
X9115787Y-16514455D01*
X9096740Y-16504931D01*
X9058645Y-16504931D01*
X9039597Y-16514455D01*
X9125311Y-16628740D02*
X9106264Y-16638264D01*
X9058645Y-16638264D01*
X9039597Y-16628740D01*
X9030073Y-16609693D01*
X9030073Y-16590645D01*
X9039597Y-16571598D01*
X9058645Y-16562074D01*
X9106264Y-16562074D01*
X9125311Y-16552550D01*
X9220549Y-16504931D02*
X9220549Y-16704931D01*
X9220549Y-16514455D02*
X9239597Y-16504931D01*
X9277692Y-16504931D01*
X9296740Y-16514455D01*
X9306264Y-16523979D01*
X9315787Y-16543026D01*
X9315787Y-16600169D01*
X9306264Y-16619217D01*
X9296740Y-16628740D01*
X9277692Y-16638264D01*
X9239597Y-16638264D01*
X9220549Y-16628740D01*
X9401502Y-16619217D02*
X9411026Y-16628740D01*
X9401502Y-16638264D01*
X9391978Y-16628740D01*
X9401502Y-16619217D01*
X9401502Y-16638264D01*
X9401502Y-16514455D02*
X9411026Y-16523979D01*
X9401502Y-16533502D01*
X9391978Y-16523979D01*
X9401502Y-16514455D01*
X9401502Y-16533502D01*
D12*
X7752454Y-16957788D02*
X7772454Y-16977788D01*
X7772454Y-16957788D02*
X7752454Y-16977788D01*
D11*
X8068168Y-16858264D02*
X8087216Y-16858264D01*
X8106264Y-16867788D01*
X8115787Y-16877312D01*
X8125311Y-16896360D01*
X8134835Y-16934455D01*
X8134835Y-16982074D01*
X8125311Y-17020169D01*
X8115787Y-17039217D01*
X8106264Y-17048741D01*
X8087216Y-17058264D01*
X8068168Y-17058264D01*
X8049121Y-17048741D01*
X8039597Y-17039217D01*
X8030073Y-17020169D01*
X8020549Y-16982074D01*
X8020549Y-16934455D01*
X8030073Y-16896360D01*
X8039597Y-16877312D01*
X8049121Y-16867788D01*
X8068168Y-16858264D01*
X8220549Y-17039217D02*
X8230073Y-17048741D01*
X8220549Y-17058264D01*
X8211025Y-17048741D01*
X8220549Y-17039217D01*
X8220549Y-17058264D01*
X8306264Y-16877312D02*
X8315787Y-16867788D01*
X8334835Y-16858264D01*
X8382454Y-16858264D01*
X8401502Y-16867788D01*
X8411026Y-16877312D01*
X8420549Y-16896360D01*
X8420549Y-16915407D01*
X8411026Y-16943979D01*
X8296740Y-17058264D01*
X8420549Y-17058264D01*
X8544359Y-16858264D02*
X8563406Y-16858264D01*
X8582454Y-16867788D01*
X8591978Y-16877312D01*
X8601502Y-16896360D01*
X8611026Y-16934455D01*
X8611026Y-16982074D01*
X8601502Y-17020169D01*
X8591978Y-17039217D01*
X8582454Y-17048741D01*
X8563406Y-17058264D01*
X8544359Y-17058264D01*
X8525311Y-17048741D01*
X8515787Y-17039217D01*
X8506264Y-17020169D01*
X8496740Y-16982074D01*
X8496740Y-16934455D01*
X8506264Y-16896360D01*
X8515787Y-16877312D01*
X8525311Y-16867788D01*
X8544359Y-16858264D01*
X8734835Y-16858264D02*
X8753883Y-16858264D01*
X8772930Y-16867788D01*
X8782454Y-16877312D01*
X8791978Y-16896360D01*
X8801502Y-16934455D01*
X8801502Y-16982074D01*
X8791978Y-17020169D01*
X8782454Y-17039217D01*
X8772930Y-17048741D01*
X8753883Y-17058264D01*
X8734835Y-17058264D01*
X8715787Y-17048741D01*
X8706264Y-17039217D01*
X8696740Y-17020169D01*
X8687216Y-16982074D01*
X8687216Y-16934455D01*
X8696740Y-16896360D01*
X8706264Y-16877312D01*
X8715787Y-16867788D01*
X8734835Y-16858264D01*
X8887216Y-17058264D02*
X8887216Y-16924931D01*
X8887216Y-16943979D02*
X8896740Y-16934455D01*
X8915787Y-16924931D01*
X8944359Y-16924931D01*
X8963406Y-16934455D01*
X8972930Y-16953502D01*
X8972930Y-17058264D01*
X8972930Y-16953502D02*
X8982454Y-16934455D01*
X9001502Y-16924931D01*
X9030073Y-16924931D01*
X9049121Y-16934455D01*
X9058645Y-16953502D01*
X9058645Y-17058264D01*
X9153883Y-17058264D02*
X9153883Y-16924931D01*
X9153883Y-16943979D02*
X9163406Y-16934455D01*
X9182454Y-16924931D01*
X9211026Y-16924931D01*
X9230073Y-16934455D01*
X9239597Y-16953502D01*
X9239597Y-17058264D01*
X9239597Y-16953502D02*
X9249121Y-16934455D01*
X9268168Y-16924931D01*
X9296740Y-16924931D01*
X9315787Y-16934455D01*
X9325311Y-16953502D01*
X9325311Y-17058264D01*
X9715787Y-16848741D02*
X9544359Y-17105883D01*
X9972930Y-16858264D02*
X9991978Y-16858264D01*
X10011026Y-16867788D01*
X10020549Y-16877312D01*
X10030073Y-16896360D01*
X10039597Y-16934455D01*
X10039597Y-16982074D01*
X10030073Y-17020169D01*
X10020549Y-17039217D01*
X10011026Y-17048741D01*
X9991978Y-17058264D01*
X9972930Y-17058264D01*
X9953883Y-17048741D01*
X9944359Y-17039217D01*
X9934835Y-17020169D01*
X9925311Y-16982074D01*
X9925311Y-16934455D01*
X9934835Y-16896360D01*
X9944359Y-16877312D01*
X9953883Y-16867788D01*
X9972930Y-16858264D01*
X10125311Y-17039217D02*
X10134835Y-17048741D01*
X10125311Y-17058264D01*
X10115787Y-17048741D01*
X10125311Y-17039217D01*
X10125311Y-17058264D01*
X10258645Y-16858264D02*
X10277692Y-16858264D01*
X10296740Y-16867788D01*
X10306264Y-16877312D01*
X10315787Y-16896360D01*
X10325311Y-16934455D01*
X10325311Y-16982074D01*
X10315787Y-17020169D01*
X10306264Y-17039217D01*
X10296740Y-17048741D01*
X10277692Y-17058264D01*
X10258645Y-17058264D01*
X10239597Y-17048741D01*
X10230073Y-17039217D01*
X10220549Y-17020169D01*
X10211026Y-16982074D01*
X10211026Y-16934455D01*
X10220549Y-16896360D01*
X10230073Y-16877312D01*
X10239597Y-16867788D01*
X10258645Y-16858264D01*
X10449121Y-16858264D02*
X10468168Y-16858264D01*
X10487216Y-16867788D01*
X10496740Y-16877312D01*
X10506264Y-16896360D01*
X10515787Y-16934455D01*
X10515787Y-16982074D01*
X10506264Y-17020169D01*
X10496740Y-17039217D01*
X10487216Y-17048741D01*
X10468168Y-17058264D01*
X10449121Y-17058264D01*
X10430073Y-17048741D01*
X10420549Y-17039217D01*
X10411026Y-17020169D01*
X10401502Y-16982074D01*
X10401502Y-16934455D01*
X10411026Y-16896360D01*
X10420549Y-16877312D01*
X10430073Y-16867788D01*
X10449121Y-16858264D01*
X10582454Y-16858264D02*
X10715787Y-16858264D01*
X10630073Y-17058264D01*
X10801502Y-17058264D02*
X10839597Y-17058264D01*
X10858645Y-17048741D01*
X10868168Y-17039217D01*
X10887216Y-17010645D01*
X10896740Y-16972550D01*
X10896740Y-16896360D01*
X10887216Y-16877312D01*
X10877692Y-16867788D01*
X10858645Y-16858264D01*
X10820549Y-16858264D01*
X10801502Y-16867788D01*
X10791978Y-16877312D01*
X10782454Y-16896360D01*
X10782454Y-16943979D01*
X10791978Y-16963026D01*
X10801502Y-16972550D01*
X10820549Y-16982074D01*
X10858645Y-16982074D01*
X10877692Y-16972550D01*
X10887216Y-16963026D01*
X10896740Y-16943979D01*
X10972930Y-16858264D02*
X10972930Y-16896360D01*
X11049121Y-16858264D02*
X11049121Y-16896360D01*
X11344359Y-17134455D02*
X11334835Y-17124931D01*
X11315787Y-17096360D01*
X11306264Y-17077312D01*
X11296740Y-17048741D01*
X11287216Y-17001122D01*
X11287216Y-16963026D01*
X11296740Y-16915407D01*
X11306264Y-16886836D01*
X11315787Y-16867788D01*
X11334835Y-16839217D01*
X11344359Y-16829693D01*
X11401502Y-16858264D02*
X11525311Y-16858264D01*
X11458644Y-16934455D01*
X11487216Y-16934455D01*
X11506264Y-16943979D01*
X11515787Y-16953502D01*
X11525311Y-16972550D01*
X11525311Y-17020169D01*
X11515787Y-17039217D01*
X11506264Y-17048741D01*
X11487216Y-17058264D01*
X11430073Y-17058264D01*
X11411025Y-17048741D01*
X11401502Y-17039217D01*
X11639597Y-16943979D02*
X11620549Y-16934455D01*
X11611025Y-16924931D01*
X11601502Y-16905883D01*
X11601502Y-16896360D01*
X11611025Y-16877312D01*
X11620549Y-16867788D01*
X11639597Y-16858264D01*
X11677692Y-16858264D01*
X11696740Y-16867788D01*
X11706264Y-16877312D01*
X11715787Y-16896360D01*
X11715787Y-16905883D01*
X11706264Y-16924931D01*
X11696740Y-16934455D01*
X11677692Y-16943979D01*
X11639597Y-16943979D01*
X11620549Y-16953502D01*
X11611025Y-16963026D01*
X11601502Y-16982074D01*
X11601502Y-17020169D01*
X11611025Y-17039217D01*
X11620549Y-17048741D01*
X11639597Y-17058264D01*
X11677692Y-17058264D01*
X11696740Y-17048741D01*
X11706264Y-17039217D01*
X11715787Y-17020169D01*
X11715787Y-16982074D01*
X11706264Y-16963026D01*
X11696740Y-16953502D01*
X11677692Y-16943979D01*
X11953883Y-17058264D02*
X11953883Y-16858264D01*
X12039597Y-17058264D02*
X12039597Y-16953502D01*
X12030073Y-16934455D01*
X12011025Y-16924931D01*
X11982454Y-16924931D01*
X11963406Y-16934455D01*
X11953883Y-16943979D01*
X12163406Y-17058264D02*
X12144359Y-17048741D01*
X12134835Y-17039217D01*
X12125311Y-17020169D01*
X12125311Y-16963026D01*
X12134835Y-16943979D01*
X12144359Y-16934455D01*
X12163406Y-16924931D01*
X12191978Y-16924931D01*
X12211025Y-16934455D01*
X12220549Y-16943979D01*
X12230073Y-16963026D01*
X12230073Y-17020169D01*
X12220549Y-17039217D01*
X12211025Y-17048741D01*
X12191978Y-17058264D01*
X12163406Y-17058264D01*
X12344359Y-17058264D02*
X12325311Y-17048741D01*
X12315787Y-17029693D01*
X12315787Y-16858264D01*
X12496740Y-17048741D02*
X12477692Y-17058264D01*
X12439597Y-17058264D01*
X12420549Y-17048741D01*
X12411025Y-17029693D01*
X12411025Y-16953502D01*
X12420549Y-16934455D01*
X12439597Y-16924931D01*
X12477692Y-16924931D01*
X12496740Y-16934455D01*
X12506264Y-16953502D01*
X12506264Y-16972550D01*
X12411025Y-16991598D01*
X12582454Y-17048741D02*
X12601502Y-17058264D01*
X12639597Y-17058264D01*
X12658644Y-17048741D01*
X12668168Y-17029693D01*
X12668168Y-17020169D01*
X12658644Y-17001122D01*
X12639597Y-16991598D01*
X12611025Y-16991598D01*
X12591978Y-16982074D01*
X12582454Y-16963026D01*
X12582454Y-16953502D01*
X12591978Y-16934455D01*
X12611025Y-16924931D01*
X12639597Y-16924931D01*
X12658644Y-16934455D01*
X12734835Y-17134455D02*
X12744359Y-17124931D01*
X12763406Y-17096360D01*
X12772930Y-17077312D01*
X12782454Y-17048741D01*
X12791978Y-17001122D01*
X12791978Y-16963026D01*
X12782454Y-16915407D01*
X12772930Y-16886836D01*
X12763406Y-16867788D01*
X12744359Y-16839217D01*
X12734835Y-16829693D01*
D13*
X7772454Y-17231788D02*
G75*
G03*
X7772454Y-17231788I-20000J0D01*
G01*
D11*
X8068168Y-17122264D02*
X8087216Y-17122264D01*
X8106264Y-17131788D01*
X8115787Y-17141312D01*
X8125311Y-17160360D01*
X8134835Y-17198455D01*
X8134835Y-17246074D01*
X8125311Y-17284169D01*
X8115787Y-17303217D01*
X8106264Y-17312741D01*
X8087216Y-17322264D01*
X8068168Y-17322264D01*
X8049121Y-17312741D01*
X8039597Y-17303217D01*
X8030073Y-17284169D01*
X8020549Y-17246074D01*
X8020549Y-17198455D01*
X8030073Y-17160360D01*
X8039597Y-17141312D01*
X8049121Y-17131788D01*
X8068168Y-17122264D01*
X8220549Y-17303217D02*
X8230073Y-17312741D01*
X8220549Y-17322264D01*
X8211025Y-17312741D01*
X8220549Y-17303217D01*
X8220549Y-17322264D01*
X8401502Y-17188931D02*
X8401502Y-17322264D01*
X8353883Y-17112741D02*
X8306264Y-17255598D01*
X8430073Y-17255598D01*
X8544359Y-17122264D02*
X8563406Y-17122264D01*
X8582454Y-17131788D01*
X8591978Y-17141312D01*
X8601502Y-17160360D01*
X8611026Y-17198455D01*
X8611026Y-17246074D01*
X8601502Y-17284169D01*
X8591978Y-17303217D01*
X8582454Y-17312741D01*
X8563406Y-17322264D01*
X8544359Y-17322264D01*
X8525311Y-17312741D01*
X8515787Y-17303217D01*
X8506264Y-17284169D01*
X8496740Y-17246074D01*
X8496740Y-17198455D01*
X8506264Y-17160360D01*
X8515787Y-17141312D01*
X8525311Y-17131788D01*
X8544359Y-17122264D01*
X8734835Y-17122264D02*
X8753883Y-17122264D01*
X8772930Y-17131788D01*
X8782454Y-17141312D01*
X8791978Y-17160360D01*
X8801502Y-17198455D01*
X8801502Y-17246074D01*
X8791978Y-17284169D01*
X8782454Y-17303217D01*
X8772930Y-17312741D01*
X8753883Y-17322264D01*
X8734835Y-17322264D01*
X8715787Y-17312741D01*
X8706264Y-17303217D01*
X8696740Y-17284169D01*
X8687216Y-17246074D01*
X8687216Y-17198455D01*
X8696740Y-17160360D01*
X8706264Y-17141312D01*
X8715787Y-17131788D01*
X8734835Y-17122264D01*
X8887216Y-17322264D02*
X8887216Y-17188931D01*
X8887216Y-17207979D02*
X8896740Y-17198455D01*
X8915787Y-17188931D01*
X8944359Y-17188931D01*
X8963406Y-17198455D01*
X8972930Y-17217502D01*
X8972930Y-17322264D01*
X8972930Y-17217502D02*
X8982454Y-17198455D01*
X9001502Y-17188931D01*
X9030073Y-17188931D01*
X9049121Y-17198455D01*
X9058645Y-17217502D01*
X9058645Y-17322264D01*
X9153883Y-17322264D02*
X9153883Y-17188931D01*
X9153883Y-17207979D02*
X9163406Y-17198455D01*
X9182454Y-17188931D01*
X9211026Y-17188931D01*
X9230073Y-17198455D01*
X9239597Y-17217502D01*
X9239597Y-17322264D01*
X9239597Y-17217502D02*
X9249121Y-17198455D01*
X9268168Y-17188931D01*
X9296740Y-17188931D01*
X9315787Y-17198455D01*
X9325311Y-17217502D01*
X9325311Y-17322264D01*
X9715787Y-17112741D02*
X9544359Y-17369883D01*
X9972930Y-17122264D02*
X9991978Y-17122264D01*
X10011026Y-17131788D01*
X10020549Y-17141312D01*
X10030073Y-17160360D01*
X10039597Y-17198455D01*
X10039597Y-17246074D01*
X10030073Y-17284169D01*
X10020549Y-17303217D01*
X10011026Y-17312741D01*
X9991978Y-17322264D01*
X9972930Y-17322264D01*
X9953883Y-17312741D01*
X9944359Y-17303217D01*
X9934835Y-17284169D01*
X9925311Y-17246074D01*
X9925311Y-17198455D01*
X9934835Y-17160360D01*
X9944359Y-17141312D01*
X9953883Y-17131788D01*
X9972930Y-17122264D01*
X10125311Y-17303217D02*
X10134835Y-17312741D01*
X10125311Y-17322264D01*
X10115787Y-17312741D01*
X10125311Y-17303217D01*
X10125311Y-17322264D01*
X10258645Y-17122264D02*
X10277692Y-17122264D01*
X10296740Y-17131788D01*
X10306264Y-17141312D01*
X10315787Y-17160360D01*
X10325311Y-17198455D01*
X10325311Y-17246074D01*
X10315787Y-17284169D01*
X10306264Y-17303217D01*
X10296740Y-17312741D01*
X10277692Y-17322264D01*
X10258645Y-17322264D01*
X10239597Y-17312741D01*
X10230073Y-17303217D01*
X10220549Y-17284169D01*
X10211026Y-17246074D01*
X10211026Y-17198455D01*
X10220549Y-17160360D01*
X10230073Y-17141312D01*
X10239597Y-17131788D01*
X10258645Y-17122264D01*
X10515787Y-17322264D02*
X10401502Y-17322264D01*
X10458645Y-17322264D02*
X10458645Y-17122264D01*
X10439597Y-17150836D01*
X10420549Y-17169883D01*
X10401502Y-17179407D01*
X10696740Y-17122264D02*
X10601502Y-17122264D01*
X10591978Y-17217502D01*
X10601502Y-17207979D01*
X10620549Y-17198455D01*
X10668168Y-17198455D01*
X10687216Y-17207979D01*
X10696740Y-17217502D01*
X10706264Y-17236550D01*
X10706264Y-17284169D01*
X10696740Y-17303217D01*
X10687216Y-17312741D01*
X10668168Y-17322264D01*
X10620549Y-17322264D01*
X10601502Y-17312741D01*
X10591978Y-17303217D01*
X10772930Y-17122264D02*
X10906264Y-17122264D01*
X10820549Y-17322264D01*
X10972930Y-17122264D02*
X10972930Y-17160360D01*
X11049121Y-17122264D02*
X11049121Y-17160360D01*
X11344359Y-17398455D02*
X11334835Y-17388931D01*
X11315787Y-17360360D01*
X11306264Y-17341312D01*
X11296740Y-17312741D01*
X11287216Y-17265122D01*
X11287216Y-17227026D01*
X11296740Y-17179407D01*
X11306264Y-17150836D01*
X11315787Y-17131788D01*
X11334835Y-17103217D01*
X11344359Y-17093693D01*
X11525311Y-17322264D02*
X11411025Y-17322264D01*
X11468168Y-17322264D02*
X11468168Y-17122264D01*
X11449121Y-17150836D01*
X11430073Y-17169883D01*
X11411025Y-17179407D01*
X11601502Y-17141312D02*
X11611025Y-17131788D01*
X11630073Y-17122264D01*
X11677692Y-17122264D01*
X11696740Y-17131788D01*
X11706264Y-17141312D01*
X11715787Y-17160360D01*
X11715787Y-17179407D01*
X11706264Y-17207979D01*
X11591978Y-17322264D01*
X11715787Y-17322264D01*
X11896740Y-17122264D02*
X11801502Y-17122264D01*
X11791978Y-17217502D01*
X11801502Y-17207979D01*
X11820549Y-17198455D01*
X11868168Y-17198455D01*
X11887216Y-17207979D01*
X11896740Y-17217502D01*
X11906264Y-17236550D01*
X11906264Y-17284169D01*
X11896740Y-17303217D01*
X11887216Y-17312741D01*
X11868168Y-17322264D01*
X11820549Y-17322264D01*
X11801502Y-17312741D01*
X11791978Y-17303217D01*
X12144359Y-17322264D02*
X12144359Y-17122264D01*
X12230073Y-17322264D02*
X12230073Y-17217502D01*
X12220549Y-17198455D01*
X12201502Y-17188931D01*
X12172930Y-17188931D01*
X12153883Y-17198455D01*
X12144359Y-17207979D01*
X12353883Y-17322264D02*
X12334835Y-17312741D01*
X12325311Y-17303217D01*
X12315787Y-17284169D01*
X12315787Y-17227026D01*
X12325311Y-17207979D01*
X12334835Y-17198455D01*
X12353883Y-17188931D01*
X12382454Y-17188931D01*
X12401502Y-17198455D01*
X12411025Y-17207979D01*
X12420549Y-17227026D01*
X12420549Y-17284169D01*
X12411025Y-17303217D01*
X12401502Y-17312741D01*
X12382454Y-17322264D01*
X12353883Y-17322264D01*
X12534835Y-17322264D02*
X12515787Y-17312741D01*
X12506264Y-17293693D01*
X12506264Y-17122264D01*
X12687216Y-17312741D02*
X12668168Y-17322264D01*
X12630073Y-17322264D01*
X12611025Y-17312741D01*
X12601502Y-17293693D01*
X12601502Y-17217502D01*
X12611025Y-17198455D01*
X12630073Y-17188931D01*
X12668168Y-17188931D01*
X12687216Y-17198455D01*
X12696740Y-17217502D01*
X12696740Y-17236550D01*
X12601502Y-17255598D01*
X12772930Y-17312741D02*
X12791978Y-17322264D01*
X12830073Y-17322264D01*
X12849121Y-17312741D01*
X12858644Y-17293693D01*
X12858644Y-17284169D01*
X12849121Y-17265122D01*
X12830073Y-17255598D01*
X12801502Y-17255598D01*
X12782454Y-17246074D01*
X12772930Y-17227026D01*
X12772930Y-17217502D01*
X12782454Y-17198455D01*
X12801502Y-17188931D01*
X12830073Y-17188931D01*
X12849121Y-17198455D01*
X12925311Y-17398455D02*
X12934835Y-17388931D01*
X12953883Y-17360360D01*
X12963406Y-17341312D01*
X12972930Y-17312741D01*
X12982454Y-17265122D01*
X12982454Y-17227026D01*
X12972930Y-17179407D01*
X12963406Y-17150836D01*
X12953883Y-17131788D01*
X12934835Y-17103217D01*
X12925311Y-17093693D01*
D13*
X7752454Y-17475788D02*
X7752454Y-17515788D01*
X7732454Y-17495788D02*
X7772454Y-17495788D01*
D11*
X8068168Y-17386264D02*
X8087216Y-17386264D01*
X8106264Y-17395788D01*
X8115787Y-17405312D01*
X8125311Y-17424360D01*
X8134835Y-17462455D01*
X8134835Y-17510074D01*
X8125311Y-17548169D01*
X8115787Y-17567217D01*
X8106264Y-17576741D01*
X8087216Y-17586264D01*
X8068168Y-17586264D01*
X8049121Y-17576741D01*
X8039597Y-17567217D01*
X8030073Y-17548169D01*
X8020549Y-17510074D01*
X8020549Y-17462455D01*
X8030073Y-17424360D01*
X8039597Y-17405312D01*
X8049121Y-17395788D01*
X8068168Y-17386264D01*
X8220549Y-17567217D02*
X8230073Y-17576741D01*
X8220549Y-17586264D01*
X8211025Y-17576741D01*
X8220549Y-17567217D01*
X8220549Y-17586264D01*
X8401502Y-17452931D02*
X8401502Y-17586264D01*
X8353883Y-17376741D02*
X8306264Y-17519598D01*
X8430073Y-17519598D01*
X8544359Y-17386264D02*
X8563406Y-17386264D01*
X8582454Y-17395788D01*
X8591978Y-17405312D01*
X8601502Y-17424360D01*
X8611026Y-17462455D01*
X8611026Y-17510074D01*
X8601502Y-17548169D01*
X8591978Y-17567217D01*
X8582454Y-17576741D01*
X8563406Y-17586264D01*
X8544359Y-17586264D01*
X8525311Y-17576741D01*
X8515787Y-17567217D01*
X8506264Y-17548169D01*
X8496740Y-17510074D01*
X8496740Y-17462455D01*
X8506264Y-17424360D01*
X8515787Y-17405312D01*
X8525311Y-17395788D01*
X8544359Y-17386264D01*
X8734835Y-17386264D02*
X8753883Y-17386264D01*
X8772930Y-17395788D01*
X8782454Y-17405312D01*
X8791978Y-17424360D01*
X8801502Y-17462455D01*
X8801502Y-17510074D01*
X8791978Y-17548169D01*
X8782454Y-17567217D01*
X8772930Y-17576741D01*
X8753883Y-17586264D01*
X8734835Y-17586264D01*
X8715787Y-17576741D01*
X8706264Y-17567217D01*
X8696740Y-17548169D01*
X8687216Y-17510074D01*
X8687216Y-17462455D01*
X8696740Y-17424360D01*
X8706264Y-17405312D01*
X8715787Y-17395788D01*
X8734835Y-17386264D01*
X8887216Y-17586264D02*
X8887216Y-17452931D01*
X8887216Y-17471979D02*
X8896740Y-17462455D01*
X8915787Y-17452931D01*
X8944359Y-17452931D01*
X8963406Y-17462455D01*
X8972930Y-17481502D01*
X8972930Y-17586264D01*
X8972930Y-17481502D02*
X8982454Y-17462455D01*
X9001502Y-17452931D01*
X9030073Y-17452931D01*
X9049121Y-17462455D01*
X9058645Y-17481502D01*
X9058645Y-17586264D01*
X9153883Y-17586264D02*
X9153883Y-17452931D01*
X9153883Y-17471979D02*
X9163406Y-17462455D01*
X9182454Y-17452931D01*
X9211026Y-17452931D01*
X9230073Y-17462455D01*
X9239597Y-17481502D01*
X9239597Y-17586264D01*
X9239597Y-17481502D02*
X9249121Y-17462455D01*
X9268168Y-17452931D01*
X9296740Y-17452931D01*
X9315787Y-17462455D01*
X9325311Y-17481502D01*
X9325311Y-17586264D01*
X9715787Y-17376741D02*
X9544359Y-17633883D01*
X9972930Y-17386264D02*
X9991978Y-17386264D01*
X10011026Y-17395788D01*
X10020549Y-17405312D01*
X10030073Y-17424360D01*
X10039597Y-17462455D01*
X10039597Y-17510074D01*
X10030073Y-17548169D01*
X10020549Y-17567217D01*
X10011026Y-17576741D01*
X9991978Y-17586264D01*
X9972930Y-17586264D01*
X9953883Y-17576741D01*
X9944359Y-17567217D01*
X9934835Y-17548169D01*
X9925311Y-17510074D01*
X9925311Y-17462455D01*
X9934835Y-17424360D01*
X9944359Y-17405312D01*
X9953883Y-17395788D01*
X9972930Y-17386264D01*
X10125311Y-17567217D02*
X10134835Y-17576741D01*
X10125311Y-17586264D01*
X10115787Y-17576741D01*
X10125311Y-17567217D01*
X10125311Y-17586264D01*
X10258645Y-17386264D02*
X10277692Y-17386264D01*
X10296740Y-17395788D01*
X10306264Y-17405312D01*
X10315787Y-17424360D01*
X10325311Y-17462455D01*
X10325311Y-17510074D01*
X10315787Y-17548169D01*
X10306264Y-17567217D01*
X10296740Y-17576741D01*
X10277692Y-17586264D01*
X10258645Y-17586264D01*
X10239597Y-17576741D01*
X10230073Y-17567217D01*
X10220549Y-17548169D01*
X10211026Y-17510074D01*
X10211026Y-17462455D01*
X10220549Y-17424360D01*
X10230073Y-17405312D01*
X10239597Y-17395788D01*
X10258645Y-17386264D01*
X10515787Y-17586264D02*
X10401502Y-17586264D01*
X10458645Y-17586264D02*
X10458645Y-17386264D01*
X10439597Y-17414836D01*
X10420549Y-17433883D01*
X10401502Y-17443407D01*
X10696740Y-17386264D02*
X10601502Y-17386264D01*
X10591978Y-17481502D01*
X10601502Y-17471979D01*
X10620549Y-17462455D01*
X10668168Y-17462455D01*
X10687216Y-17471979D01*
X10696740Y-17481502D01*
X10706264Y-17500550D01*
X10706264Y-17548169D01*
X10696740Y-17567217D01*
X10687216Y-17576741D01*
X10668168Y-17586264D01*
X10620549Y-17586264D01*
X10601502Y-17576741D01*
X10591978Y-17567217D01*
X10772930Y-17386264D02*
X10906264Y-17386264D01*
X10820549Y-17586264D01*
X10972930Y-17386264D02*
X10972930Y-17424360D01*
X11049121Y-17386264D02*
X11049121Y-17424360D01*
X11344359Y-17662455D02*
X11334835Y-17652931D01*
X11315787Y-17624360D01*
X11306264Y-17605312D01*
X11296740Y-17576741D01*
X11287216Y-17529122D01*
X11287216Y-17491026D01*
X11296740Y-17443407D01*
X11306264Y-17414836D01*
X11315787Y-17395788D01*
X11334835Y-17367217D01*
X11344359Y-17357693D01*
X11411025Y-17405312D02*
X11420549Y-17395788D01*
X11439597Y-17386264D01*
X11487216Y-17386264D01*
X11506264Y-17395788D01*
X11515787Y-17405312D01*
X11525311Y-17424360D01*
X11525311Y-17443407D01*
X11515787Y-17471979D01*
X11401502Y-17586264D01*
X11525311Y-17586264D01*
X11696740Y-17452931D02*
X11696740Y-17586264D01*
X11649121Y-17376741D02*
X11601502Y-17519598D01*
X11725311Y-17519598D01*
X11953883Y-17586264D02*
X11953883Y-17386264D01*
X12039597Y-17586264D02*
X12039597Y-17481502D01*
X12030073Y-17462455D01*
X12011025Y-17452931D01*
X11982454Y-17452931D01*
X11963406Y-17462455D01*
X11953883Y-17471979D01*
X12163406Y-17586264D02*
X12144359Y-17576741D01*
X12134835Y-17567217D01*
X12125311Y-17548169D01*
X12125311Y-17491026D01*
X12134835Y-17471979D01*
X12144359Y-17462455D01*
X12163406Y-17452931D01*
X12191978Y-17452931D01*
X12211025Y-17462455D01*
X12220549Y-17471979D01*
X12230073Y-17491026D01*
X12230073Y-17548169D01*
X12220549Y-17567217D01*
X12211025Y-17576741D01*
X12191978Y-17586264D01*
X12163406Y-17586264D01*
X12344359Y-17586264D02*
X12325311Y-17576741D01*
X12315787Y-17557693D01*
X12315787Y-17386264D01*
X12496740Y-17576741D02*
X12477692Y-17586264D01*
X12439597Y-17586264D01*
X12420549Y-17576741D01*
X12411025Y-17557693D01*
X12411025Y-17481502D01*
X12420549Y-17462455D01*
X12439597Y-17452931D01*
X12477692Y-17452931D01*
X12496740Y-17462455D01*
X12506264Y-17481502D01*
X12506264Y-17500550D01*
X12411025Y-17519598D01*
X12582454Y-17576741D02*
X12601502Y-17586264D01*
X12639597Y-17586264D01*
X12658644Y-17576741D01*
X12668168Y-17557693D01*
X12668168Y-17548169D01*
X12658644Y-17529122D01*
X12639597Y-17519598D01*
X12611025Y-17519598D01*
X12591978Y-17510074D01*
X12582454Y-17491026D01*
X12582454Y-17481502D01*
X12591978Y-17462455D01*
X12611025Y-17452931D01*
X12639597Y-17452931D01*
X12658644Y-17462455D01*
X12734835Y-17662455D02*
X12744359Y-17652931D01*
X12763406Y-17624360D01*
X12772930Y-17605312D01*
X12782454Y-17576741D01*
X12791978Y-17529122D01*
X12791978Y-17491026D01*
X12782454Y-17443407D01*
X12772930Y-17414836D01*
X12763406Y-17395788D01*
X12744359Y-17367217D01*
X12734835Y-17357693D01*
D14*
X7760739Y-17788073D02*
X7760739Y-17731504D01*
X7704170Y-17731504D01*
X7704170Y-17788073D01*
X7760739Y-17788073D01*
D11*
X8068168Y-17650264D02*
X8087216Y-17650264D01*
X8106264Y-17659788D01*
X8115787Y-17669312D01*
X8125311Y-17688360D01*
X8134835Y-17726455D01*
X8134835Y-17774074D01*
X8125311Y-17812169D01*
X8115787Y-17831217D01*
X8106264Y-17840741D01*
X8087216Y-17850264D01*
X8068168Y-17850264D01*
X8049121Y-17840741D01*
X8039597Y-17831217D01*
X8030073Y-17812169D01*
X8020549Y-17774074D01*
X8020549Y-17726455D01*
X8030073Y-17688360D01*
X8039597Y-17669312D01*
X8049121Y-17659788D01*
X8068168Y-17650264D01*
X8220549Y-17831217D02*
X8230073Y-17840741D01*
X8220549Y-17850264D01*
X8211025Y-17840741D01*
X8220549Y-17831217D01*
X8220549Y-17850264D01*
X8344359Y-17735979D02*
X8325311Y-17726455D01*
X8315787Y-17716931D01*
X8306264Y-17697883D01*
X8306264Y-17688360D01*
X8315787Y-17669312D01*
X8325311Y-17659788D01*
X8344359Y-17650264D01*
X8382454Y-17650264D01*
X8401502Y-17659788D01*
X8411026Y-17669312D01*
X8420549Y-17688360D01*
X8420549Y-17697883D01*
X8411026Y-17716931D01*
X8401502Y-17726455D01*
X8382454Y-17735979D01*
X8344359Y-17735979D01*
X8325311Y-17745502D01*
X8315787Y-17755026D01*
X8306264Y-17774074D01*
X8306264Y-17812169D01*
X8315787Y-17831217D01*
X8325311Y-17840741D01*
X8344359Y-17850264D01*
X8382454Y-17850264D01*
X8401502Y-17840741D01*
X8411026Y-17831217D01*
X8420549Y-17812169D01*
X8420549Y-17774074D01*
X8411026Y-17755026D01*
X8401502Y-17745502D01*
X8382454Y-17735979D01*
X8544359Y-17650264D02*
X8563406Y-17650264D01*
X8582454Y-17659788D01*
X8591978Y-17669312D01*
X8601502Y-17688360D01*
X8611026Y-17726455D01*
X8611026Y-17774074D01*
X8601502Y-17812169D01*
X8591978Y-17831217D01*
X8582454Y-17840741D01*
X8563406Y-17850264D01*
X8544359Y-17850264D01*
X8525311Y-17840741D01*
X8515787Y-17831217D01*
X8506264Y-17812169D01*
X8496740Y-17774074D01*
X8496740Y-17726455D01*
X8506264Y-17688360D01*
X8515787Y-17669312D01*
X8525311Y-17659788D01*
X8544359Y-17650264D01*
X8734835Y-17650264D02*
X8753883Y-17650264D01*
X8772930Y-17659788D01*
X8782454Y-17669312D01*
X8791978Y-17688360D01*
X8801502Y-17726455D01*
X8801502Y-17774074D01*
X8791978Y-17812169D01*
X8782454Y-17831217D01*
X8772930Y-17840741D01*
X8753883Y-17850264D01*
X8734835Y-17850264D01*
X8715787Y-17840741D01*
X8706264Y-17831217D01*
X8696740Y-17812169D01*
X8687216Y-17774074D01*
X8687216Y-17726455D01*
X8696740Y-17688360D01*
X8706264Y-17669312D01*
X8715787Y-17659788D01*
X8734835Y-17650264D01*
X8887216Y-17850264D02*
X8887216Y-17716931D01*
X8887216Y-17735979D02*
X8896740Y-17726455D01*
X8915787Y-17716931D01*
X8944359Y-17716931D01*
X8963406Y-17726455D01*
X8972930Y-17745502D01*
X8972930Y-17850264D01*
X8972930Y-17745502D02*
X8982454Y-17726455D01*
X9001502Y-17716931D01*
X9030073Y-17716931D01*
X9049121Y-17726455D01*
X9058645Y-17745502D01*
X9058645Y-17850264D01*
X9153883Y-17850264D02*
X9153883Y-17716931D01*
X9153883Y-17735979D02*
X9163406Y-17726455D01*
X9182454Y-17716931D01*
X9211026Y-17716931D01*
X9230073Y-17726455D01*
X9239597Y-17745502D01*
X9239597Y-17850264D01*
X9239597Y-17745502D02*
X9249121Y-17726455D01*
X9268168Y-17716931D01*
X9296740Y-17716931D01*
X9315787Y-17726455D01*
X9325311Y-17745502D01*
X9325311Y-17850264D01*
X9715787Y-17640741D02*
X9544359Y-17897883D01*
X9972930Y-17650264D02*
X9991978Y-17650264D01*
X10011026Y-17659788D01*
X10020549Y-17669312D01*
X10030073Y-17688360D01*
X10039597Y-17726455D01*
X10039597Y-17774074D01*
X10030073Y-17812169D01*
X10020549Y-17831217D01*
X10011026Y-17840741D01*
X9991978Y-17850264D01*
X9972930Y-17850264D01*
X9953883Y-17840741D01*
X9944359Y-17831217D01*
X9934835Y-17812169D01*
X9925311Y-17774074D01*
X9925311Y-17726455D01*
X9934835Y-17688360D01*
X9944359Y-17669312D01*
X9953883Y-17659788D01*
X9972930Y-17650264D01*
X10125311Y-17831217D02*
X10134835Y-17840741D01*
X10125311Y-17850264D01*
X10115787Y-17840741D01*
X10125311Y-17831217D01*
X10125311Y-17850264D01*
X10258645Y-17650264D02*
X10277692Y-17650264D01*
X10296740Y-17659788D01*
X10306264Y-17669312D01*
X10315787Y-17688360D01*
X10325311Y-17726455D01*
X10325311Y-17774074D01*
X10315787Y-17812169D01*
X10306264Y-17831217D01*
X10296740Y-17840741D01*
X10277692Y-17850264D01*
X10258645Y-17850264D01*
X10239597Y-17840741D01*
X10230073Y-17831217D01*
X10220549Y-17812169D01*
X10211026Y-17774074D01*
X10211026Y-17726455D01*
X10220549Y-17688360D01*
X10230073Y-17669312D01*
X10239597Y-17659788D01*
X10258645Y-17650264D01*
X10391978Y-17650264D02*
X10515787Y-17650264D01*
X10449121Y-17726455D01*
X10477692Y-17726455D01*
X10496740Y-17735979D01*
X10506264Y-17745502D01*
X10515787Y-17764550D01*
X10515787Y-17812169D01*
X10506264Y-17831217D01*
X10496740Y-17840741D01*
X10477692Y-17850264D01*
X10420549Y-17850264D01*
X10401502Y-17840741D01*
X10391978Y-17831217D01*
X10706264Y-17850264D02*
X10591978Y-17850264D01*
X10649121Y-17850264D02*
X10649121Y-17650264D01*
X10630073Y-17678836D01*
X10611026Y-17697883D01*
X10591978Y-17707407D01*
X10887216Y-17650264D02*
X10791978Y-17650264D01*
X10782454Y-17745502D01*
X10791978Y-17735979D01*
X10811026Y-17726455D01*
X10858645Y-17726455D01*
X10877692Y-17735979D01*
X10887216Y-17745502D01*
X10896740Y-17764550D01*
X10896740Y-17812169D01*
X10887216Y-17831217D01*
X10877692Y-17840741D01*
X10858645Y-17850264D01*
X10811026Y-17850264D01*
X10791978Y-17840741D01*
X10782454Y-17831217D01*
X10972930Y-17650264D02*
X10972930Y-17688360D01*
X11049121Y-17650264D02*
X11049121Y-17688360D01*
X11344359Y-17926455D02*
X11334835Y-17916931D01*
X11315787Y-17888360D01*
X11306264Y-17869312D01*
X11296740Y-17840741D01*
X11287216Y-17793122D01*
X11287216Y-17755026D01*
X11296740Y-17707407D01*
X11306264Y-17678836D01*
X11315787Y-17659788D01*
X11334835Y-17631217D01*
X11344359Y-17621693D01*
X11411025Y-17669312D02*
X11420549Y-17659788D01*
X11439597Y-17650264D01*
X11487216Y-17650264D01*
X11506264Y-17659788D01*
X11515787Y-17669312D01*
X11525311Y-17688360D01*
X11525311Y-17707407D01*
X11515787Y-17735979D01*
X11401502Y-17850264D01*
X11525311Y-17850264D01*
X11763406Y-17850264D02*
X11763406Y-17650264D01*
X11849121Y-17850264D02*
X11849121Y-17745502D01*
X11839597Y-17726455D01*
X11820549Y-17716931D01*
X11791978Y-17716931D01*
X11772930Y-17726455D01*
X11763406Y-17735979D01*
X11972930Y-17850264D02*
X11953883Y-17840741D01*
X11944359Y-17831217D01*
X11934835Y-17812169D01*
X11934835Y-17755026D01*
X11944359Y-17735979D01*
X11953883Y-17726455D01*
X11972930Y-17716931D01*
X12001502Y-17716931D01*
X12020549Y-17726455D01*
X12030073Y-17735979D01*
X12039597Y-17755026D01*
X12039597Y-17812169D01*
X12030073Y-17831217D01*
X12020549Y-17840741D01*
X12001502Y-17850264D01*
X11972930Y-17850264D01*
X12153883Y-17850264D02*
X12134835Y-17840741D01*
X12125311Y-17821693D01*
X12125311Y-17650264D01*
X12306264Y-17840741D02*
X12287216Y-17850264D01*
X12249121Y-17850264D01*
X12230073Y-17840741D01*
X12220549Y-17821693D01*
X12220549Y-17745502D01*
X12230073Y-17726455D01*
X12249121Y-17716931D01*
X12287216Y-17716931D01*
X12306264Y-17726455D01*
X12315787Y-17745502D01*
X12315787Y-17764550D01*
X12220549Y-17783598D01*
X12391978Y-17840741D02*
X12411025Y-17850264D01*
X12449121Y-17850264D01*
X12468168Y-17840741D01*
X12477692Y-17821693D01*
X12477692Y-17812169D01*
X12468168Y-17793122D01*
X12449121Y-17783598D01*
X12420549Y-17783598D01*
X12401502Y-17774074D01*
X12391978Y-17755026D01*
X12391978Y-17745502D01*
X12401502Y-17726455D01*
X12420549Y-17716931D01*
X12449121Y-17716931D01*
X12468168Y-17726455D01*
X12544359Y-17926455D02*
X12553883Y-17916931D01*
X12572930Y-17888360D01*
X12582454Y-17869312D01*
X12591978Y-17840741D01*
X12601502Y-17793122D01*
X12601502Y-17755026D01*
X12591978Y-17707407D01*
X12582454Y-17678836D01*
X12572930Y-17659788D01*
X12553883Y-17631217D01*
X12544359Y-17621693D01*
D15*
X7731814Y-18064428D02*
X7772454Y-18023788D01*
X7731814Y-17983148D01*
X7691174Y-18023788D01*
X7731814Y-18064428D01*
D11*
X8068168Y-17914264D02*
X8087216Y-17914264D01*
X8106264Y-17923788D01*
X8115787Y-17933312D01*
X8125311Y-17952360D01*
X8134835Y-17990455D01*
X8134835Y-18038074D01*
X8125311Y-18076169D01*
X8115787Y-18095217D01*
X8106264Y-18104741D01*
X8087216Y-18114264D01*
X8068168Y-18114264D01*
X8049121Y-18104741D01*
X8039597Y-18095217D01*
X8030073Y-18076169D01*
X8020549Y-18038074D01*
X8020549Y-17990455D01*
X8030073Y-17952360D01*
X8039597Y-17933312D01*
X8049121Y-17923788D01*
X8068168Y-17914264D01*
X8220549Y-18095217D02*
X8230073Y-18104741D01*
X8220549Y-18114264D01*
X8211025Y-18104741D01*
X8220549Y-18095217D01*
X8220549Y-18114264D01*
X8344359Y-17999979D02*
X8325311Y-17990455D01*
X8315787Y-17980931D01*
X8306264Y-17961883D01*
X8306264Y-17952360D01*
X8315787Y-17933312D01*
X8325311Y-17923788D01*
X8344359Y-17914264D01*
X8382454Y-17914264D01*
X8401502Y-17923788D01*
X8411026Y-17933312D01*
X8420549Y-17952360D01*
X8420549Y-17961883D01*
X8411026Y-17980931D01*
X8401502Y-17990455D01*
X8382454Y-17999979D01*
X8344359Y-17999979D01*
X8325311Y-18009502D01*
X8315787Y-18019026D01*
X8306264Y-18038074D01*
X8306264Y-18076169D01*
X8315787Y-18095217D01*
X8325311Y-18104741D01*
X8344359Y-18114264D01*
X8382454Y-18114264D01*
X8401502Y-18104741D01*
X8411026Y-18095217D01*
X8420549Y-18076169D01*
X8420549Y-18038074D01*
X8411026Y-18019026D01*
X8401502Y-18009502D01*
X8382454Y-17999979D01*
X8611026Y-18114264D02*
X8496740Y-18114264D01*
X8553883Y-18114264D02*
X8553883Y-17914264D01*
X8534835Y-17942836D01*
X8515787Y-17961883D01*
X8496740Y-17971407D01*
X8677692Y-17914264D02*
X8801502Y-17914264D01*
X8734835Y-17990455D01*
X8763406Y-17990455D01*
X8782454Y-17999979D01*
X8791978Y-18009502D01*
X8801502Y-18028550D01*
X8801502Y-18076169D01*
X8791978Y-18095217D01*
X8782454Y-18104741D01*
X8763406Y-18114264D01*
X8706264Y-18114264D01*
X8687216Y-18104741D01*
X8677692Y-18095217D01*
X8887216Y-18114264D02*
X8887216Y-17980931D01*
X8887216Y-17999979D02*
X8896740Y-17990455D01*
X8915787Y-17980931D01*
X8944359Y-17980931D01*
X8963406Y-17990455D01*
X8972930Y-18009502D01*
X8972930Y-18114264D01*
X8972930Y-18009502D02*
X8982454Y-17990455D01*
X9001502Y-17980931D01*
X9030073Y-17980931D01*
X9049121Y-17990455D01*
X9058645Y-18009502D01*
X9058645Y-18114264D01*
X9153883Y-18114264D02*
X9153883Y-17980931D01*
X9153883Y-17999979D02*
X9163406Y-17990455D01*
X9182454Y-17980931D01*
X9211026Y-17980931D01*
X9230073Y-17990455D01*
X9239597Y-18009502D01*
X9239597Y-18114264D01*
X9239597Y-18009502D02*
X9249121Y-17990455D01*
X9268168Y-17980931D01*
X9296740Y-17980931D01*
X9315787Y-17990455D01*
X9325311Y-18009502D01*
X9325311Y-18114264D01*
X9715787Y-17904741D02*
X9544359Y-18161883D01*
X9972930Y-17914264D02*
X9991978Y-17914264D01*
X10011026Y-17923788D01*
X10020549Y-17933312D01*
X10030073Y-17952360D01*
X10039597Y-17990455D01*
X10039597Y-18038074D01*
X10030073Y-18076169D01*
X10020549Y-18095217D01*
X10011026Y-18104741D01*
X9991978Y-18114264D01*
X9972930Y-18114264D01*
X9953883Y-18104741D01*
X9944359Y-18095217D01*
X9934835Y-18076169D01*
X9925311Y-18038074D01*
X9925311Y-17990455D01*
X9934835Y-17952360D01*
X9944359Y-17933312D01*
X9953883Y-17923788D01*
X9972930Y-17914264D01*
X10125311Y-18095217D02*
X10134835Y-18104741D01*
X10125311Y-18114264D01*
X10115787Y-18104741D01*
X10125311Y-18095217D01*
X10125311Y-18114264D01*
X10258645Y-17914264D02*
X10277692Y-17914264D01*
X10296740Y-17923788D01*
X10306264Y-17933312D01*
X10315787Y-17952360D01*
X10325311Y-17990455D01*
X10325311Y-18038074D01*
X10315787Y-18076169D01*
X10306264Y-18095217D01*
X10296740Y-18104741D01*
X10277692Y-18114264D01*
X10258645Y-18114264D01*
X10239597Y-18104741D01*
X10230073Y-18095217D01*
X10220549Y-18076169D01*
X10211026Y-18038074D01*
X10211026Y-17990455D01*
X10220549Y-17952360D01*
X10230073Y-17933312D01*
X10239597Y-17923788D01*
X10258645Y-17914264D01*
X10391978Y-17914264D02*
X10515787Y-17914264D01*
X10449121Y-17990455D01*
X10477692Y-17990455D01*
X10496740Y-17999979D01*
X10506264Y-18009502D01*
X10515787Y-18028550D01*
X10515787Y-18076169D01*
X10506264Y-18095217D01*
X10496740Y-18104741D01*
X10477692Y-18114264D01*
X10420549Y-18114264D01*
X10401502Y-18104741D01*
X10391978Y-18095217D01*
X10591978Y-17933312D02*
X10601502Y-17923788D01*
X10620549Y-17914264D01*
X10668168Y-17914264D01*
X10687216Y-17923788D01*
X10696740Y-17933312D01*
X10706264Y-17952360D01*
X10706264Y-17971407D01*
X10696740Y-17999979D01*
X10582454Y-18114264D01*
X10706264Y-18114264D01*
X10830073Y-17914264D02*
X10849121Y-17914264D01*
X10868168Y-17923788D01*
X10877692Y-17933312D01*
X10887216Y-17952360D01*
X10896740Y-17990455D01*
X10896740Y-18038074D01*
X10887216Y-18076169D01*
X10877692Y-18095217D01*
X10868168Y-18104741D01*
X10849121Y-18114264D01*
X10830073Y-18114264D01*
X10811026Y-18104741D01*
X10801502Y-18095217D01*
X10791978Y-18076169D01*
X10782454Y-18038074D01*
X10782454Y-17990455D01*
X10791978Y-17952360D01*
X10801502Y-17933312D01*
X10811026Y-17923788D01*
X10830073Y-17914264D01*
X10972930Y-17914264D02*
X10972930Y-17952360D01*
X11049121Y-17914264D02*
X11049121Y-17952360D01*
X11344359Y-18190455D02*
X11334835Y-18180931D01*
X11315787Y-18152360D01*
X11306264Y-18133312D01*
X11296740Y-18104741D01*
X11287216Y-18057122D01*
X11287216Y-18019026D01*
X11296740Y-17971407D01*
X11306264Y-17942836D01*
X11315787Y-17923788D01*
X11334835Y-17895217D01*
X11344359Y-17885693D01*
X11506264Y-17980931D02*
X11506264Y-18114264D01*
X11458644Y-17904741D02*
X11411025Y-18047598D01*
X11534835Y-18047598D01*
X11639597Y-17999979D02*
X11620549Y-17990455D01*
X11611025Y-17980931D01*
X11601502Y-17961883D01*
X11601502Y-17952360D01*
X11611025Y-17933312D01*
X11620549Y-17923788D01*
X11639597Y-17914264D01*
X11677692Y-17914264D01*
X11696740Y-17923788D01*
X11706264Y-17933312D01*
X11715787Y-17952360D01*
X11715787Y-17961883D01*
X11706264Y-17980931D01*
X11696740Y-17990455D01*
X11677692Y-17999979D01*
X11639597Y-17999979D01*
X11620549Y-18009502D01*
X11611025Y-18019026D01*
X11601502Y-18038074D01*
X11601502Y-18076169D01*
X11611025Y-18095217D01*
X11620549Y-18104741D01*
X11639597Y-18114264D01*
X11677692Y-18114264D01*
X11696740Y-18104741D01*
X11706264Y-18095217D01*
X11715787Y-18076169D01*
X11715787Y-18038074D01*
X11706264Y-18019026D01*
X11696740Y-18009502D01*
X11677692Y-17999979D01*
X11953883Y-18114264D02*
X11953883Y-17914264D01*
X12039597Y-18114264D02*
X12039597Y-18009502D01*
X12030073Y-17990455D01*
X12011025Y-17980931D01*
X11982454Y-17980931D01*
X11963406Y-17990455D01*
X11953883Y-17999979D01*
X12163406Y-18114264D02*
X12144359Y-18104741D01*
X12134835Y-18095217D01*
X12125311Y-18076169D01*
X12125311Y-18019026D01*
X12134835Y-17999979D01*
X12144359Y-17990455D01*
X12163406Y-17980931D01*
X12191978Y-17980931D01*
X12211025Y-17990455D01*
X12220549Y-17999979D01*
X12230073Y-18019026D01*
X12230073Y-18076169D01*
X12220549Y-18095217D01*
X12211025Y-18104741D01*
X12191978Y-18114264D01*
X12163406Y-18114264D01*
X12344359Y-18114264D02*
X12325311Y-18104741D01*
X12315787Y-18085693D01*
X12315787Y-17914264D01*
X12496740Y-18104741D02*
X12477692Y-18114264D01*
X12439597Y-18114264D01*
X12420549Y-18104741D01*
X12411025Y-18085693D01*
X12411025Y-18009502D01*
X12420549Y-17990455D01*
X12439597Y-17980931D01*
X12477692Y-17980931D01*
X12496740Y-17990455D01*
X12506264Y-18009502D01*
X12506264Y-18028550D01*
X12411025Y-18047598D01*
X12582454Y-18104741D02*
X12601502Y-18114264D01*
X12639597Y-18114264D01*
X12658644Y-18104741D01*
X12668168Y-18085693D01*
X12668168Y-18076169D01*
X12658644Y-18057122D01*
X12639597Y-18047598D01*
X12611025Y-18047598D01*
X12591978Y-18038074D01*
X12582454Y-18019026D01*
X12582454Y-18009502D01*
X12591978Y-17990455D01*
X12611025Y-17980931D01*
X12639597Y-17980931D01*
X12658644Y-17990455D01*
X12734835Y-18190455D02*
X12744359Y-18180931D01*
X12763406Y-18152360D01*
X12772930Y-18133312D01*
X12782454Y-18104741D01*
X12791978Y-18057122D01*
X12791978Y-18019026D01*
X12782454Y-17971407D01*
X12772930Y-17942836D01*
X12763406Y-17923788D01*
X12744359Y-17895217D01*
X12734835Y-17885693D01*
D16*
X7682454Y-18242788D02*
X7772454Y-18332788D01*
X7772454Y-18242788D02*
X7682454Y-18332788D01*
X7772454Y-18287788D02*
G75*
G03*
X7772454Y-18287788I-45000J0D01*
G01*
D11*
X8068168Y-18178264D02*
X8087216Y-18178264D01*
X8106264Y-18187788D01*
X8115787Y-18197312D01*
X8125311Y-18216360D01*
X8134835Y-18254455D01*
X8134835Y-18302074D01*
X8125311Y-18340169D01*
X8115787Y-18359217D01*
X8106264Y-18368741D01*
X8087216Y-18378264D01*
X8068168Y-18378264D01*
X8049121Y-18368741D01*
X8039597Y-18359217D01*
X8030073Y-18340169D01*
X8020549Y-18302074D01*
X8020549Y-18254455D01*
X8030073Y-18216360D01*
X8039597Y-18197312D01*
X8049121Y-18187788D01*
X8068168Y-18178264D01*
X8220549Y-18359217D02*
X8230073Y-18368741D01*
X8220549Y-18378264D01*
X8211025Y-18368741D01*
X8220549Y-18359217D01*
X8220549Y-18378264D01*
X8325311Y-18378264D02*
X8363406Y-18378264D01*
X8382454Y-18368741D01*
X8391978Y-18359217D01*
X8411026Y-18330645D01*
X8420549Y-18292550D01*
X8420549Y-18216360D01*
X8411026Y-18197312D01*
X8401502Y-18187788D01*
X8382454Y-18178264D01*
X8344359Y-18178264D01*
X8325311Y-18187788D01*
X8315787Y-18197312D01*
X8306264Y-18216360D01*
X8306264Y-18263979D01*
X8315787Y-18283026D01*
X8325311Y-18292550D01*
X8344359Y-18302074D01*
X8382454Y-18302074D01*
X8401502Y-18292550D01*
X8411026Y-18283026D01*
X8420549Y-18263979D01*
X8544359Y-18178264D02*
X8563406Y-18178264D01*
X8582454Y-18187788D01*
X8591978Y-18197312D01*
X8601502Y-18216360D01*
X8611026Y-18254455D01*
X8611026Y-18302074D01*
X8601502Y-18340169D01*
X8591978Y-18359217D01*
X8582454Y-18368741D01*
X8563406Y-18378264D01*
X8544359Y-18378264D01*
X8525311Y-18368741D01*
X8515787Y-18359217D01*
X8506264Y-18340169D01*
X8496740Y-18302074D01*
X8496740Y-18254455D01*
X8506264Y-18216360D01*
X8515787Y-18197312D01*
X8525311Y-18187788D01*
X8544359Y-18178264D01*
X8734835Y-18178264D02*
X8753883Y-18178264D01*
X8772930Y-18187788D01*
X8782454Y-18197312D01*
X8791978Y-18216360D01*
X8801502Y-18254455D01*
X8801502Y-18302074D01*
X8791978Y-18340169D01*
X8782454Y-18359217D01*
X8772930Y-18368741D01*
X8753883Y-18378264D01*
X8734835Y-18378264D01*
X8715787Y-18368741D01*
X8706264Y-18359217D01*
X8696740Y-18340169D01*
X8687216Y-18302074D01*
X8687216Y-18254455D01*
X8696740Y-18216360D01*
X8706264Y-18197312D01*
X8715787Y-18187788D01*
X8734835Y-18178264D01*
X8887216Y-18378264D02*
X8887216Y-18244931D01*
X8887216Y-18263979D02*
X8896740Y-18254455D01*
X8915787Y-18244931D01*
X8944359Y-18244931D01*
X8963406Y-18254455D01*
X8972930Y-18273502D01*
X8972930Y-18378264D01*
X8972930Y-18273502D02*
X8982454Y-18254455D01*
X9001502Y-18244931D01*
X9030073Y-18244931D01*
X9049121Y-18254455D01*
X9058645Y-18273502D01*
X9058645Y-18378264D01*
X9153883Y-18378264D02*
X9153883Y-18244931D01*
X9153883Y-18263979D02*
X9163406Y-18254455D01*
X9182454Y-18244931D01*
X9211026Y-18244931D01*
X9230073Y-18254455D01*
X9239597Y-18273502D01*
X9239597Y-18378264D01*
X9239597Y-18273502D02*
X9249121Y-18254455D01*
X9268168Y-18244931D01*
X9296740Y-18244931D01*
X9315787Y-18254455D01*
X9325311Y-18273502D01*
X9325311Y-18378264D01*
X9715787Y-18168741D02*
X9544359Y-18425883D01*
X9972930Y-18178264D02*
X9991978Y-18178264D01*
X10011026Y-18187788D01*
X10020549Y-18197312D01*
X10030073Y-18216360D01*
X10039597Y-18254455D01*
X10039597Y-18302074D01*
X10030073Y-18340169D01*
X10020549Y-18359217D01*
X10011026Y-18368741D01*
X9991978Y-18378264D01*
X9972930Y-18378264D01*
X9953883Y-18368741D01*
X9944359Y-18359217D01*
X9934835Y-18340169D01*
X9925311Y-18302074D01*
X9925311Y-18254455D01*
X9934835Y-18216360D01*
X9944359Y-18197312D01*
X9953883Y-18187788D01*
X9972930Y-18178264D01*
X10125311Y-18359217D02*
X10134835Y-18368741D01*
X10125311Y-18378264D01*
X10115787Y-18368741D01*
X10125311Y-18359217D01*
X10125311Y-18378264D01*
X10258645Y-18178264D02*
X10277692Y-18178264D01*
X10296740Y-18187788D01*
X10306264Y-18197312D01*
X10315787Y-18216360D01*
X10325311Y-18254455D01*
X10325311Y-18302074D01*
X10315787Y-18340169D01*
X10306264Y-18359217D01*
X10296740Y-18368741D01*
X10277692Y-18378264D01*
X10258645Y-18378264D01*
X10239597Y-18368741D01*
X10230073Y-18359217D01*
X10220549Y-18340169D01*
X10211026Y-18302074D01*
X10211026Y-18254455D01*
X10220549Y-18216360D01*
X10230073Y-18197312D01*
X10239597Y-18187788D01*
X10258645Y-18178264D01*
X10391978Y-18178264D02*
X10515787Y-18178264D01*
X10449121Y-18254455D01*
X10477692Y-18254455D01*
X10496740Y-18263979D01*
X10506264Y-18273502D01*
X10515787Y-18292550D01*
X10515787Y-18340169D01*
X10506264Y-18359217D01*
X10496740Y-18368741D01*
X10477692Y-18378264D01*
X10420549Y-18378264D01*
X10401502Y-18368741D01*
X10391978Y-18359217D01*
X10696740Y-18178264D02*
X10601502Y-18178264D01*
X10591978Y-18273502D01*
X10601502Y-18263979D01*
X10620549Y-18254455D01*
X10668168Y-18254455D01*
X10687216Y-18263979D01*
X10696740Y-18273502D01*
X10706264Y-18292550D01*
X10706264Y-18340169D01*
X10696740Y-18359217D01*
X10687216Y-18368741D01*
X10668168Y-18378264D01*
X10620549Y-18378264D01*
X10601502Y-18368741D01*
X10591978Y-18359217D01*
X10877692Y-18244931D02*
X10877692Y-18378264D01*
X10830073Y-18168741D02*
X10782454Y-18311598D01*
X10906264Y-18311598D01*
X10972930Y-18178264D02*
X10972930Y-18216360D01*
X11049121Y-18178264D02*
X11049121Y-18216360D01*
X11344359Y-18454455D02*
X11334835Y-18444931D01*
X11315787Y-18416360D01*
X11306264Y-18397312D01*
X11296740Y-18368741D01*
X11287216Y-18321122D01*
X11287216Y-18283026D01*
X11296740Y-18235407D01*
X11306264Y-18206836D01*
X11315787Y-18187788D01*
X11334835Y-18159217D01*
X11344359Y-18149693D01*
X11458644Y-18178264D02*
X11477692Y-18178264D01*
X11496740Y-18187788D01*
X11506264Y-18197312D01*
X11515787Y-18216360D01*
X11525311Y-18254455D01*
X11525311Y-18302074D01*
X11515787Y-18340169D01*
X11506264Y-18359217D01*
X11496740Y-18368741D01*
X11477692Y-18378264D01*
X11458644Y-18378264D01*
X11439597Y-18368741D01*
X11430073Y-18359217D01*
X11420549Y-18340169D01*
X11411025Y-18302074D01*
X11411025Y-18254455D01*
X11420549Y-18216360D01*
X11430073Y-18197312D01*
X11439597Y-18187788D01*
X11458644Y-18178264D01*
X11763406Y-18378264D02*
X11763406Y-18178264D01*
X11849121Y-18378264D02*
X11849121Y-18273502D01*
X11839597Y-18254455D01*
X11820549Y-18244931D01*
X11791978Y-18244931D01*
X11772930Y-18254455D01*
X11763406Y-18263979D01*
X11972930Y-18378264D02*
X11953883Y-18368741D01*
X11944359Y-18359217D01*
X11934835Y-18340169D01*
X11934835Y-18283026D01*
X11944359Y-18263979D01*
X11953883Y-18254455D01*
X11972930Y-18244931D01*
X12001502Y-18244931D01*
X12020549Y-18254455D01*
X12030073Y-18263979D01*
X12039597Y-18283026D01*
X12039597Y-18340169D01*
X12030073Y-18359217D01*
X12020549Y-18368741D01*
X12001502Y-18378264D01*
X11972930Y-18378264D01*
X12153883Y-18378264D02*
X12134835Y-18368741D01*
X12125311Y-18349693D01*
X12125311Y-18178264D01*
X12306264Y-18368741D02*
X12287216Y-18378264D01*
X12249121Y-18378264D01*
X12230073Y-18368741D01*
X12220549Y-18349693D01*
X12220549Y-18273502D01*
X12230073Y-18254455D01*
X12249121Y-18244931D01*
X12287216Y-18244931D01*
X12306264Y-18254455D01*
X12315787Y-18273502D01*
X12315787Y-18292550D01*
X12220549Y-18311598D01*
X12391978Y-18368741D02*
X12411025Y-18378264D01*
X12449121Y-18378264D01*
X12468168Y-18368741D01*
X12477692Y-18349693D01*
X12477692Y-18340169D01*
X12468168Y-18321122D01*
X12449121Y-18311598D01*
X12420549Y-18311598D01*
X12401502Y-18302074D01*
X12391978Y-18283026D01*
X12391978Y-18273502D01*
X12401502Y-18254455D01*
X12420549Y-18244931D01*
X12449121Y-18244931D01*
X12468168Y-18254455D01*
X12715787Y-18302074D02*
X12868168Y-18302074D01*
X12791978Y-18378264D02*
X12791978Y-18225883D01*
X13211025Y-18178264D02*
X13115787Y-18178264D01*
X13106264Y-18273502D01*
X13115787Y-18263979D01*
X13134835Y-18254455D01*
X13182454Y-18254455D01*
X13201502Y-18263979D01*
X13211025Y-18273502D01*
X13220549Y-18292550D01*
X13220549Y-18340169D01*
X13211025Y-18359217D01*
X13201502Y-18368741D01*
X13182454Y-18378264D01*
X13134835Y-18378264D01*
X13115787Y-18368741D01*
X13106264Y-18359217D01*
X13449121Y-18368741D02*
X13468168Y-18378264D01*
X13506264Y-18378264D01*
X13525311Y-18368741D01*
X13534835Y-18349693D01*
X13534835Y-18340169D01*
X13525311Y-18321122D01*
X13506264Y-18311598D01*
X13477692Y-18311598D01*
X13458644Y-18302074D01*
X13449121Y-18283026D01*
X13449121Y-18273502D01*
X13458644Y-18254455D01*
X13477692Y-18244931D01*
X13506264Y-18244931D01*
X13525311Y-18254455D01*
X13649121Y-18378264D02*
X13630073Y-18368741D01*
X13620549Y-18349693D01*
X13620549Y-18178264D01*
X13753883Y-18378264D02*
X13734835Y-18368741D01*
X13725311Y-18359217D01*
X13715787Y-18340169D01*
X13715787Y-18283026D01*
X13725311Y-18263979D01*
X13734835Y-18254455D01*
X13753883Y-18244931D01*
X13782454Y-18244931D01*
X13801502Y-18254455D01*
X13811025Y-18263979D01*
X13820549Y-18283026D01*
X13820549Y-18340169D01*
X13811025Y-18359217D01*
X13801502Y-18368741D01*
X13782454Y-18378264D01*
X13753883Y-18378264D01*
X13877692Y-18244931D02*
X13953883Y-18244931D01*
X13906264Y-18178264D02*
X13906264Y-18349693D01*
X13915787Y-18368741D01*
X13934835Y-18378264D01*
X13953883Y-18378264D01*
X14011025Y-18368741D02*
X14030073Y-18378264D01*
X14068168Y-18378264D01*
X14087216Y-18368741D01*
X14096740Y-18349693D01*
X14096740Y-18340169D01*
X14087216Y-18321122D01*
X14068168Y-18311598D01*
X14039597Y-18311598D01*
X14020549Y-18302074D01*
X14011025Y-18283026D01*
X14011025Y-18273502D01*
X14020549Y-18254455D01*
X14039597Y-18244931D01*
X14068168Y-18244931D01*
X14087216Y-18254455D01*
X14163406Y-18454455D02*
X14172930Y-18444931D01*
X14191978Y-18416360D01*
X14201502Y-18397312D01*
X14211025Y-18368741D01*
X14220549Y-18321122D01*
X14220549Y-18283026D01*
X14211025Y-18235407D01*
X14201502Y-18206836D01*
X14191978Y-18187788D01*
X14172930Y-18159217D01*
X14163406Y-18149693D01*
D17*
X7672454Y-18501788D02*
X7772454Y-18601788D01*
X7772454Y-18501788D02*
X7672454Y-18601788D01*
X7722454Y-18501788D02*
X7722454Y-18601788D01*
X7672454Y-18551788D02*
X7772454Y-18551788D01*
D11*
X8134835Y-18642264D02*
X8020549Y-18642264D01*
X8077692Y-18642264D02*
X8077692Y-18442264D01*
X8058644Y-18470836D01*
X8039597Y-18489883D01*
X8020549Y-18499407D01*
X8220549Y-18623217D02*
X8230073Y-18632741D01*
X8220549Y-18642264D01*
X8211025Y-18632741D01*
X8220549Y-18623217D01*
X8220549Y-18642264D01*
X8353883Y-18442264D02*
X8372930Y-18442264D01*
X8391978Y-18451788D01*
X8401502Y-18461312D01*
X8411026Y-18480360D01*
X8420549Y-18518455D01*
X8420549Y-18566074D01*
X8411026Y-18604169D01*
X8401502Y-18623217D01*
X8391978Y-18632741D01*
X8372930Y-18642264D01*
X8353883Y-18642264D01*
X8334835Y-18632741D01*
X8325311Y-18623217D01*
X8315787Y-18604169D01*
X8306264Y-18566074D01*
X8306264Y-18518455D01*
X8315787Y-18480360D01*
X8325311Y-18461312D01*
X8334835Y-18451788D01*
X8353883Y-18442264D01*
X8544359Y-18442264D02*
X8563406Y-18442264D01*
X8582454Y-18451788D01*
X8591978Y-18461312D01*
X8601502Y-18480360D01*
X8611026Y-18518455D01*
X8611026Y-18566074D01*
X8601502Y-18604169D01*
X8591978Y-18623217D01*
X8582454Y-18632741D01*
X8563406Y-18642264D01*
X8544359Y-18642264D01*
X8525311Y-18632741D01*
X8515787Y-18623217D01*
X8506264Y-18604169D01*
X8496740Y-18566074D01*
X8496740Y-18518455D01*
X8506264Y-18480360D01*
X8515787Y-18461312D01*
X8525311Y-18451788D01*
X8544359Y-18442264D01*
X8734835Y-18442264D02*
X8753883Y-18442264D01*
X8772930Y-18451788D01*
X8782454Y-18461312D01*
X8791978Y-18480360D01*
X8801502Y-18518455D01*
X8801502Y-18566074D01*
X8791978Y-18604169D01*
X8782454Y-18623217D01*
X8772930Y-18632741D01*
X8753883Y-18642264D01*
X8734835Y-18642264D01*
X8715787Y-18632741D01*
X8706264Y-18623217D01*
X8696740Y-18604169D01*
X8687216Y-18566074D01*
X8687216Y-18518455D01*
X8696740Y-18480360D01*
X8706264Y-18461312D01*
X8715787Y-18451788D01*
X8734835Y-18442264D01*
X8887216Y-18642264D02*
X8887216Y-18508931D01*
X8887216Y-18527979D02*
X8896740Y-18518455D01*
X8915787Y-18508931D01*
X8944359Y-18508931D01*
X8963406Y-18518455D01*
X8972930Y-18537502D01*
X8972930Y-18642264D01*
X8972930Y-18537502D02*
X8982454Y-18518455D01*
X9001502Y-18508931D01*
X9030073Y-18508931D01*
X9049121Y-18518455D01*
X9058645Y-18537502D01*
X9058645Y-18642264D01*
X9153883Y-18642264D02*
X9153883Y-18508931D01*
X9153883Y-18527979D02*
X9163406Y-18518455D01*
X9182454Y-18508931D01*
X9211026Y-18508931D01*
X9230073Y-18518455D01*
X9239597Y-18537502D01*
X9239597Y-18642264D01*
X9239597Y-18537502D02*
X9249121Y-18518455D01*
X9268168Y-18508931D01*
X9296740Y-18508931D01*
X9315787Y-18518455D01*
X9325311Y-18537502D01*
X9325311Y-18642264D01*
X9715787Y-18432741D02*
X9544359Y-18689883D01*
X9972930Y-18442264D02*
X9991978Y-18442264D01*
X10011026Y-18451788D01*
X10020549Y-18461312D01*
X10030073Y-18480360D01*
X10039597Y-18518455D01*
X10039597Y-18566074D01*
X10030073Y-18604169D01*
X10020549Y-18623217D01*
X10011026Y-18632741D01*
X9991978Y-18642264D01*
X9972930Y-18642264D01*
X9953883Y-18632741D01*
X9944359Y-18623217D01*
X9934835Y-18604169D01*
X9925311Y-18566074D01*
X9925311Y-18518455D01*
X9934835Y-18480360D01*
X9944359Y-18461312D01*
X9953883Y-18451788D01*
X9972930Y-18442264D01*
X10125311Y-18623217D02*
X10134835Y-18632741D01*
X10125311Y-18642264D01*
X10115787Y-18632741D01*
X10125311Y-18623217D01*
X10125311Y-18642264D01*
X10258645Y-18442264D02*
X10277692Y-18442264D01*
X10296740Y-18451788D01*
X10306264Y-18461312D01*
X10315787Y-18480360D01*
X10325311Y-18518455D01*
X10325311Y-18566074D01*
X10315787Y-18604169D01*
X10306264Y-18623217D01*
X10296740Y-18632741D01*
X10277692Y-18642264D01*
X10258645Y-18642264D01*
X10239597Y-18632741D01*
X10230073Y-18623217D01*
X10220549Y-18604169D01*
X10211026Y-18566074D01*
X10211026Y-18518455D01*
X10220549Y-18480360D01*
X10230073Y-18461312D01*
X10239597Y-18451788D01*
X10258645Y-18442264D01*
X10391978Y-18442264D02*
X10515787Y-18442264D01*
X10449121Y-18518455D01*
X10477692Y-18518455D01*
X10496740Y-18527979D01*
X10506264Y-18537502D01*
X10515787Y-18556550D01*
X10515787Y-18604169D01*
X10506264Y-18623217D01*
X10496740Y-18632741D01*
X10477692Y-18642264D01*
X10420549Y-18642264D01*
X10401502Y-18632741D01*
X10391978Y-18623217D01*
X10611026Y-18642264D02*
X10649121Y-18642264D01*
X10668168Y-18632741D01*
X10677692Y-18623217D01*
X10696740Y-18594645D01*
X10706264Y-18556550D01*
X10706264Y-18480360D01*
X10696740Y-18461312D01*
X10687216Y-18451788D01*
X10668168Y-18442264D01*
X10630073Y-18442264D01*
X10611026Y-18451788D01*
X10601502Y-18461312D01*
X10591978Y-18480360D01*
X10591978Y-18527979D01*
X10601502Y-18547026D01*
X10611026Y-18556550D01*
X10630073Y-18566074D01*
X10668168Y-18566074D01*
X10687216Y-18556550D01*
X10696740Y-18547026D01*
X10706264Y-18527979D01*
X10877692Y-18508931D02*
X10877692Y-18642264D01*
X10830073Y-18432741D02*
X10782454Y-18575598D01*
X10906264Y-18575598D01*
X10972930Y-18442264D02*
X10972930Y-18480360D01*
X11049121Y-18442264D02*
X11049121Y-18480360D01*
X11344359Y-18718455D02*
X11334835Y-18708931D01*
X11315787Y-18680360D01*
X11306264Y-18661312D01*
X11296740Y-18632741D01*
X11287216Y-18585122D01*
X11287216Y-18547026D01*
X11296740Y-18499407D01*
X11306264Y-18470836D01*
X11315787Y-18451788D01*
X11334835Y-18423217D01*
X11344359Y-18413693D01*
X11525311Y-18642264D02*
X11411025Y-18642264D01*
X11468168Y-18642264D02*
X11468168Y-18442264D01*
X11449121Y-18470836D01*
X11430073Y-18489883D01*
X11411025Y-18499407D01*
X11696740Y-18508931D02*
X11696740Y-18642264D01*
X11649121Y-18432741D02*
X11601502Y-18575598D01*
X11725311Y-18575598D01*
X11953883Y-18642264D02*
X11953883Y-18442264D01*
X12039597Y-18642264D02*
X12039597Y-18537502D01*
X12030073Y-18518455D01*
X12011025Y-18508931D01*
X11982454Y-18508931D01*
X11963406Y-18518455D01*
X11953883Y-18527979D01*
X12163406Y-18642264D02*
X12144359Y-18632741D01*
X12134835Y-18623217D01*
X12125311Y-18604169D01*
X12125311Y-18547026D01*
X12134835Y-18527979D01*
X12144359Y-18518455D01*
X12163406Y-18508931D01*
X12191978Y-18508931D01*
X12211025Y-18518455D01*
X12220549Y-18527979D01*
X12230073Y-18547026D01*
X12230073Y-18604169D01*
X12220549Y-18623217D01*
X12211025Y-18632741D01*
X12191978Y-18642264D01*
X12163406Y-18642264D01*
X12344359Y-18642264D02*
X12325311Y-18632741D01*
X12315787Y-18613693D01*
X12315787Y-18442264D01*
X12496740Y-18632741D02*
X12477692Y-18642264D01*
X12439597Y-18642264D01*
X12420549Y-18632741D01*
X12411025Y-18613693D01*
X12411025Y-18537502D01*
X12420549Y-18518455D01*
X12439597Y-18508931D01*
X12477692Y-18508931D01*
X12496740Y-18518455D01*
X12506264Y-18537502D01*
X12506264Y-18556550D01*
X12411025Y-18575598D01*
X12582454Y-18632741D02*
X12601502Y-18642264D01*
X12639597Y-18642264D01*
X12658644Y-18632741D01*
X12668168Y-18613693D01*
X12668168Y-18604169D01*
X12658644Y-18585122D01*
X12639597Y-18575598D01*
X12611025Y-18575598D01*
X12591978Y-18566074D01*
X12582454Y-18547026D01*
X12582454Y-18537502D01*
X12591978Y-18518455D01*
X12611025Y-18508931D01*
X12639597Y-18508931D01*
X12658644Y-18518455D01*
X12906264Y-18566074D02*
X13058644Y-18566074D01*
X12982454Y-18642264D02*
X12982454Y-18489883D01*
X13401502Y-18442264D02*
X13306264Y-18442264D01*
X13296740Y-18537502D01*
X13306264Y-18527979D01*
X13325311Y-18518455D01*
X13372930Y-18518455D01*
X13391978Y-18527979D01*
X13401502Y-18537502D01*
X13411025Y-18556550D01*
X13411025Y-18604169D01*
X13401502Y-18623217D01*
X13391978Y-18632741D01*
X13372930Y-18642264D01*
X13325311Y-18642264D01*
X13306264Y-18632741D01*
X13296740Y-18623217D01*
X13639597Y-18632741D02*
X13658644Y-18642264D01*
X13696740Y-18642264D01*
X13715787Y-18632741D01*
X13725311Y-18613693D01*
X13725311Y-18604169D01*
X13715787Y-18585122D01*
X13696740Y-18575598D01*
X13668168Y-18575598D01*
X13649121Y-18566074D01*
X13639597Y-18547026D01*
X13639597Y-18537502D01*
X13649121Y-18518455D01*
X13668168Y-18508931D01*
X13696740Y-18508931D01*
X13715787Y-18518455D01*
X13839597Y-18642264D02*
X13820549Y-18632741D01*
X13811025Y-18613693D01*
X13811025Y-18442264D01*
X13944359Y-18642264D02*
X13925311Y-18632741D01*
X13915787Y-18623217D01*
X13906264Y-18604169D01*
X13906264Y-18547026D01*
X13915787Y-18527979D01*
X13925311Y-18518455D01*
X13944359Y-18508931D01*
X13972930Y-18508931D01*
X13991978Y-18518455D01*
X14001502Y-18527979D01*
X14011025Y-18547026D01*
X14011025Y-18604169D01*
X14001502Y-18623217D01*
X13991978Y-18632741D01*
X13972930Y-18642264D01*
X13944359Y-18642264D01*
X14068168Y-18508931D02*
X14144359Y-18508931D01*
X14096740Y-18442264D02*
X14096740Y-18613693D01*
X14106264Y-18632741D01*
X14125311Y-18642264D01*
X14144359Y-18642264D01*
X14201502Y-18632741D02*
X14220549Y-18642264D01*
X14258644Y-18642264D01*
X14277692Y-18632741D01*
X14287216Y-18613693D01*
X14287216Y-18604169D01*
X14277692Y-18585122D01*
X14258644Y-18575598D01*
X14230073Y-18575598D01*
X14211025Y-18566074D01*
X14201502Y-18547026D01*
X14201502Y-18537502D01*
X14211025Y-18518455D01*
X14230073Y-18508931D01*
X14258644Y-18508931D01*
X14277692Y-18518455D01*
X14353883Y-18718455D02*
X14363406Y-18708931D01*
X14382454Y-18680360D01*
X14391978Y-18661312D01*
X14401502Y-18632741D01*
X14411025Y-18585122D01*
X14411025Y-18547026D01*
X14401502Y-18499407D01*
X14391978Y-18470836D01*
X14382454Y-18451788D01*
X14363406Y-18423217D01*
X14353883Y-18413693D01*
D18*
X7618454Y-18738788D02*
X7772454Y-18892788D01*
X7772454Y-18738788D02*
X7618454Y-18892788D01*
X7749902Y-18870236D02*
X7749902Y-18761341D01*
X7641006Y-18761341D01*
X7641006Y-18870236D01*
X7749902Y-18870236D01*
D11*
X8134835Y-18906264D02*
X8020549Y-18906264D01*
X8077692Y-18906264D02*
X8077692Y-18706264D01*
X8058644Y-18734836D01*
X8039597Y-18753883D01*
X8020549Y-18763407D01*
X8220549Y-18887217D02*
X8230073Y-18896741D01*
X8220549Y-18906264D01*
X8211025Y-18896741D01*
X8220549Y-18887217D01*
X8220549Y-18906264D01*
X8411026Y-18706264D02*
X8315787Y-18706264D01*
X8306264Y-18801502D01*
X8315787Y-18791979D01*
X8334835Y-18782455D01*
X8382454Y-18782455D01*
X8401502Y-18791979D01*
X8411026Y-18801502D01*
X8420549Y-18820550D01*
X8420549Y-18868169D01*
X8411026Y-18887217D01*
X8401502Y-18896741D01*
X8382454Y-18906264D01*
X8334835Y-18906264D01*
X8315787Y-18896741D01*
X8306264Y-18887217D01*
X8591978Y-18772931D02*
X8591978Y-18906264D01*
X8544359Y-18696741D02*
X8496740Y-18839598D01*
X8620549Y-18839598D01*
X8734835Y-18706264D02*
X8753883Y-18706264D01*
X8772930Y-18715788D01*
X8782454Y-18725312D01*
X8791978Y-18744360D01*
X8801502Y-18782455D01*
X8801502Y-18830074D01*
X8791978Y-18868169D01*
X8782454Y-18887217D01*
X8772930Y-18896741D01*
X8753883Y-18906264D01*
X8734835Y-18906264D01*
X8715787Y-18896741D01*
X8706264Y-18887217D01*
X8696740Y-18868169D01*
X8687216Y-18830074D01*
X8687216Y-18782455D01*
X8696740Y-18744360D01*
X8706264Y-18725312D01*
X8715787Y-18715788D01*
X8734835Y-18706264D01*
X8887216Y-18906264D02*
X8887216Y-18772931D01*
X8887216Y-18791979D02*
X8896740Y-18782455D01*
X8915787Y-18772931D01*
X8944359Y-18772931D01*
X8963406Y-18782455D01*
X8972930Y-18801502D01*
X8972930Y-18906264D01*
X8972930Y-18801502D02*
X8982454Y-18782455D01*
X9001502Y-18772931D01*
X9030073Y-18772931D01*
X9049121Y-18782455D01*
X9058645Y-18801502D01*
X9058645Y-18906264D01*
X9153883Y-18906264D02*
X9153883Y-18772931D01*
X9153883Y-18791979D02*
X9163406Y-18782455D01*
X9182454Y-18772931D01*
X9211026Y-18772931D01*
X9230073Y-18782455D01*
X9239597Y-18801502D01*
X9239597Y-18906264D01*
X9239597Y-18801502D02*
X9249121Y-18782455D01*
X9268168Y-18772931D01*
X9296740Y-18772931D01*
X9315787Y-18782455D01*
X9325311Y-18801502D01*
X9325311Y-18906264D01*
X9715787Y-18696741D02*
X9544359Y-18953883D01*
X9972930Y-18706264D02*
X9991978Y-18706264D01*
X10011026Y-18715788D01*
X10020549Y-18725312D01*
X10030073Y-18744360D01*
X10039597Y-18782455D01*
X10039597Y-18830074D01*
X10030073Y-18868169D01*
X10020549Y-18887217D01*
X10011026Y-18896741D01*
X9991978Y-18906264D01*
X9972930Y-18906264D01*
X9953883Y-18896741D01*
X9944359Y-18887217D01*
X9934835Y-18868169D01*
X9925311Y-18830074D01*
X9925311Y-18782455D01*
X9934835Y-18744360D01*
X9944359Y-18725312D01*
X9953883Y-18715788D01*
X9972930Y-18706264D01*
X10125311Y-18887217D02*
X10134835Y-18896741D01*
X10125311Y-18906264D01*
X10115787Y-18896741D01*
X10125311Y-18887217D01*
X10125311Y-18906264D01*
X10258645Y-18706264D02*
X10277692Y-18706264D01*
X10296740Y-18715788D01*
X10306264Y-18725312D01*
X10315787Y-18744360D01*
X10325311Y-18782455D01*
X10325311Y-18830074D01*
X10315787Y-18868169D01*
X10306264Y-18887217D01*
X10296740Y-18896741D01*
X10277692Y-18906264D01*
X10258645Y-18906264D01*
X10239597Y-18896741D01*
X10230073Y-18887217D01*
X10220549Y-18868169D01*
X10211026Y-18830074D01*
X10211026Y-18782455D01*
X10220549Y-18744360D01*
X10230073Y-18725312D01*
X10239597Y-18715788D01*
X10258645Y-18706264D01*
X10496740Y-18706264D02*
X10458645Y-18706264D01*
X10439597Y-18715788D01*
X10430073Y-18725312D01*
X10411026Y-18753883D01*
X10401502Y-18791979D01*
X10401502Y-18868169D01*
X10411026Y-18887217D01*
X10420549Y-18896741D01*
X10439597Y-18906264D01*
X10477692Y-18906264D01*
X10496740Y-18896741D01*
X10506264Y-18887217D01*
X10515787Y-18868169D01*
X10515787Y-18820550D01*
X10506264Y-18801502D01*
X10496740Y-18791979D01*
X10477692Y-18782455D01*
X10439597Y-18782455D01*
X10420549Y-18791979D01*
X10411026Y-18801502D01*
X10401502Y-18820550D01*
X10639597Y-18706264D02*
X10658645Y-18706264D01*
X10677692Y-18715788D01*
X10687216Y-18725312D01*
X10696740Y-18744360D01*
X10706264Y-18782455D01*
X10706264Y-18830074D01*
X10696740Y-18868169D01*
X10687216Y-18887217D01*
X10677692Y-18896741D01*
X10658645Y-18906264D01*
X10639597Y-18906264D01*
X10620549Y-18896741D01*
X10611026Y-18887217D01*
X10601502Y-18868169D01*
X10591978Y-18830074D01*
X10591978Y-18782455D01*
X10601502Y-18744360D01*
X10611026Y-18725312D01*
X10620549Y-18715788D01*
X10639597Y-18706264D01*
X10877692Y-18706264D02*
X10839597Y-18706264D01*
X10820549Y-18715788D01*
X10811026Y-18725312D01*
X10791978Y-18753883D01*
X10782454Y-18791979D01*
X10782454Y-18868169D01*
X10791978Y-18887217D01*
X10801502Y-18896741D01*
X10820549Y-18906264D01*
X10858645Y-18906264D01*
X10877692Y-18896741D01*
X10887216Y-18887217D01*
X10896740Y-18868169D01*
X10896740Y-18820550D01*
X10887216Y-18801502D01*
X10877692Y-18791979D01*
X10858645Y-18782455D01*
X10820549Y-18782455D01*
X10801502Y-18791979D01*
X10791978Y-18801502D01*
X10782454Y-18820550D01*
X10972930Y-18706264D02*
X10972930Y-18744360D01*
X11049121Y-18706264D02*
X11049121Y-18744360D01*
X11344359Y-18982455D02*
X11334835Y-18972931D01*
X11315787Y-18944360D01*
X11306264Y-18925312D01*
X11296740Y-18896741D01*
X11287216Y-18849122D01*
X11287216Y-18811026D01*
X11296740Y-18763407D01*
X11306264Y-18734836D01*
X11315787Y-18715788D01*
X11334835Y-18687217D01*
X11344359Y-18677693D01*
X11525311Y-18906264D02*
X11411025Y-18906264D01*
X11468168Y-18906264D02*
X11468168Y-18706264D01*
X11449121Y-18734836D01*
X11430073Y-18753883D01*
X11411025Y-18763407D01*
X11601502Y-18725312D02*
X11611025Y-18715788D01*
X11630073Y-18706264D01*
X11677692Y-18706264D01*
X11696740Y-18715788D01*
X11706264Y-18725312D01*
X11715787Y-18744360D01*
X11715787Y-18763407D01*
X11706264Y-18791979D01*
X11591978Y-18906264D01*
X11715787Y-18906264D01*
X11887216Y-18706264D02*
X11849121Y-18706264D01*
X11830073Y-18715788D01*
X11820549Y-18725312D01*
X11801502Y-18753883D01*
X11791978Y-18791979D01*
X11791978Y-18868169D01*
X11801502Y-18887217D01*
X11811025Y-18896741D01*
X11830073Y-18906264D01*
X11868168Y-18906264D01*
X11887216Y-18896741D01*
X11896740Y-18887217D01*
X11906264Y-18868169D01*
X11906264Y-18820550D01*
X11896740Y-18801502D01*
X11887216Y-18791979D01*
X11868168Y-18782455D01*
X11830073Y-18782455D01*
X11811025Y-18791979D01*
X11801502Y-18801502D01*
X11791978Y-18820550D01*
X12144359Y-18906264D02*
X12144359Y-18706264D01*
X12230073Y-18906264D02*
X12230073Y-18801502D01*
X12220549Y-18782455D01*
X12201502Y-18772931D01*
X12172930Y-18772931D01*
X12153883Y-18782455D01*
X12144359Y-18791979D01*
X12353883Y-18906264D02*
X12334835Y-18896741D01*
X12325311Y-18887217D01*
X12315787Y-18868169D01*
X12315787Y-18811026D01*
X12325311Y-18791979D01*
X12334835Y-18782455D01*
X12353883Y-18772931D01*
X12382454Y-18772931D01*
X12401502Y-18782455D01*
X12411025Y-18791979D01*
X12420549Y-18811026D01*
X12420549Y-18868169D01*
X12411025Y-18887217D01*
X12401502Y-18896741D01*
X12382454Y-18906264D01*
X12353883Y-18906264D01*
X12534835Y-18906264D02*
X12515787Y-18896741D01*
X12506264Y-18877693D01*
X12506264Y-18706264D01*
X12687216Y-18896741D02*
X12668168Y-18906264D01*
X12630073Y-18906264D01*
X12611025Y-18896741D01*
X12601502Y-18877693D01*
X12601502Y-18801502D01*
X12611025Y-18782455D01*
X12630073Y-18772931D01*
X12668168Y-18772931D01*
X12687216Y-18782455D01*
X12696740Y-18801502D01*
X12696740Y-18820550D01*
X12601502Y-18839598D01*
X12772930Y-18896741D02*
X12791978Y-18906264D01*
X12830073Y-18906264D01*
X12849121Y-18896741D01*
X12858644Y-18877693D01*
X12858644Y-18868169D01*
X12849121Y-18849122D01*
X12830073Y-18839598D01*
X12801502Y-18839598D01*
X12782454Y-18830074D01*
X12772930Y-18811026D01*
X12772930Y-18801502D01*
X12782454Y-18782455D01*
X12801502Y-18772931D01*
X12830073Y-18772931D01*
X12849121Y-18782455D01*
X12925311Y-18982455D02*
X12934835Y-18972931D01*
X12953883Y-18944360D01*
X12963406Y-18925312D01*
X12972930Y-18896741D01*
X12982454Y-18849122D01*
X12982454Y-18811026D01*
X12972930Y-18763407D01*
X12963406Y-18734836D01*
X12953883Y-18715788D01*
X12934835Y-18687217D01*
X12925311Y-18677693D01*
X7572454Y-18989788D02*
X7772454Y-19189788D01*
X7772454Y-18989788D02*
X7572454Y-19189788D01*
X7672454Y-19189788D02*
X7772454Y-19089788D01*
X7672454Y-18989788D01*
X7572454Y-19089788D01*
X7672454Y-19189788D01*
X8020549Y-18999312D02*
X8030073Y-18989788D01*
X8049121Y-18980264D01*
X8096740Y-18980264D01*
X8115787Y-18989788D01*
X8125311Y-18999312D01*
X8134835Y-19018360D01*
X8134835Y-19037407D01*
X8125311Y-19065979D01*
X8011025Y-19180264D01*
X8134835Y-19180264D01*
X8220549Y-19161217D02*
X8230073Y-19170741D01*
X8220549Y-19180264D01*
X8211025Y-19170741D01*
X8220549Y-19161217D01*
X8220549Y-19180264D01*
X8306264Y-18999312D02*
X8315787Y-18989788D01*
X8334835Y-18980264D01*
X8382454Y-18980264D01*
X8401502Y-18989788D01*
X8411026Y-18999312D01*
X8420549Y-19018360D01*
X8420549Y-19037407D01*
X8411026Y-19065979D01*
X8296740Y-19180264D01*
X8420549Y-19180264D01*
X8544359Y-18980264D02*
X8563406Y-18980264D01*
X8582454Y-18989788D01*
X8591978Y-18999312D01*
X8601502Y-19018360D01*
X8611026Y-19056455D01*
X8611026Y-19104074D01*
X8601502Y-19142169D01*
X8591978Y-19161217D01*
X8582454Y-19170741D01*
X8563406Y-19180264D01*
X8544359Y-19180264D01*
X8525311Y-19170741D01*
X8515787Y-19161217D01*
X8506264Y-19142169D01*
X8496740Y-19104074D01*
X8496740Y-19056455D01*
X8506264Y-19018360D01*
X8515787Y-18999312D01*
X8525311Y-18989788D01*
X8544359Y-18980264D01*
X8734835Y-18980264D02*
X8753883Y-18980264D01*
X8772930Y-18989788D01*
X8782454Y-18999312D01*
X8791978Y-19018360D01*
X8801502Y-19056455D01*
X8801502Y-19104074D01*
X8791978Y-19142169D01*
X8782454Y-19161217D01*
X8772930Y-19170741D01*
X8753883Y-19180264D01*
X8734835Y-19180264D01*
X8715787Y-19170741D01*
X8706264Y-19161217D01*
X8696740Y-19142169D01*
X8687216Y-19104074D01*
X8687216Y-19056455D01*
X8696740Y-19018360D01*
X8706264Y-18999312D01*
X8715787Y-18989788D01*
X8734835Y-18980264D01*
X8887216Y-19180264D02*
X8887216Y-19046931D01*
X8887216Y-19065979D02*
X8896740Y-19056455D01*
X8915787Y-19046931D01*
X8944359Y-19046931D01*
X8963406Y-19056455D01*
X8972930Y-19075502D01*
X8972930Y-19180264D01*
X8972930Y-19075502D02*
X8982454Y-19056455D01*
X9001502Y-19046931D01*
X9030073Y-19046931D01*
X9049121Y-19056455D01*
X9058645Y-19075502D01*
X9058645Y-19180264D01*
X9153883Y-19180264D02*
X9153883Y-19046931D01*
X9153883Y-19065979D02*
X9163406Y-19056455D01*
X9182454Y-19046931D01*
X9211026Y-19046931D01*
X9230073Y-19056455D01*
X9239597Y-19075502D01*
X9239597Y-19180264D01*
X9239597Y-19075502D02*
X9249121Y-19056455D01*
X9268168Y-19046931D01*
X9296740Y-19046931D01*
X9315787Y-19056455D01*
X9325311Y-19075502D01*
X9325311Y-19180264D01*
X9715787Y-18970741D02*
X9544359Y-19227883D01*
X9972930Y-18980264D02*
X9991978Y-18980264D01*
X10011026Y-18989788D01*
X10020549Y-18999312D01*
X10030073Y-19018360D01*
X10039597Y-19056455D01*
X10039597Y-19104074D01*
X10030073Y-19142169D01*
X10020549Y-19161217D01*
X10011026Y-19170741D01*
X9991978Y-19180264D01*
X9972930Y-19180264D01*
X9953883Y-19170741D01*
X9944359Y-19161217D01*
X9934835Y-19142169D01*
X9925311Y-19104074D01*
X9925311Y-19056455D01*
X9934835Y-19018360D01*
X9944359Y-18999312D01*
X9953883Y-18989788D01*
X9972930Y-18980264D01*
X10125311Y-19161217D02*
X10134835Y-19170741D01*
X10125311Y-19180264D01*
X10115787Y-19170741D01*
X10125311Y-19161217D01*
X10125311Y-19180264D01*
X10258645Y-18980264D02*
X10277692Y-18980264D01*
X10296740Y-18989788D01*
X10306264Y-18999312D01*
X10315787Y-19018360D01*
X10325311Y-19056455D01*
X10325311Y-19104074D01*
X10315787Y-19142169D01*
X10306264Y-19161217D01*
X10296740Y-19170741D01*
X10277692Y-19180264D01*
X10258645Y-19180264D01*
X10239597Y-19170741D01*
X10230073Y-19161217D01*
X10220549Y-19142169D01*
X10211026Y-19104074D01*
X10211026Y-19056455D01*
X10220549Y-19018360D01*
X10230073Y-18999312D01*
X10239597Y-18989788D01*
X10258645Y-18980264D01*
X10439597Y-19065979D02*
X10420549Y-19056455D01*
X10411026Y-19046931D01*
X10401502Y-19027883D01*
X10401502Y-19018360D01*
X10411026Y-18999312D01*
X10420549Y-18989788D01*
X10439597Y-18980264D01*
X10477692Y-18980264D01*
X10496740Y-18989788D01*
X10506264Y-18999312D01*
X10515787Y-19018360D01*
X10515787Y-19027883D01*
X10506264Y-19046931D01*
X10496740Y-19056455D01*
X10477692Y-19065979D01*
X10439597Y-19065979D01*
X10420549Y-19075502D01*
X10411026Y-19085026D01*
X10401502Y-19104074D01*
X10401502Y-19142169D01*
X10411026Y-19161217D01*
X10420549Y-19170741D01*
X10439597Y-19180264D01*
X10477692Y-19180264D01*
X10496740Y-19170741D01*
X10506264Y-19161217D01*
X10515787Y-19142169D01*
X10515787Y-19104074D01*
X10506264Y-19085026D01*
X10496740Y-19075502D01*
X10477692Y-19065979D01*
X10687216Y-18980264D02*
X10649121Y-18980264D01*
X10630073Y-18989788D01*
X10620549Y-18999312D01*
X10601502Y-19027883D01*
X10591978Y-19065979D01*
X10591978Y-19142169D01*
X10601502Y-19161217D01*
X10611026Y-19170741D01*
X10630073Y-19180264D01*
X10668168Y-19180264D01*
X10687216Y-19170741D01*
X10696740Y-19161217D01*
X10706264Y-19142169D01*
X10706264Y-19094550D01*
X10696740Y-19075502D01*
X10687216Y-19065979D01*
X10668168Y-19056455D01*
X10630073Y-19056455D01*
X10611026Y-19065979D01*
X10601502Y-19075502D01*
X10591978Y-19094550D01*
X10877692Y-18980264D02*
X10839597Y-18980264D01*
X10820549Y-18989788D01*
X10811026Y-18999312D01*
X10791978Y-19027883D01*
X10782454Y-19065979D01*
X10782454Y-19142169D01*
X10791978Y-19161217D01*
X10801502Y-19170741D01*
X10820549Y-19180264D01*
X10858645Y-19180264D01*
X10877692Y-19170741D01*
X10887216Y-19161217D01*
X10896740Y-19142169D01*
X10896740Y-19094550D01*
X10887216Y-19075502D01*
X10877692Y-19065979D01*
X10858645Y-19056455D01*
X10820549Y-19056455D01*
X10801502Y-19065979D01*
X10791978Y-19075502D01*
X10782454Y-19094550D01*
X10972930Y-18980264D02*
X10972930Y-19018360D01*
X11049121Y-18980264D02*
X11049121Y-19018360D01*
X11344359Y-19256455D02*
X11334835Y-19246931D01*
X11315787Y-19218360D01*
X11306264Y-19199312D01*
X11296740Y-19170741D01*
X11287216Y-19123122D01*
X11287216Y-19085026D01*
X11296740Y-19037407D01*
X11306264Y-19008836D01*
X11315787Y-18989788D01*
X11334835Y-18961217D01*
X11344359Y-18951693D01*
X11401502Y-18980264D02*
X11525311Y-18980264D01*
X11458644Y-19056455D01*
X11487216Y-19056455D01*
X11506264Y-19065979D01*
X11515787Y-19075502D01*
X11525311Y-19094550D01*
X11525311Y-19142169D01*
X11515787Y-19161217D01*
X11506264Y-19170741D01*
X11487216Y-19180264D01*
X11430073Y-19180264D01*
X11411025Y-19170741D01*
X11401502Y-19161217D01*
X11763406Y-19180264D02*
X11763406Y-18980264D01*
X11849121Y-19180264D02*
X11849121Y-19075502D01*
X11839597Y-19056455D01*
X11820549Y-19046931D01*
X11791978Y-19046931D01*
X11772930Y-19056455D01*
X11763406Y-19065979D01*
X11972930Y-19180264D02*
X11953883Y-19170741D01*
X11944359Y-19161217D01*
X11934835Y-19142169D01*
X11934835Y-19085026D01*
X11944359Y-19065979D01*
X11953883Y-19056455D01*
X11972930Y-19046931D01*
X12001502Y-19046931D01*
X12020549Y-19056455D01*
X12030073Y-19065979D01*
X12039597Y-19085026D01*
X12039597Y-19142169D01*
X12030073Y-19161217D01*
X12020549Y-19170741D01*
X12001502Y-19180264D01*
X11972930Y-19180264D01*
X12153883Y-19180264D02*
X12134835Y-19170741D01*
X12125311Y-19151693D01*
X12125311Y-18980264D01*
X12306264Y-19170741D02*
X12287216Y-19180264D01*
X12249121Y-19180264D01*
X12230073Y-19170741D01*
X12220549Y-19151693D01*
X12220549Y-19075502D01*
X12230073Y-19056455D01*
X12249121Y-19046931D01*
X12287216Y-19046931D01*
X12306264Y-19056455D01*
X12315787Y-19075502D01*
X12315787Y-19094550D01*
X12220549Y-19113598D01*
X12391978Y-19170741D02*
X12411025Y-19180264D01*
X12449121Y-19180264D01*
X12468168Y-19170741D01*
X12477692Y-19151693D01*
X12477692Y-19142169D01*
X12468168Y-19123122D01*
X12449121Y-19113598D01*
X12420549Y-19113598D01*
X12401502Y-19104074D01*
X12391978Y-19085026D01*
X12391978Y-19075502D01*
X12401502Y-19056455D01*
X12420549Y-19046931D01*
X12449121Y-19046931D01*
X12468168Y-19056455D01*
X12544359Y-19256455D02*
X12553883Y-19246931D01*
X12572930Y-19218360D01*
X12582454Y-19199312D01*
X12591978Y-19170741D01*
X12601502Y-19123122D01*
X12601502Y-19085026D01*
X12591978Y-19037407D01*
X12582454Y-19008836D01*
X12572930Y-18989788D01*
X12553883Y-18961217D01*
X12544359Y-18951693D01*
X7672454Y-19309788D02*
X7672454Y-19509788D01*
X7572454Y-19409788D02*
X7772454Y-19409788D01*
X7772454Y-19409788D02*
G75*
G03*
X7772454Y-19409788I-100000J0D01*
G01*
X8011025Y-19300264D02*
X8134835Y-19300264D01*
X8068168Y-19376455D01*
X8096740Y-19376455D01*
X8115787Y-19385979D01*
X8125311Y-19395502D01*
X8134835Y-19414550D01*
X8134835Y-19462169D01*
X8125311Y-19481217D01*
X8115787Y-19490741D01*
X8096740Y-19500264D01*
X8039597Y-19500264D01*
X8020549Y-19490741D01*
X8011025Y-19481217D01*
X8220549Y-19481217D02*
X8230073Y-19490741D01*
X8220549Y-19500264D01*
X8211025Y-19490741D01*
X8220549Y-19481217D01*
X8220549Y-19500264D01*
X8353883Y-19300264D02*
X8372930Y-19300264D01*
X8391978Y-19309788D01*
X8401502Y-19319312D01*
X8411026Y-19338360D01*
X8420549Y-19376455D01*
X8420549Y-19424074D01*
X8411026Y-19462169D01*
X8401502Y-19481217D01*
X8391978Y-19490741D01*
X8372930Y-19500264D01*
X8353883Y-19500264D01*
X8334835Y-19490741D01*
X8325311Y-19481217D01*
X8315787Y-19462169D01*
X8306264Y-19424074D01*
X8306264Y-19376455D01*
X8315787Y-19338360D01*
X8325311Y-19319312D01*
X8334835Y-19309788D01*
X8353883Y-19300264D01*
X8544359Y-19300264D02*
X8563406Y-19300264D01*
X8582454Y-19309788D01*
X8591978Y-19319312D01*
X8601502Y-19338360D01*
X8611026Y-19376455D01*
X8611026Y-19424074D01*
X8601502Y-19462169D01*
X8591978Y-19481217D01*
X8582454Y-19490741D01*
X8563406Y-19500264D01*
X8544359Y-19500264D01*
X8525311Y-19490741D01*
X8515787Y-19481217D01*
X8506264Y-19462169D01*
X8496740Y-19424074D01*
X8496740Y-19376455D01*
X8506264Y-19338360D01*
X8515787Y-19319312D01*
X8525311Y-19309788D01*
X8544359Y-19300264D01*
X8734835Y-19300264D02*
X8753883Y-19300264D01*
X8772930Y-19309788D01*
X8782454Y-19319312D01*
X8791978Y-19338360D01*
X8801502Y-19376455D01*
X8801502Y-19424074D01*
X8791978Y-19462169D01*
X8782454Y-19481217D01*
X8772930Y-19490741D01*
X8753883Y-19500264D01*
X8734835Y-19500264D01*
X8715787Y-19490741D01*
X8706264Y-19481217D01*
X8696740Y-19462169D01*
X8687216Y-19424074D01*
X8687216Y-19376455D01*
X8696740Y-19338360D01*
X8706264Y-19319312D01*
X8715787Y-19309788D01*
X8734835Y-19300264D01*
X8887216Y-19500264D02*
X8887216Y-19366931D01*
X8887216Y-19385979D02*
X8896740Y-19376455D01*
X8915787Y-19366931D01*
X8944359Y-19366931D01*
X8963406Y-19376455D01*
X8972930Y-19395502D01*
X8972930Y-19500264D01*
X8972930Y-19395502D02*
X8982454Y-19376455D01*
X9001502Y-19366931D01*
X9030073Y-19366931D01*
X9049121Y-19376455D01*
X9058645Y-19395502D01*
X9058645Y-19500264D01*
X9153883Y-19500264D02*
X9153883Y-19366931D01*
X9153883Y-19385979D02*
X9163406Y-19376455D01*
X9182454Y-19366931D01*
X9211026Y-19366931D01*
X9230073Y-19376455D01*
X9239597Y-19395502D01*
X9239597Y-19500264D01*
X9239597Y-19395502D02*
X9249121Y-19376455D01*
X9268168Y-19366931D01*
X9296740Y-19366931D01*
X9315787Y-19376455D01*
X9325311Y-19395502D01*
X9325311Y-19500264D01*
X9715787Y-19290741D02*
X9544359Y-19547883D01*
X9972930Y-19300264D02*
X9991978Y-19300264D01*
X10011026Y-19309788D01*
X10020549Y-19319312D01*
X10030073Y-19338360D01*
X10039597Y-19376455D01*
X10039597Y-19424074D01*
X10030073Y-19462169D01*
X10020549Y-19481217D01*
X10011026Y-19490741D01*
X9991978Y-19500264D01*
X9972930Y-19500264D01*
X9953883Y-19490741D01*
X9944359Y-19481217D01*
X9934835Y-19462169D01*
X9925311Y-19424074D01*
X9925311Y-19376455D01*
X9934835Y-19338360D01*
X9944359Y-19319312D01*
X9953883Y-19309788D01*
X9972930Y-19300264D01*
X10125311Y-19481217D02*
X10134835Y-19490741D01*
X10125311Y-19500264D01*
X10115787Y-19490741D01*
X10125311Y-19481217D01*
X10125311Y-19500264D01*
X10325311Y-19500264D02*
X10211026Y-19500264D01*
X10268168Y-19500264D02*
X10268168Y-19300264D01*
X10249121Y-19328836D01*
X10230073Y-19347883D01*
X10211026Y-19357407D01*
X10515787Y-19500264D02*
X10401502Y-19500264D01*
X10458645Y-19500264D02*
X10458645Y-19300264D01*
X10439597Y-19328836D01*
X10420549Y-19347883D01*
X10401502Y-19357407D01*
X10630073Y-19385979D02*
X10611026Y-19376455D01*
X10601502Y-19366931D01*
X10591978Y-19347883D01*
X10591978Y-19338360D01*
X10601502Y-19319312D01*
X10611026Y-19309788D01*
X10630073Y-19300264D01*
X10668168Y-19300264D01*
X10687216Y-19309788D01*
X10696740Y-19319312D01*
X10706264Y-19338360D01*
X10706264Y-19347883D01*
X10696740Y-19366931D01*
X10687216Y-19376455D01*
X10668168Y-19385979D01*
X10630073Y-19385979D01*
X10611026Y-19395502D01*
X10601502Y-19405026D01*
X10591978Y-19424074D01*
X10591978Y-19462169D01*
X10601502Y-19481217D01*
X10611026Y-19490741D01*
X10630073Y-19500264D01*
X10668168Y-19500264D01*
X10687216Y-19490741D01*
X10696740Y-19481217D01*
X10706264Y-19462169D01*
X10706264Y-19424074D01*
X10696740Y-19405026D01*
X10687216Y-19395502D01*
X10668168Y-19385979D01*
X10896740Y-19500264D02*
X10782454Y-19500264D01*
X10839597Y-19500264D02*
X10839597Y-19300264D01*
X10820549Y-19328836D01*
X10801502Y-19347883D01*
X10782454Y-19357407D01*
X10972930Y-19300264D02*
X10972930Y-19338360D01*
X11049121Y-19300264D02*
X11049121Y-19338360D01*
X11344359Y-19576455D02*
X11334835Y-19566931D01*
X11315787Y-19538360D01*
X11306264Y-19519312D01*
X11296740Y-19490741D01*
X11287216Y-19443122D01*
X11287216Y-19405026D01*
X11296740Y-19357407D01*
X11306264Y-19328836D01*
X11315787Y-19309788D01*
X11334835Y-19281217D01*
X11344359Y-19271693D01*
X11458644Y-19300264D02*
X11477692Y-19300264D01*
X11496740Y-19309788D01*
X11506264Y-19319312D01*
X11515787Y-19338360D01*
X11525311Y-19376455D01*
X11525311Y-19424074D01*
X11515787Y-19462169D01*
X11506264Y-19481217D01*
X11496740Y-19490741D01*
X11477692Y-19500264D01*
X11458644Y-19500264D01*
X11439597Y-19490741D01*
X11430073Y-19481217D01*
X11420549Y-19462169D01*
X11411025Y-19424074D01*
X11411025Y-19376455D01*
X11420549Y-19338360D01*
X11430073Y-19319312D01*
X11439597Y-19309788D01*
X11458644Y-19300264D01*
X11763406Y-19500264D02*
X11763406Y-19300264D01*
X11849121Y-19500264D02*
X11849121Y-19395502D01*
X11839597Y-19376455D01*
X11820549Y-19366931D01*
X11791978Y-19366931D01*
X11772930Y-19376455D01*
X11763406Y-19385979D01*
X11972930Y-19500264D02*
X11953883Y-19490741D01*
X11944359Y-19481217D01*
X11934835Y-19462169D01*
X11934835Y-19405026D01*
X11944359Y-19385979D01*
X11953883Y-19376455D01*
X11972930Y-19366931D01*
X12001502Y-19366931D01*
X12020549Y-19376455D01*
X12030073Y-19385979D01*
X12039597Y-19405026D01*
X12039597Y-19462169D01*
X12030073Y-19481217D01*
X12020549Y-19490741D01*
X12001502Y-19500264D01*
X11972930Y-19500264D01*
X12153883Y-19500264D02*
X12134835Y-19490741D01*
X12125311Y-19471693D01*
X12125311Y-19300264D01*
X12306264Y-19490741D02*
X12287216Y-19500264D01*
X12249121Y-19500264D01*
X12230073Y-19490741D01*
X12220549Y-19471693D01*
X12220549Y-19395502D01*
X12230073Y-19376455D01*
X12249121Y-19366931D01*
X12287216Y-19366931D01*
X12306264Y-19376455D01*
X12315787Y-19395502D01*
X12315787Y-19414550D01*
X12220549Y-19433598D01*
X12391978Y-19490741D02*
X12411025Y-19500264D01*
X12449121Y-19500264D01*
X12468168Y-19490741D01*
X12477692Y-19471693D01*
X12477692Y-19462169D01*
X12468168Y-19443122D01*
X12449121Y-19433598D01*
X12420549Y-19433598D01*
X12401502Y-19424074D01*
X12391978Y-19405026D01*
X12391978Y-19395502D01*
X12401502Y-19376455D01*
X12420549Y-19366931D01*
X12449121Y-19366931D01*
X12468168Y-19376455D01*
X12715787Y-19424074D02*
X12868168Y-19424074D01*
X12791978Y-19500264D02*
X12791978Y-19347883D01*
X13106264Y-19319312D02*
X13115787Y-19309788D01*
X13134835Y-19300264D01*
X13182454Y-19300264D01*
X13201502Y-19309788D01*
X13211025Y-19319312D01*
X13220549Y-19338360D01*
X13220549Y-19357407D01*
X13211025Y-19385979D01*
X13096740Y-19500264D01*
X13220549Y-19500264D01*
X13449121Y-19490741D02*
X13468168Y-19500264D01*
X13506264Y-19500264D01*
X13525311Y-19490741D01*
X13534835Y-19471693D01*
X13534835Y-19462169D01*
X13525311Y-19443122D01*
X13506264Y-19433598D01*
X13477692Y-19433598D01*
X13458644Y-19424074D01*
X13449121Y-19405026D01*
X13449121Y-19395502D01*
X13458644Y-19376455D01*
X13477692Y-19366931D01*
X13506264Y-19366931D01*
X13525311Y-19376455D01*
X13649121Y-19500264D02*
X13630073Y-19490741D01*
X13620549Y-19471693D01*
X13620549Y-19300264D01*
X13753883Y-19500264D02*
X13734835Y-19490741D01*
X13725311Y-19481217D01*
X13715787Y-19462169D01*
X13715787Y-19405026D01*
X13725311Y-19385979D01*
X13734835Y-19376455D01*
X13753883Y-19366931D01*
X13782454Y-19366931D01*
X13801502Y-19376455D01*
X13811025Y-19385979D01*
X13820549Y-19405026D01*
X13820549Y-19462169D01*
X13811025Y-19481217D01*
X13801502Y-19490741D01*
X13782454Y-19500264D01*
X13753883Y-19500264D01*
X13877692Y-19366931D02*
X13953883Y-19366931D01*
X13906264Y-19300264D02*
X13906264Y-19471693D01*
X13915787Y-19490741D01*
X13934835Y-19500264D01*
X13953883Y-19500264D01*
X14011025Y-19490741D02*
X14030073Y-19500264D01*
X14068168Y-19500264D01*
X14087216Y-19490741D01*
X14096740Y-19471693D01*
X14096740Y-19462169D01*
X14087216Y-19443122D01*
X14068168Y-19433598D01*
X14039597Y-19433598D01*
X14020549Y-19424074D01*
X14011025Y-19405026D01*
X14011025Y-19395502D01*
X14020549Y-19376455D01*
X14039597Y-19366931D01*
X14068168Y-19366931D01*
X14087216Y-19376455D01*
X14163406Y-19576455D02*
X14172930Y-19566931D01*
X14191978Y-19538360D01*
X14201502Y-19519312D01*
X14211025Y-19490741D01*
X14220549Y-19443122D01*
X14220549Y-19405026D01*
X14211025Y-19357407D01*
X14201502Y-19328836D01*
X14191978Y-19309788D01*
X14172930Y-19281217D01*
X14163406Y-19271693D01*
X7743165Y-19800500D02*
X7743165Y-19659077D01*
X7601743Y-19659077D01*
X7601743Y-19800500D01*
X7743165Y-19800500D01*
X7772454Y-19729788D02*
G75*
G03*
X7772454Y-19729788I-100000J0D01*
G01*
X8115787Y-19686931D02*
X8115787Y-19820264D01*
X8068168Y-19610741D02*
X8020549Y-19753598D01*
X8144359Y-19753598D01*
X8220549Y-19801217D02*
X8230073Y-19810741D01*
X8220549Y-19820264D01*
X8211025Y-19810741D01*
X8220549Y-19801217D01*
X8220549Y-19820264D01*
X8353883Y-19620264D02*
X8372930Y-19620264D01*
X8391978Y-19629788D01*
X8401502Y-19639312D01*
X8411026Y-19658360D01*
X8420549Y-19696455D01*
X8420549Y-19744074D01*
X8411026Y-19782169D01*
X8401502Y-19801217D01*
X8391978Y-19810741D01*
X8372930Y-19820264D01*
X8353883Y-19820264D01*
X8334835Y-19810741D01*
X8325311Y-19801217D01*
X8315787Y-19782169D01*
X8306264Y-19744074D01*
X8306264Y-19696455D01*
X8315787Y-19658360D01*
X8325311Y-19639312D01*
X8334835Y-19629788D01*
X8353883Y-19620264D01*
X8544359Y-19620264D02*
X8563406Y-19620264D01*
X8582454Y-19629788D01*
X8591978Y-19639312D01*
X8601502Y-19658360D01*
X8611026Y-19696455D01*
X8611026Y-19744074D01*
X8601502Y-19782169D01*
X8591978Y-19801217D01*
X8582454Y-19810741D01*
X8563406Y-19820264D01*
X8544359Y-19820264D01*
X8525311Y-19810741D01*
X8515787Y-19801217D01*
X8506264Y-19782169D01*
X8496740Y-19744074D01*
X8496740Y-19696455D01*
X8506264Y-19658360D01*
X8515787Y-19639312D01*
X8525311Y-19629788D01*
X8544359Y-19620264D01*
X8734835Y-19620264D02*
X8753883Y-19620264D01*
X8772930Y-19629788D01*
X8782454Y-19639312D01*
X8791978Y-19658360D01*
X8801502Y-19696455D01*
X8801502Y-19744074D01*
X8791978Y-19782169D01*
X8782454Y-19801217D01*
X8772930Y-19810741D01*
X8753883Y-19820264D01*
X8734835Y-19820264D01*
X8715787Y-19810741D01*
X8706264Y-19801217D01*
X8696740Y-19782169D01*
X8687216Y-19744074D01*
X8687216Y-19696455D01*
X8696740Y-19658360D01*
X8706264Y-19639312D01*
X8715787Y-19629788D01*
X8734835Y-19620264D01*
X8887216Y-19820264D02*
X8887216Y-19686931D01*
X8887216Y-19705979D02*
X8896740Y-19696455D01*
X8915787Y-19686931D01*
X8944359Y-19686931D01*
X8963406Y-19696455D01*
X8972930Y-19715502D01*
X8972930Y-19820264D01*
X8972930Y-19715502D02*
X8982454Y-19696455D01*
X9001502Y-19686931D01*
X9030073Y-19686931D01*
X9049121Y-19696455D01*
X9058645Y-19715502D01*
X9058645Y-19820264D01*
X9153883Y-19820264D02*
X9153883Y-19686931D01*
X9153883Y-19705979D02*
X9163406Y-19696455D01*
X9182454Y-19686931D01*
X9211026Y-19686931D01*
X9230073Y-19696455D01*
X9239597Y-19715502D01*
X9239597Y-19820264D01*
X9239597Y-19715502D02*
X9249121Y-19696455D01*
X9268168Y-19686931D01*
X9296740Y-19686931D01*
X9315787Y-19696455D01*
X9325311Y-19715502D01*
X9325311Y-19820264D01*
X9715787Y-19610741D02*
X9544359Y-19867883D01*
X9972930Y-19620264D02*
X9991978Y-19620264D01*
X10011026Y-19629788D01*
X10020549Y-19639312D01*
X10030073Y-19658360D01*
X10039597Y-19696455D01*
X10039597Y-19744074D01*
X10030073Y-19782169D01*
X10020549Y-19801217D01*
X10011026Y-19810741D01*
X9991978Y-19820264D01*
X9972930Y-19820264D01*
X9953883Y-19810741D01*
X9944359Y-19801217D01*
X9934835Y-19782169D01*
X9925311Y-19744074D01*
X9925311Y-19696455D01*
X9934835Y-19658360D01*
X9944359Y-19639312D01*
X9953883Y-19629788D01*
X9972930Y-19620264D01*
X10125311Y-19801217D02*
X10134835Y-19810741D01*
X10125311Y-19820264D01*
X10115787Y-19810741D01*
X10125311Y-19801217D01*
X10125311Y-19820264D01*
X10325311Y-19820264D02*
X10211026Y-19820264D01*
X10268168Y-19820264D02*
X10268168Y-19620264D01*
X10249121Y-19648836D01*
X10230073Y-19667883D01*
X10211026Y-19677407D01*
X10506264Y-19620264D02*
X10411026Y-19620264D01*
X10401502Y-19715502D01*
X10411026Y-19705979D01*
X10430073Y-19696455D01*
X10477692Y-19696455D01*
X10496740Y-19705979D01*
X10506264Y-19715502D01*
X10515787Y-19734550D01*
X10515787Y-19782169D01*
X10506264Y-19801217D01*
X10496740Y-19810741D01*
X10477692Y-19820264D01*
X10430073Y-19820264D01*
X10411026Y-19810741D01*
X10401502Y-19801217D01*
X10582454Y-19620264D02*
X10715787Y-19620264D01*
X10630073Y-19820264D01*
X10887216Y-19620264D02*
X10791978Y-19620264D01*
X10782454Y-19715502D01*
X10791978Y-19705979D01*
X10811026Y-19696455D01*
X10858645Y-19696455D01*
X10877692Y-19705979D01*
X10887216Y-19715502D01*
X10896740Y-19734550D01*
X10896740Y-19782169D01*
X10887216Y-19801217D01*
X10877692Y-19810741D01*
X10858645Y-19820264D01*
X10811026Y-19820264D01*
X10791978Y-19810741D01*
X10782454Y-19801217D01*
X10972930Y-19620264D02*
X10972930Y-19658360D01*
X11049121Y-19620264D02*
X11049121Y-19658360D01*
X11344359Y-19896455D02*
X11334835Y-19886931D01*
X11315787Y-19858360D01*
X11306264Y-19839312D01*
X11296740Y-19810741D01*
X11287216Y-19763122D01*
X11287216Y-19725026D01*
X11296740Y-19677407D01*
X11306264Y-19648836D01*
X11315787Y-19629788D01*
X11334835Y-19601217D01*
X11344359Y-19591693D01*
X11506264Y-19686931D02*
X11506264Y-19820264D01*
X11458644Y-19610741D02*
X11411025Y-19753598D01*
X11534835Y-19753598D01*
X11763406Y-19820264D02*
X11763406Y-19620264D01*
X11849121Y-19820264D02*
X11849121Y-19715502D01*
X11839597Y-19696455D01*
X11820549Y-19686931D01*
X11791978Y-19686931D01*
X11772930Y-19696455D01*
X11763406Y-19705979D01*
X11972930Y-19820264D02*
X11953883Y-19810741D01*
X11944359Y-19801217D01*
X11934835Y-19782169D01*
X11934835Y-19725026D01*
X11944359Y-19705979D01*
X11953883Y-19696455D01*
X11972930Y-19686931D01*
X12001502Y-19686931D01*
X12020549Y-19696455D01*
X12030073Y-19705979D01*
X12039597Y-19725026D01*
X12039597Y-19782169D01*
X12030073Y-19801217D01*
X12020549Y-19810741D01*
X12001502Y-19820264D01*
X11972930Y-19820264D01*
X12153883Y-19820264D02*
X12134835Y-19810741D01*
X12125311Y-19791693D01*
X12125311Y-19620264D01*
X12306264Y-19810741D02*
X12287216Y-19820264D01*
X12249121Y-19820264D01*
X12230073Y-19810741D01*
X12220549Y-19791693D01*
X12220549Y-19715502D01*
X12230073Y-19696455D01*
X12249121Y-19686931D01*
X12287216Y-19686931D01*
X12306264Y-19696455D01*
X12315787Y-19715502D01*
X12315787Y-19734550D01*
X12220549Y-19753598D01*
X12391978Y-19810741D02*
X12411025Y-19820264D01*
X12449121Y-19820264D01*
X12468168Y-19810741D01*
X12477692Y-19791693D01*
X12477692Y-19782169D01*
X12468168Y-19763122D01*
X12449121Y-19753598D01*
X12420549Y-19753598D01*
X12401502Y-19744074D01*
X12391978Y-19725026D01*
X12391978Y-19715502D01*
X12401502Y-19696455D01*
X12420549Y-19686931D01*
X12449121Y-19686931D01*
X12468168Y-19696455D01*
X12544359Y-19896455D02*
X12553883Y-19886931D01*
X12572930Y-19858360D01*
X12582454Y-19839312D01*
X12591978Y-19810741D01*
X12601502Y-19763122D01*
X12601502Y-19725026D01*
X12591978Y-19677407D01*
X12582454Y-19648836D01*
X12572930Y-19629788D01*
X12553883Y-19601217D01*
X12544359Y-19591693D01*
M02*
