M48
; DRILL file {KiCad (6.0.4-0)} date Sunday, May 15, 2022 at 07:59:05 PM
; FORMAT={-:-/ absolute / metric / decimal}
; #@! TF.CreationDate,2022-05-15T19:59:05-07:00
; #@! TF.GenerationSoftware,Kicad,Pcbnew,(6.0.4-0)
; #@! TF.FileFunction,NonPlated,1,2,NPTH
FMAT,2
METRIC
; #@! TA.AperFunction,NonPlated,NPTH,ComponentDrill
T1C0.700
; #@! TA.AperFunction,NonPlated,NPTH,ComponentDrill
T2C1.500
; #@! TA.AperFunction,NonPlated,NPTH,ComponentDrill
T3C1.700
; #@! TA.AperFunction,NonPlated,NPTH,ComponentDrill
T4C1.900
; #@! TA.AperFunction,NonPlated,NPTH,ComponentDrill
T5C4.000
%
G90
G05
T1
X190.32Y-74.1
X191.35Y-74.1
X193.22Y-74.1
X194.25Y-74.1
T2
X192.131Y-134.122
X192.93Y-129.592
X199.025Y-135.337
X199.824Y-130.807
T3
X82.226Y-69.642
X82.226Y-88.694
X82.233Y-107.744
X92.386Y-69.642
X92.386Y-88.694
X92.392Y-107.744
X101.274Y-57.736
X101.282Y-76.787
X101.282Y-95.837
X111.434Y-57.736
X111.442Y-76.787
X111.442Y-95.837
X120.323Y-51.736
X120.332Y-70.787
X120.332Y-89.837
X130.483Y-51.736
X130.493Y-70.787
X130.493Y-89.837
X132.41Y-128.087
X139.372Y-58.736
X139.382Y-77.787
X139.382Y-96.837
X142.415Y-129.851
X149.532Y-58.736
X149.542Y-77.787
X149.542Y-96.837
X156.169Y-132.972
X158.421Y-61.736
X158.433Y-80.787
X158.433Y-99.837
X164.968Y-138.052
X168.581Y-61.736
X168.593Y-80.787
X168.593Y-99.837
X176.303Y-145.621
X182.834Y-153.404
T4
X81.806Y-69.642
X81.806Y-88.694
X81.812Y-107.744
X92.806Y-69.642
X92.806Y-88.694
X92.812Y-107.744
X100.854Y-57.736
X100.862Y-76.787
X100.862Y-95.837
X111.854Y-57.736
X111.862Y-76.787
X111.862Y-95.837
X119.903Y-51.736
X119.912Y-70.787
X119.912Y-89.837
X130.903Y-51.736
X130.912Y-70.787
X130.912Y-89.837
X131.996Y-128.014
X138.952Y-58.736
X138.963Y-77.787
X138.963Y-96.837
X142.829Y-129.924
X149.952Y-58.736
X149.963Y-77.787
X149.963Y-96.837
X155.806Y-132.762
X158.001Y-61.736
X158.012Y-80.787
X158.012Y-99.837
X165.332Y-138.262
X169.001Y-61.736
X169.012Y-80.787
X169.012Y-99.837
X176.033Y-145.299
X183.104Y-153.726
T5
X87.306Y-69.642
X87.306Y-88.694
X87.312Y-107.744
X106.354Y-57.736
X106.362Y-76.787
X106.362Y-95.837
X125.403Y-51.736
X125.412Y-70.787
X125.412Y-89.837
X137.412Y-128.969
X144.452Y-58.736
X144.463Y-77.787
X144.463Y-96.837
X160.569Y-135.512
X163.501Y-61.736
X163.512Y-80.787
X163.512Y-99.837
X179.569Y-149.512
T0
M30
