M48
; DRILL file {KiCad (6.0.4-0)} date Sunday, May 15, 2022 at 07:58:27 PM
; FORMAT={-:-/ absolute / metric / decimal}
; #@! TF.CreationDate,2022-05-15T19:58:27-07:00
; #@! TF.GenerationSoftware,Kicad,Pcbnew,(6.0.4-0)
; #@! TF.FileFunction,Plated,1,2,PTH
FMAT,2
METRIC
; #@! TA.AperFunction,Plated,PTH,ComponentDrill
T1C0.400
; #@! TA.AperFunction,Plated,PTH,ComponentDrill
T2C2.200
%
G90
G05
T1
X95.1Y-85.75
X95.583Y-84.583
X95.583Y-86.917
X96.75Y-84.1
X96.75Y-87.4
X97.917Y-84.583
X97.917Y-86.917
X98.4Y-85.75
X119.1Y-126.75
X119.583Y-125.583
X119.583Y-127.917
X120.75Y-125.1
X120.75Y-128.4
X121.917Y-125.583
X121.917Y-127.917
X122.4Y-126.75
X133.35Y-68.25
X133.833Y-67.083
X133.833Y-69.417
X135.0Y-66.6
X135.0Y-69.9
X136.167Y-67.083
X136.167Y-69.417
X136.65Y-68.25
X192.819Y-141.287
X193.302Y-140.121
X193.302Y-142.454
X194.469Y-139.637
X194.469Y-142.938
X195.635Y-140.121
X195.635Y-142.454
X196.119Y-141.287
T2
X96.75Y-85.75
X120.75Y-126.75
X135.0Y-68.25
X194.469Y-141.287
T0
M30
