%FSLAX45Y45*%
G04 Gerber Fmt 4.5, Leading zero omitted, Abs format (unit mm)*
G04 Created by KiCad (PCBNEW (6.0.4-0)) date 2022-05-15 19:58:28*
%MOMM*%
%LPD*%
G01*
G04 APERTURE LIST*
%TA.AperFunction,Profile*%
%ADD10C,0.050000*%
%TD*%
%ADD11C,0.200000*%
G04 APERTURE END LIST*
D10*
X18194931Y-6960571D02*
X18200000Y-6975000D01*
X18200000Y-6975000D02*
G75*
G03*
X18500000Y-7275000I300000J0D01*
G01*
X20500000Y-7775000D02*
X20500000Y-13000000D01*
X7774954Y-5914571D02*
X7779480Y-11863649D01*
X18500000Y-7275000D02*
X20000000Y-7275000D01*
X18194932Y-6960571D02*
G75*
G03*
X17303750Y-5159375I-2197522J33791D01*
G01*
X20500000Y-7775000D02*
G75*
G03*
X20000000Y-7275000I-500000J0D01*
G01*
X12174926Y-13949323D02*
G75*
G03*
X7779480Y-11863649I-4496261J-3801207D01*
G01*
X17303750Y-5159375D02*
G75*
G03*
X7774954Y-5914571I-4127500J-8413750D01*
G01*
X17812861Y-16325288D02*
G75*
G03*
X12174925Y-13949323I-4949949J-3868630D01*
G01*
X17812861Y-16325288D02*
G75*
G03*
X20500000Y-13000000I-1704573J4125824D01*
G01*
D11*
X8030073Y-16638264D02*
X8030073Y-16438264D01*
X8077692Y-16438264D01*
X8106264Y-16447788D01*
X8125311Y-16466836D01*
X8134835Y-16485883D01*
X8144359Y-16523979D01*
X8144359Y-16552550D01*
X8134835Y-16590645D01*
X8125311Y-16609693D01*
X8106264Y-16628740D01*
X8077692Y-16638264D01*
X8030073Y-16638264D01*
X8230073Y-16638264D02*
X8230073Y-16504931D01*
X8230073Y-16543026D02*
X8239597Y-16523979D01*
X8249121Y-16514455D01*
X8268168Y-16504931D01*
X8287216Y-16504931D01*
X8353883Y-16638264D02*
X8353883Y-16504931D01*
X8353883Y-16438264D02*
X8344359Y-16447788D01*
X8353883Y-16457312D01*
X8363406Y-16447788D01*
X8353883Y-16438264D01*
X8353883Y-16457312D01*
X8477692Y-16638264D02*
X8458645Y-16628740D01*
X8449121Y-16609693D01*
X8449121Y-16438264D01*
X8582454Y-16638264D02*
X8563406Y-16628740D01*
X8553883Y-16609693D01*
X8553883Y-16438264D01*
X8811026Y-16638264D02*
X8811026Y-16438264D01*
X8877692Y-16581121D01*
X8944359Y-16438264D01*
X8944359Y-16638264D01*
X9125311Y-16638264D02*
X9125311Y-16533502D01*
X9115787Y-16514455D01*
X9096740Y-16504931D01*
X9058645Y-16504931D01*
X9039597Y-16514455D01*
X9125311Y-16628740D02*
X9106264Y-16638264D01*
X9058645Y-16638264D01*
X9039597Y-16628740D01*
X9030073Y-16609693D01*
X9030073Y-16590645D01*
X9039597Y-16571598D01*
X9058645Y-16562074D01*
X9106264Y-16562074D01*
X9125311Y-16552550D01*
X9220549Y-16504931D02*
X9220549Y-16704931D01*
X9220549Y-16514455D02*
X9239597Y-16504931D01*
X9277692Y-16504931D01*
X9296740Y-16514455D01*
X9306264Y-16523979D01*
X9315787Y-16543026D01*
X9315787Y-16600169D01*
X9306264Y-16619217D01*
X9296740Y-16628740D01*
X9277692Y-16638264D01*
X9239597Y-16638264D01*
X9220549Y-16628740D01*
X9401502Y-16619217D02*
X9411026Y-16628740D01*
X9401502Y-16638264D01*
X9391978Y-16628740D01*
X9401502Y-16619217D01*
X9401502Y-16638264D01*
X9401502Y-16514455D02*
X9411026Y-16523979D01*
X9401502Y-16533502D01*
X9391978Y-16523979D01*
X9401502Y-16514455D01*
X9401502Y-16533502D01*
M02*
