M48
; DRILL file {KiCad (6.0.4-0)} date Sunday, May 15, 2022 at 08:04:55 PM
; FORMAT={-:-/ absolute / metric / decimal}
; #@! TF.CreationDate,2022-05-15T20:04:55-07:00
; #@! TF.GenerationSoftware,Kicad,Pcbnew,(6.0.4-0)
; #@! TF.FileFunction,Plated,1,2,PTH
FMAT,2
METRIC
; #@! TA.AperFunction,Plated,PTH,ComponentDrill
T1C0.400
; #@! TA.AperFunction,Plated,PTH,ComponentDrill
T2C2.200
%
G90
G05
T1
X95.25Y-85.7
X95.733Y-84.533
X95.733Y-86.867
X96.9Y-84.05
X96.9Y-87.35
X98.067Y-84.533
X98.067Y-86.867
X98.55Y-85.7
X119.05Y-126.7
X119.533Y-125.533
X119.533Y-127.867
X120.7Y-125.05
X120.7Y-128.35
X121.867Y-125.533
X121.867Y-127.867
X122.35Y-126.7
X133.35Y-68.3
X133.833Y-67.133
X133.833Y-69.467
X135.0Y-66.65
X135.0Y-69.95
X136.167Y-67.133
X136.167Y-69.467
X136.65Y-68.3
X192.819Y-141.287
X193.302Y-140.121
X193.302Y-142.454
X194.469Y-139.637
X194.469Y-142.938
X195.635Y-140.121
X195.635Y-142.454
X196.119Y-141.287
T2
X96.9Y-85.7
X120.7Y-126.7
X135.0Y-68.3
X194.469Y-141.287
T0
M30
