G04 #@! TF.GenerationSoftware,KiCad,Pcbnew,(6.0.4-0)*
G04 #@! TF.CreationDate,2022-05-15T20:04:51-07:00*
G04 #@! TF.ProjectId,split_3x_plate_bigger_encoder_gerber,73706c69-745f-4337-985f-706c6174655f,rev?*
G04 #@! TF.SameCoordinates,Original*
G04 #@! TF.FileFunction,Profile,NP*
%FSLAX46Y46*%
G04 Gerber Fmt 4.6, Leading zero omitted, Abs format (unit mm)*
G04 Created by KiCad (PCBNEW (6.0.4-0)) date 2022-05-15 20:04:51*
%MOMM*%
%LPD*%
G01*
G04 APERTURE LIST*
G04 #@! TA.AperFunction,Profile*
%ADD10C,0.050000*%
G04 #@! TD*
G04 APERTURE END LIST*
D10*
X80250000Y-76750000D02*
X80250000Y-62500000D01*
X80250000Y-95750000D02*
X80250000Y-81500000D01*
X94500000Y-95750000D02*
X94250000Y-95750000D01*
X80250000Y-114750000D02*
X80250000Y-100750000D01*
X80250000Y-100750000D02*
X94250000Y-100750000D01*
X94250000Y-100750000D02*
X94250000Y-114750000D01*
X94250000Y-114750000D02*
X80250000Y-114750000D01*
X170500000Y-106850000D02*
X156500000Y-106850000D01*
X156500000Y-106850000D02*
X156500000Y-92850000D01*
X170500000Y-92850000D02*
X170500000Y-106850000D01*
X156500000Y-92850000D02*
X170500000Y-92850000D01*
X129400000Y-134700000D02*
X143200000Y-137100000D01*
X169500000Y-148500000D02*
X178700000Y-159600000D01*
X169500000Y-148500000D02*
X180400000Y-139500000D01*
X166021572Y-123015322D02*
X173006572Y-110950322D01*
X181587930Y-136108277D02*
X166021572Y-123015322D01*
X173006572Y-110950322D02*
X173250000Y-110000000D01*
X80250000Y-81500000D02*
X94250000Y-81500000D01*
X118400000Y-82850000D02*
X132400000Y-82850000D01*
X99250000Y-50750000D02*
X113250000Y-50750000D01*
X118400000Y-96850000D02*
X118400000Y-82850000D01*
X132300000Y-63750000D02*
X132300000Y-77750000D01*
X94500000Y-76750000D02*
X80250000Y-76750000D01*
X151400000Y-89750000D02*
X151400000Y-103750000D01*
X132400000Y-82850000D02*
X132400000Y-96850000D01*
X163200000Y-145200000D02*
X170400000Y-132800000D01*
X80250000Y-62500000D02*
X94500000Y-62500000D01*
X137400000Y-89750000D02*
X151400000Y-89750000D01*
X132400000Y-96850000D02*
X118400000Y-96850000D01*
X94500000Y-62500000D02*
X94500000Y-76750000D01*
X198521567Y-139078078D02*
X181587930Y-136108277D01*
X173037499Y-51593751D02*
X173250000Y-110000000D01*
X151400000Y-70750000D02*
X151400000Y-84750000D01*
X77749541Y-59145712D02*
X77794796Y-118636490D01*
X198906859Y-145704303D02*
G75*
G03*
X198521567Y-139078078I-3854259J3100203D01*
G01*
X156500000Y-73750000D02*
X170500000Y-73750000D01*
X113250000Y-50750000D02*
X113250000Y-64750000D01*
X113250000Y-83750000D02*
X99250000Y-83750000D01*
X113250000Y-64750000D02*
X99250000Y-64750000D01*
X94250000Y-81500000D02*
X94500000Y-81500000D01*
X143200000Y-137100000D02*
X145600000Y-123300000D01*
X137400000Y-65750000D02*
X137400000Y-51750000D01*
X178128605Y-163252883D02*
G75*
G03*
X121749255Y-139493235I-49499485J-38686297D01*
G01*
X118300000Y-58750000D02*
X118300000Y-44750000D01*
X99250000Y-102750000D02*
X99250000Y-88750000D01*
X99250000Y-69750000D02*
X113250000Y-69750000D01*
X99250000Y-83750000D02*
X99250000Y-69750000D01*
X121749257Y-139493234D02*
G75*
G03*
X77794796Y-118636490I-44962607J-38012066D01*
G01*
X158000000Y-125900000D02*
X170400000Y-132800000D01*
X132300000Y-77750000D02*
X118300000Y-77750000D01*
X137400000Y-70750000D02*
X151400000Y-70750000D01*
X178128606Y-163252881D02*
G75*
G03*
X198906839Y-145704287I-17045726J41258241D01*
G01*
X151400000Y-65750000D02*
X137400000Y-65750000D01*
X113250000Y-88750000D02*
X113250000Y-102750000D01*
X158000000Y-125900000D02*
X150900000Y-138200000D01*
X163200000Y-145200000D02*
X150900000Y-138200000D01*
X99250000Y-88750000D02*
X113250000Y-88750000D01*
X137400000Y-51750000D02*
X151400000Y-51750000D01*
X118300000Y-63750000D02*
X132300000Y-63750000D01*
X173037499Y-51593751D02*
G75*
G03*
X77749541Y-59145712I-41274999J-84137499D01*
G01*
X178700000Y-159600000D02*
X189600000Y-150600000D01*
X180400000Y-139500000D02*
X189600000Y-150600000D01*
X170400000Y-54750000D02*
X170400000Y-68750000D01*
X94500000Y-81500000D02*
X94500000Y-95750000D01*
X132300000Y-58750000D02*
X118300000Y-58750000D01*
X156500000Y-87750000D02*
X156500000Y-73750000D01*
X94250000Y-95750000D02*
X80250000Y-95750000D01*
X131700000Y-120800000D02*
X129400000Y-134700000D01*
X151400000Y-103750000D02*
X137400000Y-103750000D01*
X132300000Y-44750000D02*
X132300000Y-58750000D01*
X156400000Y-68750000D02*
X156400000Y-54750000D01*
X170400000Y-68750000D02*
X156400000Y-68750000D01*
X151400000Y-84750000D02*
X137400000Y-84750000D01*
X151400000Y-51750000D02*
X151400000Y-65750000D01*
X113250000Y-102750000D02*
X99250000Y-102750000D01*
X137400000Y-103750000D02*
X137400000Y-89750000D01*
X156400000Y-54750000D02*
X170400000Y-54750000D01*
X113250000Y-69750000D02*
X113250000Y-83750000D01*
X118300000Y-44750000D02*
X132300000Y-44750000D01*
X170500000Y-73750000D02*
X170500000Y-87750000D01*
X137400000Y-84750000D02*
X137400000Y-70750000D01*
X170500000Y-87750000D02*
X156500000Y-87750000D01*
X145600000Y-123300000D02*
X131700000Y-120800000D01*
X99250000Y-64750000D02*
X99250000Y-50750000D01*
X118300000Y-77750000D02*
X118300000Y-63750000D01*
M02*
