%FSLAX45Y45*%
G04 Gerber Fmt 4.5, Leading zero omitted, Abs format (unit mm)*
G04 Created by KiCad (PCBNEW (6.0.4-0)) date 2022-05-15 20:04:57*
%MOMM*%
%LPD*%
G01*
G04 APERTURE LIST*
%TA.AperFunction,Profile*%
%ADD10C,0.050000*%
%TD*%
%ADD11C,0.200000*%
G04 APERTURE END LIST*
D10*
X8025000Y-7675000D02*
X8025000Y-6250000D01*
X8025000Y-9575000D02*
X8025000Y-8150000D01*
X9450000Y-9575000D02*
X9425000Y-9575000D01*
X8025000Y-11475000D02*
X8025000Y-10075000D01*
X8025000Y-10075000D02*
X9425000Y-10075000D01*
X9425000Y-10075000D02*
X9425000Y-11475000D01*
X9425000Y-11475000D02*
X8025000Y-11475000D01*
X17050000Y-10685000D02*
X15650000Y-10685000D01*
X15650000Y-10685000D02*
X15650000Y-9285000D01*
X17050000Y-9285000D02*
X17050000Y-10685000D01*
X15650000Y-9285000D02*
X17050000Y-9285000D01*
X12940000Y-13470000D02*
X14320000Y-13710000D01*
X16950000Y-14850000D02*
X17870000Y-15960000D01*
X16950000Y-14850000D02*
X18040000Y-13950000D01*
X16602157Y-12301532D02*
X17300657Y-11095032D01*
X18158793Y-13610828D02*
X16602157Y-12301532D01*
X17300657Y-11095032D02*
X17325000Y-11000000D01*
X8025000Y-8150000D02*
X9425000Y-8150000D01*
X11840000Y-8285000D02*
X13240000Y-8285000D01*
X9925000Y-5075000D02*
X11325000Y-5075000D01*
X11840000Y-9685000D02*
X11840000Y-8285000D01*
X13230000Y-6375000D02*
X13230000Y-7775000D01*
X9450000Y-7675000D02*
X8025000Y-7675000D01*
X15140000Y-8975000D02*
X15140000Y-10375000D01*
X13240000Y-8285000D02*
X13240000Y-9685000D01*
X16320000Y-14520000D02*
X17040000Y-13280000D01*
X8025000Y-6250000D02*
X9450000Y-6250000D01*
X13740000Y-8975000D02*
X15140000Y-8975000D01*
X13240000Y-9685000D02*
X11840000Y-9685000D01*
X9450000Y-6250000D02*
X9450000Y-7675000D01*
X19852157Y-13907808D02*
X18158793Y-13610828D01*
X17303750Y-5159375D02*
X17325000Y-11000000D01*
X15140000Y-7075000D02*
X15140000Y-8475000D01*
X7774954Y-5914571D02*
X7779480Y-11863649D01*
X19890686Y-14570430D02*
G75*
G03*
X19852157Y-13907808I-385426J310020D01*
G01*
X15650000Y-7375000D02*
X17050000Y-7375000D01*
X11325000Y-5075000D02*
X11325000Y-6475000D01*
X11325000Y-8375000D02*
X9925000Y-8375000D01*
X11325000Y-6475000D02*
X9925000Y-6475000D01*
X9425000Y-8150000D02*
X9450000Y-8150000D01*
X14320000Y-13710000D02*
X14560000Y-12330000D01*
X13740000Y-6575000D02*
X13740000Y-5175000D01*
X17812861Y-16325288D02*
G75*
G03*
X12174925Y-13949323I-4949949J-3868630D01*
G01*
X11830000Y-5875000D02*
X11830000Y-4475000D01*
X9925000Y-10275000D02*
X9925000Y-8875000D01*
X9925000Y-6975000D02*
X11325000Y-6975000D01*
X9925000Y-8375000D02*
X9925000Y-6975000D01*
X12174926Y-13949323D02*
G75*
G03*
X7779480Y-11863649I-4496261J-3801207D01*
G01*
X15800000Y-12590000D02*
X17040000Y-13280000D01*
X13230000Y-7775000D02*
X11830000Y-7775000D01*
X13740000Y-7075000D02*
X15140000Y-7075000D01*
X17812861Y-16325288D02*
G75*
G03*
X19890684Y-14570429I-1704573J4125824D01*
G01*
X15140000Y-6575000D02*
X13740000Y-6575000D01*
X11325000Y-8875000D02*
X11325000Y-10275000D01*
X15800000Y-12590000D02*
X15090000Y-13820000D01*
X16320000Y-14520000D02*
X15090000Y-13820000D01*
X9925000Y-8875000D02*
X11325000Y-8875000D01*
X13740000Y-5175000D02*
X15140000Y-5175000D01*
X11830000Y-6375000D02*
X13230000Y-6375000D01*
X17303750Y-5159375D02*
G75*
G03*
X7774954Y-5914571I-4127500J-8413750D01*
G01*
X17870000Y-15960000D02*
X18960000Y-15060000D01*
X18040000Y-13950000D02*
X18960000Y-15060000D01*
X17040000Y-5475000D02*
X17040000Y-6875000D01*
X9450000Y-8150000D02*
X9450000Y-9575000D01*
X13230000Y-5875000D02*
X11830000Y-5875000D01*
X15650000Y-8775000D02*
X15650000Y-7375000D01*
X9425000Y-9575000D02*
X8025000Y-9575000D01*
X13170000Y-12080000D02*
X12940000Y-13470000D01*
X15140000Y-10375000D02*
X13740000Y-10375000D01*
X13230000Y-4475000D02*
X13230000Y-5875000D01*
X15640000Y-6875000D02*
X15640000Y-5475000D01*
X17040000Y-6875000D02*
X15640000Y-6875000D01*
X15140000Y-8475000D02*
X13740000Y-8475000D01*
X15140000Y-5175000D02*
X15140000Y-6575000D01*
X11325000Y-10275000D02*
X9925000Y-10275000D01*
X13740000Y-10375000D02*
X13740000Y-8975000D01*
X15640000Y-5475000D02*
X17040000Y-5475000D01*
X11325000Y-6975000D02*
X11325000Y-8375000D01*
X11830000Y-4475000D02*
X13230000Y-4475000D01*
X17050000Y-7375000D02*
X17050000Y-8775000D01*
X13740000Y-8475000D02*
X13740000Y-7075000D01*
X17050000Y-8775000D02*
X15650000Y-8775000D01*
X14560000Y-12330000D02*
X13170000Y-12080000D01*
X9925000Y-6475000D02*
X9925000Y-5075000D01*
X11830000Y-7775000D02*
X11830000Y-6375000D01*
D11*
X8030073Y-16638264D02*
X8030073Y-16438264D01*
X8077692Y-16438264D01*
X8106264Y-16447788D01*
X8125311Y-16466836D01*
X8134835Y-16485883D01*
X8144359Y-16523979D01*
X8144359Y-16552550D01*
X8134835Y-16590645D01*
X8125311Y-16609693D01*
X8106264Y-16628740D01*
X8077692Y-16638264D01*
X8030073Y-16638264D01*
X8230073Y-16638264D02*
X8230073Y-16504931D01*
X8230073Y-16543026D02*
X8239597Y-16523979D01*
X8249121Y-16514455D01*
X8268168Y-16504931D01*
X8287216Y-16504931D01*
X8353883Y-16638264D02*
X8353883Y-16504931D01*
X8353883Y-16438264D02*
X8344359Y-16447788D01*
X8353883Y-16457312D01*
X8363406Y-16447788D01*
X8353883Y-16438264D01*
X8353883Y-16457312D01*
X8477692Y-16638264D02*
X8458645Y-16628740D01*
X8449121Y-16609693D01*
X8449121Y-16438264D01*
X8582454Y-16638264D02*
X8563406Y-16628740D01*
X8553883Y-16609693D01*
X8553883Y-16438264D01*
X8811026Y-16638264D02*
X8811026Y-16438264D01*
X8877692Y-16581121D01*
X8944359Y-16438264D01*
X8944359Y-16638264D01*
X9125311Y-16638264D02*
X9125311Y-16533502D01*
X9115787Y-16514455D01*
X9096740Y-16504931D01*
X9058645Y-16504931D01*
X9039597Y-16514455D01*
X9125311Y-16628740D02*
X9106264Y-16638264D01*
X9058645Y-16638264D01*
X9039597Y-16628740D01*
X9030073Y-16609693D01*
X9030073Y-16590645D01*
X9039597Y-16571598D01*
X9058645Y-16562074D01*
X9106264Y-16562074D01*
X9125311Y-16552550D01*
X9220549Y-16504931D02*
X9220549Y-16704931D01*
X9220549Y-16514455D02*
X9239597Y-16504931D01*
X9277692Y-16504931D01*
X9296740Y-16514455D01*
X9306264Y-16523979D01*
X9315787Y-16543026D01*
X9315787Y-16600169D01*
X9306264Y-16619217D01*
X9296740Y-16628740D01*
X9277692Y-16638264D01*
X9239597Y-16638264D01*
X9220549Y-16628740D01*
X9401502Y-16619217D02*
X9411026Y-16628740D01*
X9401502Y-16638264D01*
X9391978Y-16628740D01*
X9401502Y-16619217D01*
X9401502Y-16638264D01*
X9401502Y-16514455D02*
X9411026Y-16523979D01*
X9401502Y-16533502D01*
X9391978Y-16523979D01*
X9401502Y-16514455D01*
X9401502Y-16533502D01*
M02*
