G04 #@! TF.GenerationSoftware,KiCad,Pcbnew,(6.0.4-0)*
G04 #@! TF.CreationDate,2022-05-15T20:04:51-07:00*
G04 #@! TF.ProjectId,split_3x_plate_bigger_encoder_gerber,73706c69-745f-4337-985f-706c6174655f,rev?*
G04 #@! TF.SameCoordinates,Original*
G04 #@! TF.FileFunction,Copper,L2,Bot*
G04 #@! TF.FilePolarity,Positive*
%FSLAX46Y46*%
G04 Gerber Fmt 4.6, Leading zero omitted, Abs format (unit mm)*
G04 Created by KiCad (PCBNEW (6.0.4-0)) date 2022-05-15 20:04:51*
%MOMM*%
%LPD*%
G01*
G04 APERTURE LIST*
G04 #@! TA.AperFunction,ComponentPad*
%ADD10C,0.700000*%
G04 #@! TD*
G04 #@! TA.AperFunction,ComponentPad*
%ADD11C,4.400000*%
G04 #@! TD*
G04 APERTURE END LIST*
D10*
G04 #@! TO.P, ,1*
G04 #@! TO.N,N/C*
X195635476Y-140120774D03*
D11*
X194468750Y-141287500D03*
D10*
X194468750Y-142937500D03*
X195635476Y-142454226D03*
X193302024Y-140120774D03*
X196118750Y-141287500D03*
X193302024Y-142454226D03*
X194468750Y-139637500D03*
X192818750Y-141287500D03*
G04 #@! TD*
G04 #@! TO.P, ,1*
G04 #@! TO.N,N/C*
X135000000Y-69950000D03*
X133350000Y-68300000D03*
D11*
X135000000Y-68300000D03*
D10*
X136650000Y-68300000D03*
X136166726Y-69466726D03*
X133833274Y-67133274D03*
X133833274Y-69466726D03*
X136166726Y-67133274D03*
X135000000Y-66650000D03*
G04 #@! TD*
G04 #@! TO.P, ,1*
G04 #@! TO.N,N/C*
X119533274Y-125533274D03*
X119050000Y-126700000D03*
X120700000Y-128350000D03*
X122350000Y-126700000D03*
X121866726Y-127866726D03*
X121866726Y-125533274D03*
D11*
X120700000Y-126700000D03*
D10*
X120700000Y-125050000D03*
X119533274Y-127866726D03*
G04 #@! TD*
D11*
G04 #@! TO.P, ,1*
G04 #@! TO.N,N/C*
X96900000Y-85700000D03*
D10*
X96900000Y-87350000D03*
X98066726Y-84533274D03*
X95250000Y-85700000D03*
X96900000Y-84050000D03*
X95733274Y-84533274D03*
X95733274Y-86866726D03*
X98066726Y-86866726D03*
X98550000Y-85700000D03*
G04 #@! TD*
G04 #@! TA.AperFunction,NonConductor*
G36*
X131728342Y-42528014D02*
G01*
X132859896Y-42529926D01*
X132862440Y-42529956D01*
X134741753Y-42571092D01*
X134744296Y-42571174D01*
X136622294Y-42650246D01*
X136624836Y-42650378D01*
X137873054Y-42728211D01*
X138500970Y-42767364D01*
X138503495Y-42767548D01*
X140376849Y-42922393D01*
X140379344Y-42922624D01*
X142249270Y-43115275D01*
X142251744Y-43115556D01*
X144117303Y-43345917D01*
X144119789Y-43346249D01*
X145980348Y-43614238D01*
X145982856Y-43614625D01*
X147837615Y-43920130D01*
X147840121Y-43920569D01*
X148545763Y-44051486D01*
X149688320Y-44263463D01*
X149690782Y-44263946D01*
X151531701Y-44644097D01*
X151534188Y-44644636D01*
X153367028Y-45061876D01*
X153369503Y-45062466D01*
X155193545Y-45516633D01*
X155196008Y-45517273D01*
X157010485Y-46008175D01*
X157012934Y-46008864D01*
X158817173Y-46536319D01*
X158819606Y-46537057D01*
X160612781Y-47100825D01*
X160615144Y-47101593D01*
X161115762Y-47270167D01*
X162396683Y-47701494D01*
X162399086Y-47702331D01*
X164167989Y-48338028D01*
X164170375Y-48338912D01*
X165926200Y-49010245D01*
X165928567Y-49011178D01*
X167670412Y-49717804D01*
X167672719Y-49718767D01*
X169400027Y-50460459D01*
X169402298Y-50461462D01*
X171114217Y-51237857D01*
X171116475Y-51238909D01*
X171909866Y-51618229D01*
X172458801Y-51880675D01*
X172511631Y-51928104D01*
X172530451Y-51993892D01*
X172599061Y-70851543D01*
X172741208Y-109920706D01*
X172737268Y-109952430D01*
X172535686Y-110739390D01*
X172522672Y-110771253D01*
X165610401Y-122710630D01*
X165597288Y-122729188D01*
X165587180Y-122741057D01*
X165583511Y-122749253D01*
X165570742Y-122777774D01*
X165567034Y-122785023D01*
X165565453Y-122788265D01*
X165563208Y-122792144D01*
X165561535Y-122796303D01*
X165554335Y-122814196D01*
X165552445Y-122818644D01*
X165531331Y-122865807D01*
X165531330Y-122865812D01*
X165527664Y-122874000D01*
X165526515Y-122882370D01*
X165525761Y-122885209D01*
X165522605Y-122893054D01*
X165521727Y-122901982D01*
X165521726Y-122901985D01*
X165516666Y-122953426D01*
X165516101Y-122958219D01*
X165507852Y-123018304D01*
X165509098Y-123026657D01*
X165509172Y-123029607D01*
X165508345Y-123038012D01*
X165510008Y-123046828D01*
X165510008Y-123046831D01*
X165519584Y-123097600D01*
X165520389Y-123102366D01*
X165525976Y-123139823D01*
X165529338Y-123162368D01*
X165532877Y-123170034D01*
X165533777Y-123172847D01*
X165535342Y-123181145D01*
X165559325Y-123228254D01*
X165562861Y-123235199D01*
X165564971Y-123239548D01*
X165586630Y-123286460D01*
X165586632Y-123286464D01*
X165590394Y-123294611D01*
X165595945Y-123300978D01*
X165597589Y-123303412D01*
X165601426Y-123310949D01*
X165643036Y-123355133D01*
X165646242Y-123358672D01*
X165663940Y-123378972D01*
X165667667Y-123382107D01*
X165671140Y-123385519D01*
X165671105Y-123385554D01*
X165676396Y-123390557D01*
X165679167Y-123393499D01*
X165701287Y-123416987D01*
X165718116Y-123426868D01*
X165735421Y-123439095D01*
X181212293Y-136456784D01*
X181229652Y-136474591D01*
X181235949Y-136482478D01*
X181243293Y-136487639D01*
X181273378Y-136508782D01*
X181282030Y-136515440D01*
X181285123Y-136518041D01*
X181288557Y-136520929D01*
X181302603Y-136529678D01*
X181304122Y-136530624D01*
X181309948Y-136534481D01*
X181329243Y-136548040D01*
X181355123Y-136566227D01*
X181363619Y-136569119D01*
X181368367Y-136571533D01*
X181373265Y-136573690D01*
X181380885Y-136578436D01*
X181389529Y-136580852D01*
X181389533Y-136580854D01*
X181434045Y-136593296D01*
X181440728Y-136595365D01*
X181461072Y-136602290D01*
X181468746Y-136603636D01*
X181480889Y-136606391D01*
X181521165Y-136617649D01*
X181530140Y-136617542D01*
X181535178Y-136617482D01*
X181558446Y-136619367D01*
X187209790Y-137610493D01*
X193139874Y-138650504D01*
X193163491Y-138654646D01*
X193227132Y-138686115D01*
X193263657Y-138746995D01*
X193261470Y-138817958D01*
X193221265Y-138876473D01*
X193206148Y-138887037D01*
X192946824Y-139041317D01*
X192946818Y-139041321D01*
X192943564Y-139043257D01*
X192940562Y-139045573D01*
X192731041Y-139207218D01*
X192684994Y-139242743D01*
X192682284Y-139245411D01*
X192481368Y-139443196D01*
X192452263Y-139471847D01*
X192449899Y-139474814D01*
X192449896Y-139474817D01*
X192432970Y-139496058D01*
X192248741Y-139727251D01*
X192077376Y-140005257D01*
X191940652Y-140301836D01*
X191939491Y-140305440D01*
X191939491Y-140305441D01*
X191930946Y-140331977D01*
X191840547Y-140612692D01*
X191839829Y-140616403D01*
X191839828Y-140616407D01*
X191779232Y-140929605D01*
X191779231Y-140929614D01*
X191778513Y-140933324D01*
X191778246Y-140937100D01*
X191778245Y-140937105D01*
X191755716Y-141255296D01*
X191755448Y-141259085D01*
X191771686Y-141585259D01*
X191772327Y-141588990D01*
X191772328Y-141588998D01*
X191816035Y-141843356D01*
X191826991Y-141907119D01*
X191828079Y-141910758D01*
X191828080Y-141910761D01*
X191837078Y-141940846D01*
X191920564Y-142220004D01*
X192051047Y-142519381D01*
X192052970Y-142522652D01*
X192052972Y-142522656D01*
X192095334Y-142594715D01*
X192216552Y-142800914D01*
X192218853Y-142803929D01*
X192412381Y-143057512D01*
X192412386Y-143057517D01*
X192414681Y-143060525D01*
X192476681Y-143124170D01*
X192621243Y-143272566D01*
X192642564Y-143294453D01*
X192715385Y-143353107D01*
X192893946Y-143496931D01*
X192893951Y-143496935D01*
X192896899Y-143499309D01*
X193174003Y-143672127D01*
X193469862Y-143810403D01*
X193473471Y-143811586D01*
X193689637Y-143882449D01*
X193780190Y-143912134D01*
X194100492Y-143975846D01*
X194104264Y-143976133D01*
X194104272Y-143976134D01*
X194422352Y-144000329D01*
X194422357Y-144000329D01*
X194426129Y-144000616D01*
X194752383Y-143986086D01*
X194812175Y-143976134D01*
X195070787Y-143933090D01*
X195070792Y-143933089D01*
X195074528Y-143932467D01*
X195387899Y-143840534D01*
X195391366Y-143839044D01*
X195391370Y-143839043D01*
X195684471Y-143713116D01*
X195684473Y-143713115D01*
X195687955Y-143711619D01*
X195970351Y-143547591D01*
X196230995Y-143350824D01*
X196348554Y-143237497D01*
X196463382Y-143126803D01*
X196463385Y-143126800D01*
X196466113Y-143124170D01*
X196672299Y-142870910D01*
X196745870Y-142754307D01*
X196844538Y-142597928D01*
X196844540Y-142597925D01*
X196846565Y-142594715D01*
X196986388Y-142299584D01*
X197012938Y-142220004D01*
X197088540Y-141993397D01*
X197088542Y-141993391D01*
X197089742Y-141989793D01*
X197155131Y-141669829D01*
X197155930Y-141660014D01*
X197173548Y-141443399D01*
X197181606Y-141344326D01*
X197182201Y-141287500D01*
X197180260Y-141255296D01*
X197162776Y-140965293D01*
X197162776Y-140965289D01*
X197162548Y-140961515D01*
X197157400Y-140933324D01*
X197104555Y-140643973D01*
X197104554Y-140643969D01*
X197103875Y-140640251D01*
X197096472Y-140616407D01*
X197030135Y-140402769D01*
X197007032Y-140328363D01*
X196873420Y-140030369D01*
X196704976Y-139750584D01*
X196702649Y-139747600D01*
X196702644Y-139747593D01*
X196506476Y-139496058D01*
X196506474Y-139496056D01*
X196504140Y-139493063D01*
X196479935Y-139468731D01*
X196446073Y-139406330D01*
X196451323Y-139335528D01*
X196494018Y-139278804D01*
X196560603Y-139254167D01*
X196591028Y-139255763D01*
X198224162Y-139542180D01*
X198287803Y-139573649D01*
X198294795Y-139580621D01*
X198433731Y-139730481D01*
X198438295Y-139735404D01*
X198445765Y-139744244D01*
X198639184Y-139995712D01*
X198687356Y-140058341D01*
X198693984Y-140067830D01*
X198858678Y-140328363D01*
X198905713Y-140402769D01*
X198911442Y-140412825D01*
X199091538Y-140765806D01*
X199096321Y-140776352D01*
X199243246Y-141144365D01*
X199247041Y-141155305D01*
X199359560Y-141535252D01*
X199362334Y-141546494D01*
X199439495Y-141935156D01*
X199441226Y-141946605D01*
X199482383Y-142340726D01*
X199483055Y-142352287D01*
X199487855Y-142748512D01*
X199487463Y-142760081D01*
X199458575Y-143121223D01*
X199455867Y-143155083D01*
X199454414Y-143166571D01*
X199386690Y-143556991D01*
X199384189Y-143568297D01*
X199310693Y-143840534D01*
X199280907Y-143950862D01*
X199277378Y-143961891D01*
X199139412Y-144333350D01*
X199134886Y-144344008D01*
X198963399Y-144701239D01*
X198957913Y-144711437D01*
X198754361Y-145051406D01*
X198747963Y-145061057D01*
X198536251Y-145350558D01*
X198519408Y-145369317D01*
X198517136Y-145371387D01*
X198517133Y-145371390D01*
X198510500Y-145377434D01*
X198500240Y-145394268D01*
X198487843Y-145411238D01*
X198480806Y-145419353D01*
X198480803Y-145419357D01*
X198474924Y-145426137D01*
X198463393Y-145451287D01*
X198454671Y-145467180D01*
X198115998Y-145990942D01*
X197802638Y-146475556D01*
X197800687Y-146478483D01*
X197412221Y-147043710D01*
X197099290Y-147499033D01*
X197097252Y-147501910D01*
X196385735Y-148477215D01*
X196367430Y-148502307D01*
X196365311Y-148505128D01*
X196075248Y-148880096D01*
X195607629Y-149484594D01*
X195605421Y-149487367D01*
X194820493Y-150445111D01*
X194818207Y-150447822D01*
X194006635Y-151383110D01*
X194004274Y-151385755D01*
X193380794Y-152064706D01*
X193166694Y-152297854D01*
X193164259Y-152300431D01*
X192301383Y-153188563D01*
X192298877Y-153191071D01*
X191411338Y-154054592D01*
X191408778Y-154057013D01*
X190497247Y-154895262D01*
X190494658Y-154897577D01*
X189617759Y-155659570D01*
X189559896Y-155709851D01*
X189557187Y-155712138D01*
X188600022Y-156497722D01*
X188597250Y-156499933D01*
X187870834Y-157062686D01*
X187618330Y-157258300D01*
X187615512Y-157260421D01*
X186615616Y-157990963D01*
X186612739Y-157993004D01*
X186335102Y-158184105D01*
X185592709Y-158695104D01*
X185589761Y-158697073D01*
X184550364Y-159370208D01*
X184547361Y-159372093D01*
X183489458Y-160015701D01*
X183486406Y-160017499D01*
X183323589Y-160110381D01*
X182410805Y-160631093D01*
X182407701Y-160632806D01*
X181315268Y-161215888D01*
X181312168Y-161217488D01*
X180692285Y-161526262D01*
X180203708Y-161769630D01*
X180200512Y-161771166D01*
X179077007Y-162291876D01*
X179073770Y-162293321D01*
X178918857Y-162359890D01*
X178428237Y-162570718D01*
X178376056Y-162593141D01*
X178305572Y-162601659D01*
X178241672Y-162570718D01*
X178228003Y-162556192D01*
X177550757Y-161711458D01*
X177550736Y-161711433D01*
X177550265Y-161710845D01*
X177133561Y-161216720D01*
X176537855Y-160510335D01*
X176537841Y-160510319D01*
X176537320Y-160509701D01*
X176536825Y-160509143D01*
X176536795Y-160509108D01*
X175528620Y-159372093D01*
X175494891Y-159334053D01*
X174899389Y-158695104D01*
X174424122Y-158185162D01*
X174424099Y-158185138D01*
X174423620Y-158184624D01*
X173554697Y-157297486D01*
X173324718Y-157062686D01*
X173324696Y-157062664D01*
X173324166Y-157062123D01*
X172745505Y-156499933D01*
X172197812Y-155967829D01*
X172197781Y-155967800D01*
X172197206Y-155967241D01*
X171921252Y-155712138D01*
X171044033Y-154901204D01*
X171043434Y-154900650D01*
X170084176Y-154057029D01*
X169864111Y-153863492D01*
X169864090Y-153863474D01*
X169863559Y-153863007D01*
X169058706Y-153189839D01*
X168658935Y-152855476D01*
X168658915Y-152855460D01*
X168658308Y-152854952D01*
X168657663Y-152854439D01*
X167429030Y-151877586D01*
X167429010Y-151877571D01*
X167428422Y-151877103D01*
X167264186Y-151753046D01*
X166175241Y-150930504D01*
X166175221Y-150930490D01*
X166174658Y-150930064D01*
X166174099Y-150929663D01*
X166174073Y-150929644D01*
X165192868Y-150226019D01*
X164897789Y-150014417D01*
X163619994Y-149145278D01*
X163599250Y-149131168D01*
X163599224Y-149131151D01*
X163598598Y-149130725D01*
X163597942Y-149130302D01*
X163597916Y-149130285D01*
X162965584Y-148722750D01*
X162598348Y-148486068D01*
X168986460Y-148486068D01*
X168987491Y-148494984D01*
X168987491Y-148494987D01*
X168989478Y-148512166D01*
X168990250Y-148530592D01*
X168989426Y-148556845D01*
X168991674Y-148565534D01*
X168991674Y-148565537D01*
X168996681Y-148584895D01*
X168999862Y-148601974D01*
X169003191Y-148630762D01*
X169006683Y-148639030D01*
X169006683Y-148639031D01*
X169013413Y-148654966D01*
X169019325Y-148672432D01*
X169023655Y-148689173D01*
X169023656Y-148689177D01*
X169025903Y-148697861D01*
X169030499Y-148705570D01*
X169040741Y-148722750D01*
X169048586Y-148738248D01*
X169059861Y-148764944D01*
X169081733Y-148791765D01*
X169082448Y-148792707D01*
X169083214Y-148793992D01*
X169085708Y-148797001D01*
X169103630Y-148818624D01*
X169104267Y-148819398D01*
X169151913Y-148877827D01*
X169153388Y-148878841D01*
X169154579Y-148880096D01*
X171230263Y-151384453D01*
X177994462Y-159545605D01*
X178303600Y-159918587D01*
X178304093Y-159919186D01*
X178351913Y-159977827D01*
X178371482Y-159991279D01*
X178376771Y-159994914D01*
X178390026Y-160005401D01*
X178403187Y-160017333D01*
X178412377Y-160025665D01*
X178420455Y-160029587D01*
X178434941Y-160036620D01*
X178451283Y-160046131D01*
X178471948Y-160060336D01*
X178480470Y-160063138D01*
X178480473Y-160063140D01*
X178500599Y-160069758D01*
X178516268Y-160076104D01*
X178543407Y-160089281D01*
X178568135Y-160093462D01*
X178586493Y-160098006D01*
X178601783Y-160103034D01*
X178601784Y-160103034D01*
X178610316Y-160105840D01*
X178640464Y-160106842D01*
X178657269Y-160108534D01*
X178687026Y-160113565D01*
X178711942Y-160110637D01*
X178730832Y-160109846D01*
X178734383Y-160109964D01*
X178746918Y-160110381D01*
X178746920Y-160110381D01*
X178755893Y-160110679D01*
X178785108Y-160103180D01*
X178801721Y-160100086D01*
X178808548Y-160099284D01*
X178831689Y-160096564D01*
X178854780Y-160086761D01*
X178872689Y-160080699D01*
X178888282Y-160076697D01*
X178888284Y-160076696D01*
X178896977Y-160074465D01*
X178922906Y-160059071D01*
X178937992Y-160051435D01*
X178957499Y-160043154D01*
X178957506Y-160043150D01*
X178965764Y-160039644D01*
X178992266Y-160017951D01*
X178992596Y-160017700D01*
X178993214Y-160017333D01*
X179015371Y-159999038D01*
X179015568Y-159998876D01*
X179076249Y-159949205D01*
X179076250Y-159949204D01*
X179078476Y-159947382D01*
X179079045Y-159946552D01*
X179079755Y-159945877D01*
X189915526Y-150998910D01*
X189978476Y-150947382D01*
X189983546Y-150939977D01*
X189994851Y-150923465D01*
X190005623Y-150909849D01*
X190025128Y-150888416D01*
X190036647Y-150864804D01*
X190045917Y-150848875D01*
X190060761Y-150827193D01*
X190069761Y-150799654D01*
X190076283Y-150783551D01*
X190085056Y-150765567D01*
X190085056Y-150765566D01*
X190088989Y-150757504D01*
X190093418Y-150731605D01*
X190097848Y-150713704D01*
X190106006Y-150688741D01*
X190106915Y-150659778D01*
X190108656Y-150642494D01*
X190112026Y-150622784D01*
X190113540Y-150613931D01*
X190112509Y-150605015D01*
X190112509Y-150605011D01*
X190110522Y-150587833D01*
X190109750Y-150569406D01*
X190110574Y-150543155D01*
X190107755Y-150532255D01*
X190103319Y-150515107D01*
X190100137Y-150498022D01*
X190097840Y-150478157D01*
X190096809Y-150469237D01*
X190087202Y-150446490D01*
X190086587Y-150445034D01*
X190080674Y-150427565D01*
X190076344Y-150410826D01*
X190074097Y-150402139D01*
X190059259Y-150377250D01*
X190051414Y-150361752D01*
X190043633Y-150343328D01*
X190043632Y-150343326D01*
X190040139Y-150335056D01*
X190018267Y-150308235D01*
X190017552Y-150307293D01*
X190016786Y-150306008D01*
X189996367Y-150281373D01*
X189995731Y-150280599D01*
X189951223Y-150226019D01*
X189948087Y-150222173D01*
X189946612Y-150221159D01*
X189945421Y-150219904D01*
X184749457Y-143950862D01*
X180796337Y-139181336D01*
X180795907Y-139180814D01*
X180748087Y-139122173D01*
X180723224Y-139105083D01*
X180709971Y-139094598D01*
X180687623Y-139074335D01*
X180670540Y-139066041D01*
X180665062Y-139063381D01*
X180648722Y-139053871D01*
X180635448Y-139044747D01*
X180635449Y-139044747D01*
X180628052Y-139039663D01*
X180619528Y-139036860D01*
X180619526Y-139036859D01*
X180599394Y-139030239D01*
X180583720Y-139023890D01*
X180564672Y-139014641D01*
X180564669Y-139014640D01*
X180556593Y-139010719D01*
X180531864Y-139006538D01*
X180513513Y-139001996D01*
X180498211Y-138996964D01*
X180489684Y-138994160D01*
X180459536Y-138993158D01*
X180442731Y-138991466D01*
X180412974Y-138986435D01*
X180388058Y-138989363D01*
X180369168Y-138990154D01*
X180365409Y-138990029D01*
X180353083Y-138989619D01*
X180353081Y-138989619D01*
X180344108Y-138989321D01*
X180314893Y-138996820D01*
X180298277Y-138999915D01*
X180292746Y-139000565D01*
X180277226Y-139002388D01*
X180277223Y-139002389D01*
X180268311Y-139003436D01*
X180245220Y-139013239D01*
X180227315Y-139019299D01*
X180211723Y-139023301D01*
X180211716Y-139023304D01*
X180203024Y-139025535D01*
X180177080Y-139040937D01*
X180162013Y-139048564D01*
X180134236Y-139060356D01*
X180127291Y-139066041D01*
X180107736Y-139082048D01*
X180107406Y-139082299D01*
X180106786Y-139082667D01*
X180084578Y-139101004D01*
X180084270Y-139101256D01*
X180023753Y-139150794D01*
X180023744Y-139150803D01*
X180021525Y-139152619D01*
X180020959Y-139153445D01*
X180020248Y-139154120D01*
X169184632Y-148100959D01*
X169184219Y-148101299D01*
X169121525Y-148152619D01*
X169116454Y-148160026D01*
X169116452Y-148160028D01*
X169105155Y-148176528D01*
X169094381Y-148190147D01*
X169074872Y-148211583D01*
X169070938Y-148219649D01*
X169070936Y-148219651D01*
X169063352Y-148235199D01*
X169054074Y-148251139D01*
X169039239Y-148272807D01*
X169030236Y-148300357D01*
X169023720Y-148316444D01*
X169011012Y-148342495D01*
X169009499Y-148351341D01*
X169009499Y-148351342D01*
X169006585Y-148368384D01*
X169002155Y-148386285D01*
X168997054Y-148401895D01*
X168993994Y-148411259D01*
X168993713Y-148420228D01*
X168993712Y-148420231D01*
X168993085Y-148440221D01*
X168991344Y-148457505D01*
X168986460Y-148486068D01*
X162598348Y-148486068D01*
X162277887Y-148279532D01*
X162218821Y-148243506D01*
X160937129Y-147461765D01*
X160937119Y-147461759D01*
X160936468Y-147461362D01*
X160211871Y-147043710D01*
X159575841Y-146677107D01*
X159575812Y-146677091D01*
X159575167Y-146676719D01*
X158194820Y-145926086D01*
X157763589Y-145705262D01*
X156796983Y-145210284D01*
X156796951Y-145210268D01*
X156796279Y-145209924D01*
X156795558Y-145209577D01*
X155381106Y-144529012D01*
X155381090Y-144529004D01*
X155380403Y-144528674D01*
X153948064Y-143882755D01*
X153032540Y-143496931D01*
X152500820Y-143272851D01*
X152500799Y-143272843D01*
X152500143Y-143272566D01*
X151037531Y-142698480D01*
X149561129Y-142160853D01*
X148071845Y-141660014D01*
X146570595Y-141196272D01*
X146569884Y-141196072D01*
X146569845Y-141196060D01*
X145637921Y-140933324D01*
X145058304Y-140769913D01*
X143535902Y-140381198D01*
X142004327Y-140030366D01*
X142003614Y-140030221D01*
X142003590Y-140030216D01*
X140465264Y-139717786D01*
X140465256Y-139717784D01*
X140464520Y-139717635D01*
X139652830Y-139573649D01*
X138918221Y-139443336D01*
X138918183Y-139443330D01*
X138917429Y-139443196D01*
X138916652Y-139443078D01*
X138916640Y-139443076D01*
X138140717Y-139325207D01*
X137364006Y-139207218D01*
X136652173Y-139117087D01*
X135806016Y-139009948D01*
X135806002Y-139009946D01*
X135805209Y-139009846D01*
X135804399Y-139009764D01*
X135804392Y-139009763D01*
X134242745Y-138851278D01*
X134242728Y-138851276D01*
X134241994Y-138851202D01*
X134241260Y-138851146D01*
X134241239Y-138851144D01*
X132676130Y-138731444D01*
X132676091Y-138731441D01*
X132675326Y-138731383D01*
X132674552Y-138731343D01*
X132674535Y-138731342D01*
X132020294Y-138697604D01*
X131106167Y-138650464D01*
X131105399Y-138650443D01*
X131105387Y-138650443D01*
X129916846Y-138618684D01*
X129535484Y-138608493D01*
X128741881Y-138606980D01*
X127965011Y-138605499D01*
X127964975Y-138605499D01*
X127964243Y-138605498D01*
X127228575Y-138622349D01*
X126394187Y-138641461D01*
X126394167Y-138641462D01*
X126393412Y-138641479D01*
X126392678Y-138641514D01*
X126392651Y-138641515D01*
X124824724Y-138716377D01*
X124824698Y-138716379D01*
X124823956Y-138716414D01*
X124823205Y-138716469D01*
X124823181Y-138716470D01*
X123257649Y-138830199D01*
X123257619Y-138830202D01*
X123256842Y-138830258D01*
X123256044Y-138830336D01*
X123256043Y-138830336D01*
X122027849Y-138950251D01*
X121958107Y-138936963D01*
X121920410Y-138907393D01*
X121893599Y-138876473D01*
X121569487Y-138502696D01*
X121327257Y-138223348D01*
X150386802Y-138223348D01*
X150388477Y-138232166D01*
X150391957Y-138250488D01*
X150394040Y-138268272D01*
X150395296Y-138295872D01*
X150398204Y-138304363D01*
X150398206Y-138304373D01*
X150404245Y-138322006D01*
X150408828Y-138339314D01*
X150412307Y-138357627D01*
X150412308Y-138357631D01*
X150413983Y-138366447D01*
X150426553Y-138391058D01*
X150433535Y-138407523D01*
X150442491Y-138433671D01*
X150458417Y-138456243D01*
X150467666Y-138471558D01*
X150480234Y-138496166D01*
X150486398Y-138502694D01*
X150486399Y-138502696D01*
X150499200Y-138516254D01*
X150510536Y-138530113D01*
X150521287Y-138545350D01*
X150526464Y-138552687D01*
X150533488Y-138558273D01*
X150533491Y-138558276D01*
X150548078Y-138569876D01*
X150561271Y-138581995D01*
X150580231Y-138602076D01*
X150587977Y-138606610D01*
X150587976Y-138606610D01*
X150610341Y-138619703D01*
X150612216Y-138620884D01*
X150614059Y-138622349D01*
X150618288Y-138624756D01*
X150618290Y-138624757D01*
X150642222Y-138638376D01*
X150643527Y-138639130D01*
X150705933Y-138675663D01*
X150708537Y-138676314D01*
X150710909Y-138677467D01*
X162942033Y-145638270D01*
X162943644Y-145639203D01*
X163004719Y-145675166D01*
X163013423Y-145677367D01*
X163036062Y-145683092D01*
X163051340Y-145688010D01*
X163081429Y-145699859D01*
X163090366Y-145700671D01*
X163090368Y-145700672D01*
X163102063Y-145701735D01*
X163104255Y-145701934D01*
X163123734Y-145705262D01*
X163145932Y-145710875D01*
X163154901Y-145710545D01*
X163154902Y-145710545D01*
X163178243Y-145709686D01*
X163194282Y-145710118D01*
X163217550Y-145712233D01*
X163217553Y-145712233D01*
X163226488Y-145713045D01*
X163248965Y-145708633D01*
X163268595Y-145706359D01*
X163281141Y-145705897D01*
X163291491Y-145705516D01*
X163322171Y-145695305D01*
X163337679Y-145691221D01*
X163360606Y-145686721D01*
X163360615Y-145686718D01*
X163369418Y-145684990D01*
X163388366Y-145675166D01*
X163389759Y-145674444D01*
X163407964Y-145666752D01*
X163421173Y-145662356D01*
X163421178Y-145662354D01*
X163429695Y-145659519D01*
X163456271Y-145641112D01*
X163470018Y-145632833D01*
X163490761Y-145622078D01*
X163490762Y-145622077D01*
X163498730Y-145617946D01*
X163505220Y-145611743D01*
X163515297Y-145602112D01*
X163530601Y-145589626D01*
X163549434Y-145576581D01*
X163560525Y-145562881D01*
X163569782Y-145551447D01*
X163580645Y-145539651D01*
X163604025Y-145517303D01*
X163647929Y-145441243D01*
X170803679Y-133117452D01*
X170805144Y-133115268D01*
X170807056Y-133113405D01*
X170842625Y-133050393D01*
X170843313Y-133049192D01*
X170858080Y-133023760D01*
X170858950Y-133021605D01*
X170859979Y-133019650D01*
X170874246Y-132994376D01*
X170874247Y-132994374D01*
X170878657Y-132986561D01*
X170884054Y-132963447D01*
X170889920Y-132944919D01*
X170895451Y-132931223D01*
X170898812Y-132922901D01*
X170901937Y-132891548D01*
X170904614Y-132875404D01*
X170911779Y-132844719D01*
X170910472Y-132821017D01*
X170910902Y-132801584D01*
X170912366Y-132786896D01*
X170912366Y-132786893D01*
X170913256Y-132777962D01*
X170907455Y-132746990D01*
X170905493Y-132730737D01*
X170904253Y-132708244D01*
X170903759Y-132699282D01*
X170895854Y-132676904D01*
X170890811Y-132658127D01*
X170888094Y-132643618D01*
X170888093Y-132643616D01*
X170886441Y-132634794D01*
X170878315Y-132618783D01*
X170872182Y-132606697D01*
X170865737Y-132591647D01*
X170858233Y-132570407D01*
X170855243Y-132561943D01*
X170841373Y-132542680D01*
X170831270Y-132526085D01*
X170824583Y-132512909D01*
X170824582Y-132512907D01*
X170820521Y-132504906D01*
X170814379Y-132498367D01*
X170814375Y-132498362D01*
X170798951Y-132481943D01*
X170788535Y-132469300D01*
X170775376Y-132451024D01*
X170775371Y-132451019D01*
X170770130Y-132443740D01*
X170760436Y-132436182D01*
X170751406Y-132429140D01*
X170737048Y-132416044D01*
X170726941Y-132405285D01*
X170720795Y-132398742D01*
X170690835Y-132381100D01*
X170685586Y-132377819D01*
X170681870Y-132374922D01*
X170677621Y-132372558D01*
X170677614Y-132372553D01*
X170655466Y-132360229D01*
X170652798Y-132358701D01*
X170603021Y-132329390D01*
X170603017Y-132329388D01*
X170595281Y-132324833D01*
X170590264Y-132323564D01*
X170585137Y-132321095D01*
X169715265Y-131837053D01*
X158254942Y-125459938D01*
X158252554Y-125458575D01*
X158217770Y-125438212D01*
X158194067Y-125424336D01*
X158160520Y-125415944D01*
X158146063Y-125411387D01*
X158122144Y-125402233D01*
X158113762Y-125399025D01*
X158104820Y-125398299D01*
X158104817Y-125398298D01*
X158093179Y-125397353D01*
X158072807Y-125394001D01*
X158061475Y-125391166D01*
X158061468Y-125391165D01*
X158052764Y-125388988D01*
X158043794Y-125389341D01*
X158043793Y-125389341D01*
X158018215Y-125390348D01*
X158003060Y-125390033D01*
X158001286Y-125389889D01*
X157968582Y-125387233D01*
X157948349Y-125391407D01*
X157927867Y-125393906D01*
X157907219Y-125394719D01*
X157898707Y-125397576D01*
X157898708Y-125397576D01*
X157874438Y-125405722D01*
X157859799Y-125409674D01*
X157834721Y-125414847D01*
X157834719Y-125414848D01*
X157825929Y-125416661D01*
X157815570Y-125422159D01*
X157807688Y-125426342D01*
X157788709Y-125434498D01*
X157769133Y-125441069D01*
X157748195Y-125455651D01*
X157740757Y-125460831D01*
X157727820Y-125468729D01*
X157697268Y-125484944D01*
X157690836Y-125491211D01*
X157690835Y-125491212D01*
X157682472Y-125499361D01*
X157666553Y-125512509D01*
X157649606Y-125524312D01*
X157643975Y-125531304D01*
X157643972Y-125531307D01*
X157627916Y-125551245D01*
X157617715Y-125562458D01*
X157592944Y-125586595D01*
X157588534Y-125594408D01*
X157556561Y-125651049D01*
X157555961Y-125652101D01*
X150651474Y-137613395D01*
X150496150Y-137882477D01*
X150496048Y-137882627D01*
X150495975Y-137882697D01*
X150423158Y-138008848D01*
X150421033Y-138017570D01*
X150416620Y-138035678D01*
X150411155Y-138052729D01*
X150404216Y-138070040D01*
X150400876Y-138078372D01*
X150400009Y-138087303D01*
X150398206Y-138105878D01*
X150395213Y-138123534D01*
X150390799Y-138141646D01*
X150390799Y-138141650D01*
X150388675Y-138150365D01*
X150389083Y-138159329D01*
X150389930Y-138177952D01*
X150389471Y-138195851D01*
X150386802Y-138223348D01*
X121327257Y-138223348D01*
X121166896Y-138038414D01*
X121166882Y-138038398D01*
X121166332Y-138037764D01*
X120427811Y-137227986D01*
X120164247Y-136938992D01*
X120164240Y-136938984D01*
X120163675Y-136938365D01*
X119855955Y-136617482D01*
X119134349Y-135865011D01*
X119133791Y-135864429D01*
X118077327Y-134816630D01*
X117934053Y-134681481D01*
X128886605Y-134681481D01*
X128890016Y-134713487D01*
X128890696Y-134729568D01*
X128889996Y-134761758D01*
X128892327Y-134770424D01*
X128892327Y-134770425D01*
X128895986Y-134784029D01*
X128899601Y-134803402D01*
X128901070Y-134817179D01*
X128902044Y-134826319D01*
X128905461Y-134834616D01*
X128905463Y-134834624D01*
X128914300Y-134856082D01*
X128919467Y-134871330D01*
X128925497Y-134893746D01*
X128925499Y-134893750D01*
X128927830Y-134902417D01*
X128939830Y-134922111D01*
X128948730Y-134939679D01*
X128957512Y-134961001D01*
X128963126Y-134968012D01*
X128977630Y-134986127D01*
X128986870Y-134999314D01*
X129003620Y-135026803D01*
X129020668Y-135042341D01*
X129034134Y-135056696D01*
X129048552Y-135074702D01*
X129074917Y-135093174D01*
X129087476Y-135103228D01*
X129111275Y-135124918D01*
X129132001Y-135135047D01*
X129148961Y-135145051D01*
X129160492Y-135153129D01*
X129160494Y-135153130D01*
X129167845Y-135158280D01*
X129176344Y-135161159D01*
X129176345Y-135161160D01*
X129198326Y-135168607D01*
X129213213Y-135174736D01*
X129242141Y-135188874D01*
X129311412Y-135200772D01*
X129332197Y-135204342D01*
X129332456Y-135204387D01*
X143104490Y-137599522D01*
X143105007Y-137599613D01*
X143181481Y-137613395D01*
X143210892Y-137610260D01*
X143228010Y-137609607D01*
X143257570Y-137610493D01*
X143282428Y-137604025D01*
X143300799Y-137600676D01*
X143317389Y-137598908D01*
X143317390Y-137598908D01*
X143326319Y-137597956D01*
X143353656Y-137586698D01*
X143369909Y-137581264D01*
X143389848Y-137576076D01*
X143398534Y-137573816D01*
X143420571Y-137560636D01*
X143437264Y-137552264D01*
X143452704Y-137545905D01*
X143452703Y-137545905D01*
X143461001Y-137542488D01*
X143484081Y-137524007D01*
X143498161Y-137514228D01*
X143523538Y-137499050D01*
X143540993Y-137480211D01*
X143554666Y-137467491D01*
X143567696Y-137457058D01*
X143567698Y-137457056D01*
X143574702Y-137451448D01*
X143579847Y-137444105D01*
X143579854Y-137444097D01*
X143591670Y-137427231D01*
X143602431Y-137413901D01*
X143622534Y-137392204D01*
X143634002Y-137369219D01*
X143643555Y-137353172D01*
X143653128Y-137339508D01*
X143658280Y-137332155D01*
X143661160Y-137323653D01*
X143661162Y-137323650D01*
X143667767Y-137304153D01*
X143674354Y-137288340D01*
X143687562Y-137261867D01*
X143693668Y-137227986D01*
X143693838Y-137227203D01*
X143694193Y-137226155D01*
X143699548Y-137195368D01*
X143699629Y-137194911D01*
X143712696Y-137122405D01*
X143712698Y-137122388D01*
X143713395Y-137118519D01*
X143713247Y-137117129D01*
X143713387Y-137115791D01*
X143800050Y-136617482D01*
X145244562Y-128311534D01*
X146099744Y-123394236D01*
X146100009Y-123392765D01*
X146111637Y-123330303D01*
X146111637Y-123330302D01*
X146113280Y-123321477D01*
X146111767Y-123306461D01*
X146110131Y-123290223D01*
X146109552Y-123273819D01*
X146110493Y-123242430D01*
X146104491Y-123219362D01*
X146101065Y-123200263D01*
X146099576Y-123185481D01*
X146099575Y-123185479D01*
X146098676Y-123176553D01*
X146094561Y-123166396D01*
X146086884Y-123147445D01*
X146081724Y-123131860D01*
X146076077Y-123110155D01*
X146076076Y-123110154D01*
X146073816Y-123101466D01*
X146061576Y-123081003D01*
X146052935Y-123063647D01*
X146043985Y-123041553D01*
X146024495Y-123016922D01*
X146015179Y-123003428D01*
X145999050Y-122976462D01*
X145992468Y-122970363D01*
X145992465Y-122970360D01*
X145981561Y-122960257D01*
X145968393Y-122946022D01*
X145953602Y-122927330D01*
X145946280Y-122922137D01*
X145946276Y-122922133D01*
X145927986Y-122909161D01*
X145915244Y-122898813D01*
X145909029Y-122893054D01*
X145892204Y-122877466D01*
X145884167Y-122873456D01*
X145870873Y-122866823D01*
X145854232Y-122856852D01*
X145842115Y-122848258D01*
X145842114Y-122848258D01*
X145834793Y-122843065D01*
X145805101Y-122832815D01*
X145789981Y-122826465D01*
X145774306Y-122818644D01*
X145769897Y-122816444D01*
X145769895Y-122816443D01*
X145761867Y-122812438D01*
X145753040Y-122810847D01*
X145753036Y-122810846D01*
X145619013Y-122786694D01*
X145618519Y-122786605D01*
X145618351Y-122786623D01*
X145618091Y-122786595D01*
X131861103Y-120312316D01*
X131859447Y-120311902D01*
X131857859Y-120311126D01*
X131811112Y-120303097D01*
X131783364Y-120298331D01*
X131782390Y-120298159D01*
X131765605Y-120295141D01*
X131754076Y-120293067D01*
X131752622Y-120293015D01*
X131751503Y-120292859D01*
X131714304Y-120286470D01*
X131690692Y-120289183D01*
X131689360Y-120289336D01*
X131670480Y-120290080D01*
X131645373Y-120289183D01*
X131627447Y-120293737D01*
X131616165Y-120296603D01*
X131599525Y-120299658D01*
X131578518Y-120302072D01*
X131569598Y-120303097D01*
X131561326Y-120306584D01*
X131561324Y-120306584D01*
X131546447Y-120312854D01*
X131528537Y-120318865D01*
X131504200Y-120325048D01*
X131496474Y-120329608D01*
X131496473Y-120329609D01*
X131478254Y-120340364D01*
X131463142Y-120347966D01*
X131435375Y-120359669D01*
X131415894Y-120375532D01*
X131400395Y-120386326D01*
X131378767Y-120399093D01*
X131372630Y-120405641D01*
X131372627Y-120405643D01*
X131358163Y-120421075D01*
X131345795Y-120432611D01*
X131322426Y-120451639D01*
X131317338Y-120459030D01*
X131317334Y-120459034D01*
X131308185Y-120472324D01*
X131296333Y-120487041D01*
X131279157Y-120505366D01*
X131275102Y-120513377D01*
X131275099Y-120513382D01*
X131265549Y-120532251D01*
X131256912Y-120546801D01*
X131239829Y-120571614D01*
X131237019Y-120580136D01*
X131237017Y-120580141D01*
X131231963Y-120595471D01*
X131224722Y-120612914D01*
X131213379Y-120635326D01*
X131211737Y-120644146D01*
X131211736Y-120644149D01*
X131206971Y-120669745D01*
X131206007Y-120674208D01*
X131204788Y-120677906D01*
X131203994Y-120682703D01*
X131203994Y-120682704D01*
X131199689Y-120708721D01*
X131199251Y-120711212D01*
X131186720Y-120778523D01*
X131187151Y-120782803D01*
X131186688Y-120787294D01*
X128899517Y-134609762D01*
X128899222Y-134611466D01*
X128886605Y-134681481D01*
X117934053Y-134681481D01*
X116994945Y-133795627D01*
X116131552Y-133021138D01*
X115887925Y-132802597D01*
X115887915Y-132802588D01*
X115887325Y-132802059D01*
X115886734Y-132801555D01*
X115886710Y-132801534D01*
X114755751Y-131837053D01*
X114755738Y-131837042D01*
X114755162Y-131836551D01*
X113599167Y-130899709D01*
X112420065Y-129992120D01*
X112419460Y-129991678D01*
X112419428Y-129991654D01*
X111535107Y-129345590D01*
X111218596Y-129114354D01*
X110388597Y-128539303D01*
X109996142Y-128267397D01*
X109996121Y-128267383D01*
X109995515Y-128266963D01*
X109144662Y-127708482D01*
X108752237Y-127450903D01*
X108752219Y-127450891D01*
X108751589Y-127450478D01*
X107497539Y-126671585D01*
X117986698Y-126671585D01*
X118002936Y-126997759D01*
X118003577Y-127001490D01*
X118003578Y-127001498D01*
X118018109Y-127086060D01*
X118058241Y-127319619D01*
X118151814Y-127632504D01*
X118282297Y-127931881D01*
X118284220Y-127935152D01*
X118284222Y-127935156D01*
X118326584Y-128007215D01*
X118447802Y-128213414D01*
X118450103Y-128216429D01*
X118643631Y-128470012D01*
X118643636Y-128470017D01*
X118645931Y-128473025D01*
X118873814Y-128706953D01*
X118946635Y-128765607D01*
X119125196Y-128909431D01*
X119125201Y-128909435D01*
X119128149Y-128911809D01*
X119405253Y-129084627D01*
X119701112Y-129222903D01*
X120011440Y-129324634D01*
X120331742Y-129388346D01*
X120335514Y-129388633D01*
X120335522Y-129388634D01*
X120653602Y-129412829D01*
X120653607Y-129412829D01*
X120657379Y-129413116D01*
X120983633Y-129398586D01*
X121043425Y-129388634D01*
X121302037Y-129345590D01*
X121302042Y-129345589D01*
X121305778Y-129344967D01*
X121619149Y-129253034D01*
X121622616Y-129251544D01*
X121622620Y-129251543D01*
X121915721Y-129125616D01*
X121915723Y-129125615D01*
X121919205Y-129124119D01*
X122201601Y-128960091D01*
X122462245Y-128763324D01*
X122697363Y-128536670D01*
X122780601Y-128434429D01*
X122901155Y-128286351D01*
X122901158Y-128286347D01*
X122903549Y-128283410D01*
X122905570Y-128280207D01*
X123075788Y-128010428D01*
X123075790Y-128010425D01*
X123077815Y-128007215D01*
X123217638Y-127712084D01*
X123244188Y-127632504D01*
X123319790Y-127405897D01*
X123319792Y-127405891D01*
X123320992Y-127402293D01*
X123386381Y-127082329D01*
X123392956Y-127001498D01*
X123412674Y-126759061D01*
X123412856Y-126756826D01*
X123413451Y-126700000D01*
X123411510Y-126667796D01*
X123394026Y-126377793D01*
X123394026Y-126377789D01*
X123393798Y-126374015D01*
X123388650Y-126345824D01*
X123335805Y-126056473D01*
X123335804Y-126056469D01*
X123335125Y-126052751D01*
X123327722Y-126028907D01*
X123239404Y-125744477D01*
X123238282Y-125740863D01*
X123104670Y-125442869D01*
X122936226Y-125163084D01*
X122933899Y-125160100D01*
X122933894Y-125160093D01*
X122737726Y-124908558D01*
X122737724Y-124908556D01*
X122735390Y-124905563D01*
X122505070Y-124674034D01*
X122248603Y-124471852D01*
X121969705Y-124301945D01*
X121966261Y-124300379D01*
X121966257Y-124300377D01*
X121855667Y-124250095D01*
X121672414Y-124166775D01*
X121361037Y-124068300D01*
X121143492Y-124027390D01*
X121043809Y-124008645D01*
X121043807Y-124008645D01*
X121040086Y-124007945D01*
X120714208Y-123986586D01*
X120710428Y-123986794D01*
X120710427Y-123986794D01*
X120612897Y-123992162D01*
X120388124Y-124004532D01*
X120384397Y-124005193D01*
X120384393Y-124005193D01*
X120227341Y-124033027D01*
X120066557Y-124061522D01*
X120062941Y-124062624D01*
X120062933Y-124062626D01*
X119757789Y-124155627D01*
X119754167Y-124156731D01*
X119455477Y-124288781D01*
X119430041Y-124303914D01*
X119178074Y-124453817D01*
X119178068Y-124453821D01*
X119174814Y-124455757D01*
X118916244Y-124655243D01*
X118683513Y-124884347D01*
X118681149Y-124887314D01*
X118681146Y-124887317D01*
X118664220Y-124908558D01*
X118479991Y-125139751D01*
X118308626Y-125417757D01*
X118307037Y-125421204D01*
X118201078Y-125651049D01*
X118171902Y-125714336D01*
X118170741Y-125717940D01*
X118170741Y-125717941D01*
X118162196Y-125744477D01*
X118071797Y-126025192D01*
X118071079Y-126028903D01*
X118071078Y-126028907D01*
X118010482Y-126342105D01*
X118010481Y-126342114D01*
X118009763Y-126345824D01*
X117986698Y-126671585D01*
X107497539Y-126671585D01*
X107487600Y-126665412D01*
X107486937Y-126665023D01*
X107486919Y-126665012D01*
X106205013Y-125912652D01*
X106205014Y-125912652D01*
X106204340Y-125912257D01*
X105853401Y-125717941D01*
X104903286Y-125191859D01*
X104903281Y-125191856D01*
X104902614Y-125191487D01*
X103583241Y-124503553D01*
X102247048Y-123848887D01*
X101354741Y-123439095D01*
X100895643Y-123228254D01*
X100895632Y-123228249D01*
X100894874Y-123227901D01*
X100785949Y-123181145D01*
X99528299Y-122641298D01*
X99528285Y-122641292D01*
X99527567Y-122640984D01*
X98145987Y-122088504D01*
X98145267Y-122088237D01*
X98145239Y-122088226D01*
X97391143Y-121808373D01*
X96750999Y-121570809D01*
X95343480Y-121088223D01*
X94574023Y-120845770D01*
X93925088Y-120641293D01*
X93925074Y-120641289D01*
X93924313Y-120641049D01*
X92494389Y-120229568D01*
X91054606Y-119854038D01*
X91053906Y-119853874D01*
X89606589Y-119514864D01*
X89606580Y-119514862D01*
X89605867Y-119514695D01*
X88149081Y-119211752D01*
X88148381Y-119211625D01*
X88148347Y-119211618D01*
X86685939Y-118945540D01*
X86685924Y-118945538D01*
X86685163Y-118945399D01*
X86684383Y-118945277D01*
X86684376Y-118945276D01*
X85215830Y-118715927D01*
X85215793Y-118715922D01*
X85215033Y-118715803D01*
X85214262Y-118715702D01*
X85214232Y-118715698D01*
X84432066Y-118613545D01*
X83739611Y-118523109D01*
X83738852Y-118523029D01*
X83738817Y-118523025D01*
X82954478Y-118440514D01*
X82259826Y-118367437D01*
X80776605Y-118248884D01*
X80775857Y-118248843D01*
X80775827Y-118248841D01*
X79877326Y-118199640D01*
X79290880Y-118167526D01*
X78425087Y-118141847D01*
X78357591Y-118119835D01*
X78312709Y-118064825D01*
X78302824Y-118015999D01*
X78300681Y-115198587D01*
X78300393Y-114819721D01*
X79741024Y-114819721D01*
X79743491Y-114828352D01*
X79749150Y-114848153D01*
X79752728Y-114864915D01*
X79756920Y-114894187D01*
X79760634Y-114902355D01*
X79760634Y-114902356D01*
X79767548Y-114917562D01*
X79773996Y-114935086D01*
X79781051Y-114959771D01*
X79785843Y-114967365D01*
X79785844Y-114967368D01*
X79796830Y-114984780D01*
X79804969Y-114999863D01*
X79817208Y-115026782D01*
X79823069Y-115033584D01*
X79833970Y-115046235D01*
X79845073Y-115061239D01*
X79858776Y-115082958D01*
X79865501Y-115088897D01*
X79865504Y-115088901D01*
X79880938Y-115102532D01*
X79892982Y-115114724D01*
X79906427Y-115130327D01*
X79906430Y-115130329D01*
X79912287Y-115137127D01*
X79919816Y-115142007D01*
X79919817Y-115142008D01*
X79933835Y-115151094D01*
X79948709Y-115162385D01*
X79961217Y-115173431D01*
X79967951Y-115179378D01*
X79994711Y-115191942D01*
X80009691Y-115200263D01*
X80026983Y-115211471D01*
X80026988Y-115211473D01*
X80034515Y-115216352D01*
X80043108Y-115218922D01*
X80043113Y-115218924D01*
X80059120Y-115223711D01*
X80076564Y-115230372D01*
X80091676Y-115237467D01*
X80091678Y-115237468D01*
X80099800Y-115241281D01*
X80108667Y-115242662D01*
X80108668Y-115242662D01*
X80111353Y-115243080D01*
X80129017Y-115245830D01*
X80145732Y-115249613D01*
X80165466Y-115255515D01*
X80165472Y-115255516D01*
X80174066Y-115258086D01*
X80183037Y-115258141D01*
X80183038Y-115258141D01*
X80193097Y-115258202D01*
X80208506Y-115258296D01*
X80209289Y-115258329D01*
X80210386Y-115258500D01*
X80241377Y-115258500D01*
X80242147Y-115258502D01*
X80315785Y-115258952D01*
X80315786Y-115258952D01*
X80319721Y-115258976D01*
X80321065Y-115258592D01*
X80322410Y-115258500D01*
X94241377Y-115258500D01*
X94242148Y-115258502D01*
X94319721Y-115258976D01*
X94348152Y-115250850D01*
X94364915Y-115247272D01*
X94365753Y-115247152D01*
X94394187Y-115243080D01*
X94417564Y-115232451D01*
X94435087Y-115226004D01*
X94459771Y-115218949D01*
X94467365Y-115214157D01*
X94467368Y-115214156D01*
X94484780Y-115203170D01*
X94499865Y-115195030D01*
X94526782Y-115182792D01*
X94546235Y-115166030D01*
X94561239Y-115154927D01*
X94582958Y-115141224D01*
X94588897Y-115134499D01*
X94588901Y-115134496D01*
X94602532Y-115119062D01*
X94614724Y-115107018D01*
X94630327Y-115093573D01*
X94630329Y-115093570D01*
X94637127Y-115087713D01*
X94651094Y-115066165D01*
X94662385Y-115051291D01*
X94673431Y-115038783D01*
X94673432Y-115038782D01*
X94679378Y-115032049D01*
X94691943Y-115005287D01*
X94700263Y-114990309D01*
X94711471Y-114973017D01*
X94711473Y-114973012D01*
X94716352Y-114965485D01*
X94718922Y-114956892D01*
X94718924Y-114956887D01*
X94723711Y-114940880D01*
X94730372Y-114923436D01*
X94737467Y-114908324D01*
X94737468Y-114908322D01*
X94741281Y-114900200D01*
X94745830Y-114870983D01*
X94749613Y-114854268D01*
X94755515Y-114834534D01*
X94755516Y-114834528D01*
X94758086Y-114825934D01*
X94758296Y-114791494D01*
X94758329Y-114790711D01*
X94758500Y-114789614D01*
X94758500Y-114758623D01*
X94758502Y-114757853D01*
X94758952Y-114684215D01*
X94758952Y-114684214D01*
X94758976Y-114680279D01*
X94758592Y-114678935D01*
X94758500Y-114677590D01*
X94758500Y-106919721D01*
X155991024Y-106919721D01*
X155993491Y-106928352D01*
X155999150Y-106948153D01*
X156002728Y-106964915D01*
X156006920Y-106994187D01*
X156010634Y-107002355D01*
X156010634Y-107002356D01*
X156017548Y-107017562D01*
X156023996Y-107035086D01*
X156031051Y-107059771D01*
X156035843Y-107067365D01*
X156035844Y-107067368D01*
X156046830Y-107084780D01*
X156054969Y-107099863D01*
X156067208Y-107126782D01*
X156073069Y-107133584D01*
X156083970Y-107146235D01*
X156095073Y-107161239D01*
X156108776Y-107182958D01*
X156115501Y-107188897D01*
X156115504Y-107188901D01*
X156130938Y-107202532D01*
X156142982Y-107214724D01*
X156156427Y-107230327D01*
X156156430Y-107230329D01*
X156162287Y-107237127D01*
X156169816Y-107242007D01*
X156169817Y-107242008D01*
X156183835Y-107251094D01*
X156198709Y-107262385D01*
X156211217Y-107273431D01*
X156217951Y-107279378D01*
X156244711Y-107291942D01*
X156259691Y-107300263D01*
X156276983Y-107311471D01*
X156276988Y-107311473D01*
X156284515Y-107316352D01*
X156293108Y-107318922D01*
X156293113Y-107318924D01*
X156309120Y-107323711D01*
X156326564Y-107330372D01*
X156341676Y-107337467D01*
X156341678Y-107337468D01*
X156349800Y-107341281D01*
X156358667Y-107342662D01*
X156358668Y-107342662D01*
X156361353Y-107343080D01*
X156379017Y-107345830D01*
X156395732Y-107349613D01*
X156415466Y-107355515D01*
X156415472Y-107355516D01*
X156424066Y-107358086D01*
X156433037Y-107358141D01*
X156433038Y-107358141D01*
X156443097Y-107358202D01*
X156458506Y-107358296D01*
X156459289Y-107358329D01*
X156460386Y-107358500D01*
X156491377Y-107358500D01*
X156492147Y-107358502D01*
X156565785Y-107358952D01*
X156565786Y-107358952D01*
X156569721Y-107358976D01*
X156571065Y-107358592D01*
X156572410Y-107358500D01*
X170491377Y-107358500D01*
X170492148Y-107358502D01*
X170569721Y-107358976D01*
X170598152Y-107350850D01*
X170614915Y-107347272D01*
X170615753Y-107347152D01*
X170644187Y-107343080D01*
X170667564Y-107332451D01*
X170685087Y-107326004D01*
X170709771Y-107318949D01*
X170717365Y-107314157D01*
X170717368Y-107314156D01*
X170734780Y-107303170D01*
X170749865Y-107295030D01*
X170776782Y-107282792D01*
X170796235Y-107266030D01*
X170811239Y-107254927D01*
X170832958Y-107241224D01*
X170838897Y-107234499D01*
X170838901Y-107234496D01*
X170852532Y-107219062D01*
X170864724Y-107207018D01*
X170880327Y-107193573D01*
X170880329Y-107193570D01*
X170887127Y-107187713D01*
X170901094Y-107166165D01*
X170912385Y-107151291D01*
X170923431Y-107138783D01*
X170923432Y-107138782D01*
X170929378Y-107132049D01*
X170941943Y-107105287D01*
X170950263Y-107090309D01*
X170961471Y-107073017D01*
X170961473Y-107073012D01*
X170966352Y-107065485D01*
X170968922Y-107056892D01*
X170968924Y-107056887D01*
X170973711Y-107040880D01*
X170980372Y-107023436D01*
X170987467Y-107008324D01*
X170987468Y-107008322D01*
X170991281Y-107000200D01*
X170995830Y-106970983D01*
X170999613Y-106954268D01*
X171005515Y-106934534D01*
X171005516Y-106934528D01*
X171008086Y-106925934D01*
X171008296Y-106891494D01*
X171008329Y-106890711D01*
X171008500Y-106889614D01*
X171008500Y-106858623D01*
X171008502Y-106857853D01*
X171008952Y-106784215D01*
X171008952Y-106784214D01*
X171008976Y-106780279D01*
X171008592Y-106778935D01*
X171008500Y-106777590D01*
X171008500Y-92858623D01*
X171008502Y-92857853D01*
X171008800Y-92809102D01*
X171008976Y-92780279D01*
X171000850Y-92751847D01*
X170997272Y-92735085D01*
X170994352Y-92714698D01*
X170993080Y-92705813D01*
X170982451Y-92682436D01*
X170976004Y-92664913D01*
X170971416Y-92648862D01*
X170968949Y-92640229D01*
X170964156Y-92632632D01*
X170953170Y-92615220D01*
X170945030Y-92600135D01*
X170942564Y-92594711D01*
X170932792Y-92573218D01*
X170916030Y-92553765D01*
X170904927Y-92538761D01*
X170891224Y-92517042D01*
X170884499Y-92511103D01*
X170884496Y-92511099D01*
X170869062Y-92497468D01*
X170857018Y-92485276D01*
X170843573Y-92469673D01*
X170843570Y-92469671D01*
X170837713Y-92462873D01*
X170824009Y-92453990D01*
X170816165Y-92448906D01*
X170801291Y-92437615D01*
X170788783Y-92426569D01*
X170788782Y-92426568D01*
X170782049Y-92420622D01*
X170755287Y-92408057D01*
X170740309Y-92399737D01*
X170723017Y-92388529D01*
X170723012Y-92388527D01*
X170715485Y-92383648D01*
X170706892Y-92381078D01*
X170706887Y-92381076D01*
X170690880Y-92376289D01*
X170673436Y-92369628D01*
X170658324Y-92362533D01*
X170658322Y-92362532D01*
X170650200Y-92358719D01*
X170641333Y-92357338D01*
X170641332Y-92357338D01*
X170630478Y-92355648D01*
X170620983Y-92354170D01*
X170604268Y-92350387D01*
X170584534Y-92344485D01*
X170584528Y-92344484D01*
X170575934Y-92341914D01*
X170566963Y-92341859D01*
X170566962Y-92341859D01*
X170556903Y-92341798D01*
X170541494Y-92341704D01*
X170540711Y-92341671D01*
X170539614Y-92341500D01*
X170508623Y-92341500D01*
X170507853Y-92341498D01*
X170434215Y-92341048D01*
X170434214Y-92341048D01*
X170430279Y-92341024D01*
X170428935Y-92341408D01*
X170427590Y-92341500D01*
X156508623Y-92341500D01*
X156507853Y-92341498D01*
X156507037Y-92341493D01*
X156430279Y-92341024D01*
X156407918Y-92347415D01*
X156401847Y-92349150D01*
X156385085Y-92352728D01*
X156355813Y-92356920D01*
X156347645Y-92360634D01*
X156347644Y-92360634D01*
X156332438Y-92367548D01*
X156314914Y-92373996D01*
X156290229Y-92381051D01*
X156282635Y-92385843D01*
X156282632Y-92385844D01*
X156265220Y-92396830D01*
X156250137Y-92404969D01*
X156223218Y-92417208D01*
X156216416Y-92423069D01*
X156203765Y-92433970D01*
X156188761Y-92445073D01*
X156167042Y-92458776D01*
X156161103Y-92465501D01*
X156161099Y-92465504D01*
X156147468Y-92480938D01*
X156135276Y-92492982D01*
X156119673Y-92506427D01*
X156119671Y-92506430D01*
X156112873Y-92512287D01*
X156107993Y-92519816D01*
X156107992Y-92519817D01*
X156098906Y-92533835D01*
X156087615Y-92548709D01*
X156076569Y-92561217D01*
X156070622Y-92567951D01*
X156064312Y-92581391D01*
X156058058Y-92594711D01*
X156049737Y-92609691D01*
X156038529Y-92626983D01*
X156038527Y-92626988D01*
X156033648Y-92634515D01*
X156031078Y-92643108D01*
X156031076Y-92643113D01*
X156026289Y-92659120D01*
X156019628Y-92676564D01*
X156012533Y-92691676D01*
X156008719Y-92699800D01*
X156007338Y-92708667D01*
X156007338Y-92708668D01*
X156004170Y-92729015D01*
X156000387Y-92745732D01*
X155994485Y-92765466D01*
X155994484Y-92765472D01*
X155991914Y-92774066D01*
X155991859Y-92783037D01*
X155991859Y-92783038D01*
X155991704Y-92808497D01*
X155991671Y-92809289D01*
X155991500Y-92810386D01*
X155991500Y-92841377D01*
X155991498Y-92842147D01*
X155991024Y-92919721D01*
X155991408Y-92921065D01*
X155991500Y-92922410D01*
X155991500Y-106841377D01*
X155991498Y-106842147D01*
X155991024Y-106919721D01*
X94758500Y-106919721D01*
X94758500Y-103819721D01*
X136891024Y-103819721D01*
X136893491Y-103828352D01*
X136899150Y-103848153D01*
X136902728Y-103864915D01*
X136906920Y-103894187D01*
X136910634Y-103902355D01*
X136910634Y-103902356D01*
X136917548Y-103917562D01*
X136923996Y-103935086D01*
X136931051Y-103959771D01*
X136935843Y-103967365D01*
X136935844Y-103967368D01*
X136946830Y-103984780D01*
X136954969Y-103999863D01*
X136967208Y-104026782D01*
X136973069Y-104033584D01*
X136983970Y-104046235D01*
X136995073Y-104061239D01*
X137008776Y-104082958D01*
X137015501Y-104088897D01*
X137015504Y-104088901D01*
X137030938Y-104102532D01*
X137042982Y-104114724D01*
X137056427Y-104130327D01*
X137056430Y-104130329D01*
X137062287Y-104137127D01*
X137069816Y-104142007D01*
X137069817Y-104142008D01*
X137083835Y-104151094D01*
X137098709Y-104162385D01*
X137111217Y-104173431D01*
X137117951Y-104179378D01*
X137144711Y-104191942D01*
X137159691Y-104200263D01*
X137176983Y-104211471D01*
X137176988Y-104211473D01*
X137184515Y-104216352D01*
X137193108Y-104218922D01*
X137193113Y-104218924D01*
X137209120Y-104223711D01*
X137226564Y-104230372D01*
X137241676Y-104237467D01*
X137241678Y-104237468D01*
X137249800Y-104241281D01*
X137258667Y-104242662D01*
X137258668Y-104242662D01*
X137261353Y-104243080D01*
X137279017Y-104245830D01*
X137295732Y-104249613D01*
X137315466Y-104255515D01*
X137315472Y-104255516D01*
X137324066Y-104258086D01*
X137333037Y-104258141D01*
X137333038Y-104258141D01*
X137343097Y-104258202D01*
X137358506Y-104258296D01*
X137359289Y-104258329D01*
X137360386Y-104258500D01*
X137391377Y-104258500D01*
X137392147Y-104258502D01*
X137465785Y-104258952D01*
X137465786Y-104258952D01*
X137469721Y-104258976D01*
X137471065Y-104258592D01*
X137472410Y-104258500D01*
X151391377Y-104258500D01*
X151392148Y-104258502D01*
X151469721Y-104258976D01*
X151498152Y-104250850D01*
X151514915Y-104247272D01*
X151515753Y-104247152D01*
X151544187Y-104243080D01*
X151567564Y-104232451D01*
X151585087Y-104226004D01*
X151609771Y-104218949D01*
X151617365Y-104214157D01*
X151617368Y-104214156D01*
X151634780Y-104203170D01*
X151649865Y-104195030D01*
X151676782Y-104182792D01*
X151696235Y-104166030D01*
X151711239Y-104154927D01*
X151732958Y-104141224D01*
X151738897Y-104134499D01*
X151738901Y-104134496D01*
X151752532Y-104119062D01*
X151764724Y-104107018D01*
X151780327Y-104093573D01*
X151780329Y-104093570D01*
X151787127Y-104087713D01*
X151801094Y-104066165D01*
X151812385Y-104051291D01*
X151823431Y-104038783D01*
X151823432Y-104038782D01*
X151829378Y-104032049D01*
X151841943Y-104005287D01*
X151850263Y-103990309D01*
X151861471Y-103973017D01*
X151861473Y-103973012D01*
X151866352Y-103965485D01*
X151868922Y-103956892D01*
X151868924Y-103956887D01*
X151873711Y-103940880D01*
X151880372Y-103923436D01*
X151887467Y-103908324D01*
X151887468Y-103908322D01*
X151891281Y-103900200D01*
X151895830Y-103870983D01*
X151899613Y-103854268D01*
X151905515Y-103834534D01*
X151905516Y-103834528D01*
X151908086Y-103825934D01*
X151908296Y-103791494D01*
X151908329Y-103790711D01*
X151908500Y-103789614D01*
X151908500Y-103758623D01*
X151908502Y-103757853D01*
X151908952Y-103684215D01*
X151908952Y-103684214D01*
X151908976Y-103680279D01*
X151908592Y-103678935D01*
X151908500Y-103677590D01*
X151908500Y-89758623D01*
X151908502Y-89757853D01*
X151908800Y-89709102D01*
X151908976Y-89680279D01*
X151900850Y-89651847D01*
X151897272Y-89635085D01*
X151894352Y-89614698D01*
X151893080Y-89605813D01*
X151882451Y-89582436D01*
X151876004Y-89564913D01*
X151871416Y-89548862D01*
X151868949Y-89540229D01*
X151864156Y-89532632D01*
X151853170Y-89515220D01*
X151845030Y-89500135D01*
X151842564Y-89494711D01*
X151832792Y-89473218D01*
X151816030Y-89453765D01*
X151804927Y-89438761D01*
X151791224Y-89417042D01*
X151784499Y-89411103D01*
X151784496Y-89411099D01*
X151769062Y-89397468D01*
X151757018Y-89385276D01*
X151743573Y-89369673D01*
X151743570Y-89369671D01*
X151737713Y-89362873D01*
X151724009Y-89353990D01*
X151716165Y-89348906D01*
X151701291Y-89337615D01*
X151688783Y-89326569D01*
X151688782Y-89326568D01*
X151682049Y-89320622D01*
X151655287Y-89308057D01*
X151640309Y-89299737D01*
X151623017Y-89288529D01*
X151623012Y-89288527D01*
X151615485Y-89283648D01*
X151606892Y-89281078D01*
X151606887Y-89281076D01*
X151590880Y-89276289D01*
X151573436Y-89269628D01*
X151558324Y-89262533D01*
X151558322Y-89262532D01*
X151550200Y-89258719D01*
X151541333Y-89257338D01*
X151541332Y-89257338D01*
X151530478Y-89255648D01*
X151520983Y-89254170D01*
X151504268Y-89250387D01*
X151484534Y-89244485D01*
X151484528Y-89244484D01*
X151475934Y-89241914D01*
X151466963Y-89241859D01*
X151466962Y-89241859D01*
X151456903Y-89241798D01*
X151441494Y-89241704D01*
X151440711Y-89241671D01*
X151439614Y-89241500D01*
X151408623Y-89241500D01*
X151407853Y-89241498D01*
X151334215Y-89241048D01*
X151334214Y-89241048D01*
X151330279Y-89241024D01*
X151328935Y-89241408D01*
X151327590Y-89241500D01*
X137408623Y-89241500D01*
X137407853Y-89241498D01*
X137407037Y-89241493D01*
X137330279Y-89241024D01*
X137307918Y-89247415D01*
X137301847Y-89249150D01*
X137285085Y-89252728D01*
X137255813Y-89256920D01*
X137247645Y-89260634D01*
X137247644Y-89260634D01*
X137232438Y-89267548D01*
X137214914Y-89273996D01*
X137190229Y-89281051D01*
X137182635Y-89285843D01*
X137182632Y-89285844D01*
X137165220Y-89296830D01*
X137150137Y-89304969D01*
X137123218Y-89317208D01*
X137116416Y-89323069D01*
X137103765Y-89333970D01*
X137088761Y-89345073D01*
X137067042Y-89358776D01*
X137061103Y-89365501D01*
X137061099Y-89365504D01*
X137047468Y-89380938D01*
X137035276Y-89392982D01*
X137019673Y-89406427D01*
X137019671Y-89406430D01*
X137012873Y-89412287D01*
X137007993Y-89419816D01*
X137007992Y-89419817D01*
X136998906Y-89433835D01*
X136987615Y-89448709D01*
X136976569Y-89461217D01*
X136970622Y-89467951D01*
X136964312Y-89481391D01*
X136958058Y-89494711D01*
X136949737Y-89509691D01*
X136938529Y-89526983D01*
X136938527Y-89526988D01*
X136933648Y-89534515D01*
X136931078Y-89543108D01*
X136931076Y-89543113D01*
X136926289Y-89559120D01*
X136919628Y-89576564D01*
X136912533Y-89591676D01*
X136908719Y-89599800D01*
X136907338Y-89608667D01*
X136907338Y-89608668D01*
X136904170Y-89629015D01*
X136900387Y-89645732D01*
X136894485Y-89665466D01*
X136894484Y-89665472D01*
X136891914Y-89674066D01*
X136891859Y-89683037D01*
X136891859Y-89683038D01*
X136891704Y-89708497D01*
X136891671Y-89709289D01*
X136891500Y-89710386D01*
X136891500Y-89741377D01*
X136891498Y-89742147D01*
X136891024Y-89819721D01*
X136891408Y-89821065D01*
X136891500Y-89822410D01*
X136891500Y-103741377D01*
X136891498Y-103742147D01*
X136891024Y-103819721D01*
X94758500Y-103819721D01*
X94758500Y-102819721D01*
X98741024Y-102819721D01*
X98743491Y-102828352D01*
X98749150Y-102848153D01*
X98752728Y-102864915D01*
X98756920Y-102894187D01*
X98760634Y-102902355D01*
X98760634Y-102902356D01*
X98767548Y-102917562D01*
X98773996Y-102935086D01*
X98781051Y-102959771D01*
X98785843Y-102967365D01*
X98785844Y-102967368D01*
X98796830Y-102984780D01*
X98804969Y-102999863D01*
X98817208Y-103026782D01*
X98823069Y-103033584D01*
X98833970Y-103046235D01*
X98845073Y-103061239D01*
X98858776Y-103082958D01*
X98865501Y-103088897D01*
X98865504Y-103088901D01*
X98880938Y-103102532D01*
X98892982Y-103114724D01*
X98906427Y-103130327D01*
X98906430Y-103130329D01*
X98912287Y-103137127D01*
X98919816Y-103142007D01*
X98919817Y-103142008D01*
X98933835Y-103151094D01*
X98948709Y-103162385D01*
X98961217Y-103173431D01*
X98967951Y-103179378D01*
X98994711Y-103191942D01*
X99009691Y-103200263D01*
X99026983Y-103211471D01*
X99026988Y-103211473D01*
X99034515Y-103216352D01*
X99043108Y-103218922D01*
X99043113Y-103218924D01*
X99059120Y-103223711D01*
X99076564Y-103230372D01*
X99091676Y-103237467D01*
X99091678Y-103237468D01*
X99099800Y-103241281D01*
X99108667Y-103242662D01*
X99108668Y-103242662D01*
X99111353Y-103243080D01*
X99129017Y-103245830D01*
X99145732Y-103249613D01*
X99165466Y-103255515D01*
X99165472Y-103255516D01*
X99174066Y-103258086D01*
X99183037Y-103258141D01*
X99183038Y-103258141D01*
X99193097Y-103258202D01*
X99208506Y-103258296D01*
X99209289Y-103258329D01*
X99210386Y-103258500D01*
X99241377Y-103258500D01*
X99242147Y-103258502D01*
X99315785Y-103258952D01*
X99315786Y-103258952D01*
X99319721Y-103258976D01*
X99321065Y-103258592D01*
X99322410Y-103258500D01*
X113241377Y-103258500D01*
X113242148Y-103258502D01*
X113319721Y-103258976D01*
X113348152Y-103250850D01*
X113364915Y-103247272D01*
X113365753Y-103247152D01*
X113394187Y-103243080D01*
X113417564Y-103232451D01*
X113435087Y-103226004D01*
X113459771Y-103218949D01*
X113467365Y-103214157D01*
X113467368Y-103214156D01*
X113484780Y-103203170D01*
X113499865Y-103195030D01*
X113526782Y-103182792D01*
X113546235Y-103166030D01*
X113561239Y-103154927D01*
X113582958Y-103141224D01*
X113588897Y-103134499D01*
X113588901Y-103134496D01*
X113602532Y-103119062D01*
X113614724Y-103107018D01*
X113630327Y-103093573D01*
X113630329Y-103093570D01*
X113637127Y-103087713D01*
X113651094Y-103066165D01*
X113662385Y-103051291D01*
X113673431Y-103038783D01*
X113673432Y-103038782D01*
X113679378Y-103032049D01*
X113691943Y-103005287D01*
X113700263Y-102990309D01*
X113711471Y-102973017D01*
X113711473Y-102973012D01*
X113716352Y-102965485D01*
X113718922Y-102956892D01*
X113718924Y-102956887D01*
X113723711Y-102940880D01*
X113730372Y-102923436D01*
X113737467Y-102908324D01*
X113737468Y-102908322D01*
X113741281Y-102900200D01*
X113745830Y-102870983D01*
X113749613Y-102854268D01*
X113755515Y-102834534D01*
X113755516Y-102834528D01*
X113758086Y-102825934D01*
X113758296Y-102791494D01*
X113758329Y-102790711D01*
X113758500Y-102789614D01*
X113758500Y-102758623D01*
X113758502Y-102757853D01*
X113758952Y-102684215D01*
X113758952Y-102684214D01*
X113758976Y-102680279D01*
X113758592Y-102678935D01*
X113758500Y-102677590D01*
X113758500Y-96919721D01*
X117891024Y-96919721D01*
X117893491Y-96928352D01*
X117899150Y-96948153D01*
X117902728Y-96964915D01*
X117906920Y-96994187D01*
X117910634Y-97002355D01*
X117910634Y-97002356D01*
X117917548Y-97017562D01*
X117923996Y-97035086D01*
X117931051Y-97059771D01*
X117935843Y-97067365D01*
X117935844Y-97067368D01*
X117946830Y-97084780D01*
X117954969Y-97099863D01*
X117967208Y-97126782D01*
X117973069Y-97133584D01*
X117983970Y-97146235D01*
X117995073Y-97161239D01*
X118008776Y-97182958D01*
X118015501Y-97188897D01*
X118015504Y-97188901D01*
X118030938Y-97202532D01*
X118042982Y-97214724D01*
X118056427Y-97230327D01*
X118056430Y-97230329D01*
X118062287Y-97237127D01*
X118069816Y-97242007D01*
X118069817Y-97242008D01*
X118083835Y-97251094D01*
X118098709Y-97262385D01*
X118111217Y-97273431D01*
X118117951Y-97279378D01*
X118144711Y-97291942D01*
X118159691Y-97300263D01*
X118176983Y-97311471D01*
X118176988Y-97311473D01*
X118184515Y-97316352D01*
X118193108Y-97318922D01*
X118193113Y-97318924D01*
X118209120Y-97323711D01*
X118226564Y-97330372D01*
X118241676Y-97337467D01*
X118241678Y-97337468D01*
X118249800Y-97341281D01*
X118258667Y-97342662D01*
X118258668Y-97342662D01*
X118261353Y-97343080D01*
X118279017Y-97345830D01*
X118295732Y-97349613D01*
X118315466Y-97355515D01*
X118315472Y-97355516D01*
X118324066Y-97358086D01*
X118333037Y-97358141D01*
X118333038Y-97358141D01*
X118343097Y-97358202D01*
X118358506Y-97358296D01*
X118359289Y-97358329D01*
X118360386Y-97358500D01*
X118391377Y-97358500D01*
X118392147Y-97358502D01*
X118465785Y-97358952D01*
X118465786Y-97358952D01*
X118469721Y-97358976D01*
X118471065Y-97358592D01*
X118472410Y-97358500D01*
X132391377Y-97358500D01*
X132392148Y-97358502D01*
X132469721Y-97358976D01*
X132498152Y-97350850D01*
X132514915Y-97347272D01*
X132515753Y-97347152D01*
X132544187Y-97343080D01*
X132567564Y-97332451D01*
X132585087Y-97326004D01*
X132609771Y-97318949D01*
X132617365Y-97314157D01*
X132617368Y-97314156D01*
X132634780Y-97303170D01*
X132649865Y-97295030D01*
X132676782Y-97282792D01*
X132696235Y-97266030D01*
X132711239Y-97254927D01*
X132732958Y-97241224D01*
X132738897Y-97234499D01*
X132738901Y-97234496D01*
X132752532Y-97219062D01*
X132764724Y-97207018D01*
X132780327Y-97193573D01*
X132780329Y-97193570D01*
X132787127Y-97187713D01*
X132801094Y-97166165D01*
X132812385Y-97151291D01*
X132823431Y-97138783D01*
X132823432Y-97138782D01*
X132829378Y-97132049D01*
X132841943Y-97105287D01*
X132850263Y-97090309D01*
X132861471Y-97073017D01*
X132861473Y-97073012D01*
X132866352Y-97065485D01*
X132868922Y-97056892D01*
X132868924Y-97056887D01*
X132873711Y-97040880D01*
X132880372Y-97023436D01*
X132887467Y-97008324D01*
X132887468Y-97008322D01*
X132891281Y-97000200D01*
X132895830Y-96970983D01*
X132899613Y-96954268D01*
X132905515Y-96934534D01*
X132905516Y-96934528D01*
X132908086Y-96925934D01*
X132908296Y-96891494D01*
X132908329Y-96890711D01*
X132908500Y-96889614D01*
X132908500Y-96858623D01*
X132908502Y-96857853D01*
X132908952Y-96784215D01*
X132908952Y-96784214D01*
X132908976Y-96780279D01*
X132908592Y-96778935D01*
X132908500Y-96777590D01*
X132908500Y-87819721D01*
X155991024Y-87819721D01*
X155993491Y-87828352D01*
X155999150Y-87848153D01*
X156002728Y-87864915D01*
X156006920Y-87894187D01*
X156010634Y-87902355D01*
X156010634Y-87902356D01*
X156017548Y-87917562D01*
X156023996Y-87935086D01*
X156031051Y-87959771D01*
X156035843Y-87967365D01*
X156035844Y-87967368D01*
X156046830Y-87984780D01*
X156054969Y-87999863D01*
X156067208Y-88026782D01*
X156073069Y-88033584D01*
X156083970Y-88046235D01*
X156095073Y-88061239D01*
X156108776Y-88082958D01*
X156115501Y-88088897D01*
X156115504Y-88088901D01*
X156130938Y-88102532D01*
X156142982Y-88114724D01*
X156156427Y-88130327D01*
X156156430Y-88130329D01*
X156162287Y-88137127D01*
X156169816Y-88142007D01*
X156169817Y-88142008D01*
X156183835Y-88151094D01*
X156198709Y-88162385D01*
X156211217Y-88173431D01*
X156217951Y-88179378D01*
X156244711Y-88191942D01*
X156259691Y-88200263D01*
X156276983Y-88211471D01*
X156276988Y-88211473D01*
X156284515Y-88216352D01*
X156293108Y-88218922D01*
X156293113Y-88218924D01*
X156309120Y-88223711D01*
X156326564Y-88230372D01*
X156341676Y-88237467D01*
X156341678Y-88237468D01*
X156349800Y-88241281D01*
X156358667Y-88242662D01*
X156358668Y-88242662D01*
X156368310Y-88244163D01*
X156379017Y-88245830D01*
X156395732Y-88249613D01*
X156415466Y-88255515D01*
X156415472Y-88255516D01*
X156424066Y-88258086D01*
X156433037Y-88258141D01*
X156433038Y-88258141D01*
X156443097Y-88258202D01*
X156458506Y-88258296D01*
X156459289Y-88258329D01*
X156460386Y-88258500D01*
X156491377Y-88258500D01*
X156492147Y-88258502D01*
X156565785Y-88258952D01*
X156565786Y-88258952D01*
X156569721Y-88258976D01*
X156571065Y-88258592D01*
X156572410Y-88258500D01*
X170491377Y-88258500D01*
X170492148Y-88258502D01*
X170569721Y-88258976D01*
X170595728Y-88251543D01*
X170598153Y-88250850D01*
X170614915Y-88247272D01*
X170615753Y-88247152D01*
X170644187Y-88243080D01*
X170667564Y-88232451D01*
X170685087Y-88226004D01*
X170709771Y-88218949D01*
X170717365Y-88214157D01*
X170717368Y-88214156D01*
X170734780Y-88203170D01*
X170749865Y-88195030D01*
X170776782Y-88182792D01*
X170796235Y-88166030D01*
X170811239Y-88154927D01*
X170832958Y-88141224D01*
X170838897Y-88134499D01*
X170838901Y-88134496D01*
X170852532Y-88119062D01*
X170864724Y-88107018D01*
X170880327Y-88093573D01*
X170880329Y-88093570D01*
X170887127Y-88087713D01*
X170901094Y-88066165D01*
X170912385Y-88051291D01*
X170923431Y-88038783D01*
X170923432Y-88038782D01*
X170929378Y-88032049D01*
X170941943Y-88005287D01*
X170950263Y-87990309D01*
X170961471Y-87973017D01*
X170961473Y-87973012D01*
X170966352Y-87965485D01*
X170968922Y-87956892D01*
X170968924Y-87956887D01*
X170973711Y-87940880D01*
X170980372Y-87923436D01*
X170987467Y-87908324D01*
X170987468Y-87908322D01*
X170991281Y-87900200D01*
X170995830Y-87870983D01*
X170999613Y-87854268D01*
X171005515Y-87834534D01*
X171005516Y-87834528D01*
X171008086Y-87825934D01*
X171008296Y-87791494D01*
X171008329Y-87790711D01*
X171008500Y-87789614D01*
X171008500Y-87758623D01*
X171008502Y-87757853D01*
X171008952Y-87684215D01*
X171008952Y-87684214D01*
X171008976Y-87680279D01*
X171008592Y-87678935D01*
X171008500Y-87677590D01*
X171008500Y-73758623D01*
X171008502Y-73757853D01*
X171008800Y-73709102D01*
X171008976Y-73680279D01*
X171000850Y-73651847D01*
X170997272Y-73635085D01*
X170994352Y-73614698D01*
X170993080Y-73605813D01*
X170982451Y-73582436D01*
X170976004Y-73564913D01*
X170971416Y-73548862D01*
X170968949Y-73540229D01*
X170964156Y-73532632D01*
X170953170Y-73515220D01*
X170945030Y-73500135D01*
X170942564Y-73494711D01*
X170932792Y-73473218D01*
X170916030Y-73453765D01*
X170904927Y-73438761D01*
X170891224Y-73417042D01*
X170884499Y-73411103D01*
X170884496Y-73411099D01*
X170869062Y-73397468D01*
X170857018Y-73385276D01*
X170843573Y-73369673D01*
X170843570Y-73369671D01*
X170837713Y-73362873D01*
X170824009Y-73353990D01*
X170816165Y-73348906D01*
X170801291Y-73337615D01*
X170788783Y-73326569D01*
X170788782Y-73326568D01*
X170782049Y-73320622D01*
X170755287Y-73308057D01*
X170740309Y-73299737D01*
X170723017Y-73288529D01*
X170723012Y-73288527D01*
X170715485Y-73283648D01*
X170706892Y-73281078D01*
X170706887Y-73281076D01*
X170690880Y-73276289D01*
X170673436Y-73269628D01*
X170658324Y-73262533D01*
X170658322Y-73262532D01*
X170650200Y-73258719D01*
X170641333Y-73257338D01*
X170641332Y-73257338D01*
X170630478Y-73255648D01*
X170620983Y-73254170D01*
X170604268Y-73250387D01*
X170584534Y-73244485D01*
X170584528Y-73244484D01*
X170575934Y-73241914D01*
X170566963Y-73241859D01*
X170566962Y-73241859D01*
X170556903Y-73241798D01*
X170541494Y-73241704D01*
X170540711Y-73241671D01*
X170539614Y-73241500D01*
X170508623Y-73241500D01*
X170507853Y-73241498D01*
X170434215Y-73241048D01*
X170434214Y-73241048D01*
X170430279Y-73241024D01*
X170428935Y-73241408D01*
X170427590Y-73241500D01*
X156508623Y-73241500D01*
X156507853Y-73241498D01*
X156507037Y-73241493D01*
X156430279Y-73241024D01*
X156407918Y-73247415D01*
X156401847Y-73249150D01*
X156385085Y-73252728D01*
X156355813Y-73256920D01*
X156347645Y-73260634D01*
X156347644Y-73260634D01*
X156332438Y-73267548D01*
X156314914Y-73273996D01*
X156290229Y-73281051D01*
X156282635Y-73285843D01*
X156282632Y-73285844D01*
X156265220Y-73296830D01*
X156250137Y-73304969D01*
X156223218Y-73317208D01*
X156216416Y-73323069D01*
X156203765Y-73333970D01*
X156188761Y-73345073D01*
X156167042Y-73358776D01*
X156161103Y-73365501D01*
X156161099Y-73365504D01*
X156147468Y-73380938D01*
X156135276Y-73392982D01*
X156119673Y-73406427D01*
X156119671Y-73406430D01*
X156112873Y-73412287D01*
X156107993Y-73419816D01*
X156107992Y-73419817D01*
X156098906Y-73433835D01*
X156087615Y-73448709D01*
X156076569Y-73461217D01*
X156070622Y-73467951D01*
X156064312Y-73481391D01*
X156058058Y-73494711D01*
X156049737Y-73509691D01*
X156038529Y-73526983D01*
X156038527Y-73526988D01*
X156033648Y-73534515D01*
X156031078Y-73543108D01*
X156031076Y-73543113D01*
X156026289Y-73559120D01*
X156019628Y-73576564D01*
X156012533Y-73591676D01*
X156008719Y-73599800D01*
X156007338Y-73608667D01*
X156007338Y-73608668D01*
X156004170Y-73629015D01*
X156000387Y-73645732D01*
X155994485Y-73665466D01*
X155994484Y-73665472D01*
X155991914Y-73674066D01*
X155991859Y-73683037D01*
X155991859Y-73683038D01*
X155991704Y-73708497D01*
X155991671Y-73709289D01*
X155991500Y-73710386D01*
X155991500Y-73741377D01*
X155991498Y-73742147D01*
X155991024Y-73819721D01*
X155991408Y-73821065D01*
X155991500Y-73822410D01*
X155991500Y-87741377D01*
X155991498Y-87742147D01*
X155991024Y-87819721D01*
X132908500Y-87819721D01*
X132908500Y-82858623D01*
X132908502Y-82857853D01*
X132908800Y-82809102D01*
X132908976Y-82780279D01*
X132900850Y-82751847D01*
X132897272Y-82735085D01*
X132894352Y-82714698D01*
X132893080Y-82705813D01*
X132882451Y-82682436D01*
X132876004Y-82664913D01*
X132871416Y-82648862D01*
X132868949Y-82640229D01*
X132864156Y-82632632D01*
X132853170Y-82615220D01*
X132845030Y-82600135D01*
X132842564Y-82594711D01*
X132832792Y-82573218D01*
X132816030Y-82553765D01*
X132804927Y-82538761D01*
X132791224Y-82517042D01*
X132784499Y-82511103D01*
X132784496Y-82511099D01*
X132769062Y-82497468D01*
X132757018Y-82485276D01*
X132743573Y-82469673D01*
X132743570Y-82469671D01*
X132737713Y-82462873D01*
X132724009Y-82453990D01*
X132716165Y-82448906D01*
X132701291Y-82437615D01*
X132688783Y-82426569D01*
X132688782Y-82426568D01*
X132682049Y-82420622D01*
X132655287Y-82408057D01*
X132640309Y-82399737D01*
X132623017Y-82388529D01*
X132623012Y-82388527D01*
X132615485Y-82383648D01*
X132606892Y-82381078D01*
X132606887Y-82381076D01*
X132590880Y-82376289D01*
X132573436Y-82369628D01*
X132558324Y-82362533D01*
X132558322Y-82362532D01*
X132550200Y-82358719D01*
X132541333Y-82357338D01*
X132541332Y-82357338D01*
X132530478Y-82355648D01*
X132520983Y-82354170D01*
X132504268Y-82350387D01*
X132484534Y-82344485D01*
X132484528Y-82344484D01*
X132475934Y-82341914D01*
X132466963Y-82341859D01*
X132466962Y-82341859D01*
X132456903Y-82341798D01*
X132441494Y-82341704D01*
X132440711Y-82341671D01*
X132439614Y-82341500D01*
X132408623Y-82341500D01*
X132407853Y-82341498D01*
X132334215Y-82341048D01*
X132334214Y-82341048D01*
X132330279Y-82341024D01*
X132328935Y-82341408D01*
X132327590Y-82341500D01*
X118408623Y-82341500D01*
X118407853Y-82341498D01*
X118407037Y-82341493D01*
X118330279Y-82341024D01*
X118307918Y-82347415D01*
X118301847Y-82349150D01*
X118285085Y-82352728D01*
X118255813Y-82356920D01*
X118247645Y-82360634D01*
X118247644Y-82360634D01*
X118232438Y-82367548D01*
X118214914Y-82373996D01*
X118190229Y-82381051D01*
X118182635Y-82385843D01*
X118182632Y-82385844D01*
X118165220Y-82396830D01*
X118150137Y-82404969D01*
X118123218Y-82417208D01*
X118116416Y-82423069D01*
X118103765Y-82433970D01*
X118088761Y-82445073D01*
X118067042Y-82458776D01*
X118061103Y-82465501D01*
X118061099Y-82465504D01*
X118047468Y-82480938D01*
X118035276Y-82492982D01*
X118019673Y-82506427D01*
X118019671Y-82506430D01*
X118012873Y-82512287D01*
X118007993Y-82519816D01*
X118007992Y-82519817D01*
X117998906Y-82533835D01*
X117987615Y-82548709D01*
X117976569Y-82561217D01*
X117970622Y-82567951D01*
X117964312Y-82581391D01*
X117958058Y-82594711D01*
X117949737Y-82609691D01*
X117938529Y-82626983D01*
X117938527Y-82626988D01*
X117933648Y-82634515D01*
X117931078Y-82643108D01*
X117931076Y-82643113D01*
X117926289Y-82659120D01*
X117919628Y-82676564D01*
X117912533Y-82691676D01*
X117908719Y-82699800D01*
X117907338Y-82708667D01*
X117907338Y-82708668D01*
X117904170Y-82729015D01*
X117900387Y-82745732D01*
X117894485Y-82765466D01*
X117894484Y-82765472D01*
X117891914Y-82774066D01*
X117891859Y-82783037D01*
X117891859Y-82783038D01*
X117891704Y-82808497D01*
X117891671Y-82809289D01*
X117891500Y-82810386D01*
X117891500Y-82841377D01*
X117891498Y-82842147D01*
X117891024Y-82919721D01*
X117891408Y-82921065D01*
X117891500Y-82922410D01*
X117891500Y-96841377D01*
X117891498Y-96842147D01*
X117891024Y-96919721D01*
X113758500Y-96919721D01*
X113758500Y-88758623D01*
X113758502Y-88757853D01*
X113758800Y-88709102D01*
X113758976Y-88680279D01*
X113750850Y-88651847D01*
X113747272Y-88635085D01*
X113744352Y-88614698D01*
X113743080Y-88605813D01*
X113732451Y-88582436D01*
X113726004Y-88564913D01*
X113721416Y-88548862D01*
X113718949Y-88540229D01*
X113714156Y-88532632D01*
X113703170Y-88515220D01*
X113695030Y-88500135D01*
X113692564Y-88494711D01*
X113682792Y-88473218D01*
X113666030Y-88453765D01*
X113654927Y-88438761D01*
X113641224Y-88417042D01*
X113634499Y-88411103D01*
X113634496Y-88411099D01*
X113619062Y-88397468D01*
X113607018Y-88385276D01*
X113593573Y-88369673D01*
X113593570Y-88369671D01*
X113587713Y-88362873D01*
X113574009Y-88353990D01*
X113566165Y-88348906D01*
X113551291Y-88337615D01*
X113538783Y-88326569D01*
X113538782Y-88326568D01*
X113532049Y-88320622D01*
X113505287Y-88308057D01*
X113490309Y-88299737D01*
X113473017Y-88288529D01*
X113473012Y-88288527D01*
X113465485Y-88283648D01*
X113456892Y-88281078D01*
X113456887Y-88281076D01*
X113440880Y-88276289D01*
X113423436Y-88269628D01*
X113408324Y-88262533D01*
X113408322Y-88262532D01*
X113400200Y-88258719D01*
X113391333Y-88257338D01*
X113391332Y-88257338D01*
X113380478Y-88255648D01*
X113370983Y-88254170D01*
X113354268Y-88250387D01*
X113334534Y-88244485D01*
X113334528Y-88244484D01*
X113325934Y-88241914D01*
X113316963Y-88241859D01*
X113316962Y-88241859D01*
X113306903Y-88241798D01*
X113291494Y-88241704D01*
X113290711Y-88241671D01*
X113289614Y-88241500D01*
X113258623Y-88241500D01*
X113257853Y-88241498D01*
X113184215Y-88241048D01*
X113184214Y-88241048D01*
X113180279Y-88241024D01*
X113178935Y-88241408D01*
X113177590Y-88241500D01*
X99258623Y-88241500D01*
X99257853Y-88241498D01*
X99257037Y-88241493D01*
X99180279Y-88241024D01*
X99158838Y-88247152D01*
X99151847Y-88249150D01*
X99135085Y-88252728D01*
X99105813Y-88256920D01*
X99097645Y-88260634D01*
X99097644Y-88260634D01*
X99082438Y-88267548D01*
X99064914Y-88273996D01*
X99040229Y-88281051D01*
X99032635Y-88285843D01*
X99032632Y-88285844D01*
X99015220Y-88296830D01*
X99000137Y-88304969D01*
X98973218Y-88317208D01*
X98966416Y-88323069D01*
X98953765Y-88333970D01*
X98938761Y-88345073D01*
X98917042Y-88358776D01*
X98911103Y-88365501D01*
X98911099Y-88365504D01*
X98897468Y-88380938D01*
X98885276Y-88392982D01*
X98869673Y-88406427D01*
X98869671Y-88406430D01*
X98862873Y-88412287D01*
X98857993Y-88419816D01*
X98857992Y-88419817D01*
X98848906Y-88433835D01*
X98837615Y-88448709D01*
X98826569Y-88461217D01*
X98820622Y-88467951D01*
X98814312Y-88481391D01*
X98808058Y-88494711D01*
X98799737Y-88509691D01*
X98788529Y-88526983D01*
X98788527Y-88526988D01*
X98783648Y-88534515D01*
X98781078Y-88543108D01*
X98781076Y-88543113D01*
X98776289Y-88559120D01*
X98769628Y-88576564D01*
X98762533Y-88591676D01*
X98758719Y-88599800D01*
X98757338Y-88608667D01*
X98757338Y-88608668D01*
X98754170Y-88629015D01*
X98750387Y-88645732D01*
X98744485Y-88665466D01*
X98744484Y-88665472D01*
X98741914Y-88674066D01*
X98741859Y-88683037D01*
X98741859Y-88683038D01*
X98741704Y-88708497D01*
X98741671Y-88709289D01*
X98741500Y-88710386D01*
X98741500Y-88741377D01*
X98741498Y-88742147D01*
X98741024Y-88819721D01*
X98741408Y-88821065D01*
X98741500Y-88822410D01*
X98741500Y-102741377D01*
X98741498Y-102742147D01*
X98741024Y-102819721D01*
X94758500Y-102819721D01*
X94758500Y-100758623D01*
X94758502Y-100757853D01*
X94758800Y-100709102D01*
X94758976Y-100680279D01*
X94750850Y-100651847D01*
X94747272Y-100635085D01*
X94744352Y-100614698D01*
X94743080Y-100605813D01*
X94732451Y-100582436D01*
X94726004Y-100564913D01*
X94721416Y-100548862D01*
X94718949Y-100540229D01*
X94714156Y-100532632D01*
X94703170Y-100515220D01*
X94695030Y-100500135D01*
X94692564Y-100494711D01*
X94682792Y-100473218D01*
X94666030Y-100453765D01*
X94654927Y-100438761D01*
X94641224Y-100417042D01*
X94634499Y-100411103D01*
X94634496Y-100411099D01*
X94619062Y-100397468D01*
X94607018Y-100385276D01*
X94593573Y-100369673D01*
X94593570Y-100369671D01*
X94587713Y-100362873D01*
X94574009Y-100353990D01*
X94566165Y-100348906D01*
X94551291Y-100337615D01*
X94538783Y-100326569D01*
X94538782Y-100326568D01*
X94532049Y-100320622D01*
X94505287Y-100308057D01*
X94490309Y-100299737D01*
X94473017Y-100288529D01*
X94473012Y-100288527D01*
X94465485Y-100283648D01*
X94456892Y-100281078D01*
X94456887Y-100281076D01*
X94440880Y-100276289D01*
X94423436Y-100269628D01*
X94408324Y-100262533D01*
X94408322Y-100262532D01*
X94400200Y-100258719D01*
X94391333Y-100257338D01*
X94391332Y-100257338D01*
X94380478Y-100255648D01*
X94370983Y-100254170D01*
X94354268Y-100250387D01*
X94334534Y-100244485D01*
X94334528Y-100244484D01*
X94325934Y-100241914D01*
X94316963Y-100241859D01*
X94316962Y-100241859D01*
X94306903Y-100241798D01*
X94291494Y-100241704D01*
X94290711Y-100241671D01*
X94289614Y-100241500D01*
X94258623Y-100241500D01*
X94257853Y-100241498D01*
X94184215Y-100241048D01*
X94184214Y-100241048D01*
X94180279Y-100241024D01*
X94178935Y-100241408D01*
X94177590Y-100241500D01*
X80258623Y-100241500D01*
X80257853Y-100241498D01*
X80257037Y-100241493D01*
X80180279Y-100241024D01*
X80157918Y-100247415D01*
X80151847Y-100249150D01*
X80135085Y-100252728D01*
X80105813Y-100256920D01*
X80097645Y-100260634D01*
X80097644Y-100260634D01*
X80082438Y-100267548D01*
X80064914Y-100273996D01*
X80040229Y-100281051D01*
X80032635Y-100285843D01*
X80032632Y-100285844D01*
X80015220Y-100296830D01*
X80000137Y-100304969D01*
X79973218Y-100317208D01*
X79966416Y-100323069D01*
X79953765Y-100333970D01*
X79938761Y-100345073D01*
X79917042Y-100358776D01*
X79911103Y-100365501D01*
X79911099Y-100365504D01*
X79897468Y-100380938D01*
X79885276Y-100392982D01*
X79869673Y-100406427D01*
X79869671Y-100406430D01*
X79862873Y-100412287D01*
X79857993Y-100419816D01*
X79857992Y-100419817D01*
X79848906Y-100433835D01*
X79837615Y-100448709D01*
X79826569Y-100461217D01*
X79820622Y-100467951D01*
X79814312Y-100481391D01*
X79808058Y-100494711D01*
X79799737Y-100509691D01*
X79788529Y-100526983D01*
X79788527Y-100526988D01*
X79783648Y-100534515D01*
X79781078Y-100543108D01*
X79781076Y-100543113D01*
X79776289Y-100559120D01*
X79769628Y-100576564D01*
X79762533Y-100591676D01*
X79758719Y-100599800D01*
X79757338Y-100608667D01*
X79757338Y-100608668D01*
X79754170Y-100629015D01*
X79750387Y-100645732D01*
X79744485Y-100665466D01*
X79744484Y-100665472D01*
X79741914Y-100674066D01*
X79741859Y-100683037D01*
X79741859Y-100683038D01*
X79741704Y-100708497D01*
X79741671Y-100709289D01*
X79741500Y-100710386D01*
X79741500Y-100741377D01*
X79741498Y-100742147D01*
X79741024Y-100819721D01*
X79741408Y-100821065D01*
X79741500Y-100822410D01*
X79741500Y-114741377D01*
X79741498Y-114742147D01*
X79741024Y-114819721D01*
X78300393Y-114819721D01*
X78285939Y-95819721D01*
X79741024Y-95819721D01*
X79743491Y-95828352D01*
X79749150Y-95848153D01*
X79752728Y-95864915D01*
X79756920Y-95894187D01*
X79760634Y-95902355D01*
X79760634Y-95902356D01*
X79767548Y-95917562D01*
X79773996Y-95935086D01*
X79781051Y-95959771D01*
X79785843Y-95967365D01*
X79785844Y-95967368D01*
X79796830Y-95984780D01*
X79804969Y-95999863D01*
X79817208Y-96026782D01*
X79823069Y-96033584D01*
X79833970Y-96046235D01*
X79845073Y-96061239D01*
X79858776Y-96082958D01*
X79865501Y-96088897D01*
X79865504Y-96088901D01*
X79880938Y-96102532D01*
X79892982Y-96114724D01*
X79906427Y-96130327D01*
X79906430Y-96130329D01*
X79912287Y-96137127D01*
X79919816Y-96142007D01*
X79919817Y-96142008D01*
X79933835Y-96151094D01*
X79948709Y-96162385D01*
X79961217Y-96173431D01*
X79967951Y-96179378D01*
X79994711Y-96191942D01*
X80009691Y-96200263D01*
X80026983Y-96211471D01*
X80026988Y-96211473D01*
X80034515Y-96216352D01*
X80043108Y-96218922D01*
X80043113Y-96218924D01*
X80059120Y-96223711D01*
X80076564Y-96230372D01*
X80091676Y-96237467D01*
X80091678Y-96237468D01*
X80099800Y-96241281D01*
X80108667Y-96242662D01*
X80108668Y-96242662D01*
X80111353Y-96243080D01*
X80129017Y-96245830D01*
X80145732Y-96249613D01*
X80165466Y-96255515D01*
X80165472Y-96255516D01*
X80174066Y-96258086D01*
X80183037Y-96258141D01*
X80183038Y-96258141D01*
X80193097Y-96258202D01*
X80208506Y-96258296D01*
X80209289Y-96258329D01*
X80210386Y-96258500D01*
X80241377Y-96258500D01*
X80242147Y-96258502D01*
X80315785Y-96258952D01*
X80315786Y-96258952D01*
X80319721Y-96258976D01*
X80321065Y-96258592D01*
X80322410Y-96258500D01*
X94491377Y-96258500D01*
X94492148Y-96258502D01*
X94569721Y-96258976D01*
X94598152Y-96250850D01*
X94614915Y-96247272D01*
X94615753Y-96247152D01*
X94644187Y-96243080D01*
X94667564Y-96232451D01*
X94685087Y-96226004D01*
X94709771Y-96218949D01*
X94717365Y-96214157D01*
X94717368Y-96214156D01*
X94734780Y-96203170D01*
X94749865Y-96195030D01*
X94776782Y-96182792D01*
X94796235Y-96166030D01*
X94811239Y-96154927D01*
X94832958Y-96141224D01*
X94838897Y-96134499D01*
X94838901Y-96134496D01*
X94852532Y-96119062D01*
X94864724Y-96107018D01*
X94880327Y-96093573D01*
X94880329Y-96093570D01*
X94887127Y-96087713D01*
X94901094Y-96066165D01*
X94912385Y-96051291D01*
X94923431Y-96038783D01*
X94923432Y-96038782D01*
X94929378Y-96032049D01*
X94941943Y-96005287D01*
X94950263Y-95990309D01*
X94961471Y-95973017D01*
X94961473Y-95973012D01*
X94966352Y-95965485D01*
X94968922Y-95956892D01*
X94968924Y-95956887D01*
X94973711Y-95940880D01*
X94980372Y-95923436D01*
X94987467Y-95908324D01*
X94987468Y-95908322D01*
X94991281Y-95900200D01*
X94995830Y-95870983D01*
X94999613Y-95854268D01*
X95005515Y-95834534D01*
X95005516Y-95834528D01*
X95008086Y-95825934D01*
X95008296Y-95791494D01*
X95008329Y-95790711D01*
X95008500Y-95789614D01*
X95008500Y-95758623D01*
X95008502Y-95757853D01*
X95008952Y-95684215D01*
X95008952Y-95684214D01*
X95008976Y-95680279D01*
X95008592Y-95678935D01*
X95008500Y-95677590D01*
X95008500Y-87917623D01*
X95028502Y-87849502D01*
X95082158Y-87803009D01*
X95152432Y-87792905D01*
X95213538Y-87819495D01*
X95325196Y-87909431D01*
X95325201Y-87909435D01*
X95328149Y-87911809D01*
X95605253Y-88084627D01*
X95901112Y-88222903D01*
X95992459Y-88252848D01*
X96187564Y-88316807D01*
X96211440Y-88324634D01*
X96531742Y-88388346D01*
X96535514Y-88388633D01*
X96535522Y-88388634D01*
X96853602Y-88412829D01*
X96853607Y-88412829D01*
X96857379Y-88413116D01*
X97183633Y-88398586D01*
X97243425Y-88388634D01*
X97502037Y-88345590D01*
X97502042Y-88345589D01*
X97505778Y-88344967D01*
X97819149Y-88253034D01*
X97822616Y-88251544D01*
X97822620Y-88251543D01*
X98115721Y-88125616D01*
X98115723Y-88125615D01*
X98119205Y-88124119D01*
X98401601Y-87960091D01*
X98662245Y-87763324D01*
X98897363Y-87536670D01*
X99103549Y-87283410D01*
X99277815Y-87007215D01*
X99417638Y-86712084D01*
X99520992Y-86402293D01*
X99586381Y-86082329D01*
X99612856Y-85756826D01*
X99613451Y-85700000D01*
X99593798Y-85374015D01*
X99572789Y-85258976D01*
X99535805Y-85056473D01*
X99535804Y-85056469D01*
X99535125Y-85052751D01*
X99527062Y-85026782D01*
X99452490Y-84786622D01*
X99438282Y-84740863D01*
X99304670Y-84442869D01*
X99304289Y-84442235D01*
X99290581Y-84373241D01*
X99316590Y-84307180D01*
X99374185Y-84265668D01*
X99416077Y-84258500D01*
X113241377Y-84258500D01*
X113242148Y-84258502D01*
X113319721Y-84258976D01*
X113348152Y-84250850D01*
X113364915Y-84247272D01*
X113394187Y-84243080D01*
X113417564Y-84232451D01*
X113435087Y-84226004D01*
X113459771Y-84218949D01*
X113467365Y-84214157D01*
X113467368Y-84214156D01*
X113484780Y-84203170D01*
X113499865Y-84195030D01*
X113526782Y-84182792D01*
X113546235Y-84166030D01*
X113561239Y-84154927D01*
X113582958Y-84141224D01*
X113588897Y-84134499D01*
X113588901Y-84134496D01*
X113602532Y-84119062D01*
X113614724Y-84107018D01*
X113630327Y-84093573D01*
X113630329Y-84093570D01*
X113637127Y-84087713D01*
X113651094Y-84066165D01*
X113662385Y-84051291D01*
X113673431Y-84038783D01*
X113673432Y-84038782D01*
X113679378Y-84032049D01*
X113691943Y-84005287D01*
X113700263Y-83990309D01*
X113711471Y-83973017D01*
X113711473Y-83973012D01*
X113716352Y-83965485D01*
X113718922Y-83956892D01*
X113718924Y-83956887D01*
X113723711Y-83940880D01*
X113730372Y-83923436D01*
X113737467Y-83908324D01*
X113737468Y-83908322D01*
X113741281Y-83900200D01*
X113745830Y-83870983D01*
X113749613Y-83854268D01*
X113755515Y-83834534D01*
X113755516Y-83834528D01*
X113758086Y-83825934D01*
X113758296Y-83791494D01*
X113758329Y-83790711D01*
X113758500Y-83789614D01*
X113758500Y-83758623D01*
X113758502Y-83757853D01*
X113758952Y-83684215D01*
X113758952Y-83684214D01*
X113758976Y-83680279D01*
X113758592Y-83678935D01*
X113758500Y-83677590D01*
X113758500Y-77819721D01*
X117791024Y-77819721D01*
X117793491Y-77828352D01*
X117799150Y-77848153D01*
X117802728Y-77864915D01*
X117806920Y-77894187D01*
X117810634Y-77902355D01*
X117810634Y-77902356D01*
X117817548Y-77917562D01*
X117823996Y-77935086D01*
X117831051Y-77959771D01*
X117835843Y-77967365D01*
X117835844Y-77967368D01*
X117846830Y-77984780D01*
X117854969Y-77999863D01*
X117867208Y-78026782D01*
X117873069Y-78033584D01*
X117883970Y-78046235D01*
X117895073Y-78061239D01*
X117908776Y-78082958D01*
X117915501Y-78088897D01*
X117915504Y-78088901D01*
X117930938Y-78102532D01*
X117942982Y-78114724D01*
X117956427Y-78130327D01*
X117956430Y-78130329D01*
X117962287Y-78137127D01*
X117969816Y-78142007D01*
X117969817Y-78142008D01*
X117983835Y-78151094D01*
X117998709Y-78162385D01*
X118011217Y-78173431D01*
X118017951Y-78179378D01*
X118044711Y-78191942D01*
X118059691Y-78200263D01*
X118076983Y-78211471D01*
X118076988Y-78211473D01*
X118084515Y-78216352D01*
X118093108Y-78218922D01*
X118093113Y-78218924D01*
X118109120Y-78223711D01*
X118126564Y-78230372D01*
X118141676Y-78237467D01*
X118141678Y-78237468D01*
X118149800Y-78241281D01*
X118158667Y-78242662D01*
X118158668Y-78242662D01*
X118161353Y-78243080D01*
X118179017Y-78245830D01*
X118195732Y-78249613D01*
X118215466Y-78255515D01*
X118215472Y-78255516D01*
X118224066Y-78258086D01*
X118233037Y-78258141D01*
X118233038Y-78258141D01*
X118243097Y-78258202D01*
X118258506Y-78258296D01*
X118259289Y-78258329D01*
X118260386Y-78258500D01*
X118291377Y-78258500D01*
X118292147Y-78258502D01*
X118365785Y-78258952D01*
X118365786Y-78258952D01*
X118369721Y-78258976D01*
X118371065Y-78258592D01*
X118372410Y-78258500D01*
X132291377Y-78258500D01*
X132292148Y-78258502D01*
X132369721Y-78258976D01*
X132398152Y-78250850D01*
X132414915Y-78247272D01*
X132415753Y-78247152D01*
X132444187Y-78243080D01*
X132467564Y-78232451D01*
X132485087Y-78226004D01*
X132509771Y-78218949D01*
X132517365Y-78214157D01*
X132517368Y-78214156D01*
X132534780Y-78203170D01*
X132549865Y-78195030D01*
X132576782Y-78182792D01*
X132596235Y-78166030D01*
X132611239Y-78154927D01*
X132632958Y-78141224D01*
X132638897Y-78134499D01*
X132638901Y-78134496D01*
X132652532Y-78119062D01*
X132664724Y-78107018D01*
X132680327Y-78093573D01*
X132680329Y-78093570D01*
X132687127Y-78087713D01*
X132701094Y-78066165D01*
X132712385Y-78051291D01*
X132723431Y-78038783D01*
X132723432Y-78038782D01*
X132729378Y-78032049D01*
X132741943Y-78005287D01*
X132750263Y-77990309D01*
X132761471Y-77973017D01*
X132761473Y-77973012D01*
X132766352Y-77965485D01*
X132768922Y-77956892D01*
X132768924Y-77956887D01*
X132773711Y-77940880D01*
X132780372Y-77923436D01*
X132787467Y-77908324D01*
X132787468Y-77908322D01*
X132791281Y-77900200D01*
X132795830Y-77870983D01*
X132799613Y-77854268D01*
X132805515Y-77834534D01*
X132805516Y-77834528D01*
X132808086Y-77825934D01*
X132808296Y-77791494D01*
X132808329Y-77790711D01*
X132808500Y-77789614D01*
X132808500Y-77758623D01*
X132808502Y-77757853D01*
X132808952Y-77684215D01*
X132808952Y-77684214D01*
X132808976Y-77680279D01*
X132808592Y-77678935D01*
X132808500Y-77677590D01*
X132808500Y-70241861D01*
X132828502Y-70173740D01*
X132882158Y-70127247D01*
X132952432Y-70117143D01*
X133017012Y-70146637D01*
X133024754Y-70153939D01*
X133148606Y-70281076D01*
X133173814Y-70306953D01*
X133273663Y-70387377D01*
X133425196Y-70509431D01*
X133425201Y-70509435D01*
X133428149Y-70511809D01*
X133705253Y-70684627D01*
X134001112Y-70822903D01*
X134311440Y-70924634D01*
X134631742Y-70988346D01*
X134635514Y-70988633D01*
X134635522Y-70988634D01*
X134953602Y-71012829D01*
X134953607Y-71012829D01*
X134957379Y-71013116D01*
X135283633Y-70998586D01*
X135343425Y-70988634D01*
X135602037Y-70945590D01*
X135602042Y-70945589D01*
X135605778Y-70944967D01*
X135919149Y-70853034D01*
X135922616Y-70851544D01*
X135922620Y-70851543D01*
X136215721Y-70725616D01*
X136215723Y-70725615D01*
X136219205Y-70724119D01*
X136501601Y-70560091D01*
X136747998Y-70374080D01*
X136814417Y-70349000D01*
X136883851Y-70363811D01*
X136934256Y-70413809D01*
X136949628Y-70483122D01*
X136938355Y-70527253D01*
X136933648Y-70534515D01*
X136931078Y-70543108D01*
X136931076Y-70543113D01*
X136926289Y-70559120D01*
X136919628Y-70576564D01*
X136912533Y-70591676D01*
X136908719Y-70599800D01*
X136907338Y-70608667D01*
X136907338Y-70608668D01*
X136904170Y-70629015D01*
X136900387Y-70645732D01*
X136894485Y-70665466D01*
X136894484Y-70665472D01*
X136891914Y-70674066D01*
X136891859Y-70683037D01*
X136891859Y-70683038D01*
X136891704Y-70708497D01*
X136891671Y-70709289D01*
X136891500Y-70710386D01*
X136891500Y-70741377D01*
X136891498Y-70742147D01*
X136891024Y-70819721D01*
X136891408Y-70821065D01*
X136891500Y-70822410D01*
X136891500Y-84741377D01*
X136891498Y-84742147D01*
X136891024Y-84819721D01*
X136893491Y-84828352D01*
X136899150Y-84848153D01*
X136902728Y-84864915D01*
X136906920Y-84894187D01*
X136910634Y-84902355D01*
X136910634Y-84902356D01*
X136917548Y-84917562D01*
X136923996Y-84935086D01*
X136931051Y-84959771D01*
X136935843Y-84967365D01*
X136935844Y-84967368D01*
X136946830Y-84984780D01*
X136954969Y-84999863D01*
X136967208Y-85026782D01*
X136973069Y-85033584D01*
X136983970Y-85046235D01*
X136995073Y-85061239D01*
X137008776Y-85082958D01*
X137015501Y-85088897D01*
X137015504Y-85088901D01*
X137030938Y-85102532D01*
X137042982Y-85114724D01*
X137056427Y-85130327D01*
X137056430Y-85130329D01*
X137062287Y-85137127D01*
X137069816Y-85142007D01*
X137069817Y-85142008D01*
X137083835Y-85151094D01*
X137098709Y-85162385D01*
X137111217Y-85173431D01*
X137117951Y-85179378D01*
X137144711Y-85191942D01*
X137159691Y-85200263D01*
X137176983Y-85211471D01*
X137176988Y-85211473D01*
X137184515Y-85216352D01*
X137193108Y-85218922D01*
X137193113Y-85218924D01*
X137209120Y-85223711D01*
X137226564Y-85230372D01*
X137241676Y-85237467D01*
X137241678Y-85237468D01*
X137249800Y-85241281D01*
X137258667Y-85242662D01*
X137258668Y-85242662D01*
X137261353Y-85243080D01*
X137279017Y-85245830D01*
X137295732Y-85249613D01*
X137315466Y-85255515D01*
X137315472Y-85255516D01*
X137324066Y-85258086D01*
X137333037Y-85258141D01*
X137333038Y-85258141D01*
X137343097Y-85258202D01*
X137358506Y-85258296D01*
X137359289Y-85258329D01*
X137360386Y-85258500D01*
X137391377Y-85258500D01*
X137392147Y-85258502D01*
X137465785Y-85258952D01*
X137465786Y-85258952D01*
X137469721Y-85258976D01*
X137471065Y-85258592D01*
X137472410Y-85258500D01*
X151391377Y-85258500D01*
X151392148Y-85258502D01*
X151469721Y-85258976D01*
X151498152Y-85250850D01*
X151514915Y-85247272D01*
X151515753Y-85247152D01*
X151544187Y-85243080D01*
X151567564Y-85232451D01*
X151585087Y-85226004D01*
X151609771Y-85218949D01*
X151617365Y-85214157D01*
X151617368Y-85214156D01*
X151634780Y-85203170D01*
X151649865Y-85195030D01*
X151676782Y-85182792D01*
X151696235Y-85166030D01*
X151711239Y-85154927D01*
X151732958Y-85141224D01*
X151738897Y-85134499D01*
X151738901Y-85134496D01*
X151752532Y-85119062D01*
X151764724Y-85107018D01*
X151780327Y-85093573D01*
X151780329Y-85093570D01*
X151787127Y-85087713D01*
X151801094Y-85066165D01*
X151812385Y-85051291D01*
X151823431Y-85038783D01*
X151823432Y-85038782D01*
X151829378Y-85032049D01*
X151841943Y-85005287D01*
X151850263Y-84990309D01*
X151861471Y-84973017D01*
X151861473Y-84973012D01*
X151866352Y-84965485D01*
X151868922Y-84956892D01*
X151868924Y-84956887D01*
X151873711Y-84940880D01*
X151880372Y-84923436D01*
X151887467Y-84908324D01*
X151887468Y-84908322D01*
X151891281Y-84900200D01*
X151895830Y-84870983D01*
X151899613Y-84854268D01*
X151905515Y-84834534D01*
X151905516Y-84834528D01*
X151908086Y-84825934D01*
X151908296Y-84791494D01*
X151908329Y-84790711D01*
X151908500Y-84789614D01*
X151908500Y-84758623D01*
X151908502Y-84757853D01*
X151908952Y-84684215D01*
X151908952Y-84684214D01*
X151908976Y-84680279D01*
X151908592Y-84678935D01*
X151908500Y-84677590D01*
X151908500Y-70758623D01*
X151908502Y-70757853D01*
X151908800Y-70709102D01*
X151908976Y-70680279D01*
X151900850Y-70651847D01*
X151897272Y-70635085D01*
X151894352Y-70614698D01*
X151893080Y-70605813D01*
X151882451Y-70582436D01*
X151876004Y-70564913D01*
X151868949Y-70540229D01*
X151864156Y-70532632D01*
X151853170Y-70515220D01*
X151845030Y-70500135D01*
X151832792Y-70473218D01*
X151816030Y-70453765D01*
X151804927Y-70438761D01*
X151791224Y-70417042D01*
X151784499Y-70411103D01*
X151784496Y-70411099D01*
X151769062Y-70397468D01*
X151757018Y-70385276D01*
X151743573Y-70369673D01*
X151743570Y-70369671D01*
X151737713Y-70362873D01*
X151716165Y-70348906D01*
X151701291Y-70337615D01*
X151688783Y-70326569D01*
X151688782Y-70326568D01*
X151682049Y-70320622D01*
X151655287Y-70308057D01*
X151640309Y-70299737D01*
X151623017Y-70288529D01*
X151623012Y-70288527D01*
X151615485Y-70283648D01*
X151606892Y-70281078D01*
X151606887Y-70281076D01*
X151590880Y-70276289D01*
X151573436Y-70269628D01*
X151558324Y-70262533D01*
X151558322Y-70262532D01*
X151550200Y-70258719D01*
X151541333Y-70257338D01*
X151541332Y-70257338D01*
X151530478Y-70255648D01*
X151520983Y-70254170D01*
X151504268Y-70250387D01*
X151484534Y-70244485D01*
X151484528Y-70244484D01*
X151475934Y-70241914D01*
X151466963Y-70241859D01*
X151466962Y-70241859D01*
X151456903Y-70241798D01*
X151441494Y-70241704D01*
X151440711Y-70241671D01*
X151439614Y-70241500D01*
X151408623Y-70241500D01*
X151407853Y-70241498D01*
X151334215Y-70241048D01*
X151334214Y-70241048D01*
X151330279Y-70241024D01*
X151328935Y-70241408D01*
X151327590Y-70241500D01*
X137408623Y-70241500D01*
X137407853Y-70241498D01*
X137407037Y-70241493D01*
X137330279Y-70241024D01*
X137307918Y-70247415D01*
X137301847Y-70249150D01*
X137285085Y-70252728D01*
X137255813Y-70256920D01*
X137247645Y-70260634D01*
X137247644Y-70260634D01*
X137232438Y-70267548D01*
X137214913Y-70273996D01*
X137198859Y-70278584D01*
X137198856Y-70278585D01*
X137190229Y-70281051D01*
X137183476Y-70285312D01*
X137113620Y-70294804D01*
X137049270Y-70264811D01*
X137011350Y-70204789D01*
X137011901Y-70133794D01*
X137034804Y-70090681D01*
X137203549Y-69883410D01*
X137337161Y-69671648D01*
X137375788Y-69610428D01*
X137375790Y-69610425D01*
X137377815Y-69607215D01*
X137382350Y-69597644D01*
X137457627Y-69438751D01*
X137517638Y-69312084D01*
X137518981Y-69308058D01*
X137619790Y-69005897D01*
X137619792Y-69005891D01*
X137620992Y-69002293D01*
X137658303Y-68819721D01*
X155891024Y-68819721D01*
X155893491Y-68828352D01*
X155899150Y-68848153D01*
X155902728Y-68864915D01*
X155906920Y-68894187D01*
X155910634Y-68902355D01*
X155910634Y-68902356D01*
X155917548Y-68917562D01*
X155923996Y-68935086D01*
X155931051Y-68959771D01*
X155935843Y-68967365D01*
X155935844Y-68967368D01*
X155946830Y-68984780D01*
X155954969Y-68999863D01*
X155967208Y-69026782D01*
X155973069Y-69033584D01*
X155983970Y-69046235D01*
X155995073Y-69061239D01*
X156008776Y-69082958D01*
X156015501Y-69088897D01*
X156015504Y-69088901D01*
X156030938Y-69102532D01*
X156042982Y-69114724D01*
X156056427Y-69130327D01*
X156056430Y-69130329D01*
X156062287Y-69137127D01*
X156069816Y-69142007D01*
X156069817Y-69142008D01*
X156083835Y-69151094D01*
X156098709Y-69162385D01*
X156111217Y-69173431D01*
X156117951Y-69179378D01*
X156144711Y-69191942D01*
X156159691Y-69200263D01*
X156176983Y-69211471D01*
X156176988Y-69211473D01*
X156184515Y-69216352D01*
X156193108Y-69218922D01*
X156193113Y-69218924D01*
X156209120Y-69223711D01*
X156226564Y-69230372D01*
X156241676Y-69237467D01*
X156241678Y-69237468D01*
X156249800Y-69241281D01*
X156258667Y-69242662D01*
X156258668Y-69242662D01*
X156268310Y-69244163D01*
X156279017Y-69245830D01*
X156295732Y-69249613D01*
X156315466Y-69255515D01*
X156315472Y-69255516D01*
X156324066Y-69258086D01*
X156333037Y-69258141D01*
X156333038Y-69258141D01*
X156343097Y-69258202D01*
X156358506Y-69258296D01*
X156359289Y-69258329D01*
X156360386Y-69258500D01*
X156391377Y-69258500D01*
X156392147Y-69258502D01*
X156465785Y-69258952D01*
X156465786Y-69258952D01*
X156469721Y-69258976D01*
X156471065Y-69258592D01*
X156472410Y-69258500D01*
X170391377Y-69258500D01*
X170392148Y-69258502D01*
X170469721Y-69258976D01*
X170492082Y-69252585D01*
X170498153Y-69250850D01*
X170514915Y-69247272D01*
X170515753Y-69247152D01*
X170544187Y-69243080D01*
X170567564Y-69232451D01*
X170585087Y-69226004D01*
X170609771Y-69218949D01*
X170617365Y-69214157D01*
X170617368Y-69214156D01*
X170634780Y-69203170D01*
X170649865Y-69195030D01*
X170676782Y-69182792D01*
X170696235Y-69166030D01*
X170711239Y-69154927D01*
X170732958Y-69141224D01*
X170738897Y-69134499D01*
X170738901Y-69134496D01*
X170752532Y-69119062D01*
X170764724Y-69107018D01*
X170780327Y-69093573D01*
X170780329Y-69093570D01*
X170787127Y-69087713D01*
X170801094Y-69066165D01*
X170812385Y-69051291D01*
X170823431Y-69038783D01*
X170823432Y-69038782D01*
X170829378Y-69032049D01*
X170841943Y-69005287D01*
X170850263Y-68990309D01*
X170861471Y-68973017D01*
X170861473Y-68973012D01*
X170866352Y-68965485D01*
X170868922Y-68956892D01*
X170868924Y-68956887D01*
X170873711Y-68940880D01*
X170880372Y-68923436D01*
X170887467Y-68908324D01*
X170887468Y-68908322D01*
X170891281Y-68900200D01*
X170895830Y-68870983D01*
X170899613Y-68854268D01*
X170905515Y-68834534D01*
X170905516Y-68834528D01*
X170908086Y-68825934D01*
X170908296Y-68791494D01*
X170908329Y-68790711D01*
X170908500Y-68789614D01*
X170908500Y-68758623D01*
X170908502Y-68757853D01*
X170908952Y-68684215D01*
X170908952Y-68684214D01*
X170908976Y-68680279D01*
X170908592Y-68678935D01*
X170908500Y-68677590D01*
X170908500Y-54758623D01*
X170908502Y-54757853D01*
X170908800Y-54709102D01*
X170908976Y-54680279D01*
X170900850Y-54651847D01*
X170897272Y-54635085D01*
X170894352Y-54614698D01*
X170893080Y-54605813D01*
X170882451Y-54582436D01*
X170876004Y-54564913D01*
X170871416Y-54548862D01*
X170868949Y-54540229D01*
X170864156Y-54532632D01*
X170853170Y-54515220D01*
X170845030Y-54500135D01*
X170842564Y-54494711D01*
X170832792Y-54473218D01*
X170816030Y-54453765D01*
X170804927Y-54438761D01*
X170791224Y-54417042D01*
X170784499Y-54411103D01*
X170784496Y-54411099D01*
X170769062Y-54397468D01*
X170757018Y-54385276D01*
X170743573Y-54369673D01*
X170743570Y-54369671D01*
X170737713Y-54362873D01*
X170724009Y-54353990D01*
X170716165Y-54348906D01*
X170701291Y-54337615D01*
X170688783Y-54326569D01*
X170688782Y-54326568D01*
X170682049Y-54320622D01*
X170655287Y-54308057D01*
X170640309Y-54299737D01*
X170623017Y-54288529D01*
X170623012Y-54288527D01*
X170615485Y-54283648D01*
X170606892Y-54281078D01*
X170606887Y-54281076D01*
X170590880Y-54276289D01*
X170573436Y-54269628D01*
X170558324Y-54262533D01*
X170558322Y-54262532D01*
X170550200Y-54258719D01*
X170541333Y-54257338D01*
X170541332Y-54257338D01*
X170530478Y-54255648D01*
X170520983Y-54254170D01*
X170504268Y-54250387D01*
X170484534Y-54244485D01*
X170484528Y-54244484D01*
X170475934Y-54241914D01*
X170466963Y-54241859D01*
X170466962Y-54241859D01*
X170456903Y-54241798D01*
X170441494Y-54241704D01*
X170440711Y-54241671D01*
X170439614Y-54241500D01*
X170408623Y-54241500D01*
X170407853Y-54241498D01*
X170334215Y-54241048D01*
X170334214Y-54241048D01*
X170330279Y-54241024D01*
X170328935Y-54241408D01*
X170327590Y-54241500D01*
X156408623Y-54241500D01*
X156407853Y-54241498D01*
X156407037Y-54241493D01*
X156330279Y-54241024D01*
X156307918Y-54247415D01*
X156301847Y-54249150D01*
X156285085Y-54252728D01*
X156255813Y-54256920D01*
X156247645Y-54260634D01*
X156247644Y-54260634D01*
X156232438Y-54267548D01*
X156214914Y-54273996D01*
X156190229Y-54281051D01*
X156182635Y-54285843D01*
X156182632Y-54285844D01*
X156165220Y-54296830D01*
X156150137Y-54304969D01*
X156123218Y-54317208D01*
X156116416Y-54323069D01*
X156103765Y-54333970D01*
X156088761Y-54345073D01*
X156067042Y-54358776D01*
X156061103Y-54365501D01*
X156061099Y-54365504D01*
X156047468Y-54380938D01*
X156035276Y-54392982D01*
X156019673Y-54406427D01*
X156019671Y-54406430D01*
X156012873Y-54412287D01*
X156007993Y-54419816D01*
X156007992Y-54419817D01*
X155998906Y-54433835D01*
X155987615Y-54448709D01*
X155976569Y-54461217D01*
X155970622Y-54467951D01*
X155964312Y-54481391D01*
X155958058Y-54494711D01*
X155949737Y-54509691D01*
X155938529Y-54526983D01*
X155938527Y-54526988D01*
X155933648Y-54534515D01*
X155931078Y-54543108D01*
X155931076Y-54543113D01*
X155926289Y-54559120D01*
X155919628Y-54576564D01*
X155912533Y-54591676D01*
X155908719Y-54599800D01*
X155907338Y-54608667D01*
X155907338Y-54608668D01*
X155904170Y-54629015D01*
X155900387Y-54645732D01*
X155894485Y-54665466D01*
X155894484Y-54665472D01*
X155891914Y-54674066D01*
X155891859Y-54683037D01*
X155891859Y-54683038D01*
X155891704Y-54708497D01*
X155891671Y-54709289D01*
X155891500Y-54710386D01*
X155891500Y-54741377D01*
X155891498Y-54742147D01*
X155891024Y-54819721D01*
X155891408Y-54821065D01*
X155891500Y-54822410D01*
X155891500Y-68741377D01*
X155891498Y-68742147D01*
X155891024Y-68819721D01*
X137658303Y-68819721D01*
X137686381Y-68682329D01*
X137686767Y-68677590D01*
X137712674Y-68359061D01*
X137712856Y-68356826D01*
X137713451Y-68300000D01*
X137693798Y-67974015D01*
X137635125Y-67652751D01*
X137538282Y-67340863D01*
X137404670Y-67042869D01*
X137236226Y-66763084D01*
X137233899Y-66760100D01*
X137233894Y-66760093D01*
X137037726Y-66508558D01*
X137037724Y-66508556D01*
X137035390Y-66505563D01*
X136805070Y-66274034D01*
X136548603Y-66071852D01*
X136269705Y-65901945D01*
X136266261Y-65900379D01*
X136266257Y-65900377D01*
X136121442Y-65834534D01*
X136088863Y-65819721D01*
X136891024Y-65819721D01*
X136893491Y-65828352D01*
X136899150Y-65848153D01*
X136902728Y-65864915D01*
X136906920Y-65894187D01*
X136910634Y-65902355D01*
X136910634Y-65902356D01*
X136917548Y-65917562D01*
X136923996Y-65935086D01*
X136931051Y-65959771D01*
X136935843Y-65967365D01*
X136935844Y-65967368D01*
X136946830Y-65984780D01*
X136954969Y-65999863D01*
X136967208Y-66026782D01*
X136973069Y-66033584D01*
X136983970Y-66046235D01*
X136995073Y-66061239D01*
X137008776Y-66082958D01*
X137015501Y-66088897D01*
X137015504Y-66088901D01*
X137030938Y-66102532D01*
X137042982Y-66114724D01*
X137056427Y-66130327D01*
X137056430Y-66130329D01*
X137062287Y-66137127D01*
X137069816Y-66142007D01*
X137069817Y-66142008D01*
X137083835Y-66151094D01*
X137098709Y-66162385D01*
X137111217Y-66173431D01*
X137117951Y-66179378D01*
X137144711Y-66191942D01*
X137159691Y-66200263D01*
X137176983Y-66211471D01*
X137176988Y-66211473D01*
X137184515Y-66216352D01*
X137193108Y-66218922D01*
X137193113Y-66218924D01*
X137209120Y-66223711D01*
X137226564Y-66230372D01*
X137241676Y-66237467D01*
X137241678Y-66237468D01*
X137249800Y-66241281D01*
X137258667Y-66242662D01*
X137258668Y-66242662D01*
X137261353Y-66243080D01*
X137279017Y-66245830D01*
X137295732Y-66249613D01*
X137315466Y-66255515D01*
X137315472Y-66255516D01*
X137324066Y-66258086D01*
X137333037Y-66258141D01*
X137333038Y-66258141D01*
X137343097Y-66258202D01*
X137358506Y-66258296D01*
X137359289Y-66258329D01*
X137360386Y-66258500D01*
X137391377Y-66258500D01*
X137392147Y-66258502D01*
X137465785Y-66258952D01*
X137465786Y-66258952D01*
X137469721Y-66258976D01*
X137471065Y-66258592D01*
X137472410Y-66258500D01*
X151391377Y-66258500D01*
X151392148Y-66258502D01*
X151469721Y-66258976D01*
X151498152Y-66250850D01*
X151514915Y-66247272D01*
X151515753Y-66247152D01*
X151544187Y-66243080D01*
X151567564Y-66232451D01*
X151585087Y-66226004D01*
X151609771Y-66218949D01*
X151617365Y-66214157D01*
X151617368Y-66214156D01*
X151634780Y-66203170D01*
X151649865Y-66195030D01*
X151676782Y-66182792D01*
X151696235Y-66166030D01*
X151711239Y-66154927D01*
X151732958Y-66141224D01*
X151738897Y-66134499D01*
X151738901Y-66134496D01*
X151752532Y-66119062D01*
X151764724Y-66107018D01*
X151780327Y-66093573D01*
X151780329Y-66093570D01*
X151787127Y-66087713D01*
X151795891Y-66074193D01*
X151801094Y-66066165D01*
X151812385Y-66051291D01*
X151823431Y-66038783D01*
X151823432Y-66038782D01*
X151829378Y-66032049D01*
X151841943Y-66005287D01*
X151850263Y-65990309D01*
X151861471Y-65973017D01*
X151861473Y-65973012D01*
X151866352Y-65965485D01*
X151868922Y-65956892D01*
X151868924Y-65956887D01*
X151873711Y-65940880D01*
X151880372Y-65923436D01*
X151887467Y-65908324D01*
X151887468Y-65908322D01*
X151891281Y-65900200D01*
X151895830Y-65870983D01*
X151899613Y-65854268D01*
X151905515Y-65834534D01*
X151905516Y-65834528D01*
X151908086Y-65825934D01*
X151908296Y-65791494D01*
X151908329Y-65790711D01*
X151908500Y-65789614D01*
X151908500Y-65758623D01*
X151908502Y-65757853D01*
X151908952Y-65684215D01*
X151908952Y-65684214D01*
X151908976Y-65680279D01*
X151908592Y-65678935D01*
X151908500Y-65677590D01*
X151908500Y-51758623D01*
X151908502Y-51757853D01*
X151908800Y-51709102D01*
X151908976Y-51680279D01*
X151900850Y-51651847D01*
X151897272Y-51635085D01*
X151894352Y-51614698D01*
X151893080Y-51605813D01*
X151882451Y-51582436D01*
X151876004Y-51564913D01*
X151874348Y-51559120D01*
X151868949Y-51540229D01*
X151864156Y-51532632D01*
X151853170Y-51515220D01*
X151845030Y-51500135D01*
X151842564Y-51494711D01*
X151832792Y-51473218D01*
X151816030Y-51453765D01*
X151804927Y-51438761D01*
X151791224Y-51417042D01*
X151784499Y-51411103D01*
X151784496Y-51411099D01*
X151769062Y-51397468D01*
X151757018Y-51385276D01*
X151743573Y-51369673D01*
X151743570Y-51369671D01*
X151737713Y-51362873D01*
X151724009Y-51353990D01*
X151716165Y-51348906D01*
X151701291Y-51337615D01*
X151688783Y-51326569D01*
X151688782Y-51326568D01*
X151682049Y-51320622D01*
X151655287Y-51308057D01*
X151640309Y-51299737D01*
X151623017Y-51288529D01*
X151623012Y-51288527D01*
X151615485Y-51283648D01*
X151606892Y-51281078D01*
X151606887Y-51281076D01*
X151590880Y-51276289D01*
X151573436Y-51269628D01*
X151558324Y-51262533D01*
X151558322Y-51262532D01*
X151550200Y-51258719D01*
X151541333Y-51257338D01*
X151541332Y-51257338D01*
X151530478Y-51255648D01*
X151520983Y-51254170D01*
X151504268Y-51250387D01*
X151484534Y-51244485D01*
X151484528Y-51244484D01*
X151475934Y-51241914D01*
X151466963Y-51241859D01*
X151466962Y-51241859D01*
X151456903Y-51241798D01*
X151441494Y-51241704D01*
X151440711Y-51241671D01*
X151439614Y-51241500D01*
X151408623Y-51241500D01*
X151407853Y-51241498D01*
X151334215Y-51241048D01*
X151334214Y-51241048D01*
X151330279Y-51241024D01*
X151328935Y-51241408D01*
X151327590Y-51241500D01*
X137408623Y-51241500D01*
X137407853Y-51241498D01*
X137407037Y-51241493D01*
X137330279Y-51241024D01*
X137307918Y-51247415D01*
X137301847Y-51249150D01*
X137285085Y-51252728D01*
X137255813Y-51256920D01*
X137247645Y-51260634D01*
X137247644Y-51260634D01*
X137232438Y-51267548D01*
X137214914Y-51273996D01*
X137190229Y-51281051D01*
X137182635Y-51285843D01*
X137182632Y-51285844D01*
X137165220Y-51296830D01*
X137150137Y-51304969D01*
X137123218Y-51317208D01*
X137116416Y-51323069D01*
X137103765Y-51333970D01*
X137088761Y-51345073D01*
X137067042Y-51358776D01*
X137061103Y-51365501D01*
X137061099Y-51365504D01*
X137047468Y-51380938D01*
X137035276Y-51392982D01*
X137019673Y-51406427D01*
X137019671Y-51406430D01*
X137012873Y-51412287D01*
X137007993Y-51419816D01*
X137007992Y-51419817D01*
X136998906Y-51433835D01*
X136987615Y-51448709D01*
X136976852Y-51460897D01*
X136970622Y-51467951D01*
X136964312Y-51481391D01*
X136958058Y-51494711D01*
X136949737Y-51509691D01*
X136938529Y-51526983D01*
X136938527Y-51526988D01*
X136933648Y-51534515D01*
X136931078Y-51543108D01*
X136931076Y-51543113D01*
X136926289Y-51559120D01*
X136919628Y-51576564D01*
X136912533Y-51591676D01*
X136908719Y-51599800D01*
X136907338Y-51608667D01*
X136907338Y-51608668D01*
X136904170Y-51629015D01*
X136900387Y-51645732D01*
X136894485Y-51665466D01*
X136894484Y-51665472D01*
X136891914Y-51674066D01*
X136891859Y-51683037D01*
X136891859Y-51683038D01*
X136891704Y-51708497D01*
X136891671Y-51709289D01*
X136891500Y-51710386D01*
X136891500Y-51741377D01*
X136891498Y-51742147D01*
X136891024Y-51819721D01*
X136891408Y-51821065D01*
X136891500Y-51822410D01*
X136891500Y-65741377D01*
X136891498Y-65742147D01*
X136891024Y-65819721D01*
X136088863Y-65819721D01*
X135972414Y-65766775D01*
X135661037Y-65668300D01*
X135443492Y-65627390D01*
X135343809Y-65608645D01*
X135343807Y-65608645D01*
X135340086Y-65607945D01*
X135014208Y-65586586D01*
X135010428Y-65586794D01*
X135010427Y-65586794D01*
X134912897Y-65592162D01*
X134688124Y-65604532D01*
X134684397Y-65605193D01*
X134684393Y-65605193D01*
X134527341Y-65633027D01*
X134366557Y-65661522D01*
X134362941Y-65662624D01*
X134362933Y-65662626D01*
X134057789Y-65755627D01*
X134054167Y-65756731D01*
X133755477Y-65888781D01*
X133682980Y-65931912D01*
X133478074Y-66053817D01*
X133478068Y-66053821D01*
X133474814Y-66055757D01*
X133471812Y-66058073D01*
X133223542Y-66249613D01*
X133216244Y-66255243D01*
X133038209Y-66430504D01*
X133022893Y-66445581D01*
X132960316Y-66479116D01*
X132889542Y-66473495D01*
X132833042Y-66430504D01*
X132808754Y-66363791D01*
X132808500Y-66355789D01*
X132808500Y-63758623D01*
X132808502Y-63757853D01*
X132808800Y-63709102D01*
X132808976Y-63680279D01*
X132800850Y-63651847D01*
X132797272Y-63635085D01*
X132794352Y-63614698D01*
X132793080Y-63605813D01*
X132782451Y-63582436D01*
X132776004Y-63564913D01*
X132771416Y-63548862D01*
X132768949Y-63540229D01*
X132764156Y-63532632D01*
X132753170Y-63515220D01*
X132745030Y-63500135D01*
X132742564Y-63494711D01*
X132732792Y-63473218D01*
X132716030Y-63453765D01*
X132704927Y-63438761D01*
X132691224Y-63417042D01*
X132684499Y-63411103D01*
X132684496Y-63411099D01*
X132669062Y-63397468D01*
X132657018Y-63385276D01*
X132643573Y-63369673D01*
X132643570Y-63369671D01*
X132637713Y-63362873D01*
X132624009Y-63353990D01*
X132616165Y-63348906D01*
X132601291Y-63337615D01*
X132588783Y-63326569D01*
X132588782Y-63326568D01*
X132582049Y-63320622D01*
X132555287Y-63308057D01*
X132540309Y-63299737D01*
X132523017Y-63288529D01*
X132523012Y-63288527D01*
X132515485Y-63283648D01*
X132506892Y-63281078D01*
X132506887Y-63281076D01*
X132490880Y-63276289D01*
X132473436Y-63269628D01*
X132458324Y-63262533D01*
X132458322Y-63262532D01*
X132450200Y-63258719D01*
X132441333Y-63257338D01*
X132441332Y-63257338D01*
X132430478Y-63255648D01*
X132420983Y-63254170D01*
X132404268Y-63250387D01*
X132384534Y-63244485D01*
X132384528Y-63244484D01*
X132375934Y-63241914D01*
X132366963Y-63241859D01*
X132366962Y-63241859D01*
X132356903Y-63241798D01*
X132341494Y-63241704D01*
X132340711Y-63241671D01*
X132339614Y-63241500D01*
X132308623Y-63241500D01*
X132307853Y-63241498D01*
X132234215Y-63241048D01*
X132234214Y-63241048D01*
X132230279Y-63241024D01*
X132228935Y-63241408D01*
X132227590Y-63241500D01*
X118308623Y-63241500D01*
X118307853Y-63241498D01*
X118307037Y-63241493D01*
X118230279Y-63241024D01*
X118207918Y-63247415D01*
X118201847Y-63249150D01*
X118185085Y-63252728D01*
X118155813Y-63256920D01*
X118147645Y-63260634D01*
X118147644Y-63260634D01*
X118132438Y-63267548D01*
X118114914Y-63273996D01*
X118090229Y-63281051D01*
X118082635Y-63285843D01*
X118082632Y-63285844D01*
X118065220Y-63296830D01*
X118050137Y-63304969D01*
X118023218Y-63317208D01*
X118016416Y-63323069D01*
X118003765Y-63333970D01*
X117988761Y-63345073D01*
X117967042Y-63358776D01*
X117961103Y-63365501D01*
X117961099Y-63365504D01*
X117947468Y-63380938D01*
X117935276Y-63392982D01*
X117919673Y-63406427D01*
X117919671Y-63406430D01*
X117912873Y-63412287D01*
X117907993Y-63419816D01*
X117907992Y-63419817D01*
X117898906Y-63433835D01*
X117887615Y-63448709D01*
X117876569Y-63461217D01*
X117870622Y-63467951D01*
X117864312Y-63481391D01*
X117858058Y-63494711D01*
X117849737Y-63509691D01*
X117838529Y-63526983D01*
X117838527Y-63526988D01*
X117833648Y-63534515D01*
X117831078Y-63543108D01*
X117831076Y-63543113D01*
X117826289Y-63559120D01*
X117819628Y-63576564D01*
X117812533Y-63591676D01*
X117808719Y-63599800D01*
X117807338Y-63608667D01*
X117807338Y-63608668D01*
X117804170Y-63629015D01*
X117800387Y-63645732D01*
X117794485Y-63665466D01*
X117794484Y-63665472D01*
X117791914Y-63674066D01*
X117791859Y-63683037D01*
X117791859Y-63683038D01*
X117791704Y-63708497D01*
X117791671Y-63709289D01*
X117791500Y-63710386D01*
X117791500Y-63741377D01*
X117791498Y-63742147D01*
X117791024Y-63819721D01*
X117791408Y-63821065D01*
X117791500Y-63822410D01*
X117791500Y-77741377D01*
X117791498Y-77742147D01*
X117791024Y-77819721D01*
X113758500Y-77819721D01*
X113758500Y-69758623D01*
X113758502Y-69757853D01*
X113758800Y-69709102D01*
X113758976Y-69680279D01*
X113750850Y-69651847D01*
X113747272Y-69635085D01*
X113744352Y-69614698D01*
X113743080Y-69605813D01*
X113732451Y-69582436D01*
X113726004Y-69564913D01*
X113721416Y-69548862D01*
X113718949Y-69540229D01*
X113714156Y-69532632D01*
X113703170Y-69515220D01*
X113695030Y-69500135D01*
X113692564Y-69494711D01*
X113682792Y-69473218D01*
X113666030Y-69453765D01*
X113654927Y-69438761D01*
X113641224Y-69417042D01*
X113634499Y-69411103D01*
X113634496Y-69411099D01*
X113619062Y-69397468D01*
X113607018Y-69385276D01*
X113593573Y-69369673D01*
X113593570Y-69369671D01*
X113587713Y-69362873D01*
X113574009Y-69353990D01*
X113566165Y-69348906D01*
X113551291Y-69337615D01*
X113538783Y-69326569D01*
X113538782Y-69326568D01*
X113532049Y-69320622D01*
X113505287Y-69308057D01*
X113490309Y-69299737D01*
X113473017Y-69288529D01*
X113473012Y-69288527D01*
X113465485Y-69283648D01*
X113456892Y-69281078D01*
X113456887Y-69281076D01*
X113440880Y-69276289D01*
X113423436Y-69269628D01*
X113408324Y-69262533D01*
X113408322Y-69262532D01*
X113400200Y-69258719D01*
X113391333Y-69257338D01*
X113391332Y-69257338D01*
X113380478Y-69255648D01*
X113370983Y-69254170D01*
X113354268Y-69250387D01*
X113334534Y-69244485D01*
X113334528Y-69244484D01*
X113325934Y-69241914D01*
X113316963Y-69241859D01*
X113316962Y-69241859D01*
X113306903Y-69241798D01*
X113291494Y-69241704D01*
X113290711Y-69241671D01*
X113289614Y-69241500D01*
X113258623Y-69241500D01*
X113257853Y-69241498D01*
X113184215Y-69241048D01*
X113184214Y-69241048D01*
X113180279Y-69241024D01*
X113178935Y-69241408D01*
X113177590Y-69241500D01*
X99258623Y-69241500D01*
X99257853Y-69241498D01*
X99257037Y-69241493D01*
X99180279Y-69241024D01*
X99158838Y-69247152D01*
X99151847Y-69249150D01*
X99135085Y-69252728D01*
X99105813Y-69256920D01*
X99097645Y-69260634D01*
X99097644Y-69260634D01*
X99082438Y-69267548D01*
X99064914Y-69273996D01*
X99040229Y-69281051D01*
X99032635Y-69285843D01*
X99032632Y-69285844D01*
X99015220Y-69296830D01*
X99000137Y-69304969D01*
X98973218Y-69317208D01*
X98966416Y-69323069D01*
X98953765Y-69333970D01*
X98938761Y-69345073D01*
X98917042Y-69358776D01*
X98911103Y-69365501D01*
X98911099Y-69365504D01*
X98897468Y-69380938D01*
X98885276Y-69392982D01*
X98869673Y-69406427D01*
X98869671Y-69406430D01*
X98862873Y-69412287D01*
X98857993Y-69419816D01*
X98857992Y-69419817D01*
X98848906Y-69433835D01*
X98837615Y-69448709D01*
X98826569Y-69461217D01*
X98820622Y-69467951D01*
X98814312Y-69481391D01*
X98808058Y-69494711D01*
X98799737Y-69509691D01*
X98788529Y-69526983D01*
X98788527Y-69526988D01*
X98783648Y-69534515D01*
X98781078Y-69543108D01*
X98781076Y-69543113D01*
X98776289Y-69559120D01*
X98769628Y-69576564D01*
X98762533Y-69591676D01*
X98758719Y-69599800D01*
X98757338Y-69608667D01*
X98757338Y-69608668D01*
X98754170Y-69629015D01*
X98750387Y-69645732D01*
X98744485Y-69665466D01*
X98744484Y-69665472D01*
X98741914Y-69674066D01*
X98741859Y-69683037D01*
X98741859Y-69683038D01*
X98741704Y-69708497D01*
X98741671Y-69709289D01*
X98741500Y-69710386D01*
X98741500Y-69741377D01*
X98741498Y-69742147D01*
X98741024Y-69819721D01*
X98741408Y-69821065D01*
X98741500Y-69822410D01*
X98741500Y-83442978D01*
X98721498Y-83511099D01*
X98667842Y-83557592D01*
X98597568Y-83567696D01*
X98537494Y-83541928D01*
X98448603Y-83471852D01*
X98169705Y-83301945D01*
X98166261Y-83300379D01*
X98166257Y-83300377D01*
X98036763Y-83241500D01*
X97872414Y-83166775D01*
X97561037Y-83068300D01*
X97343492Y-83027390D01*
X97243809Y-83008645D01*
X97243807Y-83008645D01*
X97240086Y-83007945D01*
X96914208Y-82986586D01*
X96910428Y-82986794D01*
X96910427Y-82986794D01*
X96812897Y-82992162D01*
X96588124Y-83004532D01*
X96584397Y-83005193D01*
X96584393Y-83005193D01*
X96427340Y-83033027D01*
X96266557Y-83061522D01*
X96262941Y-83062624D01*
X96262933Y-83062626D01*
X95957789Y-83155627D01*
X95954167Y-83156731D01*
X95655477Y-83288781D01*
X95630041Y-83303914D01*
X95378074Y-83453817D01*
X95378068Y-83453821D01*
X95374814Y-83455757D01*
X95211465Y-83581781D01*
X95145313Y-83607554D01*
X95075727Y-83593472D01*
X95024801Y-83544004D01*
X95008500Y-83482019D01*
X95008500Y-81508623D01*
X95008502Y-81507853D01*
X95008800Y-81459102D01*
X95008976Y-81430279D01*
X95000850Y-81401847D01*
X94997272Y-81385085D01*
X94994352Y-81364698D01*
X94993080Y-81355813D01*
X94982451Y-81332436D01*
X94976004Y-81314913D01*
X94971416Y-81298862D01*
X94968949Y-81290229D01*
X94964156Y-81282632D01*
X94953170Y-81265220D01*
X94945030Y-81250135D01*
X94942564Y-81244711D01*
X94932792Y-81223218D01*
X94916030Y-81203765D01*
X94904927Y-81188761D01*
X94891224Y-81167042D01*
X94884499Y-81161103D01*
X94884496Y-81161099D01*
X94869062Y-81147468D01*
X94857018Y-81135276D01*
X94843573Y-81119673D01*
X94843570Y-81119671D01*
X94837713Y-81112873D01*
X94824009Y-81103990D01*
X94816165Y-81098906D01*
X94801291Y-81087615D01*
X94788783Y-81076569D01*
X94788782Y-81076568D01*
X94782049Y-81070622D01*
X94755287Y-81058057D01*
X94740309Y-81049737D01*
X94723017Y-81038529D01*
X94723012Y-81038527D01*
X94715485Y-81033648D01*
X94706892Y-81031078D01*
X94706887Y-81031076D01*
X94690880Y-81026289D01*
X94673436Y-81019628D01*
X94658324Y-81012533D01*
X94658322Y-81012532D01*
X94650200Y-81008719D01*
X94641333Y-81007338D01*
X94641332Y-81007338D01*
X94630478Y-81005648D01*
X94620983Y-81004170D01*
X94604268Y-81000387D01*
X94584534Y-80994485D01*
X94584528Y-80994484D01*
X94575934Y-80991914D01*
X94566963Y-80991859D01*
X94566962Y-80991859D01*
X94556903Y-80991798D01*
X94541494Y-80991704D01*
X94540711Y-80991671D01*
X94539614Y-80991500D01*
X94508623Y-80991500D01*
X94507853Y-80991498D01*
X94434215Y-80991048D01*
X94434214Y-80991048D01*
X94430279Y-80991024D01*
X94428935Y-80991408D01*
X94427590Y-80991500D01*
X80258623Y-80991500D01*
X80257853Y-80991498D01*
X80257037Y-80991493D01*
X80180279Y-80991024D01*
X80157918Y-80997415D01*
X80151847Y-80999150D01*
X80135085Y-81002728D01*
X80105813Y-81006920D01*
X80097645Y-81010634D01*
X80097644Y-81010634D01*
X80082438Y-81017548D01*
X80064914Y-81023996D01*
X80040229Y-81031051D01*
X80032635Y-81035843D01*
X80032632Y-81035844D01*
X80015220Y-81046830D01*
X80000137Y-81054969D01*
X79973218Y-81067208D01*
X79966416Y-81073069D01*
X79953765Y-81083970D01*
X79938761Y-81095073D01*
X79917042Y-81108776D01*
X79911103Y-81115501D01*
X79911099Y-81115504D01*
X79897468Y-81130938D01*
X79885276Y-81142982D01*
X79869673Y-81156427D01*
X79869671Y-81156430D01*
X79862873Y-81162287D01*
X79857993Y-81169816D01*
X79857992Y-81169817D01*
X79848906Y-81183835D01*
X79837615Y-81198709D01*
X79826569Y-81211217D01*
X79820622Y-81217951D01*
X79814312Y-81231391D01*
X79808058Y-81244711D01*
X79799737Y-81259691D01*
X79788529Y-81276983D01*
X79788527Y-81276988D01*
X79783648Y-81284515D01*
X79781078Y-81293108D01*
X79781076Y-81293113D01*
X79776289Y-81309120D01*
X79769628Y-81326564D01*
X79762533Y-81341676D01*
X79758719Y-81349800D01*
X79757338Y-81358667D01*
X79757338Y-81358668D01*
X79754170Y-81379015D01*
X79750387Y-81395732D01*
X79744485Y-81415466D01*
X79744484Y-81415472D01*
X79741914Y-81424066D01*
X79741859Y-81433037D01*
X79741859Y-81433038D01*
X79741704Y-81458497D01*
X79741671Y-81459289D01*
X79741500Y-81460386D01*
X79741500Y-81491377D01*
X79741498Y-81492147D01*
X79741024Y-81569721D01*
X79741408Y-81571065D01*
X79741500Y-81572410D01*
X79741500Y-95741377D01*
X79741498Y-95742147D01*
X79741024Y-95819721D01*
X78285939Y-95819721D01*
X78271486Y-76819721D01*
X79741024Y-76819721D01*
X79743491Y-76828352D01*
X79749150Y-76848153D01*
X79752728Y-76864915D01*
X79756920Y-76894187D01*
X79760634Y-76902355D01*
X79760634Y-76902356D01*
X79767548Y-76917562D01*
X79773996Y-76935086D01*
X79781051Y-76959771D01*
X79785843Y-76967365D01*
X79785844Y-76967368D01*
X79796830Y-76984780D01*
X79804969Y-76999863D01*
X79817208Y-77026782D01*
X79823069Y-77033584D01*
X79833970Y-77046235D01*
X79845073Y-77061239D01*
X79858776Y-77082958D01*
X79865501Y-77088897D01*
X79865504Y-77088901D01*
X79880938Y-77102532D01*
X79892982Y-77114724D01*
X79906427Y-77130327D01*
X79906430Y-77130329D01*
X79912287Y-77137127D01*
X79919816Y-77142007D01*
X79919817Y-77142008D01*
X79933835Y-77151094D01*
X79948709Y-77162385D01*
X79961217Y-77173431D01*
X79967951Y-77179378D01*
X79994711Y-77191942D01*
X80009691Y-77200263D01*
X80026983Y-77211471D01*
X80026988Y-77211473D01*
X80034515Y-77216352D01*
X80043108Y-77218922D01*
X80043113Y-77218924D01*
X80059120Y-77223711D01*
X80076564Y-77230372D01*
X80091676Y-77237467D01*
X80091678Y-77237468D01*
X80099800Y-77241281D01*
X80108667Y-77242662D01*
X80108668Y-77242662D01*
X80111353Y-77243080D01*
X80129017Y-77245830D01*
X80145732Y-77249613D01*
X80165466Y-77255515D01*
X80165472Y-77255516D01*
X80174066Y-77258086D01*
X80183037Y-77258141D01*
X80183038Y-77258141D01*
X80193097Y-77258202D01*
X80208506Y-77258296D01*
X80209289Y-77258329D01*
X80210386Y-77258500D01*
X80241377Y-77258500D01*
X80242147Y-77258502D01*
X80315785Y-77258952D01*
X80315786Y-77258952D01*
X80319721Y-77258976D01*
X80321065Y-77258592D01*
X80322410Y-77258500D01*
X94491377Y-77258500D01*
X94492148Y-77258502D01*
X94569721Y-77258976D01*
X94598152Y-77250850D01*
X94614915Y-77247272D01*
X94615753Y-77247152D01*
X94644187Y-77243080D01*
X94667564Y-77232451D01*
X94685087Y-77226004D01*
X94709771Y-77218949D01*
X94717365Y-77214157D01*
X94717368Y-77214156D01*
X94734780Y-77203170D01*
X94749865Y-77195030D01*
X94776782Y-77182792D01*
X94796235Y-77166030D01*
X94811239Y-77154927D01*
X94832958Y-77141224D01*
X94838897Y-77134499D01*
X94838901Y-77134496D01*
X94852532Y-77119062D01*
X94864724Y-77107018D01*
X94880327Y-77093573D01*
X94880329Y-77093570D01*
X94887127Y-77087713D01*
X94901094Y-77066165D01*
X94912385Y-77051291D01*
X94923431Y-77038783D01*
X94923432Y-77038782D01*
X94929378Y-77032049D01*
X94941943Y-77005287D01*
X94950263Y-76990309D01*
X94961471Y-76973017D01*
X94961473Y-76973012D01*
X94966352Y-76965485D01*
X94968922Y-76956892D01*
X94968924Y-76956887D01*
X94973711Y-76940880D01*
X94980372Y-76923436D01*
X94987467Y-76908324D01*
X94987468Y-76908322D01*
X94991281Y-76900200D01*
X94995830Y-76870983D01*
X94999613Y-76854268D01*
X95005515Y-76834534D01*
X95005516Y-76834528D01*
X95008086Y-76825934D01*
X95008296Y-76791494D01*
X95008329Y-76790711D01*
X95008500Y-76789614D01*
X95008500Y-76758623D01*
X95008502Y-76757853D01*
X95008952Y-76684215D01*
X95008952Y-76684214D01*
X95008976Y-76680279D01*
X95008592Y-76678935D01*
X95008500Y-76677590D01*
X95008500Y-64819721D01*
X98741024Y-64819721D01*
X98743491Y-64828352D01*
X98749150Y-64848153D01*
X98752728Y-64864915D01*
X98756920Y-64894187D01*
X98760634Y-64902355D01*
X98760634Y-64902356D01*
X98767548Y-64917562D01*
X98773996Y-64935086D01*
X98781051Y-64959771D01*
X98785843Y-64967365D01*
X98785844Y-64967368D01*
X98796830Y-64984780D01*
X98804969Y-64999863D01*
X98817208Y-65026782D01*
X98823069Y-65033584D01*
X98833970Y-65046235D01*
X98845073Y-65061239D01*
X98858776Y-65082958D01*
X98865501Y-65088897D01*
X98865504Y-65088901D01*
X98880938Y-65102532D01*
X98892982Y-65114724D01*
X98906427Y-65130327D01*
X98906430Y-65130329D01*
X98912287Y-65137127D01*
X98919816Y-65142007D01*
X98919817Y-65142008D01*
X98933835Y-65151094D01*
X98948709Y-65162385D01*
X98961217Y-65173431D01*
X98967951Y-65179378D01*
X98994711Y-65191942D01*
X99009691Y-65200263D01*
X99026983Y-65211471D01*
X99026988Y-65211473D01*
X99034515Y-65216352D01*
X99043108Y-65218922D01*
X99043113Y-65218924D01*
X99059120Y-65223711D01*
X99076564Y-65230372D01*
X99091676Y-65237467D01*
X99091678Y-65237468D01*
X99099800Y-65241281D01*
X99108667Y-65242662D01*
X99108668Y-65242662D01*
X99111353Y-65243080D01*
X99129017Y-65245830D01*
X99145732Y-65249613D01*
X99165466Y-65255515D01*
X99165472Y-65255516D01*
X99174066Y-65258086D01*
X99183037Y-65258141D01*
X99183038Y-65258141D01*
X99193097Y-65258202D01*
X99208506Y-65258296D01*
X99209289Y-65258329D01*
X99210386Y-65258500D01*
X99241377Y-65258500D01*
X99242147Y-65258502D01*
X99315785Y-65258952D01*
X99315786Y-65258952D01*
X99319721Y-65258976D01*
X99321065Y-65258592D01*
X99322410Y-65258500D01*
X113241377Y-65258500D01*
X113242148Y-65258502D01*
X113319721Y-65258976D01*
X113348152Y-65250850D01*
X113364915Y-65247272D01*
X113365753Y-65247152D01*
X113394187Y-65243080D01*
X113417564Y-65232451D01*
X113435087Y-65226004D01*
X113459771Y-65218949D01*
X113467365Y-65214157D01*
X113467368Y-65214156D01*
X113484780Y-65203170D01*
X113499865Y-65195030D01*
X113526782Y-65182792D01*
X113546235Y-65166030D01*
X113561239Y-65154927D01*
X113582958Y-65141224D01*
X113588897Y-65134499D01*
X113588901Y-65134496D01*
X113602532Y-65119062D01*
X113614724Y-65107018D01*
X113630327Y-65093573D01*
X113630329Y-65093570D01*
X113637127Y-65087713D01*
X113651094Y-65066165D01*
X113662385Y-65051291D01*
X113673431Y-65038783D01*
X113673432Y-65038782D01*
X113679378Y-65032049D01*
X113691943Y-65005287D01*
X113700263Y-64990309D01*
X113711471Y-64973017D01*
X113711473Y-64973012D01*
X113716352Y-64965485D01*
X113718922Y-64956892D01*
X113718924Y-64956887D01*
X113723711Y-64940880D01*
X113730372Y-64923436D01*
X113737467Y-64908324D01*
X113737468Y-64908322D01*
X113741281Y-64900200D01*
X113745830Y-64870983D01*
X113749613Y-64854268D01*
X113755515Y-64834534D01*
X113755516Y-64834528D01*
X113758086Y-64825934D01*
X113758296Y-64791494D01*
X113758329Y-64790711D01*
X113758500Y-64789614D01*
X113758500Y-64758623D01*
X113758502Y-64757853D01*
X113758952Y-64684215D01*
X113758952Y-64684214D01*
X113758976Y-64680279D01*
X113758592Y-64678935D01*
X113758500Y-64677590D01*
X113758500Y-58819721D01*
X117791024Y-58819721D01*
X117793491Y-58828352D01*
X117799150Y-58848153D01*
X117802728Y-58864915D01*
X117806920Y-58894187D01*
X117810634Y-58902355D01*
X117810634Y-58902356D01*
X117817548Y-58917562D01*
X117823996Y-58935086D01*
X117831051Y-58959771D01*
X117835843Y-58967365D01*
X117835844Y-58967368D01*
X117846830Y-58984780D01*
X117854969Y-58999863D01*
X117867208Y-59026782D01*
X117873069Y-59033584D01*
X117883970Y-59046235D01*
X117895073Y-59061239D01*
X117908776Y-59082958D01*
X117915501Y-59088897D01*
X117915504Y-59088901D01*
X117930938Y-59102532D01*
X117942982Y-59114724D01*
X117956427Y-59130327D01*
X117956430Y-59130329D01*
X117962287Y-59137127D01*
X117969816Y-59142007D01*
X117969817Y-59142008D01*
X117983835Y-59151094D01*
X117998709Y-59162385D01*
X118011217Y-59173431D01*
X118017951Y-59179378D01*
X118044711Y-59191942D01*
X118059691Y-59200263D01*
X118076983Y-59211471D01*
X118076988Y-59211473D01*
X118084515Y-59216352D01*
X118093108Y-59218922D01*
X118093113Y-59218924D01*
X118109120Y-59223711D01*
X118126564Y-59230372D01*
X118141676Y-59237467D01*
X118141678Y-59237468D01*
X118149800Y-59241281D01*
X118158667Y-59242662D01*
X118158668Y-59242662D01*
X118161353Y-59243080D01*
X118179017Y-59245830D01*
X118195732Y-59249613D01*
X118215466Y-59255515D01*
X118215472Y-59255516D01*
X118224066Y-59258086D01*
X118233037Y-59258141D01*
X118233038Y-59258141D01*
X118243097Y-59258202D01*
X118258506Y-59258296D01*
X118259289Y-59258329D01*
X118260386Y-59258500D01*
X118291377Y-59258500D01*
X118292147Y-59258502D01*
X118365785Y-59258952D01*
X118365786Y-59258952D01*
X118369721Y-59258976D01*
X118371065Y-59258592D01*
X118372410Y-59258500D01*
X132291377Y-59258500D01*
X132292148Y-59258502D01*
X132369721Y-59258976D01*
X132398152Y-59250850D01*
X132414915Y-59247272D01*
X132415753Y-59247152D01*
X132444187Y-59243080D01*
X132467564Y-59232451D01*
X132485087Y-59226004D01*
X132509771Y-59218949D01*
X132517365Y-59214157D01*
X132517368Y-59214156D01*
X132534780Y-59203170D01*
X132549865Y-59195030D01*
X132576782Y-59182792D01*
X132596235Y-59166030D01*
X132611239Y-59154927D01*
X132632958Y-59141224D01*
X132638897Y-59134499D01*
X132638901Y-59134496D01*
X132652532Y-59119062D01*
X132664724Y-59107018D01*
X132680327Y-59093573D01*
X132680329Y-59093570D01*
X132687127Y-59087713D01*
X132701094Y-59066165D01*
X132712385Y-59051291D01*
X132723431Y-59038783D01*
X132723432Y-59038782D01*
X132729378Y-59032049D01*
X132741943Y-59005287D01*
X132750263Y-58990309D01*
X132761471Y-58973017D01*
X132761473Y-58973012D01*
X132766352Y-58965485D01*
X132768922Y-58956892D01*
X132768924Y-58956887D01*
X132773711Y-58940880D01*
X132780372Y-58923436D01*
X132787467Y-58908324D01*
X132787468Y-58908322D01*
X132791281Y-58900200D01*
X132795830Y-58870983D01*
X132799613Y-58854268D01*
X132805515Y-58834534D01*
X132805516Y-58834528D01*
X132808086Y-58825934D01*
X132808296Y-58791494D01*
X132808329Y-58790711D01*
X132808500Y-58789614D01*
X132808500Y-58758623D01*
X132808502Y-58757853D01*
X132808952Y-58684215D01*
X132808952Y-58684214D01*
X132808976Y-58680279D01*
X132808592Y-58678935D01*
X132808500Y-58677590D01*
X132808500Y-44758623D01*
X132808502Y-44757853D01*
X132808800Y-44709102D01*
X132808976Y-44680279D01*
X132800850Y-44651847D01*
X132797272Y-44635085D01*
X132794352Y-44614698D01*
X132793080Y-44605813D01*
X132782451Y-44582436D01*
X132776004Y-44564913D01*
X132771416Y-44548862D01*
X132768949Y-44540229D01*
X132761199Y-44527946D01*
X132753170Y-44515220D01*
X132745030Y-44500135D01*
X132742564Y-44494711D01*
X132732792Y-44473218D01*
X132716030Y-44453765D01*
X132704927Y-44438761D01*
X132691224Y-44417042D01*
X132684499Y-44411103D01*
X132684496Y-44411099D01*
X132669062Y-44397468D01*
X132657018Y-44385276D01*
X132643573Y-44369673D01*
X132643570Y-44369671D01*
X132637713Y-44362873D01*
X132624009Y-44353990D01*
X132616165Y-44348906D01*
X132601291Y-44337615D01*
X132588783Y-44326569D01*
X132588782Y-44326568D01*
X132582049Y-44320622D01*
X132555287Y-44308057D01*
X132540309Y-44299737D01*
X132523017Y-44288529D01*
X132523012Y-44288527D01*
X132515485Y-44283648D01*
X132506892Y-44281078D01*
X132506887Y-44281076D01*
X132490880Y-44276289D01*
X132473436Y-44269628D01*
X132458324Y-44262533D01*
X132458322Y-44262532D01*
X132450200Y-44258719D01*
X132441333Y-44257338D01*
X132441332Y-44257338D01*
X132430478Y-44255648D01*
X132420983Y-44254170D01*
X132404268Y-44250387D01*
X132384534Y-44244485D01*
X132384528Y-44244484D01*
X132375934Y-44241914D01*
X132366963Y-44241859D01*
X132366962Y-44241859D01*
X132356903Y-44241798D01*
X132341494Y-44241704D01*
X132340711Y-44241671D01*
X132339614Y-44241500D01*
X132308623Y-44241500D01*
X132307853Y-44241498D01*
X132234215Y-44241048D01*
X132234214Y-44241048D01*
X132230279Y-44241024D01*
X132228935Y-44241408D01*
X132227590Y-44241500D01*
X118308623Y-44241500D01*
X118307853Y-44241498D01*
X118307037Y-44241493D01*
X118230279Y-44241024D01*
X118207918Y-44247415D01*
X118201847Y-44249150D01*
X118185085Y-44252728D01*
X118155813Y-44256920D01*
X118147645Y-44260634D01*
X118147644Y-44260634D01*
X118132438Y-44267548D01*
X118114914Y-44273996D01*
X118090229Y-44281051D01*
X118082635Y-44285843D01*
X118082632Y-44285844D01*
X118065220Y-44296830D01*
X118050137Y-44304969D01*
X118023218Y-44317208D01*
X118016416Y-44323069D01*
X118003765Y-44333970D01*
X117988761Y-44345073D01*
X117967042Y-44358776D01*
X117961103Y-44365501D01*
X117961099Y-44365504D01*
X117947468Y-44380938D01*
X117935276Y-44392982D01*
X117919673Y-44406427D01*
X117919671Y-44406430D01*
X117912873Y-44412287D01*
X117907993Y-44419816D01*
X117907992Y-44419817D01*
X117898906Y-44433835D01*
X117887615Y-44448709D01*
X117876569Y-44461217D01*
X117870622Y-44467951D01*
X117864312Y-44481391D01*
X117858058Y-44494711D01*
X117849737Y-44509691D01*
X117838529Y-44526983D01*
X117838527Y-44526988D01*
X117833648Y-44534515D01*
X117831078Y-44543108D01*
X117831076Y-44543113D01*
X117826289Y-44559120D01*
X117819628Y-44576564D01*
X117812533Y-44591676D01*
X117808719Y-44599800D01*
X117807338Y-44608667D01*
X117807338Y-44608668D01*
X117804170Y-44629015D01*
X117800387Y-44645732D01*
X117794485Y-44665466D01*
X117794484Y-44665472D01*
X117791914Y-44674066D01*
X117791859Y-44683037D01*
X117791859Y-44683038D01*
X117791704Y-44708497D01*
X117791671Y-44709289D01*
X117791500Y-44710386D01*
X117791500Y-44741377D01*
X117791498Y-44742147D01*
X117791024Y-44819721D01*
X117791408Y-44821065D01*
X117791500Y-44822410D01*
X117791500Y-58741377D01*
X117791498Y-58742113D01*
X117791024Y-58819721D01*
X113758500Y-58819721D01*
X113758500Y-50758623D01*
X113758502Y-50757853D01*
X113758800Y-50709102D01*
X113758976Y-50680279D01*
X113750850Y-50651847D01*
X113747272Y-50635085D01*
X113744352Y-50614698D01*
X113743080Y-50605813D01*
X113732451Y-50582436D01*
X113726004Y-50564913D01*
X113721416Y-50548862D01*
X113718949Y-50540229D01*
X113714156Y-50532632D01*
X113703170Y-50515220D01*
X113695030Y-50500135D01*
X113692564Y-50494711D01*
X113682792Y-50473218D01*
X113666030Y-50453765D01*
X113654927Y-50438761D01*
X113641224Y-50417042D01*
X113634499Y-50411103D01*
X113634496Y-50411099D01*
X113619062Y-50397468D01*
X113607018Y-50385276D01*
X113593573Y-50369673D01*
X113593570Y-50369671D01*
X113587713Y-50362873D01*
X113574009Y-50353990D01*
X113566165Y-50348906D01*
X113551291Y-50337615D01*
X113538783Y-50326569D01*
X113538782Y-50326568D01*
X113532049Y-50320622D01*
X113505287Y-50308057D01*
X113490309Y-50299737D01*
X113473017Y-50288529D01*
X113473012Y-50288527D01*
X113465485Y-50283648D01*
X113456892Y-50281078D01*
X113456887Y-50281076D01*
X113440880Y-50276289D01*
X113423436Y-50269628D01*
X113408324Y-50262533D01*
X113408322Y-50262532D01*
X113400200Y-50258719D01*
X113391333Y-50257338D01*
X113391332Y-50257338D01*
X113380478Y-50255648D01*
X113370983Y-50254170D01*
X113354268Y-50250387D01*
X113334534Y-50244485D01*
X113334528Y-50244484D01*
X113325934Y-50241914D01*
X113316963Y-50241859D01*
X113316962Y-50241859D01*
X113306903Y-50241798D01*
X113291494Y-50241704D01*
X113290711Y-50241671D01*
X113289614Y-50241500D01*
X113258623Y-50241500D01*
X113257853Y-50241498D01*
X113184215Y-50241048D01*
X113184214Y-50241048D01*
X113180279Y-50241024D01*
X113178935Y-50241408D01*
X113177590Y-50241500D01*
X99258623Y-50241500D01*
X99257853Y-50241498D01*
X99257037Y-50241493D01*
X99180279Y-50241024D01*
X99157918Y-50247415D01*
X99151847Y-50249150D01*
X99135085Y-50252728D01*
X99105813Y-50256920D01*
X99097645Y-50260634D01*
X99097644Y-50260634D01*
X99082438Y-50267548D01*
X99064914Y-50273996D01*
X99040229Y-50281051D01*
X99032635Y-50285843D01*
X99032632Y-50285844D01*
X99015220Y-50296830D01*
X99000137Y-50304969D01*
X98973218Y-50317208D01*
X98966416Y-50323069D01*
X98953765Y-50333970D01*
X98938761Y-50345073D01*
X98917042Y-50358776D01*
X98911103Y-50365501D01*
X98911099Y-50365504D01*
X98897468Y-50380938D01*
X98885276Y-50392982D01*
X98869673Y-50406427D01*
X98869671Y-50406430D01*
X98862873Y-50412287D01*
X98857993Y-50419816D01*
X98857992Y-50419817D01*
X98848906Y-50433835D01*
X98837615Y-50448709D01*
X98827249Y-50460447D01*
X98820622Y-50467951D01*
X98814312Y-50481391D01*
X98808058Y-50494711D01*
X98799737Y-50509691D01*
X98788529Y-50526983D01*
X98788527Y-50526988D01*
X98783648Y-50534515D01*
X98781078Y-50543108D01*
X98781076Y-50543113D01*
X98776289Y-50559120D01*
X98769628Y-50576564D01*
X98762533Y-50591676D01*
X98758719Y-50599800D01*
X98757338Y-50608667D01*
X98757338Y-50608668D01*
X98754170Y-50629015D01*
X98750387Y-50645732D01*
X98744485Y-50665466D01*
X98744484Y-50665472D01*
X98741914Y-50674066D01*
X98741859Y-50683037D01*
X98741859Y-50683038D01*
X98741704Y-50708497D01*
X98741671Y-50709289D01*
X98741500Y-50710386D01*
X98741500Y-50741377D01*
X98741498Y-50742147D01*
X98741024Y-50819721D01*
X98741408Y-50821065D01*
X98741500Y-50822410D01*
X98741500Y-64741377D01*
X98741498Y-64742147D01*
X98741024Y-64819721D01*
X95008500Y-64819721D01*
X95008500Y-62508623D01*
X95008502Y-62507853D01*
X95008800Y-62459102D01*
X95008976Y-62430279D01*
X95000850Y-62401847D01*
X94997272Y-62385085D01*
X94994352Y-62364698D01*
X94993080Y-62355813D01*
X94982451Y-62332436D01*
X94976004Y-62314913D01*
X94971416Y-62298862D01*
X94968949Y-62290229D01*
X94964156Y-62282632D01*
X94953170Y-62265220D01*
X94945030Y-62250135D01*
X94942564Y-62244711D01*
X94932792Y-62223218D01*
X94916030Y-62203765D01*
X94904927Y-62188761D01*
X94891224Y-62167042D01*
X94884499Y-62161103D01*
X94884496Y-62161099D01*
X94869062Y-62147468D01*
X94857018Y-62135276D01*
X94843573Y-62119673D01*
X94843570Y-62119671D01*
X94837713Y-62112873D01*
X94824009Y-62103990D01*
X94816165Y-62098906D01*
X94801291Y-62087615D01*
X94788783Y-62076569D01*
X94788782Y-62076568D01*
X94782049Y-62070622D01*
X94755287Y-62058057D01*
X94740309Y-62049737D01*
X94723017Y-62038529D01*
X94723012Y-62038527D01*
X94715485Y-62033648D01*
X94706892Y-62031078D01*
X94706887Y-62031076D01*
X94690880Y-62026289D01*
X94673436Y-62019628D01*
X94658324Y-62012533D01*
X94658322Y-62012532D01*
X94650200Y-62008719D01*
X94641333Y-62007338D01*
X94641332Y-62007338D01*
X94630478Y-62005648D01*
X94620983Y-62004170D01*
X94604268Y-62000387D01*
X94584534Y-61994485D01*
X94584528Y-61994484D01*
X94575934Y-61991914D01*
X94566963Y-61991859D01*
X94566962Y-61991859D01*
X94556903Y-61991798D01*
X94541494Y-61991704D01*
X94540711Y-61991671D01*
X94539614Y-61991500D01*
X94508623Y-61991500D01*
X94507853Y-61991498D01*
X94434215Y-61991048D01*
X94434214Y-61991048D01*
X94430279Y-61991024D01*
X94428935Y-61991408D01*
X94427590Y-61991500D01*
X80258623Y-61991500D01*
X80257853Y-61991498D01*
X80257037Y-61991493D01*
X80180279Y-61991024D01*
X80157918Y-61997415D01*
X80151847Y-61999150D01*
X80135085Y-62002728D01*
X80105813Y-62006920D01*
X80097645Y-62010634D01*
X80097644Y-62010634D01*
X80082438Y-62017548D01*
X80064914Y-62023996D01*
X80040229Y-62031051D01*
X80032635Y-62035843D01*
X80032632Y-62035844D01*
X80015220Y-62046830D01*
X80000137Y-62054969D01*
X79973218Y-62067208D01*
X79966416Y-62073069D01*
X79953765Y-62083970D01*
X79938761Y-62095073D01*
X79917042Y-62108776D01*
X79911103Y-62115501D01*
X79911099Y-62115504D01*
X79897468Y-62130938D01*
X79885276Y-62142982D01*
X79869673Y-62156427D01*
X79869671Y-62156430D01*
X79862873Y-62162287D01*
X79857993Y-62169816D01*
X79857992Y-62169817D01*
X79848906Y-62183835D01*
X79837615Y-62198709D01*
X79826569Y-62211217D01*
X79820622Y-62217951D01*
X79814312Y-62231391D01*
X79808058Y-62244711D01*
X79799737Y-62259691D01*
X79788529Y-62276983D01*
X79788527Y-62276988D01*
X79783648Y-62284515D01*
X79781078Y-62293108D01*
X79781076Y-62293113D01*
X79776289Y-62309120D01*
X79769628Y-62326564D01*
X79762533Y-62341676D01*
X79758719Y-62349800D01*
X79757338Y-62358667D01*
X79757338Y-62358668D01*
X79754170Y-62379015D01*
X79750387Y-62395732D01*
X79744485Y-62415466D01*
X79744484Y-62415472D01*
X79741914Y-62424066D01*
X79741859Y-62433037D01*
X79741859Y-62433038D01*
X79741704Y-62458497D01*
X79741671Y-62459289D01*
X79741500Y-62460386D01*
X79741500Y-62491377D01*
X79741498Y-62492147D01*
X79741024Y-62569721D01*
X79741408Y-62571065D01*
X79741500Y-62572410D01*
X79741500Y-76741377D01*
X79741498Y-76742147D01*
X79741024Y-76819721D01*
X78271486Y-76819721D01*
X78258294Y-59478612D01*
X78278244Y-59410477D01*
X78312718Y-59374821D01*
X78480584Y-59258952D01*
X79590654Y-58492726D01*
X79592752Y-58491309D01*
X80873020Y-57645258D01*
X81160975Y-57454966D01*
X81163110Y-57453585D01*
X82752057Y-56449047D01*
X82754145Y-56447758D01*
X84191353Y-55579267D01*
X84362940Y-55475579D01*
X84365131Y-55474285D01*
X85993205Y-54534806D01*
X85995421Y-54533556D01*
X87642231Y-53627091D01*
X87644473Y-53625887D01*
X89309150Y-52752915D01*
X89311415Y-52751756D01*
X90300048Y-52258500D01*
X90993443Y-51912546D01*
X90995687Y-51911455D01*
X92694334Y-51106375D01*
X92696575Y-51105340D01*
X93953903Y-50540229D01*
X94411190Y-50334700D01*
X94413522Y-50333681D01*
X96143177Y-49597896D01*
X96145528Y-49596923D01*
X97603527Y-49011178D01*
X97889853Y-48896148D01*
X97892150Y-48895252D01*
X99650211Y-48229867D01*
X99652547Y-48229010D01*
X100646907Y-47875454D01*
X101423703Y-47599256D01*
X101426109Y-47598428D01*
X102918201Y-47101602D01*
X103209600Y-47004574D01*
X103211980Y-47003809D01*
X105007055Y-46446105D01*
X105009492Y-46445374D01*
X106815523Y-45924015D01*
X106817909Y-45923352D01*
X107580355Y-45719838D01*
X108634114Y-45438566D01*
X108636579Y-45437935D01*
X110462099Y-44989948D01*
X110464576Y-44989366D01*
X112298863Y-44578313D01*
X112301352Y-44577782D01*
X114143498Y-44203867D01*
X114145997Y-44203386D01*
X115995349Y-43866742D01*
X115997856Y-43866312D01*
X117561165Y-43614237D01*
X117853600Y-43567083D01*
X117856096Y-43566707D01*
X119717540Y-43305009D01*
X119720065Y-43304680D01*
X120084230Y-43260962D01*
X121586406Y-43080626D01*
X121588899Y-43080352D01*
X123459446Y-42894025D01*
X123461956Y-42893801D01*
X124040617Y-42847940D01*
X125335767Y-42745294D01*
X125338306Y-42745118D01*
X127214810Y-42634475D01*
X127217351Y-42634351D01*
X129095709Y-42561624D01*
X129098253Y-42561552D01*
X130474660Y-42536079D01*
X130977603Y-42526771D01*
X130980127Y-42526749D01*
X131728342Y-42528014D01*
G37*
G04 #@! TD.AperFunction*
M02*
